<svg width="24" height="24" viewBox="0 0 24 24" fill="none" xmlns="http://www.w3.org/2000/svg">
<path d="M21 4H3C1.895 4 1 4.895 1 6V10C2.105 10 3 10.895 3 12C3 13.105 2.105 14 1 14V18C1 19.105 1.895 20 3 20H21C22.105 20 23 19.105 23 18V14C21.895 14 21 13.105 21 12C21 10.895 21.895 10 23 10V6C23 4.895 22.105 4 21 4Z" fill="url(#paint0_linear)"/>
<mask id="mask0" mask-type="alpha" maskUnits="userSpaceOnUse" x="1" y="4" width="22" height="16">
<path d="M21 4H3C1.895 4 1 4.895 1 6V10C2.105 10 3 10.895 3 12C3 13.105 2.105 14 1 14V18C1 19.105 1.895 20 3 20H21C22.105 20 23 19.105 23 18V14C21.895 14 21 13.105 21 12C21 10.895 21.895 10 23 10V6C23 4.895 22.105 4 21 4Z" fill="url(#paint1_linear)"/>
</mask>
<g mask="url(#mask0)">
<path opacity="0.91" d="M30.9471 12.3548H30.9882V22H-0.73597V21.9822C-1.45323 21.8751 -2 21.2507 -2 20.4955C-2 19.663 -1.33565 18.9911 -0.51256 18.9911C-0.465526 18.9911 -0.418492 18.9911 -0.371459 18.997C-0.0304644 18.5332 0.510423 18.2299 1.12774 18.2299C1.22769 18.2299 1.32763 18.2359 1.4217 18.2537C1.38055 18.0634 1.36291 17.8672 1.36291 17.665C1.36291 16.1189 2.60342 14.8702 4.12614 14.8702C5.2961 14.8702 6.29556 15.6075 6.70123 16.6422C7.10102 16.3508 7.58899 16.1784 8.11812 16.1784C8.55318 16.1784 8.96472 16.2973 9.31748 16.4995C9.82897 15.1199 11.1459 14.1447 12.6804 14.1447C13.8327 14.1447 14.8557 14.6918 15.5142 15.5421C15.5906 14.6026 16.3196 13.8533 17.2427 13.7522C17.5131 12.6997 18.4596 11.9207 19.5885 11.9207C20.923 11.9207 22.0107 13.0149 22.0107 14.3707V14.3766C22.2223 14.3171 22.4399 14.2874 22.6692 14.2874C22.9161 14.2874 23.1513 14.3231 23.3805 14.3885C23.9449 13.1278 25.1972 12.2478 26.6553 12.2478C26.8199 12.2478 26.9845 12.2597 27.1491 12.2834C27.1315 12.1764 27.1197 12.0694 27.1197 11.9623C27.1197 10.8801 27.9898 10 29.0599 10C30.1299 10 31 10.8801 31 11.9623C30.9882 12.0932 30.9765 12.2299 30.9471 12.3548Z" fill="url(#paint2_linear)" fill-opacity="0.7"/>
</g>
<path d="M15.7333 8.267C15.3769 7.91056 14.8 7.91144 14.4444 8.267L13.1556 9.55589L9.53333 8.51144L8.88889 9.15589L11.2222 11.4892L10.3884 12.323L8.65422 11.7452L8 12.3994L11.5973 16.0003L12.2533 15.3443L11.6773 13.6119L12.5111 12.7781L14.8427 15.1097L15.4871 14.4652L14.4444 10.8448L15.7333 9.55589C16.0889 9.20033 16.0889 8.62344 15.7333 8.267Z" fill="white"/>
<circle opacity="0.3" cx="6" cy="9" r="1" fill="#F4546C"/>
<defs>
<linearGradient id="paint0_linear" x1="0.315789" y1="4" x2="23.7023" y2="22.2076" gradientUnits="userSpaceOnUse">
<stop stop-color="#FC414E"/>
<stop offset="1" stop-color="#FA5420"/>
</linearGradient>
<linearGradient id="paint1_linear" x1="0.315789" y1="4" x2="23.7023" y2="22.2076" gradientUnits="userSpaceOnUse">
<stop stop-color="#FC414E"/>
<stop offset="1" stop-color="#FA5420"/>
</linearGradient>
<linearGradient id="paint2_linear" x1="14.5036" y1="22.0005" x2="14.5036" y2="10" gradientUnits="userSpaceOnUse">
<stop stop-color="#FB4931"/>
<stop offset="1" stop-color="#F8B551"/>
</linearGradient>
</defs>
</svg>
