<svg width="24" height="24" viewBox="0 0 24 24" fill="none" xmlns="http://www.w3.org/2000/svg">
<path fill-rule="evenodd" clip-rule="evenodd" d="M5 5H19C20.1046 5 21 5.89543 21 7V11H3V7C3 5.89543 3.89543 5 5 5Z" fill="url(#paint0_linear)"/>
<path d="M3 7C3 5.89543 3.89543 5 5 5H19C20.1046 5 21 5.89543 21 7V19C21 20.1046 20.1046 21 19 21H5C3.89543 21 3 20.1046 3 19V7Z" fill="url(#paint1_linear)"/>
<rect x="5" y="9" width="14" height="10" rx="1" fill="url(#paint2_linear)"/>
<path d="M9 11H7V13H9V11Z" fill="#F44336"/>
<path fill-rule="evenodd" clip-rule="evenodd" d="M13 11H11V13H13V11ZM9 15H7V17H9V15ZM11 15H13V17H11V15ZM17 11H15V13H17V11ZM15 15H17V17H15V15Z" fill="url(#paint3_linear)"/>
<path d="M8 4C8 3.44772 7.55228 3 7 3C6.44772 3 6 3.44772 6 4V6C6 6.55228 6.44772 7 7 7C7.55228 7 8 6.55228 8 6V4Z" fill="black"/>
<path d="M18 4C18 3.44772 17.5523 3 17 3C16.4477 3 16 3.44772 16 4V6C16 6.55228 16.4477 7 17 7C17.5523 7 18 6.55228 18 6V4Z" fill="black"/>
<circle cx="18.5" cy="18.5" r="4.5" fill="url(#paint4_linear)"/>
<rect x="18" y="16" width="1" height="5" fill="white"/>
<rect x="16" y="18" width="5" height="1" fill="white"/>
<defs>
<linearGradient id="paint0_linear" x1="3" y1="8" x2="27.8944" y2="10.6453" gradientUnits="userSpaceOnUse">
<stop stop-color="#F44336"/>
<stop offset="1" stop-color="#F47A36"/>
</linearGradient>
<linearGradient id="paint1_linear" x1="3.23684" y1="5" x2="22.9163" y2="17.9275" gradientUnits="userSpaceOnUse">
<stop stop-color="#FC414E"/>
<stop offset="1" stop-color="#FA5420"/>
</linearGradient>
<linearGradient id="paint2_linear" x1="5.61765" y1="5.875" x2="13.5821" y2="19.7524" gradientUnits="userSpaceOnUse">
<stop stop-color="#FFECF0"/>
<stop offset="1" stop-color="#D9E5F7"/>
</linearGradient>
<linearGradient id="paint3_linear" x1="7" y1="11" x2="15.6034" y2="18.5843" gradientUnits="userSpaceOnUse">
<stop stop-color="#DFCBCD"/>
<stop offset="1" stop-color="#97ADC9"/>
</linearGradient>
<linearGradient id="paint4_linear" x1="14" y1="14" x2="23" y2="23" gradientUnits="userSpaceOnUse">
<stop stop-color="#32D69B"/>
<stop offset="1" stop-color="#32D6CC"/>
</linearGradient>
</defs>
</svg>
