<svg width="48" height="48" viewBox="0 0 48 48" fill="none" xmlns="http://www.w3.org/2000/svg">
<path d="M27.91 15.0002C29.2645 15.0134 30.5591 15.5608 31.5122 16.5233C32.4654 17.4858 33.0001 18.7857 33 20.1402V39.1402C33.0052 39.9202 33.1649 40.6913 33.47 41.4091C33.7751 42.1269 34.2195 42.777 34.7775 43.322C35.3354 43.8669 35.9959 44.2958 36.7207 44.5839C37.4455 44.872 38.2202 45.0135 39 45.0002H9C8.21683 45.0135 7.43885 44.8707 6.71145 44.5802C5.98404 44.2896 5.32178 43.8571 4.76327 43.3079C4.20477 42.7587 3.76122 42.1038 3.45848 41.3814C3.15575 40.659 2.99989 39.8835 3 39.1002V20.1002C3.00523 19.4244 3.14369 18.7562 3.40748 18.1339C3.67126 17.5117 4.05517 16.9475 4.53724 16.4738C5.01932 16.0001 5.59008 15.6261 6.21687 15.3733C6.84366 15.1204 7.51416 14.9936 8.19 15.0002H27.91Z" fill="url(#paint0_linear)"/>
<path d="M20.14 6C18.7768 6 17.4694 6.54153 16.5054 7.50547C15.5415 8.46941 15 9.77679 15 11.14V39.14C14.9894 40.6978 14.3631 42.1883 13.2578 43.2861C12.1525 44.3839 10.6578 45 9.09998 45H39.1C40.6648 45 42.1654 44.3784 43.2719 43.2719C44.3784 42.1655 45 40.6648 45 39.1V11.1C44.9894 9.74373 44.4432 8.4466 43.4804 7.4913C42.5176 6.536 41.2163 5.99996 39.86 6H20.14Z" fill="url(#paint1_linear)"/>
<path d="M33 39.1V20.1C32.9896 18.7523 32.4503 17.4627 31.4982 16.5088C30.5462 15.5549 29.2576 15.0131 27.91 15H15V39.1C15 40.6648 14.3784 42.1655 13.2719 43.2719C12.1654 44.3784 10.6648 45 9.09998 45H39C38.2168 45.0133 37.4388 44.8705 36.7114 44.5799C35.984 44.2894 35.3218 43.8569 34.7633 43.3077C34.2047 42.7585 33.7612 42.1036 33.4585 41.3812C33.1557 40.6588 32.9999 39.8833 33 39.1Z" fill="url(#paint2_linear)"/>
<path d="M22.71 21H33V20.14C33.0001 18.7854 32.4654 17.4855 31.5122 16.523C30.5591 15.5605 29.2645 15.0132 27.91 15H21V19.29C21 19.7435 21.1802 20.1785 21.5008 20.4992C21.8215 20.8198 22.2565 21 22.71 21Z" fill="url(#paint3_linear)"/>
<path d="M37.3 12H22.71C21.7656 12 21 12.7656 21 13.71V19.29C21 20.2344 21.7656 21 22.71 21H37.3C38.2444 21 39.01 20.2344 39.01 19.29V13.71C39.01 12.7656 38.2444 12 37.3 12Z" fill="url(#paint4_linear)"/>
<path d="M32.25 39H21.75C21.5511 39 21.3603 38.921 21.2197 38.7803C21.079 38.6397 21 38.4489 21 38.25C21 38.0511 21.079 37.8603 21.2197 37.7197C21.3603 37.579 21.5511 37.5 21.75 37.5H32.25C32.4489 37.5 32.6397 37.579 32.7803 37.7197C32.921 37.8603 33 38.0511 33 38.25C33 38.4489 32.921 38.6397 32.7803 38.7803C32.6397 38.921 32.4489 39 32.25 39Z" fill="url(#paint5_linear)"/>
<path d="M31.5 26.25C31.5 26.0511 31.421 25.8603 31.2803 25.7197C31.1397 25.579 30.9489 25.5 30.75 25.5H21.75C21.5511 25.5 21.3603 25.579 21.2197 25.7197C21.079 25.8603 21 26.0511 21 26.25C21 26.4489 21.079 26.6397 21.2197 26.7803C21.3603 26.921 21.5511 27 21.75 27H30.75C30.9489 27 31.1397 26.921 31.2803 26.7803C31.421 26.6397 31.5 26.4489 31.5 26.25Z" fill="url(#paint6_linear)"/>
<path d="M38.26 25.5H33.75C33.5511 25.5 33.3603 25.579 33.2197 25.7197C33.079 25.8603 33 26.0511 33 26.25C33 26.4489 33.079 26.6397 33.2197 26.7803C33.3603 26.921 33.5511 27 33.75 27H38.26C38.4589 27 38.6497 26.921 38.7903 26.7803C38.931 26.6397 39.01 26.4489 39.01 26.25C39.01 26.0511 38.931 25.8603 38.7903 25.7197C38.6497 25.579 38.4589 25.5 38.26 25.5Z" fill="url(#paint7_linear)"/>
<path d="M24 32.25C24 32.0511 23.921 31.8603 23.7803 31.7197C23.6397 31.579 23.4489 31.5 23.25 31.5H21.75C21.5511 31.5 21.3603 31.579 21.2197 31.7197C21.079 31.8603 21 32.0511 21 32.25C21 32.4489 21.079 32.6397 21.2197 32.7803C21.3603 32.921 21.5511 33 21.75 33H23.25C23.4489 33 23.6397 32.921 23.7803 32.7803C23.921 32.6397 24 32.4489 24 32.25Z" fill="#FFF5F3"/>
<path d="M38.26 31.5H26.26C26.0611 31.5 25.8703 31.579 25.7297 31.7197C25.589 31.8603 25.51 32.0511 25.51 32.25C25.51 32.4489 25.589 32.6397 25.7297 32.7803C25.8703 32.921 26.0611 33 26.26 33H38.26C38.4589 33 38.6497 32.921 38.7903 32.7803C38.931 32.6397 39.01 32.4489 39.01 32.25C39.01 32.0511 38.931 31.8603 38.7903 31.7197C38.6497 31.579 38.4589 31.5 38.26 31.5Z" fill="#FFF5F3"/>
<defs>
<linearGradient id="paint0_linear" x1="13.5" y1="2" x2="8.48089" y2="53.0061" gradientUnits="userSpaceOnUse">
<stop stop-color="#3DB6D3"/>
<stop offset="0.5015" stop-color="#3D6FD3"/>
<stop offset="1" stop-color="#252784"/>
</linearGradient>
<linearGradient id="paint1_linear" x1="27.05" y1="4.5375" x2="27.05" y2="37.6034" gradientUnits="userSpaceOnUse">
<stop stop-color="#FF938F"/>
<stop offset="1" stop-color="#FFF0E3"/>
</linearGradient>
<linearGradient id="paint2_linear" x1="24.05" y1="13.875" x2="24.05" y2="44" gradientUnits="userSpaceOnUse">
<stop stop-color="#FF938F"/>
<stop offset="1" stop-color="#FFF0E3"/>
</linearGradient>
<linearGradient id="paint3_linear" x1="345.24" y1="168.72" x2="345.24" y2="36.42" gradientUnits="userSpaceOnUse">
<stop stop-color="white"/>
<stop offset="0.52" stop-color="#CCE2E6"/>
<stop offset="1" stop-color="#8FA1BB"/>
</linearGradient>
<linearGradient id="paint4_linear" x1="8.18025" y1="21.4702" x2="40.8739" y2="17.3964" gradientUnits="userSpaceOnUse">
<stop offset="0.0176482" stop-color="#EDD7AD"/>
<stop offset="0.304318" stop-color="#FF9661"/>
<stop offset="1" stop-color="#E74A69"/>
</linearGradient>
<linearGradient id="paint5_linear" x1="12.1264" y1="37.5436" x2="16.8329" y2="29.8779" gradientUnits="userSpaceOnUse">
<stop offset="0.0176482" stop-color="#EDD7AD"/>
<stop offset="0.698586" stop-color="#FF9661"/>
<stop offset="1" stop-color="#E74A69"/>
</linearGradient>
<linearGradient id="paint6_linear" x1="13.2356" y1="25.5436" x2="18.1985" y2="18.4707" gradientUnits="userSpaceOnUse">
<stop offset="0.0176482" stop-color="#EDD7AD"/>
<stop offset="0.698586" stop-color="#FF9661"/>
<stop offset="1" stop-color="#E74A69"/>
</linearGradient>
<linearGradient id="paint7_linear" x1="28.5558" y1="25.5436" x2="33.7258" y2="21.3262" gradientUnits="userSpaceOnUse">
<stop offset="0.0176482" stop-color="#EDD7AD"/>
<stop offset="0.698586" stop-color="#FF9661"/>
<stop offset="1" stop-color="#E74A69"/>
</linearGradient>
</defs>
</svg>
