<svg width="24" height="24" viewBox="0 0 24 24" fill="none" xmlns="http://www.w3.org/2000/svg">
<g clip-path="url(#clip0)">
<path d="M13.57 2.62058C13.112 2.29319 12.563 2.11719 12 2.11719C11.437 2.11719 10.8881 2.29319 10.43 2.62058L2.55 8.25058C2.22484 8.48209 1.95983 8.7881 1.77716 9.14301C1.59449 9.49792 1.49945 9.89141 1.5 10.2906V19.6856C1.5 20.0552 1.57281 20.4213 1.71428 20.7628C1.85575 21.1044 2.0631 21.4147 2.3245 21.6761C2.58589 21.9375 2.89622 22.1448 3.23775 22.2863C3.57928 22.4278 3.94533 22.5006 4.315 22.5006H19.685C20.0547 22.5006 20.4207 22.4278 20.7623 22.2863C21.1038 22.1448 21.4141 21.9375 21.6755 21.6761C21.9369 21.4147 22.1443 21.1044 22.2857 20.7628C22.4272 20.4213 22.5 20.0552 22.5 19.6856V10.2906C22.5006 9.89141 22.4055 9.49792 22.2228 9.14301C22.0402 8.7881 21.7752 8.48209 21.45 8.25058L13.57 2.62058Z" fill="url(#paint0_linear)"/>
<path d="M22.5 10.0606C22.4661 9.70093 22.3547 9.3529 22.1735 9.04044C21.9922 8.72797 21.7454 8.4585 21.45 8.25058L13.57 2.62058C13.112 2.29319 12.563 2.11719 12 2.11719C11.437 2.11719 10.888 2.29319 10.43 2.62058L2.55 8.25058C2.25461 8.4585 2.00778 8.72797 1.82652 9.04044C1.64526 9.3529 1.53386 9.70093 1.5 10.0606C1.53386 10.4202 1.64526 10.7683 1.82652 11.0807C2.00778 11.3932 2.25461 11.6627 2.55 11.8706L10.43 17.5006C10.888 17.828 11.437 18.004 12 18.004C12.563 18.004 13.112 17.828 13.57 17.5006L21.45 11.8706C21.7454 11.6627 21.9922 11.3932 22.1735 11.0807C22.3547 10.7683 22.4661 10.4202 22.5 10.0606V10.0606Z" fill="url(#paint1_linear)"/>
<g filter="url(#filter0_d)">
<path d="M16.91 8.25H7.09C6.80091 8.25 6.52367 8.36484 6.31925 8.56925C6.11484 8.77367 6 9.05091 6 9.34V14.34L10.43 17.5C10.888 17.8274 11.437 18.0034 12 18.0034C12.563 18.0034 13.112 17.8274 13.57 17.5L18 14.335V9.335C17.9987 9.04678 17.8833 8.77082 17.679 8.56748C17.4747 8.36415 17.1982 8.25 16.91 8.25Z" fill="url(#paint2_linear)"/>
</g>
<rect x="7.5" y="10.5" width="9" height="1" rx="0.5" fill="url(#paint3_linear)"/>
<rect x="7.5" y="12.5" width="9" height="1" rx="0.5" fill="url(#paint4_linear)"/>
</g>
<defs>
<filter id="filter0_d" x="2" y="6.25" width="20" height="17.7534" filterUnits="userSpaceOnUse" color-interpolation-filters="sRGB">
<feFlood flood-opacity="0" result="BackgroundImageFix"/>
<feColorMatrix in="SourceAlpha" type="matrix" values="0 0 0 0 0 0 0 0 0 0 0 0 0 0 0 0 0 0 127 0"/>
<feOffset dy="2"/>
<feGaussianBlur stdDeviation="2"/>
<feColorMatrix type="matrix" values="0 0 0 0 0 0 0 0 0 0 0 0 0 0 0 0 0 0 0.15 0"/>
<feBlend mode="normal" in2="BackgroundImageFix" result="effect1_dropShadow"/>
<feBlend mode="normal" in="SourceGraphic" in2="effect1_dropShadow" result="shape"/>
</filter>
<linearGradient id="paint0_linear" x1="1.5" y1="12.3089" x2="30.8324" y2="13.3793" gradientUnits="userSpaceOnUse">
<stop stop-color="#F44336"/>
<stop offset="1" stop-color="#F47A36"/>
</linearGradient>
<linearGradient id="paint1_linear" x1="12" y1="1.52143" x2="12" y2="14.991" gradientUnits="userSpaceOnUse">
<stop stop-color="#FF7A48"/>
<stop offset="1" stop-color="#AA0C00"/>
</linearGradient>
<linearGradient id="paint2_linear" x1="6.2069" y1="8.46203" x2="13.1618" y2="21.8889" gradientUnits="userSpaceOnUse">
<stop stop-color="white"/>
<stop offset="1" stop-color="#D8DFF8"/>
</linearGradient>
<linearGradient id="paint3_linear" x1="16.5" y1="11" x2="7.5" y2="11" gradientUnits="userSpaceOnUse">
<stop stop-color="#BFCEED"/>
<stop offset="1" stop-color="#D6DBE4"/>
</linearGradient>
<linearGradient id="paint4_linear" x1="16.5" y1="13" x2="7.5" y2="13" gradientUnits="userSpaceOnUse">
<stop stop-color="#BFCEED"/>
<stop offset="1" stop-color="#D6DBE4"/>
</linearGradient>
<clipPath id="clip0">
<rect width="24" height="24" fill="white"/>
</clipPath>
</defs>
</svg>
