<svg width="48" height="48" viewBox="0 0 48 48" fill="none" xmlns="http://www.w3.org/2000/svg">
<path d="M35.7 18H6.3C5.42479 18 4.58542 18.3477 3.96655 18.9665C3.34768 19.5854 3 20.4248 3 21.3V35.7C3 36.5752 3.34768 37.4146 3.96655 38.0335C4.58542 38.6523 5.42479 39 6.3 39C6.45759 39 6.61363 39.031 6.75922 39.0913C6.90481 39.1516 7.0371 39.24 7.14853 39.3515C7.25996 39.4629 7.34835 39.5952 7.40866 39.7408C7.46896 39.8864 7.5 40.0424 7.5 40.2V42.4C7.50088 42.4993 7.52965 42.5964 7.58303 42.6801C7.63641 42.7639 7.71225 42.831 7.8019 42.8737C7.89155 42.9164 7.99141 42.9331 8.09008 42.9219C8.18876 42.9106 8.28229 42.8718 8.36 42.81L11.95 39.94C12.7142 39.3307 13.6627 38.9993 14.64 39H35.7C36.5752 39 37.4146 38.6523 38.0335 38.0335C38.6523 37.4146 39 36.5752 39 35.7V21.3C39 20.4248 38.6523 19.5854 38.0335 18.9665C37.4146 18.3477 36.5752 18 35.7 18Z" fill="url(#paint0_linear)"/>
<path d="M9 42.2997L11.94 39.9497C12.7055 39.3347 13.6581 38.9996 14.64 38.9997H35.7C36.5752 38.9997 37.4146 38.652 38.0335 38.0332C38.6523 37.4143 39 36.5749 39 35.6997V21.2997C38.9982 20.7269 38.8468 20.1645 38.5609 19.6682C38.2751 19.1718 37.8645 18.7587 37.37 18.4697H9V42.2997Z" fill="url(#paint1_linear)"/>
<path d="M12.3 6H41.7C42.5752 6 43.4146 6.34768 44.0335 6.96655C44.6523 7.58542 45 8.42479 45 9.3V23.7C45 24.5752 44.6523 25.4146 44.0335 26.0335C43.4146 26.6523 42.5752 27 41.7 27C41.5424 27 41.3864 27.031 41.2408 27.0913C41.0952 27.1517 40.9629 27.24 40.8515 27.3515C40.74 27.4629 40.6516 27.5952 40.5913 27.7408C40.531 27.8864 40.5 28.0424 40.5 28.2V30.4C40.4991 30.4993 40.4703 30.5964 40.417 30.6801C40.3636 30.7639 40.2878 30.831 40.1981 30.8737C40.1084 30.9164 40.0086 30.9331 39.9099 30.9219C39.8112 30.9106 39.7177 30.8718 39.64 30.81L36.05 27.94C35.2858 27.3307 34.3373 26.9993 33.36 27H12.3C11.4248 27 10.5854 26.6523 9.96655 26.0335C9.34768 25.4146 9 24.5752 9 23.7V9.3C9 8.42479 9.34768 7.58542 9.96655 6.96655C10.5854 6.34768 11.4248 6 12.3 6Z" fill="url(#paint2_linear)"/>
<path d="M35.7 18H9V23.7C9 24.5752 9.34768 25.4146 9.96655 26.0335C10.5854 26.6523 11.4248 27 12.3 27H33.36C34.3385 27.0021 35.2872 27.3372 36.05 27.95L39 30.3V21.3C39 20.4248 38.6523 19.5854 38.0335 18.9665C37.4146 18.3477 36.5752 18 35.7 18Z" fill="url(#paint3_linear)"/>
<path d="M13.5 32C14.3284 32 15 31.3284 15 30.5C15 29.6716 14.3284 29 13.5 29C12.6716 29 12 29.6716 12 30.5C12 31.3284 12.6716 32 13.5 32Z" fill="url(#paint4_linear)"/>
<path d="M21 32C21.8284 32 22.5 31.3284 22.5 30.5C22.5 29.6716 21.8284 29 21 29C20.1716 29 19.5 29.6716 19.5 30.5C19.5 31.3284 20.1716 32 21 32Z" fill="url(#paint5_linear)"/>
<path d="M28.5 32C29.3284 32 30 31.3284 30 30.5C30 29.6716 29.3284 29 28.5 29C27.6716 29 27 29.6716 27 30.5C27 31.3284 27.6716 32 28.5 32Z" fill="url(#paint6_linear)"/>
<circle cx="27.5" cy="16.5" r="7.5" fill="url(#paint7_linear)"/>
<path d="M26.6759 18.2238C26.6759 17.6593 26.7388 17.2097 26.8646 16.875C26.9904 16.5403 27.2198 16.2117 27.5527 15.8891C27.8894 15.5625 28.1132 15.2984 28.2242 15.0968C28.3352 14.8911 28.3907 14.6754 28.3907 14.4496C28.3907 13.7681 28.1021 13.4274 27.525 13.4274C27.2512 13.4274 27.0311 13.5202 26.8646 13.7056C26.7018 13.8871 26.6167 14.1391 26.6093 14.4617H25C25.0074 13.6915 25.2349 13.0887 25.6826 12.6532C26.1339 12.2177 26.7481 12 27.525 12C28.3093 12 28.9179 12.2077 29.3507 12.623C29.7836 13.0343 30 13.6169 30 14.371C30 14.7137 29.9297 15.0383 29.7891 15.3448C29.6485 15.6472 29.4025 15.9839 29.0511 16.3548L28.6016 16.8206C28.3204 17.1149 28.1595 17.4597 28.1188 17.8548L28.0966 18.2238H26.6759ZM26.515 20.0806C26.515 19.8105 26.5982 19.5887 26.7647 19.4153C26.9349 19.2379 27.1513 19.1492 27.414 19.1492C27.6767 19.1492 27.8912 19.2379 28.0577 19.4153C28.2279 19.5887 28.313 19.8105 28.313 20.0806C28.313 20.3468 28.2297 20.5665 28.0633 20.7399C27.9005 20.9133 27.6841 21 27.414 21C27.1439 21 26.9256 20.9133 26.7592 20.7399C26.5964 20.5665 26.515 20.3468 26.515 20.0806Z" fill="white"/>
<defs>
<linearGradient id="paint0_linear" x1="13.5" y1="7.19944" x2="10.0252" y2="49.7022" gradientUnits="userSpaceOnUse">
<stop stop-color="#3DB6D3"/>
<stop offset="0.5015" stop-color="#3D6FD3"/>
<stop offset="1" stop-color="#252784"/>
</linearGradient>
<linearGradient id="paint1_linear" x1="17.75" y1="8.14377" x2="13.9467" y2="48.6937" gradientUnits="userSpaceOnUse">
<stop stop-color="#3DB6D3"/>
<stop offset="0.5015" stop-color="#3D6FD3"/>
<stop offset="1" stop-color="#252784"/>
</linearGradient>
<linearGradient id="paint2_linear" x1="27" y1="5.0653" x2="27" y2="26.1981" gradientUnits="userSpaceOnUse">
<stop stop-color="#FF938F"/>
<stop offset="1" stop-color="#FFF0E3"/>
</linearGradient>
<linearGradient id="paint3_linear" x1="24" y1="11.5" x2="24" y2="27.9672" gradientUnits="userSpaceOnUse">
<stop stop-color="#FF938F"/>
<stop offset="1" stop-color="#FFF0E3"/>
</linearGradient>
<linearGradient id="paint4_linear" x1="13.5" y1="31.23" x2="13.5" y2="10.76" gradientUnits="userSpaceOnUse">
<stop stop-color="white"/>
<stop offset="0.52" stop-color="#CCE2E6"/>
<stop offset="1" stop-color="#8FA1BB"/>
</linearGradient>
<linearGradient id="paint5_linear" x1="100.5" y1="80.69" x2="100.5" y2="19.28" gradientUnits="userSpaceOnUse">
<stop stop-color="white"/>
<stop offset="0.52" stop-color="#CCE2E6"/>
<stop offset="1" stop-color="#8FA1BB"/>
</linearGradient>
<linearGradient id="paint6_linear" x1="130.5" y1="80.69" x2="130.5" y2="19.28" gradientUnits="userSpaceOnUse">
<stop stop-color="white"/>
<stop offset="0.52" stop-color="#CCE2E6"/>
<stop offset="1" stop-color="#8FA1BB"/>
</linearGradient>
<linearGradient id="paint7_linear" x1="9.32281" y1="24.7837" x2="36.8684" y2="23.0685" gradientUnits="userSpaceOnUse">
<stop offset="0.0176482" stop-color="#EDD7AD"/>
<stop offset="0.304318" stop-color="#FF9661"/>
<stop offset="1" stop-color="#E74A69"/>
</linearGradient>
</defs>
</svg>
