<svg width="176" height="176" viewBox="0 0 176 176" fill="none" xmlns="http://www.w3.org/2000/svg">
<path d="M88 152C123.346 152 152 123.346 152 88C152 52.6538 123.346 24 88 24C52.6538 24 24 52.6538 24 88C24 123.346 52.6538 152 88 152Z" fill="url(#paint0_linear)"/>
<path fill-rule="evenodd" clip-rule="evenodd" d="M133.35 42.8398C115.997 62.1619 88.9168 87.2844 60.4974 94.2441C47.6967 97.367 37.2145 104.113 28.9844 112.803C38.6743 135.832 61.4493 152 88.0007 152C123.347 152 152.001 123.346 152.001 88C152.001 70.375 144.876 54.414 133.35 42.8398Z" fill="url(#paint1_linear)"/>
<path fill-rule="evenodd" clip-rule="evenodd" d="M65.0781 147.773C121.493 111.437 130.886 88.5056 143.639 57.3746C143.72 57.1768 143.801 56.9787 143.882 56.7803C149.053 66.0154 152 76.6636 152 88.0001C152 123.346 123.346 152 88.0003 152C79.9227 152 72.1946 150.504 65.0781 147.773Z" fill="url(#paint2_linear)"/>
<g filter="url(#filter0_d)">
<g filter="url(#filter1_d)">
<path d="M125.035 66.2801L135.601 84.5818C136.708 86.4997 136.053 88.9511 134.145 90.0526L67.5214 128.518C65.61 129.621 63.1635 128.962 62.0556 127.043L51.4891 108.742C52.5869 108.108 52.9652 106.708 52.334 105.615C51.7028 104.521 50.3012 104.149 49.2034 104.783L42.0655 92.4194C40.9582 90.5015 41.6136 88.0501 43.5214 86.9486L110.145 48.4834C112.057 47.3798 114.503 48.0389 115.611 49.9579L122.749 62.3211C121.651 62.9549 121.273 64.355 121.904 65.4482C122.535 66.5415 123.937 66.9139 125.035 66.2801Z" fill="black"/>
</g>
<path d="M125.035 66.2801L135.601 84.5818C136.708 86.4997 136.053 88.9511 134.145 90.0526L67.5214 128.518C65.61 129.621 63.1635 128.962 62.0556 127.043L51.4891 108.742C52.5869 108.108 52.9652 106.708 52.334 105.615C51.7028 104.521 50.3012 104.149 49.2034 104.783L42.0655 92.4194C40.9582 90.5015 41.6136 88.0501 43.5214 86.9486L110.145 48.4834C112.057 47.3798 114.503 48.0389 115.611 49.9579L122.749 62.3211C121.651 62.9549 121.273 64.355 121.904 65.4482C122.535 66.5415 123.937 66.9139 125.035 66.2801Z" fill="url(#paint3_linear)"/>
</g>
<g filter="url(#filter2_d)">
<path d="M130 86.8571V107.99C130 110.205 128.207 112 126.005 112H49.995C47.7886 112 46 110.206 46 107.99V86.8571C47.2538 86.8571 48.2703 85.8338 48.2703 84.5714C48.2703 83.3091 47.2538 82.2857 46 82.2857V68.0099C46 65.7953 47.7933 64 49.995 64H126.005C128.211 64 130 65.7941 130 68.0099V82.2857C128.746 82.2857 127.73 83.3091 127.73 84.5714C127.73 85.8338 128.746 86.8571 130 86.8571Z" fill="black"/>
</g>
<path d="M130 86.8571V107.99C130 110.205 128.207 112 126.005 112H49.995C47.7886 112 46 110.206 46 107.99V86.8571C47.2538 86.8571 48.2703 85.8338 48.2703 84.5714C48.2703 83.3091 47.2538 82.2857 46 82.2857V68.0099C46 65.7953 47.7933 64 49.995 64H126.005C128.211 64 130 65.7941 130 68.0099V82.2857C128.746 82.2857 127.73 83.3091 127.73 84.5714C127.73 85.8338 128.746 86.8571 130 86.8571Z" fill="url(#paint4_linear)"/>
<path d="M54 85V84H50V85H54ZM62 85V84H58V85H62ZM70 85V84H66V85H70ZM78 85V84H74V85H78ZM86 85V84H82V85H86ZM94 85V84H90V85H94ZM102 85V84H98V85H102ZM110 85V84H106V85H110ZM118 85V84H114V85H118ZM126 85V84H122V85H126Z" fill="white"/>
<path fill-rule="evenodd" clip-rule="evenodd" d="M61.1998 77.7201C60.6498 77.9701 59.7998 78.1401 58.9898 78.1401C56.5098 78.1401 55.5098 76.8801 55.5098 74.2701C55.5098 71.6001 56.5798 70.3701 59.0298 70.3701C59.7398 70.3701 60.5098 70.5101 61.0598 70.7201L60.9198 71.9501C60.3998 71.7401 59.7498 71.6201 59.0998 71.6201C57.5298 71.6201 56.9598 72.2201 56.9598 74.2501C56.9598 76.2701 57.4898 76.8701 58.9498 76.8701C59.3398 76.8701 59.6798 76.8201 59.9798 76.7301V73.9901H61.1998V77.7201ZM62.4531 70.5001H63.8531V78.0001H62.4531V70.5001ZM66.7464 71.7801V73.7001H69.6164L69.6064 74.9101H66.7464V78.0001H65.3664V70.5001H70.1564L70.1864 71.7801H66.7464ZM74.0098 71.7801V78.0001H72.6098V71.7801H70.4998L70.5298 70.5001H76.0898L76.1198 71.7801H74.0098ZM81.2831 71.9101C80.8931 71.7601 80.3431 71.6401 79.7631 71.6401C78.3031 71.6401 77.7531 72.2601 77.7531 74.2001C77.7531 76.2601 78.3231 76.8901 79.7931 76.8901C80.3731 76.8901 80.8731 76.7601 81.3031 76.5701L81.4631 77.7201C80.9731 77.9601 80.2631 78.1401 79.6131 78.1401C77.3631 78.1401 76.3031 76.8901 76.3031 74.1901C76.3031 71.6501 77.3531 70.3701 79.6931 70.3701C80.3031 70.3701 81.0131 70.5201 81.4331 70.7001L81.2831 71.9101ZM88.2964 74.2501C88.2964 76.9901 87.3864 78.1401 85.0964 78.1401C82.8264 78.1401 81.8764 76.9501 81.8764 74.2501C81.8764 71.5501 82.7964 70.3801 85.0964 70.3801C87.3864 70.3801 88.2964 71.5501 88.2964 74.2501ZM86.8564 74.2501C86.8564 72.1701 86.3964 71.6501 85.0864 71.6501C83.8064 71.6501 83.3264 72.1801 83.3264 74.2501C83.3264 76.3201 83.8064 76.8701 85.0964 76.8701C86.3864 76.8701 86.8564 76.3101 86.8564 74.2501ZM95.3798 74.2201C95.3798 76.9401 94.2898 78.0001 92.0998 78.0001H89.3798V70.5001H92.0798C94.4098 70.5001 95.3798 71.6101 95.3798 74.2201ZM93.9398 74.2101C93.9398 72.2701 93.4198 71.7701 92.0698 71.7701H90.7598V76.7401H92.0698C93.3698 76.7401 93.9398 76.2901 93.9398 74.2101ZM101.443 76.7701L101.413 78.0001H96.4631V70.5001H101.263L101.283 71.7501H97.8431V73.5601H100.763V74.6901H97.8431V76.7701H101.443Z" fill="white"/>
<path opacity="0.3" d="M118 90H56C55.4477 90 55 90.4477 55 91V93C55 93.5523 55.4477 94 56 94H118C118.552 94 119 93.5523 119 93V91C119 90.4477 118.552 90 118 90Z" fill="url(#paint5_linear)"/>
<path opacity="0.3" d="M110 98H56C55.4477 98 55 98.4477 55 99V101C55 101.552 55.4477 102 56 102H110C110.552 102 111 101.552 111 101V99C111 98.4477 110.552 98 110 98Z" fill="url(#paint6_linear)"/>
<path d="M29 39C30.1046 39 31 38.1046 31 37C31 35.8954 30.1046 35 29 35C27.8954 35 27 35.8954 27 37C27 38.1046 27.8954 39 29 39Z" fill="#FE3D4F"/>
<path d="M164 165C165.105 165 166 164.105 166 163C166 161.895 165.105 161 164 161C162.895 161 162 161.895 162 163C162 164.105 162.895 165 164 165Z" fill="#1FB6FF"/>
<path d="M39 30C39.5523 30 40 29.5523 40 29C40 28.4477 39.5523 28 39 28C38.4477 28 38 28.4477 38 29C38 29.5523 38.4477 30 39 30Z" fill="#51E4C2"/>
<path d="M151 163C151.552 163 152 162.552 152 162C152 161.448 151.552 161 151 161C150.448 161 150 161.448 150 162C150 162.552 150.448 163 151 163Z" fill="#DE6FF8"/>
<path fill-rule="evenodd" clip-rule="evenodd" d="M43 16H45.003C45.5536 16 46 16.4439 46 17C46 17.5523 45.547 18 45.003 18H43V20.003C43 20.5536 42.5561 21 42 21C41.4477 21 41 20.547 41 20.003V18H38.997C38.4464 18 38 17.5561 38 17C38 16.4477 38.453 16 38.997 16H41V13.997C41 13.4464 41.4439 13 42 13C42.5523 13 43 13.453 43 13.997V16Z" fill="#8668E4"/>
<path fill-rule="evenodd" clip-rule="evenodd" d="M157 147H159.003C159.554 147 160 147.444 160 148C160 148.552 159.547 149 159.003 149H157V151.003C157 151.554 156.556 152 156 152C155.448 152 155 151.547 155 151.003V149H152.997C152.446 149 152 148.556 152 148C152 147.448 152.453 147 152.997 147H155V144.997C155 144.446 155.444 144 156 144C156.552 144 157 144.453 157 144.997V147Z" fill="#F8E81B"/>
<defs>
<filter id="filter0_d" x="34.0605" y="43.4854" width="109.546" height="96.0308" filterUnits="userSpaceOnUse" color-interpolation-filters="sRGB">
<feFlood flood-opacity="0" result="BackgroundImageFix"/>
<feColorMatrix in="SourceAlpha" type="matrix" values="0 0 0 0 0 0 0 0 0 0 0 0 0 0 0 0 0 0 127 0"/>
<feOffset dy="3"/>
<feGaussianBlur stdDeviation="3"/>
<feColorMatrix type="matrix" values="0 0 0 0 0 0 0 0 0 0 0 0 0 0 0 0 0 0 0.15 0"/>
<feBlend mode="normal" in2="BackgroundImageFix" result="effect1_dropShadow"/>
<feBlend mode="normal" in="SourceGraphic" in2="effect1_dropShadow" result="shape"/>
</filter>
<filter id="filter1_d" x="34.0605" y="43.4854" width="109.546" height="96.0308" filterUnits="userSpaceOnUse" color-interpolation-filters="sRGB">
<feFlood flood-opacity="0" result="BackgroundImageFix"/>
<feColorMatrix in="SourceAlpha" type="matrix" values="0 0 0 0 0 0 0 0 0 0 0 0 0 0 0 0 0 0 127 0"/>
<feOffset dy="3"/>
<feGaussianBlur stdDeviation="3"/>
<feColorMatrix type="matrix" values="0 0 0 0 0.0705882 0 0 0 0 0.0745098 0 0 0 0 0.101961 0 0 0 0.2 0"/>
<feBlend mode="normal" in2="BackgroundImageFix" result="effect1_dropShadow"/>
<feBlend mode="normal" in="SourceGraphic" in2="effect1_dropShadow" result="shape"/>
</filter>
<filter id="filter2_d" x="40" y="61" width="96" height="60" filterUnits="userSpaceOnUse" color-interpolation-filters="sRGB">
<feFlood flood-opacity="0" result="BackgroundImageFix"/>
<feColorMatrix in="SourceAlpha" type="matrix" values="0 0 0 0 0 0 0 0 0 0 0 0 0 0 0 0 0 0 127 0"/>
<feOffset dy="3"/>
<feGaussianBlur stdDeviation="3"/>
<feColorMatrix type="matrix" values="0 0 0 0 0.0705882 0 0 0 0 0.0745098 0 0 0 0 0.101961 0 0 0 0.2 0"/>
<feBlend mode="normal" in2="BackgroundImageFix" result="effect1_dropShadow"/>
<feBlend mode="normal" in="SourceGraphic" in2="effect1_dropShadow" result="shape"/>
</filter>
<linearGradient id="paint0_linear" x1="24" y1="24" x2="152" y2="152" gradientUnits="userSpaceOnUse">
<stop stop-color="#474BD1"/>
<stop offset="0.0001" stop-color="#6347D1"/>
<stop offset="1" stop-color="#3B39C5"/>
</linearGradient>
<linearGradient id="paint1_linear" x1="73.0006" y1="78" x2="116.501" y2="141.5" gradientUnits="userSpaceOnUse">
<stop offset="0.0208904" stop-color="#F19AFF" stop-opacity="0.33"/>
<stop offset="1" stop-color="#4A39BE" stop-opacity="0"/>
</linearGradient>
<linearGradient id="paint2_linear" x1="62.9487" y1="79.124" x2="103.437" y2="146.775" gradientUnits="userSpaceOnUse">
<stop offset="0.0208904" stop-color="#9ADBFF" stop-opacity="0.33"/>
<stop offset="1" stop-color="#4A39BE" stop-opacity="0"/>
</linearGradient>
<linearGradient id="paint3_linear" x1="76.0002" y1="113" x2="118.5" y2="60.9998" gradientUnits="userSpaceOnUse">
<stop stop-color="#F8D11B"/>
<stop offset="1" stop-color="#F8851B"/>
</linearGradient>
<linearGradient id="paint4_linear" x1="47.1053" y1="64" x2="119.141" y2="129.431" gradientUnits="userSpaceOnUse">
<stop stop-color="#FC414E"/>
<stop offset="1" stop-color="#FA6F20"/>
</linearGradient>
<linearGradient id="paint5_linear" x1="55" y1="92" x2="127.5" y2="92" gradientUnits="userSpaceOnUse">
<stop stop-color="white"/>
<stop offset="1" stop-color="#B8FF80"/>
</linearGradient>
<linearGradient id="paint6_linear" x1="55" y1="100" x2="118.438" y2="100" gradientUnits="userSpaceOnUse">
<stop stop-color="white"/>
<stop offset="1" stop-color="#B8FF80"/>
</linearGradient>
</defs>
</svg>
