<svg width="168" height="56" viewBox="0 0 168 56" fill="none" xmlns="http://www.w3.org/2000/svg">
<path d="M48.9961 35H46.0664V28.9062H40.3535V35H37.4238V20.7812H40.3535V26.543H46.0664V20.7812H48.9961V35ZM60.1191 28.8379H54.4941V32.6465H61.0957V35H51.5645V20.7812H61.0762V23.1543H54.4941V26.543H60.1191V28.8379ZM65.7441 32.6465H71.9648V35H62.8145V20.7812H65.7441V32.6465ZM76.584 29.9902V35H73.6543V20.7812H79.2012C80.2689 20.7812 81.2064 20.9766 82.0137 21.3672C82.8275 21.7578 83.4525 22.3145 83.8887 23.0371C84.3249 23.7533 84.543 24.5703 84.543 25.4883C84.543 26.8815 84.0645 27.9818 83.1074 28.7891C82.1569 29.5898 80.8385 29.9902 79.1523 29.9902H76.584ZM76.584 27.6172H79.2012C79.9759 27.6172 80.5651 27.4349 80.9688 27.0703C81.3789 26.7057 81.584 26.1849 81.584 25.5078C81.584 24.8112 81.3789 24.248 80.9688 23.8184C80.5586 23.3887 79.9922 23.1673 79.2695 23.1543H76.584V27.6172ZM102.707 30.2637C102.596 31.7936 102.03 32.998 101.008 33.877C99.9922 34.7559 98.651 35.1953 96.9844 35.1953C95.1615 35.1953 93.7259 34.5833 92.6777 33.3594C91.6361 32.1289 91.1152 30.4427 91.1152 28.3008V27.4316C91.1152 26.0645 91.3561 24.86 91.8379 23.8184C92.3197 22.7767 93.0065 21.9792 93.8984 21.4258C94.7969 20.8659 95.8385 20.5859 97.0234 20.5859C98.6641 20.5859 99.9857 21.0254 100.988 21.9043C101.991 22.7832 102.57 24.0169 102.727 25.6055H99.7969C99.7253 24.6875 99.4681 24.0234 99.0254 23.6133C98.5892 23.1966 97.9219 22.9883 97.0234 22.9883C96.0469 22.9883 95.3145 23.3398 94.8262 24.043C94.3444 24.7396 94.097 25.8236 94.084 27.2949V28.3691C94.084 29.9056 94.3151 31.0286 94.7773 31.7383C95.2461 32.4479 95.9818 32.8027 96.9844 32.8027C97.8893 32.8027 98.5632 32.5977 99.0059 32.1875C99.4551 31.7708 99.7122 31.1296 99.7773 30.2637H102.707ZM113.186 28.8379H107.561V32.6465H114.162V35H104.631V20.7812H114.143V23.1543H107.561V26.543H113.186V28.8379ZM127.443 35H124.514L118.811 25.6445V35H115.881V20.7812H118.811L124.523 30.1562V20.7812H127.443V35ZM140.412 23.1543H136.057V35H133.127V23.1543H128.83V20.7812H140.412V23.1543ZM150.646 28.8379H145.021V32.6465H151.623V35H142.092V20.7812H151.604V23.1543H145.021V26.543H150.646V28.8379ZM158.605 29.7949H156.271V35H153.342V20.7812H158.625C160.305 20.7812 161.6 21.1556 162.512 21.9043C163.423 22.653 163.879 23.7109 163.879 25.0781C163.879 26.0482 163.667 26.8587 163.244 27.5098C162.827 28.1543 162.193 28.6686 161.34 29.0527L164.416 34.8633V35H161.271L158.605 29.7949ZM156.271 27.4219H158.635C159.37 27.4219 159.94 27.2363 160.344 26.8652C160.747 26.4876 160.949 25.9701 160.949 25.3125C160.949 24.6419 160.757 24.1146 160.373 23.7305C159.995 23.3464 159.413 23.1543 158.625 23.1543H156.271V27.4219Z" fill="#284377"/>
<g clip-path="url(#clip0)">
<path d="M21.6468 20.8872C21.2932 20.4096 20.9015 19.9548 20.4735 19.5267L17.8233 20.8501L16.0445 23.9557C16.487 24.3981 16.8412 24.8955 17.1079 25.4261L20.0878 23.7734L21.6468 20.8872Z" fill="#E8EAEE"/>
<path d="M20.4733 19.526C20.0453 19.098 19.5906 18.7065 19.1129 18.3529L16.0699 20.0688L14.5742 22.8916C15.1046 23.1585 15.6021 23.5127 16.0444 23.955L20.4733 19.526Z" fill="#E8EAEE"/>
<path d="M14.574 22.892L19.1127 18.3532C17.0647 16.8363 14.5952 16.0166 11.9998 16.0166C9.4043 16.0166 6.93482 16.8363 4.88691 18.3531L6.69788 21.4912L9.42579 22.892C11.0394 22.0803 12.9602 22.0802 14.574 22.892Z" fill="#E53935"/>
<path d="M9.42619 22.8923L4.88731 18.3534C4.40968 18.7072 3.95483 19.0986 3.52679 19.5267C3.09874 19.9547 2.70734 20.4096 2.35348 20.8872L4.02527 23.8861L6.89236 25.4261C7.15921 24.8956 7.51358 24.3981 7.95587 23.9558C8.39816 23.5135 8.8956 23.159 9.42619 22.8923Z" fill="#E8EAEE"/>
<path d="M0.0165194 28.0005C0.0165194 30.596 0.836226 33.0655 2.35316 35.1135L5.39776 33.396L6.89191 30.5748C6.0801 28.961 6.08023 27.0402 6.89191 25.4266L2.35303 20.8877C0.836226 22.9356 0.0165194 25.4051 0.0165194 28.0005Z" fill="#E53935"/>
<path d="M6.89233 30.5742L2.35358 35.113C2.70718 35.5906 3.09871 36.0453 3.52676 36.4734L6.66498 34.6623L7.95571 32.0444C7.51343 31.6021 7.15918 31.1047 6.89233 30.5742Z" fill="#E8EAEE"/>
<path d="M4.88721 37.6466L8.0253 35.8356L9.42609 33.1077C8.8955 32.841 8.39806 32.4868 7.95564 32.0444L3.52669 36.4733C3.95473 36.9014 4.40958 37.293 4.88721 37.6466Z" fill="#E8EAEE"/>
<path d="M9.4258 33.1076L4.88693 37.6465C6.93496 39.1632 9.40431 39.983 11.9998 39.983C14.5952 39.983 17.0647 39.1633 19.1126 37.6465L17.1978 34.4046L14.5739 33.1078C12.9601 33.9193 11.0396 33.9195 9.4258 33.1076Z" fill="#E53935"/>
<path d="M21.6467 35.1125L19.9309 32.0695L17.1079 30.5737C16.8411 31.1042 16.4867 31.6017 16.0444 32.044C15.6021 32.4863 15.1047 32.8406 14.5741 33.1075L19.1128 37.6463C19.5906 37.2926 20.0453 36.901 20.4734 36.473C20.9014 36.0449 21.2928 35.5901 21.6467 35.1125Z" fill="#E8EAEE"/>
<path d="M23.983 28.0005C23.983 25.4051 23.1633 22.9356 21.6465 20.8877L17.1076 25.4266C17.9194 27.0404 17.9193 28.9609 17.1077 30.5746L21.6465 35.1134C23.1632 33.0653 23.983 30.596 23.983 28.0005Z" fill="#E53935"/>
</g>
<defs>
<clipPath id="clip0">
<rect width="24" height="24" fill="white" transform="translate(0 16)"/>
</clipPath>
</defs>
</svg>
