<svg width="48" height="48" viewBox="0 0 48 48" fill="none" xmlns="http://www.w3.org/2000/svg">
<path d="M26.14 42.43C25.7979 42.43 25.4697 42.2941 25.2278 42.0522C24.9859 41.8102 24.85 41.4821 24.85 41.14V36.75H17.14V41.14C17.14 41.4821 17.0041 41.8102 16.7622 42.0522C16.5202 42.2941 16.1921 42.43 15.85 42.43C15.5288 42.4584 15.2298 42.606 15.012 42.8439C14.7943 43.0817 14.6735 43.3925 14.6735 43.715C14.6735 44.0375 14.7943 44.3483 15.012 44.5861C15.2298 44.824 15.5288 44.9716 15.85 45H26.14C26.4612 44.9716 26.7602 44.824 26.978 44.5861C27.1957 44.3483 27.3165 44.0375 27.3165 43.715C27.3165 43.3925 27.1957 43.0817 26.978 42.8439C26.7602 42.606 26.4612 42.4584 26.14 42.43Z" fill="url(#paint0_linear)"/>
<path d="M24.85 37.71H17.14V41.14H24.85V37.71Z" fill="url(#paint1_linear)"/>
<path d="M5.06 14.1396H36.94C37.4863 14.1396 38.0103 14.3567 38.3966 14.743C38.783 15.1293 39 15.6533 39 16.1996V37.7996C39 38.1179 38.8736 38.4231 38.6485 38.6482C38.4235 38.8732 38.1183 38.9996 37.8 38.9996H5.06C4.51365 38.9996 3.98968 38.7826 3.60336 38.3963C3.21703 38.01 3 37.486 3 36.9396V16.1996C3 15.6533 3.21703 15.1293 3.60336 14.743C3.98968 14.3567 4.51365 14.1396 5.06 14.1396Z" fill="url(#paint2_linear)"/>
<path d="M9 25.71V39H23.11V21.96L14.57 27.63L9 25.71Z" fill="url(#paint3_linear)"/>
<path d="M3 34.71V37.8C3 38.3463 3.21703 38.8703 3.60336 39.2566C3.98968 39.6429 4.51365 39.86 5.06 39.86H36.94C37.4863 39.86 38.0103 39.6429 38.3966 39.2566C38.783 38.8703 39 38.3463 39 37.8V34.71H3Z" fill="url(#paint4_linear)"/>
<path d="M41.62 3H31.02C29.1533 3 27.64 4.51328 27.64 6.38V26.62C27.64 28.4867 29.1533 30 31.02 30H41.62C43.4867 30 45 28.4867 45 26.62V6.38C45 4.51328 43.4867 3 41.62 3Z" fill="url(#paint5_linear)"/>
<path d="M41.72 4.93009H39.62C39.4516 4.92885 39.2867 4.97889 39.1474 5.07356C39.0081 5.16823 38.9009 5.30304 38.84 5.46009L38.78 5.62009C38.7191 5.77715 38.6119 5.91196 38.4726 6.00663C38.3332 6.1013 38.1684 6.15133 38 6.15009H34.64C34.4716 6.15133 34.3067 6.1013 34.1674 6.00663C34.0281 5.91196 33.9209 5.77715 33.86 5.62009L33.8 5.46009C33.7379 5.29979 33.6277 5.1627 33.4843 5.06776C33.341 4.97282 33.1718 4.92472 33 4.93009H30.9C30.5419 4.93009 30.1986 5.07233 29.9454 5.3255C29.6922 5.57867 29.55 5.92205 29.55 6.28009V26.7201C29.55 27.0781 29.6922 27.4215 29.9454 27.6747C30.1986 27.9279 30.5419 28.0701 30.9 28.0701H41.72C42.078 28.0701 42.4214 27.9279 42.6746 27.6747C42.9278 27.4215 43.07 27.0781 43.07 26.7201V6.28009C43.07 5.92205 42.9278 5.57867 42.6746 5.3255C42.4214 5.07233 42.078 4.93009 41.72 4.93009Z" fill="url(#paint6_linear)"/>
<path d="M39 16.1996C39 15.9291 38.9467 15.6613 38.8432 15.4113C38.7397 15.1614 38.5879 14.9343 38.3966 14.743C38.2054 14.5517 37.9783 14.4 37.7283 14.2965C37.4784 14.1929 37.2105 14.1396 36.94 14.1396H29.57V26.7196C29.57 27.0777 29.7122 27.4211 29.9654 27.6742C30.2186 27.9274 30.562 28.0696 30.92 28.0696H39V16.1996Z" fill="url(#paint7_linear)"/>
<path d="M41.72 4.93009H39.62C39.4516 4.92885 39.2867 4.97889 39.1474 5.07356C39.0081 5.16823 38.9009 5.30304 38.84 5.46009L38.78 5.62009C38.7191 5.77715 38.6119 5.91196 38.4726 6.00663C38.3332 6.1013 38.1684 6.15133 38 6.15009H34.64C34.4716 6.15133 34.3067 6.1013 34.1674 6.00663C34.0281 5.91196 33.9209 5.77715 33.86 5.62009L33.8 5.46009C33.7379 5.29979 33.6277 5.1627 33.4843 5.06776C33.341 4.97282 33.1718 4.92472 33 4.93009H30.9C30.5419 4.93009 30.1986 5.07233 29.9454 5.3255C29.6922 5.57867 29.55 5.92205 29.55 6.28009V7.00009C29.55 6.64205 29.6922 6.29867 29.9454 6.0455C30.1986 5.79233 30.5419 5.65009 30.9 5.65009H33C33.1684 5.64885 33.3332 5.69889 33.4726 5.79356C33.6119 5.88822 33.7191 6.02304 33.78 6.18009L33.84 6.34009C33.9009 6.49715 34.0081 6.63196 34.1474 6.72663C34.2867 6.8213 34.4516 6.87133 34.62 6.87009H38C38.1684 6.87133 38.3332 6.8213 38.4726 6.72663C38.6119 6.63196 38.7191 6.49715 38.78 6.34009L38.84 6.18009C38.9009 6.02304 39.0081 5.88822 39.1474 5.79356C39.2867 5.69889 39.4516 5.64885 39.62 5.65009H41.72C42.078 5.65009 42.4214 5.79233 42.6746 6.0455C42.9278 6.29867 43.07 6.64205 43.07 7.00009V6.28009C43.07 5.92205 42.9278 5.57867 42.6746 5.3255C42.4214 5.07233 42.078 4.93009 41.72 4.93009Z" fill="url(#paint8_linear)"/>
<path d="M22.55 20.5601L22.05 20.0601C21.8744 19.8835 21.6656 19.7434 21.4356 19.6478C21.2057 19.5522 20.9591 19.5029 20.71 19.5029C20.461 19.5029 20.2144 19.5522 19.9844 19.6478C19.7544 19.7434 19.5456 19.8835 19.37 20.0601L14.15 25.2801L12.74 23.8701C12.5644 23.6935 12.3556 23.5534 12.1256 23.4578C11.8957 23.3622 11.6491 23.3129 11.4 23.3129C11.151 23.3129 10.9044 23.3622 10.6744 23.4578C10.4444 23.5534 10.2356 23.6935 10.06 23.8701L9.56001 24.3701C9.38344 24.5457 9.24332 24.7545 9.1477 24.9845C9.05209 25.2144 9.00287 25.461 9.00287 25.7101C9.00287 25.9591 9.05209 26.2057 9.1477 26.4357C9.24332 26.6656 9.38344 26.8744 9.56001 27.0501L12.31 29.8001L12.81 30.3001C13.166 30.6543 13.6478 30.8531 14.15 30.8531C14.6522 30.8531 15.134 30.6543 15.49 30.3001L15.99 29.8001L22.55 23.2401C22.7266 23.0644 22.8667 22.8556 22.9623 22.6257C23.0579 22.3957 23.1072 22.1491 23.1072 21.9001C23.1072 21.651 23.0579 21.4044 22.9623 21.1745C22.8667 20.9445 22.7266 20.7357 22.55 20.5601Z" fill="url(#paint9_linear)"/>
<defs>
<linearGradient id="paint0_linear" x1="36.9159" y1="42.8844" x2="10.179" y2="39.5243" gradientUnits="userSpaceOnUse">
<stop offset="0.00286458" stop-color="#3DB6D3"/>
<stop offset="0.5015" stop-color="#3D6FD3"/>
<stop offset="1" stop-color="#252784"/>
</linearGradient>
<linearGradient id="paint1_linear" x1="30.7039" y1="40.2604" x2="14.6859" y2="37.3078" gradientUnits="userSpaceOnUse">
<stop offset="0.00286458" stop-color="#3DB6D3"/>
<stop offset="0.5015" stop-color="#3D6FD3"/>
<stop offset="1" stop-color="#252784"/>
</linearGradient>
<linearGradient id="paint2_linear" x1="21" y1="13.2074" x2="21" y2="34.2848" gradientUnits="userSpaceOnUse">
<stop stop-color="#FF938F"/>
<stop offset="1" stop-color="#FFF0E3"/>
</linearGradient>
<linearGradient id="paint3_linear" x1="16.055" y1="21.321" x2="16.055" y2="35.7682" gradientUnits="userSpaceOnUse">
<stop stop-color="#FF938F"/>
<stop offset="1" stop-color="#FFF0E3"/>
</linearGradient>
<linearGradient id="paint4_linear" x1="66.3333" y1="38.5393" x2="8.12674" y2="5.17314" gradientUnits="userSpaceOnUse">
<stop offset="0.00286458" stop-color="#3DB6D3"/>
<stop offset="0.5015" stop-color="#3D6FD3"/>
<stop offset="1" stop-color="#252784"/>
</linearGradient>
<linearGradient id="paint5_linear" x1="58.1808" y1="23.0763" x2="20.9923" y2="21.1155" gradientUnits="userSpaceOnUse">
<stop offset="0.00286458" stop-color="#3DB6D3"/>
<stop offset="0.5015" stop-color="#3D6FD3"/>
<stop offset="1" stop-color="#252784"/>
</linearGradient>
<linearGradient id="paint6_linear" x1="36.32" y1="34.6701" x2="36.32" y2="-11.8699" gradientUnits="userSpaceOnUse">
<stop stop-color="#F3C57A"/>
<stop offset="0.49" stop-color="#F39369"/>
<stop offset="1" stop-color="#E94867"/>
</linearGradient>
<linearGradient id="paint7_linear" x1="282.483" y1="538.604" x2="508.143" y2="200.113" gradientUnits="userSpaceOnUse">
<stop stop-color="#F3C57A"/>
<stop offset="0.49" stop-color="#F39369"/>
<stop offset="1" stop-color="#E94867"/>
</linearGradient>
<linearGradient id="paint8_linear" x1="520.596" y1="32.052" x2="520.596" y2="14.5985" gradientUnits="userSpaceOnUse">
<stop stop-color="#F3C57A"/>
<stop offset="0.49" stop-color="#F39369"/>
<stop offset="1" stop-color="#E94867"/>
</linearGradient>
<linearGradient id="paint9_linear" x1="-1.03674" y1="31.4461" x2="24.8096" y2="29.4461" gradientUnits="userSpaceOnUse">
<stop offset="0.0176482" stop-color="#EDD7AD"/>
<stop offset="0.304318" stop-color="#FF9661"/>
<stop offset="1" stop-color="#E74A69"/>
</linearGradient>
</defs>
</svg>
