<svg width="176" height="176" viewBox="0 0 176 176" fill="none" xmlns="http://www.w3.org/2000/svg">
<path d="M88 152C123.346 152 152 123.346 152 88C152 52.6538 123.346 24 88 24C52.6538 24 24 52.6538 24 88C24 123.346 52.6538 152 88 152Z" fill="url(#paint0_linear)"/>
<path fill-rule="evenodd" clip-rule="evenodd" d="M143.908 56.8262C127.447 72.7743 106.369 88.8877 84.4973 94.2438C63.8077 99.2913 49.1754 113.804 40.3184 130.69C52.0365 143.77 69.0574 152 88.0005 152C123.347 152 152 123.346 152 87.9997C152 76.6821 149.063 66.0506 143.908 56.8262Z" fill="url(#paint1_linear)"/>
<path fill-rule="evenodd" clip-rule="evenodd" d="M49 37.2598C59.7991 28.9447 73.3275 24 88.0107 24C123.357 24 152.011 52.6538 152.011 88C152.011 122.798 124.24 151.109 89.6518 151.979C81.2006 137.107 76.3238 119.375 77.9107 98.4C79.9875 70.5464 67.7744 51.0504 49 37.2598Z" fill="url(#paint2_linear)"/>
<g filter="url(#filter0_d)">
<rect x="59" y="58" width="58" height="69" rx="2" fill="url(#paint3_linear)"/>
</g>
<path fill-rule="evenodd" clip-rule="evenodd" d="M67 80C66.4477 80 66 79.5523 66 79V78C66 77.4477 66.4477 77 67 77H109C109.552 77 110 77.4477 110 78V79C110 79.5523 109.552 80 109 80H67ZM67 86C66.4477 86 66 85.5523 66 85V84C66 83.4477 66.4477 83 67 83H109C109.552 83 110 83.4477 110 84V85C110 85.5523 109.552 86 109 86H67ZM67 92C66.4477 92 66 91.5523 66 91V90C66 89.4477 66.4477 89 67 89H109C109.552 89 110 89.4477 110 90V91C110 91.5523 109.552 92 109 92H67Z" fill="url(#paint4_linear)"/>
<g filter="url(#filter1_d)">
<rect x="67" y="106" width="42" height="12" rx="6" fill="url(#paint5_linear)"/>
<path fill-rule="evenodd" clip-rule="evenodd" d="M79.485 108L74.535 112.949L72.414 110.828L71 112.243L74.535 115.778L75.95 114.364L80.899 109.414L79.485 108Z" fill="white"/>
<rect x="84" y="111" width="20" height="2" rx="1" fill="white"/>
</g>
<g filter="url(#filter2_d)">
<circle cx="88" cy="57" r="15" fill="url(#paint6_linear)"/>
</g>
<path fill-rule="evenodd" clip-rule="evenodd" d="M83.6326 51.9581C83.6326 49.332 85.3585 47.1875 88.0363 47.1875H89.1372L89.5959 48.0591C91.7806 48.4834 92.44 50.215 92.44 51.9581V53.9765L92.0271 54.3435C91.339 55.8458 89.8195 56.9123 88.0363 56.9123C86.2702 56.9123 84.7966 55.8572 84.0913 54.3893L83.6326 54.0224V51.9581ZM79.9629 63.426C81.1039 61.9753 83.5466 59.8481 87.9445 59.8481C92.3425 59.8481 94.7393 61.9753 95.8803 63.426C93.9939 65.7311 91.1498 67.1875 87.9445 67.1875C84.7393 67.1875 81.8494 65.7311 79.9629 63.426Z" fill="white"/>
<path d="M32 39C33.1046 39 34 38.1046 34 37C34 35.8954 33.1046 35 32 35C30.8954 35 30 35.8954 30 37C30 38.1046 30.8954 39 32 39Z" fill="#F8D11B"/>
<path d="M156 158C157.105 158 158 157.105 158 156C158 154.895 157.105 154 156 154C154.895 154 154 154.895 154 156C154 157.105 154.895 158 156 158Z" fill="#1FB6FF"/>
<path d="M19 37C19.5523 37 20 36.5523 20 36C20 35.4477 19.5523 35 19 35C18.4477 35 18 35.4477 18 36C18 36.5523 18.4477 37 19 37Z" fill="#51E4C2"/>
<path d="M143 156C143.552 156 144 155.552 144 155C144 154.448 143.552 154 143 154C142.448 154 142 154.448 142 155C142 155.552 142.448 156 143 156Z" fill="#EB9DFD"/>
<path fill-rule="evenodd" clip-rule="evenodd" d="M25 21H27.003C27.5536 21 28 21.4439 28 22C28 22.5523 27.547 23 27.003 23H25V25.003C25 25.5536 24.5561 26 24 26C23.4477 26 23 25.547 23 25.003V23H20.997C20.4464 23 20 22.5561 20 22C20 21.4477 20.453 21 20.997 21H23V18.997C23 18.4464 23.4439 18 24 18C24.5523 18 25 18.453 25 18.997V21Z" fill="#2283F7"/>
<path fill-rule="evenodd" clip-rule="evenodd" d="M149 140H151.003C151.554 140 152 140.444 152 141C152 141.552 151.547 142 151.003 142H149V144.003C149 144.554 148.556 145 148 145C147.448 145 147 144.547 147 144.003V142H144.997C144.446 142 144 141.556 144 141C144 140.448 144.453 140 144.997 140H147V137.997C147 137.446 147.444 137 148 137C148.552 137 149 137.453 149 137.997V140Z" fill="#F8E81B"/>
<defs>
<filter id="filter0_d" x="55" y="56" width="66" height="77" filterUnits="userSpaceOnUse" color-interpolation-filters="sRGB">
<feFlood flood-opacity="0" result="BackgroundImageFix"/>
<feColorMatrix in="SourceAlpha" type="matrix" values="0 0 0 0 0 0 0 0 0 0 0 0 0 0 0 0 0 0 127 0"/>
<feOffset dy="2"/>
<feGaussianBlur stdDeviation="2"/>
<feColorMatrix type="matrix" values="0 0 0 0 0 0 0 0 0 0 0 0 0 0 0 0 0 0 0.15 0"/>
<feBlend mode="normal" in2="BackgroundImageFix" result="effect1_dropShadow"/>
<feBlend mode="normal" in="SourceGraphic" in2="effect1_dropShadow" result="shape"/>
</filter>
<filter id="filter1_d" x="63" y="104" width="50" height="20" filterUnits="userSpaceOnUse" color-interpolation-filters="sRGB">
<feFlood flood-opacity="0" result="BackgroundImageFix"/>
<feColorMatrix in="SourceAlpha" type="matrix" values="0 0 0 0 0 0 0 0 0 0 0 0 0 0 0 0 0 0 127 0"/>
<feOffset dy="2"/>
<feGaussianBlur stdDeviation="2"/>
<feColorMatrix type="matrix" values="0 0 0 0 0 0 0 0 0 0 0 0 0 0 0 0 0 0 0.15 0"/>
<feBlend mode="normal" in2="BackgroundImageFix" result="effect1_dropShadow"/>
<feBlend mode="normal" in="SourceGraphic" in2="effect1_dropShadow" result="shape"/>
</filter>
<filter id="filter2_d" x="69" y="40" width="38" height="38" filterUnits="userSpaceOnUse" color-interpolation-filters="sRGB">
<feFlood flood-opacity="0" result="BackgroundImageFix"/>
<feColorMatrix in="SourceAlpha" type="matrix" values="0 0 0 0 0 0 0 0 0 0 0 0 0 0 0 0 0 0 127 0"/>
<feOffset dy="2"/>
<feGaussianBlur stdDeviation="2"/>
<feColorMatrix type="matrix" values="0 0 0 0 0 0 0 0 0 0 0 0 0 0 0 0 0 0 0.15 0"/>
<feBlend mode="normal" in2="BackgroundImageFix" result="effect1_dropShadow"/>
<feBlend mode="normal" in="SourceGraphic" in2="effect1_dropShadow" result="shape"/>
</filter>
<linearGradient id="paint0_linear" x1="30.293" y1="24" x2="150.535" y2="150.459" gradientUnits="userSpaceOnUse">
<stop stop-color="#32D46B"/>
<stop offset="1" stop-color="#18C655"/>
</linearGradient>
<linearGradient id="paint1_linear" x1="73.0005" y1="77.9997" x2="116.5" y2="141.5" gradientUnits="userSpaceOnUse">
<stop offset="0.0208904" stop-color="#C6FF9A" stop-opacity="0.33"/>
<stop offset="1" stop-color="#29D064"/>
</linearGradient>
<linearGradient id="paint2_linear" x1="75.2198" y1="63.8022" x2="129.97" y2="128.999" gradientUnits="userSpaceOnUse">
<stop offset="0.0208904" stop-color="#FFF9BF" stop-opacity="0.33"/>
<stop offset="1" stop-color="#2BD166"/>
</linearGradient>
<linearGradient id="paint3_linear" x1="60" y1="59.5" x2="118" y2="136" gradientUnits="userSpaceOnUse">
<stop stop-color="white"/>
<stop offset="1" stop-color="#D8DFF8"/>
</linearGradient>
<linearGradient id="paint4_linear" x1="110" y1="84.5" x2="66" y2="84.5" gradientUnits="userSpaceOnUse">
<stop stop-color="#BFCEED"/>
<stop offset="1" stop-color="#D6DBE4"/>
</linearGradient>
<linearGradient id="paint5_linear" x1="61.5" y1="106" x2="115.5" y2="124" gradientUnits="userSpaceOnUse">
<stop stop-color="#1CBE55"/>
<stop offset="1" stop-color="#15C5BB"/>
</linearGradient>
<linearGradient id="paint6_linear" x1="63.5" y1="44" x2="108.5" y2="72" gradientUnits="userSpaceOnUse">
<stop stop-color="#EA2C7C"/>
<stop offset="1" stop-color="#FF8058"/>
</linearGradient>
</defs>
</svg>
