<svg width="216" height="15" viewBox="0 0 216 15" fill="none" xmlns="http://www.w3.org/2000/svg">
<path d="M0.518555 12V2.04688H3.77246C4.85254 2.04688 5.66374 2.27018 6.20605 2.7168C6.75293 3.16341 7.02637 3.82422 7.02637 4.69922C7.02637 5.16406 6.89421 5.5765 6.62988 5.93652C6.36556 6.29199 6.00553 6.56771 5.5498 6.76367C6.08757 6.91406 6.51139 7.20117 6.82129 7.625C7.13574 8.04427 7.29297 8.54557 7.29297 9.12891C7.29297 10.0221 7.00358 10.724 6.4248 11.2344C5.84603 11.7448 5.02799 12 3.9707 12H0.518555ZM1.83105 7.34473V10.9268H3.99805C4.60872 10.9268 5.08952 10.7695 5.44043 10.4551C5.7959 10.1361 5.97363 9.69857 5.97363 9.14258C5.97363 7.94401 5.32194 7.34473 4.01855 7.34473H1.83105ZM1.83105 6.29199H3.81348C4.3877 6.29199 4.8457 6.14844 5.1875 5.86133C5.53385 5.57422 5.70703 5.18457 5.70703 4.69238C5.70703 4.14551 5.54753 3.74902 5.22852 3.50293C4.90951 3.25228 4.42415 3.12695 3.77246 3.12695H1.83105V6.29199ZM13.6094 12C13.5365 11.8542 13.4772 11.5944 13.4316 11.2207C12.8438 11.8314 12.1419 12.1367 11.3262 12.1367C10.597 12.1367 9.99772 11.9316 9.52832 11.5215C9.06348 11.1068 8.83105 10.5827 8.83105 9.94922C8.83105 9.17904 9.12272 8.58203 9.70605 8.1582C10.2939 7.72982 11.1188 7.51562 12.1807 7.51562H13.4111V6.93457C13.4111 6.49251 13.279 6.1416 13.0146 5.88184C12.7503 5.61751 12.3607 5.48535 11.8457 5.48535C11.3945 5.48535 11.0163 5.59928 10.7109 5.82715C10.4056 6.05501 10.2529 6.33073 10.2529 6.6543H8.98145C8.98145 6.28516 9.11133 5.92969 9.37109 5.58789C9.63542 5.24154 9.99089 4.9681 10.4375 4.76758C10.8887 4.56706 11.3831 4.4668 11.9209 4.4668C12.7731 4.4668 13.4408 4.68099 13.9238 5.10938C14.4069 5.5332 14.6576 6.11882 14.6758 6.86621V10.2705C14.6758 10.9495 14.7624 11.4896 14.9355 11.8906V12H13.6094ZM11.5107 11.0361C11.9072 11.0361 12.2832 10.9336 12.6387 10.7285C12.9941 10.5234 13.2516 10.2568 13.4111 9.92871V8.41113H12.4199C10.8704 8.41113 10.0957 8.86458 10.0957 9.77148C10.0957 10.168 10.2279 10.4779 10.4922 10.7012C10.7565 10.9245 11.096 11.0361 11.5107 11.0361ZM10.7246 13.6748C10.7246 13.4697 10.7861 13.2965 10.9092 13.1553C11.0368 13.014 11.2236 12.9434 11.4697 12.9434C11.7158 12.9434 11.9027 13.014 12.0303 13.1553C12.1579 13.2965 12.2217 13.4697 12.2217 13.6748C12.2217 13.8799 12.1579 14.0508 12.0303 14.1875C11.9027 14.3242 11.7158 14.3926 11.4697 14.3926C11.2236 14.3926 11.0368 14.3242 10.9092 14.1875C10.7861 14.0508 10.7246 13.8799 10.7246 13.6748ZM17.8545 4.60352L17.8955 5.5332C18.4606 4.82227 19.1989 4.4668 20.1104 4.4668C21.6735 4.4668 22.4619 5.34863 22.4756 7.1123V12H21.2109V7.10547C21.2064 6.57227 21.0833 6.17806 20.8418 5.92285C20.6048 5.66764 20.2334 5.54004 19.7275 5.54004C19.3174 5.54004 18.9574 5.64941 18.6475 5.86816C18.3376 6.08691 18.096 6.37402 17.9229 6.72949V12H16.6582V4.60352H17.8545ZM30.8223 11.1045C31.2734 11.1045 31.6676 10.9678 32.0049 10.6943C32.3421 10.4209 32.529 10.0791 32.5654 9.66895H33.7617C33.7389 10.0928 33.5931 10.4961 33.3242 10.8789C33.0553 11.2617 32.6953 11.5671 32.2441 11.7949C31.7975 12.0228 31.3236 12.1367 30.8223 12.1367C29.8151 12.1367 29.013 11.8018 28.416 11.1318C27.8236 10.4574 27.5273 9.53678 27.5273 8.37012V8.1582C27.5273 7.43815 27.6595 6.79785 27.9238 6.2373C28.1882 5.67676 28.5664 5.24154 29.0586 4.93164C29.5553 4.62174 30.141 4.4668 30.8154 4.4668C31.6449 4.4668 32.333 4.71517 32.8799 5.21191C33.4313 5.70866 33.7253 6.35352 33.7617 7.14648H32.5654C32.529 6.66797 32.3467 6.27604 32.0186 5.9707C31.695 5.66081 31.2939 5.50586 30.8154 5.50586C30.1729 5.50586 29.6738 5.73828 29.3184 6.20312C28.9674 6.66341 28.792 7.33105 28.792 8.20605V8.44531C28.792 9.29753 28.9674 9.95378 29.3184 10.4141C29.6693 10.8743 30.1706 11.1045 30.8223 11.1045ZM36.4482 5.49902C37.0088 4.81087 37.738 4.4668 38.6357 4.4668C40.1989 4.4668 40.9873 5.34863 41.001 7.1123V12H39.7363V7.10547C39.7318 6.57227 39.6087 6.17806 39.3672 5.92285C39.1302 5.66764 38.7588 5.54004 38.2529 5.54004C37.8428 5.54004 37.4827 5.64941 37.1729 5.86816C36.863 6.08691 36.6214 6.37402 36.4482 6.72949V12H35.1836V1.5H36.4482V5.49902ZM50.79 4.01562C50.79 4.83594 50.6214 5.41471 50.2842 5.75195C49.9515 6.08464 49.4206 6.26009 48.6914 6.27832V12H47.4883L47.4609 11.2686C46.9688 11.8473 46.2464 12.1367 45.2939 12.1367C44.5055 12.1367 43.904 11.9089 43.4893 11.4531C43.0791 10.9928 42.8717 10.3138 42.8672 9.41602V4.60352H44.1318V9.38184C44.1318 10.5029 44.5876 11.0635 45.499 11.0635C46.4652 11.0635 47.1077 10.7035 47.4268 9.9834V4.60352H48.6914V5.49902C49.0013 5.48991 49.2337 5.44661 49.3887 5.36914C49.5436 5.28711 49.653 5.16406 49.7168 5C49.7852 4.83594 49.8193 4.50781 49.8193 4.01562H50.79ZM56.1289 12C56.056 11.8542 55.9967 11.5944 55.9512 11.2207C55.3633 11.8314 54.6615 12.1367 53.8457 12.1367C53.1165 12.1367 52.5173 11.9316 52.0479 11.5215C51.583 11.1068 51.3506 10.5827 51.3506 9.94922C51.3506 9.17904 51.6423 8.58203 52.2256 8.1582C52.8135 7.72982 53.6383 7.51562 54.7002 7.51562H55.9307V6.93457C55.9307 6.49251 55.7985 6.1416 55.5342 5.88184C55.2699 5.61751 54.8802 5.48535 54.3652 5.48535C53.9141 5.48535 53.5358 5.59928 53.2305 5.82715C52.9251 6.05501 52.7725 6.33073 52.7725 6.6543H51.501C51.501 6.28516 51.6309 5.92969 51.8906 5.58789C52.1549 5.24154 52.5104 4.9681 52.957 4.76758C53.4082 4.56706 53.9027 4.4668 54.4404 4.4668C55.2926 4.4668 55.9603 4.68099 56.4434 5.10938C56.9264 5.5332 57.1771 6.11882 57.1953 6.86621V10.2705C57.1953 10.9495 57.2819 11.4896 57.4551 11.8906V12H56.1289ZM54.0303 11.0361C54.4268 11.0361 54.8027 10.9336 55.1582 10.7285C55.5137 10.5234 55.7712 10.2568 55.9307 9.92871V8.41113H54.9395C53.39 8.41113 52.6152 8.86458 52.6152 9.77148C52.6152 10.168 52.7474 10.4779 53.0117 10.7012C53.276 10.9245 53.6156 11.0361 54.0303 11.0361ZM65.6172 11.1045C66.0684 11.1045 66.4626 10.9678 66.7998 10.6943C67.137 10.4209 67.3239 10.0791 67.3604 9.66895H68.5566C68.5339 10.0928 68.388 10.4961 68.1191 10.8789C67.8503 11.2617 67.4902 11.5671 67.0391 11.7949C66.5924 12.0228 66.1185 12.1367 65.6172 12.1367C64.61 12.1367 63.8079 11.8018 63.2109 11.1318C62.6185 10.4574 62.3223 9.53678 62.3223 8.37012V8.1582C62.3223 7.43815 62.4544 6.79785 62.7188 6.2373C62.9831 5.67676 63.3613 5.24154 63.8535 4.93164C64.3503 4.62174 64.9359 4.4668 65.6104 4.4668C66.4398 4.4668 67.1279 4.71517 67.6748 5.21191C68.2262 5.70866 68.5202 6.35352 68.5566 7.14648H67.3604C67.3239 6.66797 67.1416 6.27604 66.8135 5.9707C66.4899 5.66081 66.0889 5.50586 65.6104 5.50586C64.9678 5.50586 64.4688 5.73828 64.1133 6.20312C63.7624 6.66341 63.5869 7.33105 63.5869 8.20605V8.44531C63.5869 9.29753 63.7624 9.95378 64.1133 10.4141C64.4642 10.8743 64.9655 11.1045 65.6172 11.1045ZM69.6436 8.2334C69.6436 7.50879 69.7848 6.8571 70.0674 6.27832C70.3545 5.69954 70.751 5.25293 71.2568 4.93848C71.7673 4.62402 72.3483 4.4668 73 4.4668C74.0072 4.4668 74.8206 4.81543 75.4404 5.5127C76.0648 6.20996 76.377 7.13737 76.377 8.29492V8.38379C76.377 9.10384 76.238 9.75098 75.96 10.3252C75.6865 10.8949 75.2923 11.3392 74.7773 11.6582C74.2669 11.9772 73.679 12.1367 73.0137 12.1367C72.0111 12.1367 71.1976 11.7881 70.5732 11.0908C69.9535 10.3936 69.6436 9.4707 69.6436 8.32227V8.2334ZM70.915 8.38379C70.915 9.2041 71.1042 9.86263 71.4824 10.3594C71.8652 10.8561 72.3757 11.1045 73.0137 11.1045C73.6562 11.1045 74.1667 10.8538 74.5449 10.3525C74.9232 9.84668 75.1123 9.1403 75.1123 8.2334C75.1123 7.4222 74.9186 6.76595 74.5312 6.26465C74.1484 5.75879 73.638 5.50586 73 5.50586C72.3757 5.50586 71.8721 5.75423 71.4893 6.25098C71.1064 6.74772 70.915 7.45866 70.915 8.38379ZM73.5742 1.5H75.1055L73.2734 3.50977H72.2549L73.5742 1.5ZM82.8096 12H81.5449V1.5H82.8096V12ZM86.2139 12H84.9492V4.60352H86.2139V12ZM84.8467 2.6416C84.8467 2.43652 84.9082 2.26335 85.0312 2.12207C85.1589 1.98079 85.3457 1.91016 85.5918 1.91016C85.8379 1.91016 86.0247 1.98079 86.1523 2.12207C86.2799 2.26335 86.3438 2.43652 86.3438 2.6416C86.3438 2.84668 86.2799 3.01758 86.1523 3.1543C86.0247 3.29102 85.8379 3.35938 85.5918 3.35938C85.3457 3.35938 85.1589 3.29102 85.0312 3.1543C84.9082 3.01758 84.8467 2.84668 84.8467 2.6416ZM84.792 13.6064C84.792 13.4014 84.8535 13.2282 84.9766 13.0869C85.1042 12.9456 85.291 12.875 85.5371 12.875C85.7832 12.875 85.9701 12.9456 86.0977 13.0869C86.2253 13.2282 86.2891 13.4014 86.2891 13.6064C86.2891 13.8115 86.2253 13.9824 86.0977 14.1191C85.9701 14.2559 85.7832 14.3242 85.5371 14.3242C85.291 14.3242 85.1042 14.2559 84.9766 14.1191C84.8535 13.9824 84.792 13.8115 84.792 13.6064ZM91.2109 11.1045C91.6621 11.1045 92.0563 10.9678 92.3936 10.6943C92.7308 10.4209 92.9176 10.0791 92.9541 9.66895H94.1504C94.1276 10.0928 93.9818 10.4961 93.7129 10.8789C93.444 11.2617 93.084 11.5671 92.6328 11.7949C92.1862 12.0228 91.7122 12.1367 91.2109 12.1367C90.2038 12.1367 89.4017 11.8018 88.8047 11.1318C88.2122 10.4574 87.916 9.53678 87.916 8.37012V8.1582C87.916 7.43815 88.0482 6.79785 88.3125 6.2373C88.5768 5.67676 88.9551 5.24154 89.4473 4.93164C89.944 4.62174 90.5296 4.4668 91.2041 4.4668C92.0335 4.4668 92.7217 4.71517 93.2686 5.21191C93.82 5.70866 94.1139 6.35352 94.1504 7.14648H92.9541C92.9176 6.66797 92.7354 6.27604 92.4072 5.9707C92.0837 5.66081 91.6826 5.50586 91.2041 5.50586C90.5615 5.50586 90.0625 5.73828 89.707 6.20312C89.3561 6.66341 89.1807 7.33105 89.1807 8.20605V8.44531C89.1807 9.29753 89.3561 9.95378 89.707 10.4141C90.0579 10.8743 90.5592 11.1045 91.2109 11.1045ZM96.8369 5.49902C97.3975 4.81087 98.1266 4.4668 99.0244 4.4668C100.588 4.4668 101.376 5.34863 101.39 7.1123V12H100.125V7.10547C100.12 6.57227 99.9974 6.17806 99.7559 5.92285C99.5189 5.66764 99.1475 5.54004 98.6416 5.54004C98.2314 5.54004 97.8714 5.64941 97.5615 5.86816C97.2516 6.08691 97.0101 6.37402 96.8369 6.72949V12H95.5723V1.5H96.8369V5.49902ZM111.062 10.0381C111.062 9.69629 110.933 9.43197 110.673 9.24512C110.418 9.05371 109.969 8.88965 109.326 8.75293C108.688 8.61621 108.18 8.45215 107.802 8.26074C107.428 8.06934 107.15 7.84147 106.968 7.57715C106.79 7.31283 106.701 6.99837 106.701 6.63379C106.701 6.02767 106.956 5.51497 107.467 5.0957C107.982 4.67643 108.638 4.4668 109.436 4.4668C110.274 4.4668 110.953 4.68327 111.473 5.11621C111.997 5.54915 112.259 6.10286 112.259 6.77734H110.987C110.987 6.43099 110.839 6.13249 110.543 5.88184C110.251 5.63118 109.882 5.50586 109.436 5.50586C108.975 5.50586 108.615 5.60612 108.355 5.80664C108.096 6.00716 107.966 6.26921 107.966 6.59277C107.966 6.89811 108.087 7.12826 108.328 7.2832C108.57 7.43815 109.005 7.58626 109.634 7.72754C110.267 7.86882 110.78 8.03743 111.172 8.2334C111.564 8.42936 111.853 8.66634 112.04 8.94434C112.231 9.21777 112.327 9.55273 112.327 9.94922C112.327 10.61 112.063 11.141 111.534 11.542C111.006 11.9385 110.32 12.1367 109.477 12.1367C108.884 12.1367 108.36 12.0319 107.904 11.8223C107.449 11.6126 107.091 11.321 106.831 10.9473C106.576 10.569 106.448 10.1611 106.448 9.72363H107.713C107.736 10.1475 107.904 10.4847 108.219 10.7354C108.538 10.9814 108.957 11.1045 109.477 11.1045C109.955 11.1045 110.338 11.0088 110.625 10.8174C110.917 10.6214 111.062 10.3617 111.062 10.0381ZM121.87 4.01562C121.87 4.83594 121.701 5.41471 121.364 5.75195C121.032 6.08464 120.501 6.26009 119.771 6.27832V12H118.568L118.541 11.2686C118.049 11.8473 117.326 12.1367 116.374 12.1367C115.586 12.1367 114.984 11.9089 114.569 11.4531C114.159 10.9928 113.952 10.3138 113.947 9.41602V4.60352H115.212V9.38184C115.212 10.5029 115.668 11.0635 116.579 11.0635C117.545 11.0635 118.188 10.7035 118.507 9.9834V4.60352H119.771V5.49902C120.081 5.48991 120.314 5.44661 120.469 5.36914C120.624 5.28711 120.733 5.16406 120.797 5C120.865 4.83594 120.899 4.50781 120.899 4.01562H121.87ZM116.559 3.54395L116.552 2.49805C116.894 2.47526 117.144 2.42969 117.304 2.36133C117.463 2.29297 117.543 2.16992 117.543 1.99219C117.543 1.81445 117.438 1.68229 117.229 1.5957C117.023 1.50456 116.75 1.45898 116.408 1.45898L116.456 0.734375C117.135 0.734375 117.65 0.852865 118.001 1.08984C118.352 1.32227 118.527 1.63216 118.527 2.01953C118.527 2.29753 118.438 2.52767 118.261 2.70996C118.083 2.89225 117.819 3.00846 117.468 3.05859L117.461 3.54395H116.559ZM128.597 7.30371L130.237 4.60352H131.714L129.294 8.26074L131.789 12H130.326L128.617 9.23145L126.908 12H125.438L127.934 8.26074L125.514 4.60352H126.977L128.597 7.30371ZM135.993 12.1367C134.991 12.1367 134.175 11.8086 133.546 11.1523C132.917 10.4915 132.603 9.6097 132.603 8.50684V8.27441C132.603 7.54069 132.742 6.88672 133.02 6.3125C133.302 5.73372 133.694 5.28255 134.195 4.95898C134.701 4.63086 135.248 4.4668 135.836 4.4668C136.798 4.4668 137.545 4.78353 138.078 5.41699C138.611 6.05046 138.878 6.95736 138.878 8.1377V8.66406H133.867C133.885 9.39323 134.097 9.9834 134.503 10.4346C134.913 10.8812 135.433 11.1045 136.062 11.1045C136.508 11.1045 136.886 11.0133 137.196 10.8311C137.506 10.6488 137.777 10.4072 138.01 10.1064L138.782 10.708C138.162 11.6605 137.233 12.1367 135.993 12.1367ZM135.836 5.50586C135.326 5.50586 134.897 5.69271 134.551 6.06641C134.204 6.43555 133.99 6.95508 133.908 7.625H137.613V7.5293C137.577 6.88672 137.404 6.38997 137.094 6.03906C136.784 5.68359 136.365 5.50586 135.836 5.50586ZM141.537 4.60352L141.571 5.42383C142.114 4.78581 142.845 4.4668 143.766 4.4668C144.8 4.4668 145.504 4.86328 145.878 5.65625C146.124 5.30078 146.443 5.01367 146.835 4.79492C147.231 4.57617 147.699 4.4668 148.236 4.4668C149.859 4.4668 150.684 5.32585 150.711 7.04395V12H149.446V7.11914C149.446 6.59049 149.326 6.19629 149.084 5.93652C148.842 5.6722 148.437 5.54004 147.867 5.54004C147.398 5.54004 147.008 5.68132 146.698 5.96387C146.388 6.24186 146.208 6.61784 146.158 7.0918V12H144.887V7.15332C144.887 6.0778 144.36 5.54004 143.308 5.54004C142.478 5.54004 141.911 5.89323 141.605 6.59961V12H140.341V4.60352H141.537ZM160.404 10.0381C160.404 9.69629 160.274 9.43197 160.015 9.24512C159.759 9.05371 159.311 8.88965 158.668 8.75293C158.03 8.61621 157.522 8.45215 157.144 8.26074C156.77 8.06934 156.492 7.84147 156.31 7.57715C156.132 7.31283 156.043 6.99837 156.043 6.63379C156.043 6.02767 156.298 5.51497 156.809 5.0957C157.324 4.67643 157.98 4.4668 158.777 4.4668C159.616 4.4668 160.295 4.68327 160.814 5.11621C161.339 5.54915 161.601 6.10286 161.601 6.77734H160.329C160.329 6.43099 160.181 6.13249 159.885 5.88184C159.593 5.63118 159.224 5.50586 158.777 5.50586C158.317 5.50586 157.957 5.60612 157.697 5.80664C157.438 6.00716 157.308 6.26921 157.308 6.59277C157.308 6.89811 157.428 7.12826 157.67 7.2832C157.911 7.43815 158.347 7.58626 158.976 7.72754C159.609 7.86882 160.122 8.03743 160.514 8.2334C160.906 8.42936 161.195 8.66634 161.382 8.94434C161.573 9.21777 161.669 9.55273 161.669 9.94922C161.669 10.61 161.405 11.141 160.876 11.542C160.347 11.9385 159.661 12.1367 158.818 12.1367C158.226 12.1367 157.702 12.0319 157.246 11.8223C156.79 11.6126 156.433 11.321 156.173 10.9473C155.918 10.569 155.79 10.1611 155.79 9.72363H157.055C157.077 10.1475 157.246 10.4847 157.561 10.7354C157.88 10.9814 158.299 11.1045 158.818 11.1045C159.297 11.1045 159.68 11.0088 159.967 10.8174C160.258 10.6214 160.404 10.3617 160.404 10.0381ZM167.883 12C167.81 11.8542 167.751 11.5944 167.705 11.2207C167.117 11.8314 166.415 12.1367 165.6 12.1367C164.87 12.1367 164.271 11.9316 163.802 11.5215C163.337 11.1068 163.104 10.5827 163.104 9.94922C163.104 9.17904 163.396 8.58203 163.979 8.1582C164.567 7.72982 165.392 7.51562 166.454 7.51562H167.685V6.93457C167.685 6.49251 167.552 6.1416 167.288 5.88184C167.024 5.61751 166.634 5.48535 166.119 5.48535C165.668 5.48535 165.29 5.59928 164.984 5.82715C164.679 6.05501 164.526 6.33073 164.526 6.6543H163.255C163.255 6.28516 163.385 5.92969 163.645 5.58789C163.909 5.24154 164.264 4.9681 164.711 4.76758C165.162 4.56706 165.657 4.4668 166.194 4.4668C167.047 4.4668 167.714 4.68099 168.197 5.10938C168.68 5.5332 168.931 6.11882 168.949 6.86621V10.2705C168.949 10.9495 169.036 11.4896 169.209 11.8906V12H167.883ZM165.784 11.0361C166.181 11.0361 166.557 10.9336 166.912 10.7285C167.268 10.5234 167.525 10.2568 167.685 9.92871V8.41113H166.693C165.144 8.41113 164.369 8.86458 164.369 9.77148C164.369 10.168 164.501 10.4779 164.766 10.7012C165.03 10.9245 165.369 11.0361 165.784 11.0361ZM165.907 3.40723L165.9 2.36133C166.242 2.33854 166.493 2.29297 166.652 2.22461C166.812 2.15625 166.892 2.0332 166.892 1.85547C166.892 1.67773 166.787 1.54557 166.577 1.45898C166.372 1.36784 166.099 1.32227 165.757 1.32227L165.805 0.597656C166.484 0.597656 166.999 0.716146 167.35 0.953125C167.701 1.18555 167.876 1.49544 167.876 1.88281C167.876 2.16081 167.787 2.39095 167.609 2.57324C167.432 2.75553 167.167 2.87174 166.816 2.92188L166.81 3.40723H165.907ZM172.128 4.60352L172.169 5.5332C172.734 4.82227 173.472 4.4668 174.384 4.4668C175.947 4.4668 176.735 5.34863 176.749 7.1123V12H175.484V7.10547C175.48 6.57227 175.357 6.17806 175.115 5.92285C174.878 5.66764 174.507 5.54004 174.001 5.54004C173.591 5.54004 173.231 5.64941 172.921 5.86816C172.611 6.08691 172.369 6.37402 172.196 6.72949V12H170.932V4.60352H172.128ZM188.377 8.38379C188.377 9.50944 188.119 10.4163 187.604 11.1045C187.09 11.7926 186.392 12.1367 185.513 12.1367C184.615 12.1367 183.909 11.8519 183.394 11.2822V14.8438H182.129V4.60352H183.284L183.346 5.42383C183.861 4.78581 184.576 4.4668 185.492 4.4668C186.381 4.4668 187.083 4.80176 187.598 5.47168C188.117 6.1416 188.377 7.07357 188.377 8.26758V8.38379ZM187.112 8.24023C187.112 7.40625 186.935 6.74772 186.579 6.26465C186.224 5.78158 185.736 5.54004 185.116 5.54004C184.351 5.54004 183.776 5.87956 183.394 6.55859V10.0928C183.772 10.7673 184.351 11.1045 185.13 11.1045C185.736 11.1045 186.217 10.8652 186.572 10.3867C186.932 9.90365 187.112 9.18815 187.112 8.24023ZM191.255 5.49902C191.815 4.81087 192.545 4.4668 193.442 4.4668C195.006 4.4668 195.794 5.34863 195.808 7.1123V12H194.543V7.10547C194.538 6.57227 194.415 6.17806 194.174 5.92285C193.937 5.66764 193.565 5.54004 193.06 5.54004C192.649 5.54004 192.289 5.64941 191.979 5.86816C191.67 6.08691 191.428 6.37402 191.255 6.72949V12H189.99V1.5H191.255V5.49902ZM202.268 12C202.195 11.8542 202.135 11.5944 202.09 11.2207C201.502 11.8314 200.8 12.1367 199.984 12.1367C199.255 12.1367 198.656 11.9316 198.187 11.5215C197.722 11.1068 197.489 10.5827 197.489 9.94922C197.489 9.17904 197.781 8.58203 198.364 8.1582C198.952 7.72982 199.777 7.51562 200.839 7.51562H202.069V6.93457C202.069 6.49251 201.937 6.1416 201.673 5.88184C201.409 5.61751 201.019 5.48535 200.504 5.48535C200.053 5.48535 199.674 5.59928 199.369 5.82715C199.064 6.05501 198.911 6.33073 198.911 6.6543H197.64C197.64 6.28516 197.77 5.92969 198.029 5.58789C198.294 5.24154 198.649 4.9681 199.096 4.76758C199.547 4.56706 200.041 4.4668 200.579 4.4668C201.431 4.4668 202.099 4.68099 202.582 5.10938C203.065 5.5332 203.316 6.11882 203.334 6.86621V10.2705C203.334 10.9495 203.421 11.4896 203.594 11.8906V12H202.268ZM200.169 11.0361C200.565 11.0361 200.941 10.9336 201.297 10.7285C201.652 10.5234 201.91 10.2568 202.069 9.92871V8.41113H201.078C199.529 8.41113 198.754 8.86458 198.754 9.77148C198.754 10.168 198.886 10.4779 199.15 10.7012C199.415 10.9245 199.754 11.0361 200.169 11.0361ZM203.218 3.61914H202.056L200.709 2.34766L199.362 3.61914H198.207L200.066 1.82812H201.352L203.218 3.61914ZM202.65 2.67578L202.644 1.78027C202.94 1.76204 203.154 1.72331 203.286 1.66406C203.423 1.60482 203.491 1.5 203.491 1.34961C203.491 1.04427 203.17 0.891602 202.527 0.891602L202.562 0.262695C203.145 0.262695 203.589 0.362956 203.895 0.563477C204.2 0.763997 204.353 1.0306 204.353 1.36328C204.353 1.63216 204.268 1.8418 204.1 1.99219C203.931 2.14258 203.71 2.23372 203.437 2.26562L203.43 2.67578H202.65ZM206.506 4.60352L206.54 5.42383C207.082 4.78581 207.814 4.4668 208.734 4.4668C209.769 4.4668 210.473 4.86328 210.847 5.65625C211.093 5.30078 211.412 5.01367 211.804 4.79492C212.2 4.57617 212.667 4.4668 213.205 4.4668C214.827 4.4668 215.652 5.32585 215.68 7.04395V12H214.415V7.11914C214.415 6.59049 214.294 6.19629 214.053 5.93652C213.811 5.6722 213.406 5.54004 212.836 5.54004C212.367 5.54004 211.977 5.68132 211.667 5.96387C211.357 6.24186 211.177 6.61784 211.127 7.0918V12H209.855V7.15332C209.855 6.0778 209.329 5.54004 208.276 5.54004C207.447 5.54004 206.88 5.89323 206.574 6.59961V12H205.31V4.60352H206.506Z" fill="#8E9098"/>
</svg>
