<svg width="88" height="88" viewBox="0 0 88 88" fill="none" xmlns="http://www.w3.org/2000/svg">
<path d="M44 76C61.6731 76 76 61.6731 76 44C76 26.3269 61.6731 12 44 12C26.3269 12 12 26.3269 12 44C12 61.6731 26.3269 76 44 76Z" fill="url(#paint0_linear)"/>
<path fill-rule="evenodd" clip-rule="evenodd" d="M66.675 21.4199C57.9985 31.0809 44.4584 43.6422 30.2487 47.122C23.8483 48.6835 18.6073 52.0567 14.4922 56.4016C19.3372 67.9158 30.7247 76 44.0003 76C61.6734 76 76.0003 61.6731 76.0003 44C76.0003 35.1875 72.4381 27.207 66.675 21.4199Z" fill="url(#paint1_linear)"/>
<path fill-rule="evenodd" clip-rule="evenodd" d="M32.5391 73.8869C60.7464 55.7188 65.4431 44.2533 71.8194 28.6878C71.8599 28.5889 71.9005 28.4898 71.9411 28.3906C74.5264 33.0082 76.0001 38.3323 76.0001 44.0006C76.0001 61.6737 61.6732 76.0006 44.0001 76.0006C39.9613 76.0006 36.0973 75.2523 32.5391 73.8869Z" fill="url(#paint2_linear)"/>
<path d="M54 19.5H34C32.3431 19.5 31 20.8431 31 22.5V65.5C31 67.1569 32.3431 68.5 34 68.5H54C55.6569 68.5 57 67.1569 57 65.5V22.5C57 20.8431 55.6569 19.5 54 19.5Z" fill="black"/>
<mask id="mask0" mask-type="alpha" maskUnits="userSpaceOnUse" x="32" y="20" width="24" height="48">
<path d="M53.5 20.5H34.5C33.1193 20.5 32 21.6193 32 23V65C32 66.3807 33.1193 67.5 34.5 67.5H53.5C54.8807 67.5 56 66.3807 56 65V23C56 21.6193 54.8807 20.5 53.5 20.5Z" fill="white"/>
</mask>
<g mask="url(#mask0)">
<rect x="32" y="20.5" width="24" height="47" fill="url(#paint3_linear)"/>
<g style="mix-blend-mode:overlay" opacity="0.5">
<path d="M60.8172 81.5H27.8895C27.8895 81.5 19.2284 70.7047 38.9926 59.316C58.7568 47.9465 56.3722 43.3336 62 32.5L60.8172 81.5Z" fill="url(#paint4_linear)"/>
</g>
<g style="mix-blend-mode:overlay" opacity="0.5">
<path d="M69.6917 61.7919L38.5031 72.3512C38.5031 72.3512 26.8375 64.9034 41.9058 47.7782C56.9802 30.6712 53.2422 27.0666 55.0988 15.0004L69.6917 61.7919Z" fill="url(#paint5_linear)"/>
</g>
<path d="M39 19.5H49V19.5C49 20.6046 48.1046 21.5 47 21.5H41C39.8954 21.5 39 20.6046 39 19.5V19.5Z" fill="black"/>
</g>
<path d="M19 10.5C19.5523 10.5 20 10.0523 20 9.5C20 8.94772 19.5523 8.5 19 8.5C18.4477 8.5 18 8.94772 18 9.5C18 10.0523 18.4477 10.5 19 10.5Z" fill="#1FB6FF"/>
<path d="M79 78C79.5523 78 80 77.5523 80 77C80 76.4477 79.5523 76 79 76C78.4477 76 78 76.4477 78 77C78 77.5523 78.4477 78 79 78Z" fill="#EF5350"/>
<path d="M8.5 9.5C8.77614 9.5 9 9.27614 9 9C9 8.72386 8.77614 8.5 8.5 8.5C8.22386 8.5 8 8.72386 8 9C8 9.27614 8.22386 9.5 8.5 9.5Z" fill="#564393"/>
<path d="M71.5 76.5C71.7761 76.5 72 76.2761 72 76C72 75.7239 71.7761 75.5 71.5 75.5C71.2239 75.5 71 75.7239 71 76C71 76.2761 71.2239 76.5 71.5 76.5Z" fill="#66BB6A"/>
<path fill-rule="evenodd" clip-rule="evenodd" d="M13.5 16H14.5015C14.7768 16 15 16.2219 15 16.5C15 16.7761 14.7735 17 14.5015 17H13.5V18.0015C13.5 18.2768 13.2781 18.5 13 18.5C12.7239 18.5 12.5 18.2735 12.5 18.0015V17H11.4985C11.2232 17 11 16.7781 11 16.5C11 16.2239 11.2265 16 11.4985 16H12.5V14.9985C12.5 14.7232 12.7219 14.5 13 14.5C13.2761 14.5 13.5 14.7265 13.5 14.9985V16Z" fill="#7ED321"/>
<path fill-rule="evenodd" clip-rule="evenodd" d="M77.5 69H78.5015C78.7768 69 79 69.2219 79 69.5C79 69.7761 78.7735 70 78.5015 70H77.5V71.0015C77.5 71.2768 77.2781 71.5 77 71.5C76.7239 71.5 76.5 71.2735 76.5 71.0015V70H75.4985C75.2232 70 75 69.7781 75 69.5C75 69.2239 75.2265 69 75.4985 69H76.5V67.9985C76.5 67.7232 76.7219 67.5 77 67.5C77.2761 67.5 77.5 67.7265 77.5 67.9985V69Z" fill="#FFA726"/>
<g filter="url(#filter0_d)">
<ellipse cx="44" cy="38" rx="8" ry="8" fill="white"/>
</g>
<path fill-rule="evenodd" clip-rule="evenodd" d="M46.5222 34H45.5444V34.5333C44.8778 34.1778 44.2111 34 43.5 34C41.3222 34 39.5 35.8222 39.5 38C39.5 40.1778 41.3222 42 43.5 42C44.2556 42 44.9667 41.7778 45.5889 41.3778C45.6052 41.4063 45.6211 41.4348 45.6369 41.4631L45.6369 41.4631C45.7934 41.7433 45.9367 42 46.3 42H47.5V34.9778C47.5 34.4444 47.0556 34 46.5222 34ZM44.8881 39.1383L43.483 40.5L42.0779 39.1809C41.3074 38.4574 41.3074 37.266 42.0779 36.5426C42.8484 35.8191 44.1176 35.8191 44.8881 36.5426C45.704 37.266 45.704 38.4149 44.8881 39.1383ZM42.5 38C42.5 37.4477 42.9477 37 43.5 37C44.0523 37 44.5 37.4477 44.5 38C44.5 38.5523 44.0523 39 43.5 39C42.9477 39 42.5 38.5523 42.5 38Z" fill="#E53935"/>
<ellipse cx="44" cy="56.5" rx="4.5" ry="4.5" fill="url(#paint6_linear)"/>
<path d="M42.4148 54L41.8073 54.6075C41.4741 54.9407 41.4018 55.4592 41.64 55.8662C41.9053 56.3215 42.1223 56.6576 43.0313 57.5651C43.9388 58.4741 44.1861 58.5977 44.6338 58.86C45.0423 59.0982 45.5593 59.0259 45.891 58.6927L46.5 58.0852L45.3242 56.9109L44.8463 57.3888C44.789 57.3631 44.7031 57.3179 44.6036 57.2546C44.3986 57.1235 44.1363 56.923 43.9057 56.6908C43.6735 56.4602 43.4474 56.1722 43.2906 55.9401C43.2137 55.8255 43.1519 55.7215 43.1188 55.6537C43.1173 55.6507 43.1173 55.6507 43.1158 55.6477L43.5891 55.1743L42.4148 54Z" fill="white"/>
<defs>
<filter id="filter0_d" x="32" y="28" width="24" height="24" filterUnits="userSpaceOnUse" color-interpolation-filters="sRGB">
<feFlood flood-opacity="0" result="BackgroundImageFix"/>
<feColorMatrix in="SourceAlpha" type="matrix" values="0 0 0 0 0 0 0 0 0 0 0 0 0 0 0 0 0 0 127 0"/>
<feOffset dy="2"/>
<feGaussianBlur stdDeviation="2"/>
<feColorMatrix type="matrix" values="0 0 0 0 0 0 0 0 0 0 0 0 0 0 0 0 0 0 0.15 0"/>
<feBlend mode="normal" in2="BackgroundImageFix" result="effect1_dropShadow"/>
<feBlend mode="normal" in="SourceGraphic" in2="effect1_dropShadow" result="shape"/>
</filter>
<linearGradient id="paint0_linear" x1="12" y1="12" x2="76" y2="76" gradientUnits="userSpaceOnUse">
<stop stop-color="#474BD1"/>
<stop offset="0.0001" stop-color="#6347D1"/>
<stop offset="1" stop-color="#3B39C5"/>
</linearGradient>
<linearGradient id="paint1_linear" x1="36.5003" y1="39" x2="58.2503" y2="70.75" gradientUnits="userSpaceOnUse">
<stop offset="0.0208904" stop-color="#F19AFF" stop-opacity="0.33"/>
<stop offset="1" stop-color="#4A39BE" stop-opacity="0"/>
</linearGradient>
<linearGradient id="paint2_linear" x1="31.4744" y1="39.5625" x2="51.7184" y2="73.3878" gradientUnits="userSpaceOnUse">
<stop offset="0.0208904" stop-color="#9ADBFF" stop-opacity="0.33"/>
<stop offset="1" stop-color="#4A39BE" stop-opacity="0"/>
</linearGradient>
<linearGradient id="paint3_linear" x1="52.6016" y1="27.2392" x2="17.128" y2="44.2742" gradientUnits="userSpaceOnUse">
<stop stop-color="#FF6262"/>
<stop offset="1" stop-color="#732AB6"/>
</linearGradient>
<linearGradient id="paint4_linear" x1="44.0039" y1="81.5021" x2="44.0039" y2="32.5" gradientUnits="userSpaceOnUse">
<stop stop-color="white" stop-opacity="0"/>
<stop offset="1" stop-color="white"/>
</linearGradient>
<linearGradient id="paint5_linear" x1="53.7671" y1="67.1856" x2="38.0531" y2="20.7714" gradientUnits="userSpaceOnUse">
<stop stop-color="white" stop-opacity="0"/>
<stop offset="1" stop-color="white"/>
</linearGradient>
<linearGradient id="paint6_linear" x1="39.5" y1="56.5" x2="48.5" y2="56.5" gradientUnits="userSpaceOnUse">
<stop stop-color="#1CBE55"/>
<stop offset="1" stop-color="#1CBE7A"/>
</linearGradient>
</defs>
</svg>
