<svg width="24" height="24" viewBox="0 0 24 24" fill="none" xmlns="http://www.w3.org/2000/svg">
<rect x="6" y="2" width="12" height="20" fill="url(#paint0_linear)"/>
<path fill-rule="evenodd" clip-rule="evenodd" d="M6 0C5.47656 0 4.94141 0.183594 4.5625 0.5625C4.18359 0.941406 4 1.47656 4 2V22C4 22.5234 4.18359 23.0586 4.5625 23.4375C4.94141 23.8164 5.47656 24 6 24H18C18.5234 24 19.0586 23.8164 19.4375 23.4375C19.8164 23.0586 20 22.5234 20 22V2C20 1.47656 19.8164 0.941406 19.4375 0.5625C19.0586 0.183594 18.5234 0 18 0H14H10H6ZM9 2H6V22H18V2H15V3C15 3.55228 14.5523 4 14 4H10C9.44772 4 9 3.55228 9 3V2Z" fill="url(#paint1_linear)"/>
<defs>
<linearGradient id="paint0_linear" x1="6" y1="12" x2="22.7761" y2="12.3565" gradientUnits="userSpaceOnUse">
<stop stop-color="#F44336"/>
<stop offset="1" stop-color="#F47A36"/>
</linearGradient>
<linearGradient id="paint1_linear" x1="4" y1="-0.5" x2="22" y2="27" gradientUnits="userSpaceOnUse">
<stop stop-color="#464646"/>
<stop offset="1"/>
</linearGradient>
</defs>
</svg>
