<svg width="176" height="176" viewBox="0 0 176 176" fill="none" xmlns="http://www.w3.org/2000/svg">
<path d="M88 152C123.346 152 152 123.346 152 88C152 52.6538 123.346 24 88 24C52.6538 24 24 52.6538 24 88C24 123.346 52.6538 152 88 152Z" fill="url(#paint0_linear)"/>
<path fill-rule="evenodd" clip-rule="evenodd" d="M143.908 56.8262C127.447 72.7743 106.369 88.8877 84.4973 94.2438C63.8077 99.2913 49.1754 113.804 40.3184 130.69C52.0365 143.77 69.0574 152 88.0005 152C123.347 152 152 123.346 152 87.9997C152 76.6821 149.063 66.0506 143.908 56.8262Z" fill="url(#paint1_linear)"/>
<g filter="url(#filter0_d)">
<path d="M109.548 48.2689L42.9309 86.7305C41.0177 87.835 40.3622 90.2814 41.4668 92.1946L61.4668 126.836C62.5714 128.749 65.0177 129.404 66.9309 128.3L133.548 89.8381C135.461 88.7336 136.117 86.2872 135.012 84.374L115.012 49.733C113.908 47.8199 111.461 47.1644 109.548 48.2689Z" fill="url(#paint2_linear)"/>
</g>
<g filter="url(#filter1_d)">
<path d="M126 64H50C47.7909 64 46 65.7909 46 68V108C46 110.209 47.7909 112 50 112H126C128.209 112 130 110.209 130 108V68C130 65.7909 128.209 64 126 64Z" fill="url(#paint3_linear)"/>
</g>
<path fill-rule="evenodd" clip-rule="evenodd" d="M76.8387 80.6494C76.2471 80.6013 75.9597 80.2827 75.9597 79.6762V73.3223C75.9597 72.7078 76.2516 72.3919 76.8519 72.3553L79.1541 72.3496C79.5944 72.3496 80.0011 72.3732 80.3631 72.4196C80.722 72.4654 81.0747 72.5555 81.4116 72.6861C81.7468 72.8124 82.0707 73.0006 82.3763 73.2461C82.8631 73.626 83.2311 74.0957 83.4714 74.6423C83.7134 75.1874 83.8361 75.7933 83.8361 76.4431C83.8361 76.8254 83.7954 77.2045 83.7161 77.57C83.6327 77.9394 83.5064 78.2921 83.3402 78.6181C83.1745 78.9434 82.9628 79.2425 82.7105 79.5065C81.9615 80.2644 80.8953 80.6494 79.5433 80.6494H76.8387ZM78.7822 72.9952C79.27 72.9952 79.7113 73.0917 80.0945 73.2824C80.4729 73.4728 80.7927 73.738 81.0439 74.0711C81.2901 74.3982 81.4766 74.7802 81.599 75.2054C81.7249 75.633 81.7887 76.0914 81.7887 76.5672C81.7887 77.0311 81.7268 77.4754 81.6048 77.8884C81.4819 78.2988 81.2952 78.6686 81.0494 78.9868C80.8054 79.3085 80.4934 79.5621 80.1221 79.7407C79.756 79.9188 79.3282 80.0092 78.8517 80.0092C78.5501 80.0092 78.3376 79.9708 78.2035 79.8915C78.056 79.807 77.9653 79.6791 77.9332 79.5121C77.9006 79.359 77.8848 79.1247 77.8848 78.7957V74.0789C77.8848 73.7822 77.8986 73.5728 77.9272 73.4415C77.9552 73.2881 78.0386 73.172 78.1772 73.0939C78.304 73.0274 78.5019 72.9952 78.7822 72.9952ZM74.0048 80.6494C73.3453 80.6494 73.0391 80.2498 73.0391 79.392V73.6056C73.0391 72.7489 73.3453 72.3496 74.0048 72.3496C74.6594 72.3496 74.9642 72.7489 74.9642 73.6056V79.392C74.9642 80.2498 74.6594 80.6494 74.0048 80.6494Z" fill="white"/>
<path fill-rule="evenodd" clip-rule="evenodd" d="M63.1023 71.8592C63.1023 71.8592 59.7877 81.1359 59.4568 81.8303C59.1912 82.3876 58.7757 82.6179 58.1459 82.6179C57.5673 82.6179 57.21 82.3478 56.9544 81.961C56.4955 81.2647 53.3243 73.5839 53.0395 72.5151C52.8776 71.9069 53.2091 71.1409 54.1202 71.0165C54.9048 70.9087 55.5108 71.337 55.78 72.0818C56.3447 73.643 58.8277 79.4084 58.8277 79.4084C58.8277 79.4084 60.5778 74.5957 61.8039 71.4744C61.9452 71.1136 62.3013 70.9549 62.6267 71.0565C63.2319 71.2458 63.1418 71.754 63.1023 71.8592ZM70.4749 80.6947C71.07 80.6947 71.3471 80.4183 71.3471 79.8265L71.3354 77.1587C71.3354 76.3812 71.1741 75.8254 70.8553 75.5085C70.4554 75.1088 69.9065 74.9064 69.2249 74.9064C68.5401 74.9064 67.9748 75.1325 67.5446 75.5766L67.4168 75.7093L67.3642 75.5313C67.2398 75.1113 66.967 74.9064 66.5286 74.9064C65.9337 74.9064 65.6574 75.1847 65.6574 75.7818V79.8262C65.6574 80.4183 65.9337 80.6947 66.5286 80.6947C67.1228 80.6947 67.3997 80.4183 67.3997 79.8262L67.4001 77.067C67.4163 76.6806 67.4784 76.4059 67.5889 76.228C67.8093 75.8706 68.1504 75.6891 68.6025 75.6891C69.032 75.6891 69.3116 75.8334 69.4339 76.1192C69.5427 76.378 69.5983 76.7402 69.5983 77.1944L69.6034 79.8262C69.6034 80.4183 69.8808 80.6947 70.4749 80.6947ZM63.8099 80.6947C64.4012 80.6947 64.6766 80.4162 64.6766 79.8184V75.7867C64.6766 75.1896 64.4012 74.9113 63.8099 74.9113C63.2143 74.9113 62.9376 75.1896 62.9376 75.7867V79.8184C62.9376 80.4162 63.2143 80.6947 63.8099 80.6947ZM63.8054 74.5447C64.5834 74.5447 64.6732 74.1514 64.6732 73.8561C64.6732 73.5607 64.5834 73.1674 63.8054 73.1674C63.0213 73.1674 62.9311 73.5607 62.9311 73.8561C62.9311 74.1514 63.0213 74.5447 63.8054 74.5447Z" fill="white"/>
<path opacity="0.3" d="M122 90H54C53.4477 90 53 90.4477 53 91V93C53 93.5523 53.4477 94 54 94H122C122.552 94 123 93.5523 123 93V91C123 90.4477 122.552 90 122 90Z" fill="url(#paint4_linear)"/>
<path opacity="0.3" d="M82 98H54C53.4477 98 53 98.4477 53 99V101C53 101.552 53.4477 102 54 102H82C82.5523 102 83 101.552 83 101V99C83 98.4477 82.5523 98 82 98Z" fill="url(#paint5_linear)"/>
<path d="M24 30C25.1046 30 26 29.1046 26 28C26 26.8954 25.1046 26 24 26C22.8954 26 22 26.8954 22 28C22 29.1046 22.8954 30 24 30Z" fill="#F8D11B"/>
<path d="M147 145C148.105 145 149 144.105 149 143C149 141.895 148.105 141 147 141C145.895 141 145 141.895 145 143C145 144.105 145.895 145 147 145Z" fill="#E08CF1"/>
<path d="M42 25C42.5523 25 43 24.5523 43 24C43 23.4477 42.5523 23 42 23C41.4477 23 41 23.4477 41 24C41 24.5523 41.4477 25 42 25Z" fill="#51E4C2"/>
<path d="M147 133C147.552 133 148 132.552 148 132C148 131.448 147.552 131 147 131C146.448 131 146 131.448 146 132C146 132.552 146.448 133 147 133Z" fill="#4A90E2"/>
<path fill-rule="evenodd" clip-rule="evenodd" d="M35 35H37.003C37.5536 35 38 35.4439 38 36C38 36.5523 37.547 37 37.003 37H35V39.003C35 39.5536 34.5561 40 34 40C33.4477 40 33 39.547 33 39.003V37H30.997C30.4464 37 30 36.5561 30 36C30 35.4477 30.453 35 30.997 35H33V32.997C33 32.4464 33.4439 32 34 32C34.5523 32 35 32.453 35 32.997V35Z" fill="#A7D3FD"/>
<path fill-rule="evenodd" clip-rule="evenodd" d="M136 145H138.003C138.554 145 139 145.444 139 146C139 146.552 138.547 147 138.003 147H136V149.003C136 149.554 135.556 150 135 150C134.448 150 134 149.547 134 149.003V147H131.997C131.446 147 131 146.556 131 146C131 145.448 131.453 145 131.997 145H134V142.997C134 142.446 134.444 142 135 142C135.552 142 136 142.453 136 142.997V145Z" fill="#F8E71C"/>
<defs>
<filter id="filter0_d" x="35.4668" y="44.2695" width="105.546" height="92.0308" filterUnits="userSpaceOnUse" color-interpolation-filters="sRGB">
<feFlood flood-opacity="0" result="BackgroundImageFix"/>
<feColorMatrix in="SourceAlpha" type="matrix" values="0 0 0 0 0 0 0 0 0 0 0 0 0 0 0 0 0 0 127 0"/>
<feOffset dy="2"/>
<feGaussianBlur stdDeviation="2"/>
<feColorMatrix type="matrix" values="0 0 0 0 0 0 0 0 0 0 0 0 0 0 0 0 0 0 0.15 0"/>
<feBlend mode="normal" in2="BackgroundImageFix" result="effect1_dropShadow"/>
<feBlend mode="normal" in="SourceGraphic" in2="effect1_dropShadow" result="shape"/>
</filter>
<filter id="filter1_d" x="42" y="62" width="92" height="56" filterUnits="userSpaceOnUse" color-interpolation-filters="sRGB">
<feFlood flood-opacity="0" result="BackgroundImageFix"/>
<feColorMatrix in="SourceAlpha" type="matrix" values="0 0 0 0 0 0 0 0 0 0 0 0 0 0 0 0 0 0 127 0"/>
<feOffset dy="2"/>
<feGaussianBlur stdDeviation="2"/>
<feColorMatrix type="matrix" values="0 0 0 0 0 0 0 0 0 0 0 0 0 0 0 0 0 0 0.15 0"/>
<feBlend mode="normal" in2="BackgroundImageFix" result="effect1_dropShadow"/>
<feBlend mode="normal" in="SourceGraphic" in2="effect1_dropShadow" result="shape"/>
</filter>
<linearGradient id="paint0_linear" x1="24" y1="24" x2="152" y2="152" gradientUnits="userSpaceOnUse">
<stop stop-color="#474BD1"/>
<stop offset="0.0001" stop-color="#6347D1"/>
<stop offset="1" stop-color="#3B39C5"/>
</linearGradient>
<linearGradient id="paint1_linear" x1="73.0005" y1="77.9997" x2="116.5" y2="141.5" gradientUnits="userSpaceOnUse">
<stop offset="0.0208904" stop-color="#F19AFF" stop-opacity="0.33"/>
<stop offset="1" stop-color="#4A39BE" stop-opacity="0"/>
</linearGradient>
<linearGradient id="paint2_linear" x1="82.5005" y1="56.4997" x2="90.0005" y2="116" gradientUnits="userSpaceOnUse">
<stop stop-color="#FE3D50"/>
<stop offset="1" stop-color="#FE3DC8"/>
</linearGradient>
<linearGradient id="paint3_linear" x1="128.5" y1="113" x2="34.5" y2="52.5" gradientUnits="userSpaceOnUse">
<stop stop-color="#3C60E1"/>
<stop offset="1" stop-color="#2CB5F0"/>
</linearGradient>
<linearGradient id="paint4_linear" x1="53" y1="92" x2="132.297" y2="92" gradientUnits="userSpaceOnUse">
<stop stop-color="white"/>
<stop offset="1" stop-color="#D6FF80"/>
</linearGradient>
<linearGradient id="paint5_linear" x1="53" y1="100" x2="86.9844" y2="100" gradientUnits="userSpaceOnUse">
<stop stop-color="white"/>
<stop offset="1" stop-color="#D6FF80"/>
</linearGradient>
</defs>
</svg>
