<svg width="24" height="24" viewBox="0 0 24 24" fill="none" xmlns="http://www.w3.org/2000/svg">
<path fill-rule="evenodd" clip-rule="evenodd" d="M9.5 2.99701V6H6.00214C4.89453 6 4 6.89636 4 8.00214V19.9979C4 21.1055 4.89636 22 6.00214 22H17.9979C19.1055 22 20 21.1036 20 19.9979V8.00214C20 6.89453 19.1036 6 17.9979 6H14.5V2.99701C14.5 2.44727 14.0524 2 13.5002 2H10.4998C9.94373 2 9.5 2.44641 9.5 2.99701ZM6 20V8H9.5V9.00299C9.5 9.55273 9.94763 10 10.4998 10H13.5002C14.0563 10 14.5 9.55359 14.5 9.00299V8H18V20H6ZM10 13C10 11.8954 10.8954 11 12 11C13.1046 11 14 11.8954 14 13C14 13.621 13.717 14.4919 13.2729 15.1356L14.5513 15.7755C14.7991 15.8995 15 16.2217 15 16.5047V17C15 17.5523 14.549 18 13.9957 18H10.0043C9.44965 18 9 17.5562 9 17V16.5047C9 16.226 9.19702 15.9016 9.44312 15.7787L10.728 15.1369C10.2834 14.4932 10 13.6214 10 13ZM12.5 8H11.5V4H12.5V8Z" fill="#333333"/>
</svg>
