<svg width="24" height="24" viewBox="0 0 24 24" fill="none" xmlns="http://www.w3.org/2000/svg">
<path fill-rule="evenodd" clip-rule="evenodd" d="M7.63289 6.95813C7.63289 4.33197 9.35881 2.1875 12.0366 2.1875H13.1375L13.5962 3.05908C15.7808 3.4834 16.4402 5.21503 16.4402 6.95813V8.9765L16.0274 9.34344C15.3393 10.8458 13.8198 11.9123 12.0366 11.9123C10.2705 11.9123 8.79688 10.8572 8.0916 9.38934L7.63289 9.02234V6.95813ZM3.96317 18.426C5.10422 16.9753 7.54688 14.848 11.9448 14.848C16.3428 14.848 18.7395 16.9753 19.8806 18.426C17.9941 20.7311 15.1501 22.1875 11.9448 22.1875C8.73955 22.1875 5.84964 20.7311 3.96317 18.426Z" fill="#333333"/>
</svg>
