<svg width="24" height="24" viewBox="0 0 24 24" fill="none" xmlns="http://www.w3.org/2000/svg">
<path fill-rule="evenodd" clip-rule="evenodd" d="M0 12C0 5.38593 5.38594 0 12 0C18.6141 0 24 5.38593 24 12C24 18.6141 18.6141 24 12 24C5.38594 24 0 18.6141 0 12ZM22 12C22 6.46289 17.5371 2 12 2C6.46289 2 2 6.46289 2 12C2 17.5371 6.46289 22 12 22C17.5371 22 22 17.5371 22 12ZM12 5.375C10.1758 5.375 9 6.83594 9 8.625V10.0312L9.3125 10.2812C9.79297 11.2812 10.7969 12 12 12C13.2148 12 14.25 11.2734 14.7188 10.25L15 10V8.625C15 7.4375 14.5508 6.25781 13.0625 5.96875L12.75 5.375H12ZM5.63 16.925C6.55072 15.7391 8.52169 14 12.0704 14C15.6191 14 17.553 15.7391 18.4738 16.925C16.9516 18.8094 14.6567 20 12.0704 20C9.48405 20 7.15219 18.8094 5.63 16.925Z" fill="#333333"/>
</svg>
