<svg width="24" height="24" viewBox="0 0 24 24" fill="none" xmlns="http://www.w3.org/2000/svg">
<path fill-rule="evenodd" clip-rule="evenodd" d="M2 12C2 6.48828 6.48828 2 12 2C17.5117 2 22 6.48828 22 12C22 17.5117 17.5117 22 12 22C6.48828 22 2 17.5117 2 12ZM20 12C20 7.57031 16.4297 4 12 4C7.57031 4 4 7.57031 4 12C4 16.4297 7.57031 20 12 20C16.4297 20 20 16.4297 20 12ZM12 5.375C10.1758 5.375 9 6.83594 9 8.625V10.0312L9.3125 10.2812C9.79297 11.2812 10.7969 12 12 12C13.2148 12 14.25 11.2734 14.7188 10.25L15 10V8.625C15 7.4375 14.5508 6.25781 13.0625 5.96875L12.75 5.375H12ZM6.5 16.4375C7.27734 15.4492 8.94141 14 11.9375 14C14.9336 14 16.5664 15.4492 17.3438 16.4375C16.0586 18.0078 14.1211 19 11.9375 19C9.75391 19 7.78516 18.0078 6.5 16.4375Z" fill="#333333"/>
</svg>
