<svg width="24" height="24" viewBox="0 0 24 24" fill="none" xmlns="http://www.w3.org/2000/svg">
<path fill-rule="evenodd" clip-rule="evenodd" d="M18.0444 4H16.0889V5.06665C14.7556 4.35553 13.4222 4 12 4C7.64444 4 4 7.64447 4 12C4 16.3555 7.64444 20 12 20C13.5111 20 14.9333 19.5555 16.1778 18.7556C16.2104 18.8126 16.2422 18.8696 16.2738 18.9261C16.5867 19.4866 16.8733 20 17.6 20H20V5.95557C20 4.88892 19.1111 4 18.0444 4ZM14.7762 14.2766L11.966 17L9.15581 14.3617C7.61473 12.9149 7.61473 10.5319 9.15581 9.08508C10.6969 7.63831 13.2351 7.63831 14.7762 9.08508C16.4079 10.5319 16.4079 12.8298 14.7762 14.2766ZM10 12C10 10.8954 10.8955 10 12 10C13.1046 10 14 10.8954 14 12C14 13.1046 13.1046 14 12 14C10.8955 14 10 13.1046 10 12Z" fill="#333333"/>
</svg>
