<svg width="24" height="24" viewBox="0 0 24 24" fill="none" xmlns="http://www.w3.org/2000/svg">
<path fill-rule="evenodd" clip-rule="evenodd" d="M5.5 15H7.89999L6.6954 21.0229C6.58749 21.5626 6.94327 22 7.50296 22H8.99704C9.55096 22 10.2156 21.608 10.4833 21.1213L13.85 15H19C20.6566 15 22 13.6569 22 12C22 10.3465 20.6569 9 19 9H13.85L10.4833 2.87866C10.2156 2.39203 9.55096 2 8.99704 2H7.50296C6.94327 2 6.58749 2.43744 6.6954 2.97705L7.89999 9H5.5L3.73975 7.99414C2.77676 7.44385 2 7.89526 2 8.99963V15.0004C2 16.1038 2.7789 16.5549 3.73975 16.0059L5.5 15ZM9.84003 13H7.89999H4.96887L4.00119 13.553L4 10.4594L4.96887 11H9.84396C10.1157 11 10.2956 10.7801 10.2414 10.5088L9.00345 4.31927L12.4271 10.5617C12.5618 10.8073 12.8901 11 13.1647 11H19C19.5508 11 20 11.4496 20 12C20 12.5522 19.5522 13 19 13H13.1647C12.889 13 12.5597 13.1959 12.4268 13.4376L8.99991 19.6683L10.2411 13.4904C10.295 13.2219 10.1159 13 9.84003 13Z" fill="#333333"/>
</svg>
