<svg width="24" height="24" viewBox="0 0 24 24" fill="none" xmlns="http://www.w3.org/2000/svg">
<path fill-rule="evenodd" clip-rule="evenodd" d="M12.8613 3.52734C13.6483 2.70935 14.972 2.06702 16.125 2C16.318 3.12 15.785 4.20734 15.082 4.98633C14.329 5.81934 13.0714 6.47833 11.8184 6.44531C11.5894 5.37634 12.1503 4.27136 12.8613 3.52734ZM13.9202 7.07507C14.5323 6.77435 15.2061 6.44336 16.1934 6.44336C17.5583 6.44336 19.8527 7.67267 20.6387 9.01367C16.4747 10.1717 17.1657 15.7723 20.6387 16.6523C20.1707 17.6923 19.9224 18.162 19.3184 19.082C18.4763 20.367 17.3237 21.989 15.8477 22C15.2416 22.0051 14.8337 21.8249 14.3947 21.6309C13.884 21.4053 13.3311 21.1609 12.375 21.168C11.4267 21.1727 10.8942 21.4133 10.4047 21.6346C9.97736 21.8277 9.5827 22.006 8.97266 22C6.81766 22 3 17.3243 3 13.1113C3 8.48035 6.22565 6.51465 8.34766 6.51367C9.16483 6.51367 9.87729 6.79932 10.5558 7.07135C11.1725 7.31866 11.7612 7.55469 12.375 7.55469C12.9442 7.55469 13.4108 7.32538 13.9202 7.07507Z" fill="#333333"/>
</svg>
