<svg width="24" height="24" viewBox="0 0 24 24" fill="none" xmlns="http://www.w3.org/2000/svg">
<path fill-rule="evenodd" clip-rule="evenodd" d="M10.9995 18.7957L10.9995 7.62273L6.11751 12.5047C5.72751 12.8957 5.09351 12.8947 4.70451 12.5027L4.69951 12.4977C4.31251 12.1087 4.31351 11.4787 4.70251 11.0897L11.2945 4.49773C11.6845 4.10773 12.3145 4.10773 12.7045 4.49773L19.2945 11.0877C19.6845 11.4767 19.6845 12.1087 19.2945 12.4977C18.9045 12.8877 18.2735 12.8877 17.8845 12.4987L12.9995 7.62273L12.9995 18.7957C12.9995 19.3467 12.5535 19.7927 12.0025 19.7927H11.9975C11.4465 19.7927 10.9995 19.3467 10.9995 18.7957Z" fill="#333333"/>
</svg>
