<svg width="24" height="24" viewBox="0 0 24 24" fill="none" xmlns="http://www.w3.org/2000/svg">
<path fill-rule="evenodd" clip-rule="evenodd" d="M12.9975 5.20223V16.3752L17.8795 11.4932C18.2695 11.1022 18.9035 11.1032 19.2925 11.4952L19.2975 11.5002C19.6845 11.8892 19.6835 12.5192 19.2945 12.9082L12.7025 19.5002C12.3125 19.8902 11.6825 19.8902 11.2925 19.5002L4.7025 12.9102C4.3125 12.5212 4.3125 11.8892 4.7025 11.5002C5.0925 11.1102 5.7235 11.1102 6.1125 11.4992L10.9975 16.3752V5.20223C10.9975 4.65123 11.4435 4.20523 11.9945 4.20523L11.9995 4.20523C12.5505 4.20523 12.9975 4.65123 12.9975 5.20223Z" fill="#333333"/>
</svg>
