<svg width="24" height="24" viewBox="0 0 24 24" fill="none" xmlns="http://www.w3.org/2000/svg">
<path fill-rule="evenodd" clip-rule="evenodd" d="M18.5 4.93335C18.5 4.34424 17.8284 2 17 2C16.1716 2 15.5 4.34424 15.5 4.93335C15.5 5.52246 16.1716 6 17 6C17.8284 6 18.5 5.52246 18.5 4.93335ZM7 7C6.44386 7 6 7.44727 6 7.99902V10H4.99509C3.89262 10 3 10.8932 3 11.9951V20H2.00246C1.44943 20 1 20.4477 1 21C1 21.5562 1.44882 22 2.00246 22H21.9975C22.5506 22 23 21.5523 23 21C23 20.4438 22.5512 20 21.9975 20H21V11.9951C21 10.8922 20.1068 10 19.0049 10H18V7.99902C18 7.44336 17.5523 7 17 7C16.4439 7 16 7.44727 16 7.99902V10H13V7.99902C13 7.44336 12.5523 7 12 7C11.4439 7 11 7.44727 11 7.99902V10H8V7.99902C8 7.44336 7.55229 7 7 7ZM12 11.9985C12.0064 13.0976 12.8994 13.9866 14 13.9866C15.1003 13.9866 15.9931 13.0981 16 11.9994C16.0069 13.0981 16.8997 13.9866 18 13.9866C18.3655 13.9866 18.7082 13.8885 19.003 13.7173L19.0019 16H5V13.7191C5.29417 13.8892 5.63571 13.9866 6 13.9866C7.10104 13.9866 7.99428 13.0969 8.00003 11.9972C8.00572 13.0969 8.89896 13.9866 10 13.9866C11.1006 13.9866 11.9936 13.0976 12 11.9985ZM5 18V20H19.0003L19.001 18H5ZM12 2C12.8284 2 13.5 4.34424 13.5 4.93335C13.5 5.52246 12.8284 6 12 6C11.1716 6 10.5 5.52246 10.5 4.93335C10.5 4.34424 11.1716 2 12 2ZM8.5 4.93335C8.5 4.34424 7.82843 2 7 2C6.17157 2 5.5 4.34424 5.5 4.93335C5.5 5.52246 6.17157 6 7 6C7.82843 6 8.5 5.52246 8.5 4.93335Z" fill="#333333"/>
</svg>
