<svg width="24" height="24" viewBox="0 0 24 24" fill="none" xmlns="http://www.w3.org/2000/svg">
<path fill-rule="evenodd" clip-rule="evenodd" d="M2 12C2 6.48828 6.48828 2 12 2C17.5117 2 22 6.48828 22 12C22 17.5117 17.5117 22 12 22C6.48828 22 2 17.5117 2 12ZM20 12C20 7.57031 16.4297 4 12 4C7.57031 4 4 7.57031 4 12C4 16.4297 7.57031 20 12 20C16.4297 20 20 16.4297 20 12ZM8.5 17H10.5938V13.4062H12.1875L14.0938 17H16.3125V16.9062L14.0938 12.8125C14.1442 12.7868 14.2025 12.7608 14.2645 12.7331C14.4474 12.6515 14.6638 12.555 14.8125 12.4062C14.9017 12.3472 14.9727 12.2885 15.0336 12.2299C15.1095 12.1569 15.1698 12.0841 15.2302 12.0111C15.2849 11.9451 15.3397 11.879 15.4062 11.8125C15.6055 11.5117 15.7109 11.3008 15.8125 11C15.9072 10.7196 15.9068 10.4392 15.9064 10.0797L15.9062 10C15.9062 9.5 15.793 9.08594 15.5938 8.6875C15.4976 8.40259 15.2367 8.14227 14.9538 7.85992L14.9062 7.8125C14.5078 7.51172 14.1875 7.28906 13.6875 7.1875C13.2891 7.08594 12.7891 7 12.1875 7H8.5V17ZM12.3125 8.8125H10.6875V11.8125H12.3125C12.6133 11.8125 12.8008 11.7891 13 11.6875C13.0498 11.6621 13.0996 11.6382 13.1479 11.615C13.2927 11.5454 13.4238 11.4824 13.5 11.4062C13.6016 11.3047 13.7109 11.1055 13.8125 10.9062C13.9141 10.707 13.9062 10.5117 13.9062 10.3125C13.9062 9.8125 13.8008 9.48828 13.5 9.1875C13.1992 8.88672 12.8125 8.8125 12.3125 8.8125Z" fill="#333333"/>
</svg>
