<svg width="24" height="24" viewBox="0 0 24 24" fill="none" xmlns="http://www.w3.org/2000/svg">
<path fill-rule="evenodd" clip-rule="evenodd" d="M17 2C16.4477 2 16 2.44775 16 3V4H8V3C8 2.44775 7.55228 2 7 2C6.44772 2 6 2.44775 6 3V4H4C2.89543 4 2 4.89539 2 6V9V11V20C2 21.1046 2.89543 22 4 22H12.8762C12.4128 21.4072 12.05 20.7321 11.8135 20H4V11H20V11.8135C20.732 12.0499 21.4072 12.4128 22 12.8762V11V9V6C22 4.89539 21.1046 4 20 4H18V3C18 2.44775 17.5523 2 17 2ZM7 7C6.44772 7 6 6.55225 6 6H4V9H20V6H18C18 6.55225 17.5523 7 17 7C16.4477 7 16 6.55225 16 6H8C8 6.55225 7.55228 7 7 7ZM21.856 19.0675C21.9498 18.7277 22 18.3698 22 18C22 17.6278 21.9492 17.2676 21.8541 16.9257L21.9642 16.8621C22.4425 16.5859 22.6064 15.9744 22.3303 15.496C22.0541 15.0177 21.4425 14.8539 20.9642 15.13L20.8517 15.1949C20.126 14.4573 19.1164 14 18 14C16.8836 14 15.8741 14.4574 15.1484 15.1949L15.036 15.13C14.5577 14.8539 13.9461 15.0177 13.67 15.496C13.3939 15.9744 13.5577 16.5859 14.036 16.8621L14.146 16.9255C14.0508 17.2675 14 17.6278 14 18C14 18.3698 14.0502 18.7278 14.1441 19.0676L14.036 19.13C13.5577 19.4061 13.3939 20.0177 13.67 20.496C13.9461 20.9744 14.5577 21.1382 15.036 20.8621L15.1435 20.8C15.8694 21.5405 16.8811 22 18 22C19.119 22 20.1307 21.5405 20.8566 20.7999L20.9642 20.8621C21.4425 21.1382 22.0541 20.9744 22.3303 20.496C22.6064 20.0177 22.4425 19.4061 21.9642 19.13L21.856 19.0675ZM20 18C20 19.1046 19.1046 20 18 20C16.8954 20 16 19.1046 16 18C16 16.8954 16.8954 16 18 16C19.1046 16 20 16.8954 20 18Z" fill="#333333"/>
</svg>
