<svg width="24" height="24" viewBox="0 0 24 24" fill="none" xmlns="http://www.w3.org/2000/svg">
<path fill-rule="evenodd" clip-rule="evenodd" d="M16 3C16 2.44775 16.4477 2 17 2C17.5523 2 18 2.44775 18 3V4H20C21.1046 4 22 4.89539 22 6V9V11V20C22 21.1046 21.1046 22 20 22H4C2.89543 22 2 21.1046 2 20V11V9V6C2 4.89539 2.89543 4 4 4H6V3C6 2.44775 6.44771 2 7 2C7.55229 2 8 2.44775 8 3V4H16V3ZM6 6C6 6.55225 6.44771 7 7 7C7.55229 7 8 6.55225 8 6H16C16 6.55225 16.4477 7 17 7C17.5523 7 18 6.55225 18 6H20V9H4V6H6ZM4 11V20H20V11H4Z" fill="#333333"/>
</svg>
