<svg width="16" height="16" viewBox="0 0 16 16" fill="none" xmlns="http://www.w3.org/2000/svg">
<path d="M10.1001 15C8.50009 15 6.90009 14.4 5.70009 13.2L2.80009 10.3C0.400092 7.9 0.400092 4 2.80009 1.6C3.60009 0.8 4.90009 0.8 5.70009 1.6L7.30009 3C7.70009 3.4 7.90009 3.9 7.90009 4.4C7.90009 4.9 7.70009 5.5 7.30009 5.9L6.50009 6.7L9.40009 9.6L10.1001 8.9C10.9001 8.1 12.2001 8.1 13.0001 8.9L14.4001 10.3C14.8001 10.7 15.0001 11.2 15.0001 11.7C15.0001 12.2 14.8001 12.8 14.4001 13.1C13.3001 14.4 11.8001 15 10.1001 15ZM4.40009 3C2.80009 4.6 2.80009 7.2 4.40009 8.8L7.30009 11.7C8.10009 12.5 9.10009 12.9 10.2001 12.9C11.3001 12.9 12.3001 12.5 13.1001 11.7L11.7001 10.2L10.9001 11C10.1001 11.8 8.80009 11.8 8.00009 11L5.10009 8.1C4.30009 7.3 4.30009 6 5.10009 5.2L5.80009 4.5L4.40009 3Z" fill="#333333"/>
</svg>
