<svg width="24" height="24" viewBox="0 0 24 24" fill="none" xmlns="http://www.w3.org/2000/svg">
<path fill-rule="evenodd" clip-rule="evenodd" d="M5.8 5L6.6285 2.92874C6.83367 2.41581 7.44911 2 7.9954 2H16.0046C16.5543 2 17.1671 2.4177 17.3715 2.92874L18.2 5H20.9991C22.1042 5 23 5.89451 23 7.00213V17.9979C23 19.1036 22.1035 20 20.9991 20H3.00091C1.89584 20 1 19.1055 1 17.9979V7.00213C1 5.89638 1.89655 5 3.00091 5H5.8ZM3.00091 7L3 17.9979L20.9991 18L21 7.00213L17.347 6.99999C17.0703 7 16.763 6.7938 16.6601 6.53782L15.6395 4L8.35415 3.99978L7.34158 6.53122C7.23802 6.79012 6.93077 7 6.6531 7H3.00091ZM16.5 12C16.5 14.4853 14.4853 16.5 12 16.5C9.51472 16.5 7.5 14.4853 7.5 12C7.5 9.51472 9.51472 7.5 12 7.5C14.4853 7.5 16.5 9.51472 16.5 12ZM12 14.5C13.3807 14.5 14.5 13.3807 14.5 12C14.5 10.6193 13.3807 9.5 12 9.5C10.6193 9.5 9.5 10.6193 9.5 12C9.5 13.3807 10.6193 14.5 12 14.5Z" fill="#333333"/>
</svg>
