<svg width="24" height="24" viewBox="0 0 24 24" fill="none" xmlns="http://www.w3.org/2000/svg">
<path fill-rule="evenodd" clip-rule="evenodd" d="M8.00001 10V7.00071C7.80937 7.00055 7.63928 7.00033 7.49778 7.00001C5.50678 6.99556 3.89951 8.00278 3.27769 10L8.00001 10ZM3.00016 15H3.67072C4.08255 13.8348 5.19379 13 6.50001 13C7.80623 13 8.91747 13.8348 9.3293 15H14.6707C15.0826 13.8348 16.1938 13 17.5 13C18.8062 13 19.9175 13.8348 20.3293 15H21V14C21 13.1052 20.531 12.4624 19.4547 12H3.00001C3.0004 12.2662 3.00029 13.9041 3.00016 15ZM14.6061 8.99349C14.5476 8.9024 14.5476 8.9024 14.4901 8.81283C13.5904 7.41376 13.0909 7.00002 12 7.00002C11.5555 7.00002 10.794 7.00048 10 7.00078V10H15.3081C15.0844 9.7147 14.8554 9.3816 14.6061 8.99349ZM23 14V16C23 16.5523 22.5567 17 22.001 17H20.3293C19.9175 18.1652 18.8062 19 17.5 19C16.1938 19 15.0826 18.1652 14.6707 17H9.3293C8.91747 18.1652 7.80623 19 6.50001 19C5.19379 19 4.08255 18.1652 3.67072 17H2.00297C1.44905 17 1.00001 16.5562 1.00001 16C1.00001 16 1.0004 12.2624 1.00001 12.0015C0.993296 7.50551 3.87998 4.99192 7.50221 5.00002C8.52 5.00226 11.0226 5.00002 12 5.00002C13.9563 5.00002 14.94 5.81488 16.1723 7.73105C16.2311 7.82269 16.2311 7.82269 16.2888 7.91247C17.0097 9.03465 17.373 9.39658 17.978 9.51121C21.2129 10.1241 23 11.5108 23 14ZM18.5 16C18.5 15.4477 18.0523 15 17.5 15C16.9477 15 16.5 15.4477 16.5 16C16.5 16.5523 16.9477 17 17.5 17C18.0523 17 18.5 16.5523 18.5 16ZM7.50001 16C7.50001 15.4477 7.0523 15 6.50001 15C5.94773 15 5.50001 15.4477 5.50001 16C5.50001 16.5523 5.94773 17 6.50001 17C7.0523 17 7.50001 16.5523 7.50001 16Z" fill="#333333"/>
</svg>
