<svg width="16" height="16" viewBox="0 0 16 16" fill="none" xmlns="http://www.w3.org/2000/svg">
<path fill-rule="evenodd" clip-rule="evenodd" d="M4.99609 3C4.63281 3 4.28516 3.14453 4.04688 3.375C3.8125 3.60547 3.66797 3.88281 3.54297 4.1875L3.55469 4.15625L2.125 7.12891C2.01172 7.1875 1.86328 7.27344 1.70703 7.39062C1.40625 7.60547 1 7.92188 1 8.5V13C1 13.5508 1.44922 14 2 14H3C3.55228 14 4 13.5523 4 13H12C12 13.5523 12.4477 14 13 14H14C14.5508 14 15 13.5508 15 13V8.5C15 7.92188 14.5938 7.60547 14.293 7.39062C14.1367 7.27344 13.9883 7.19141 13.875 7.13281L12.4453 4.15625C12.3242 3.91016 12.1875 3.64844 11.9648 3.41797C11.7383 3.1875 11.3945 3 11.0039 3H4.99609ZM4.99609 4H11.0039C11.1172 4 11.1562 4.01953 11.2461 4.11328C11.3359 4.20703 11.4414 4.38281 11.5469 4.59375L12.7031 7H3.29688L4.46094 4.57812L4.46875 4.57031C4.56641 4.32812 4.66406 4.16797 4.74219 4.09375C4.82031 4.01953 4.85547 4 4.99609 4ZM5 10C5 10.5523 4.55228 11 4 11C3.44772 11 3 10.5523 3 10C3 9.44772 3.44772 9 4 9C4.55228 9 5 9.44772 5 10ZM12 11C12.5523 11 13 10.5523 13 10C13 9.44772 12.5523 9 12 9C11.4477 9 11 9.44772 11 10C11 10.5523 11.4477 11 12 11Z" fill="#333333"/>
</svg>
