<svg width="24" height="24" viewBox="0 0 24 24" fill="none" xmlns="http://www.w3.org/2000/svg">
<path fill-rule="evenodd" clip-rule="evenodd" d="M3 4C1.89543 4 1 4.89545 1 6V18C1 19.1046 1.89543 20 3 20H21C22.1046 20 23 19.1046 23 18V6C23 4.89545 22.1046 4 21 4H3ZM4 6C3.44772 6 3 6.44769 3 7V8H21V7C21 6.44769 20.5523 6 20 6H4ZM3 17V12H21V17C21 17.5523 20.5523 18 20 18H4C3.44772 18 3 17.5523 3 17ZM6 14C5.44772 14 5 14.4477 5 15C5 15.5523 5.44772 16 6 16H14C14.5523 16 15 15.5523 15 15C15 14.4477 14.5523 14 14 14H6Z" fill="#333333"/>
</svg>
