<svg width="24" height="24" viewBox="0 0 24 24" fill="none" xmlns="http://www.w3.org/2000/svg">
<path fill-rule="evenodd" clip-rule="evenodd" d="M6.26811 4.99884H22.0001C23.1031 4.99884 23.9991 5.8938 24.0001 6.99683L22.3551 14.9318C22.1431 15.5698 21.5461 15.9998 20.8741 15.9998H8.48811L8.78511 16.9998H20.0001C20.5511 16.9998 21.0001 17.4478 21.0001 17.9998C21.0001 18.5528 20.5511 18.9998 20.0001 18.9998H9.00111C7.63611 18.9998 7.10811 18.3538 7.00111 17.9998L4.00011 4.99884L3.7261 3.99884H0.9991C0.447113 3.99884 0.000106812 3.55182 0.000106812 2.99884C0.000106812 2.44781 0.447113 1.99982 0.9991 1.99982H4.6441C5.81311 1.99982 6.00011 3.99982 6.00011 3.99982L6.26811 4.99884ZM8.9998 19.9998C7.89481 19.9998 6.9998 20.8948 6.9998 21.9998C6.9998 23.1048 7.89481 23.9998 8.9998 23.9998C10.1048 23.9998 10.9998 23.1048 10.9998 21.9998C10.9998 20.8948 10.1048 19.9998 8.9998 19.9998ZM18.9998 19.9998C17.8938 19.9998 16.9998 20.8948 16.9998 21.9998C16.9998 23.1048 17.8938 23.9998 18.9998 23.9998C20.1038 23.9998 20.9998 23.1048 20.9998 21.9998C20.9998 20.8948 20.1038 19.9998 18.9998 19.9998Z" fill="#333333"/>
</svg>
