<svg width="24" height="24" viewBox="0 0 24 24" fill="none" xmlns="http://www.w3.org/2000/svg">
<path fill-rule="evenodd" clip-rule="evenodd" d="M18.9997 19.9998C20.1037 19.9998 20.9997 20.8948 20.9997 21.9998C20.9997 23.1048 20.1037 23.9998 18.9997 23.9998C17.8937 23.9998 16.9997 23.1048 16.9997 21.9998C16.9997 20.8948 17.8937 19.9998 18.9997 19.9998ZM8.9997 19.9998C10.1047 19.9998 10.9997 20.8948 10.9997 21.9998C10.9997 23.1048 10.1047 23.9998 8.9997 23.9998C7.8947 23.9998 6.9997 23.1048 6.9997 21.9998C6.9997 20.8948 7.8947 19.9998 8.9997 19.9998ZM22 4.9988C23.103 4.9988 23.999 5.8938 24 6.9968L22.355 14.9318C22.143 15.5698 21.546 15.9998 20.874 15.9998H8.488L8.785 16.9998H20C20.551 16.9998 21 17.4478 21 17.9998C21 18.5528 20.551 18.9998 20 18.9998H9.001C7.636 18.9998 7.108 18.3538 7.001 17.9998L4 4.9988L3.726 3.9988H0.999C0.447 3.9988 0 3.5518 0 2.9988C0 2.4478 0.447 1.9998 0.999 1.9998H4.644C5.813 1.9998 6 3.9998 6 3.9998L6.268 4.9988H22ZM16.4993 1L21.9993 2V4H17.9993L16.4993 1ZM6.6 2L13.9993 0L15.9993 4H7.2L6.6 2Z" fill="#333333"/>
</svg>
