<svg width="24" height="24" viewBox="0 0 24 24" fill="none" xmlns="http://www.w3.org/2000/svg">
<path fill-rule="evenodd" clip-rule="evenodd" d="M20.3557 11.9321C20.1437 12.5701 19.5467 13.0001 18.8747 13.0001H8.4887L8.7857 14.0001H18.0007C18.5517 14.0001 19.0007 14.4481 19.0007 15.0001C19.0007 15.5531 18.5517 16.0001 18.0007 16.0001H9.0017C7.6367 16.0001 7.1087 15.3541 7.0017 15.0001L4.0007 4.99912H0.999702C0.447702 4.99912 0.000701904 4.55212 0.000701904 3.99912C0.000701904 3.44812 0.447702 3.00012 0.999702 3.00012H4.6447C5.8137 3.00012 6.0007 5.00012 6.0007 5.00012L20.0007 4.99912C21.1037 4.99912 21.9997 5.89412 22.0007 6.99712L20.3557 11.9321ZM7.88871 11.0001H18.5577L18.8917 10.0001H7.58871L7.88871 11.0001ZM6.68869 7.00012L6.98869 8.00012H19.5577L19.8907 7.00012H6.68869ZM9.0007 17.0001C10.1057 17.0001 11.0007 17.8951 11.0007 19.0001C11.0007 20.1051 10.1057 21.0001 9.0007 21.0001C7.8957 21.0001 7.0007 20.1051 7.0007 19.0001C7.0007 17.8951 7.8957 17.0001 9.0007 17.0001ZM17.0007 17.0001C18.1047 17.0001 19.0007 17.8951 19.0007 19.0001C19.0007 20.1051 18.1047 21.0001 17.0007 21.0001C15.8947 21.0001 15.0007 20.1051 15.0007 19.0001C15.0007 17.8951 15.8947 17.0001 17.0007 17.0001Z" fill="#333333"/>
</svg>
