<svg width="24" height="24" viewBox="0 0 24 24" fill="none" xmlns="http://www.w3.org/2000/svg">
<path fill-rule="evenodd" clip-rule="evenodd" d="M21.355 12.932C21.143 13.57 20.546 14 19.874 14H9.488L9.785 15H19C19.551 15 20 15.448 20 16C20 16.553 19.551 17 19 17H10.001C8.636 17 8.108 16.354 8.001 16L5 5.999H1.999C1.447 5.999 1 5.552 1 4.999C1 4.448 1.447 4 1.999 4H5.644C6.813 4 7 6 7 6L21 5.999C22.103 5.999 22.999 6.894 23 7.997L21.355 12.932ZM10 18C11.105 18 12 18.895 12 20C12 21.105 11.105 22 10 22C8.895 22 8 21.105 8 20C8 18.895 8.895 18 10 18ZM18 18C19.104 18 20 18.895 20 20C20 21.105 19.104 22 18 22C16.894 22 16 21.105 16 20C16 18.895 16.894 18 18 18Z" fill="#333333"/>
</svg>
