<svg width="32" height="32" viewBox="0 0 32 32" fill="none" xmlns="http://www.w3.org/2000/svg">
<path fill-rule="evenodd" clip-rule="evenodd" d="M25.355 16.932C25.143 17.57 24.546 18 23.874 18H9.488L9.785 20H23C23.551 20 24 20.448 24 21C24 21.553 23.551 22 23 22H10.001C8.636 22 8.108 21.354 8.001 21L5 7.999L4.72637 5.999H1.999C1.447 5.999 1 5.552 1 4.999C1 4.448 1.447 4 1.999 4H5.644C6.813 4 7 6 7 6L7.26806 7.999H25C26.103 7.999 26.999 8.894 27 9.997L25.355 16.932ZM8.88801 16H23.557L23.891 14H8.58801L8.88801 16ZM7.68799 10L7.98799 12H24.557L24.89 10H7.68799ZM12 26C12 27.105 11.105 28 10 28C8.895 28 8 27.105 8 26C8 24.895 8.895 24 10 24C11.105 24 12 24.895 12 26ZM24 26C24 27.105 23.104 28 22 28C20.894 28 20 27.105 20 26C20 24.895 20.894 24 22 24C23.104 24 24 24.895 24 26Z" fill="#333333"/>
</svg>
