<svg width="24" height="24" viewBox="0 0 24 24" fill="none" xmlns="http://www.w3.org/2000/svg">
<path fill-rule="evenodd" clip-rule="evenodd" d="M21.355 13.932C21.143 14.57 20.546 15 19.874 15H9.488L9.785 16H19C19.551 16 20 16.448 20 17C20 17.553 19.551 18 19 18H10.001C8.636 18 8.108 17.354 8.001 17L5 6.999H1.999C1.447 6.999 1 6.552 1 5.999C1 5.448 1.447 5 1.999 5H5.644C6.813 5 7 7 7 7L21 6.999C22.103 6.999 22.999 7.894 23 8.997L21.355 13.932ZM10 19C11.105 19 12 19.895 12 21C12 22.105 11.105 23 10 23C8.895 23 8 22.105 8 21C8 19.895 8.895 19 10 19ZM18 19C19.104 19 20 19.895 20 21C20 22.105 19.104 23 18 23C16.894 23 16 22.105 16 21C16 19.895 16.894 19 18 19ZM17.4993 3L20.9993 4V6H18.9993L17.4993 3ZM7.6 4L14.9993 2L16.9993 6H8.2L7.6 4Z" fill="#333333"/>
</svg>
