<svg width="24" height="24" viewBox="0 0 24 24" fill="none" xmlns="http://www.w3.org/2000/svg">
<path fill-rule="evenodd" clip-rule="evenodd" d="M4.5625 0.5625C4.94141 0.183594 5.47656 0 6 0H18C18.5234 0 19.0586 0.183594 19.4375 0.5625C19.8164 0.941406 20 1.47656 20 2V22C20 22.5234 19.8164 23.0586 19.4375 23.4375C19.0586 23.8164 18.5234 24 18 24H6C5.47656 24 4.94141 23.8164 4.5625 23.4375C4.18359 23.0586 4 22.5234 4 22V2C4 1.47656 4.18359 0.941406 4.5625 0.5625ZM18 2H6V22H18V2ZM12 3C11.4492 3 11 3.44922 11 4C11 4.55078 11.4492 5 12 5C12.5508 5 13 4.55078 13 4C13 3.44922 12.5508 3 12 3ZM11 19C10.4477 19 10 19.4477 10 20C10 20.5523 10.4477 21 11 21H13C13.5523 21 14 20.5523 14 20C14 19.4477 13.5523 19 13 19H11Z" fill="#333333"/>
</svg>
