<svg width="16" height="16" viewBox="0 0 16 16" fill="none" xmlns="http://www.w3.org/2000/svg">
<path d="M4 9H12V16L8 14L4 16V9Z" fill="#333333"/>
<path d="M14.8057 6.03207L14.2142 5.43805C13.784 5.00585 13.5826 4.40468 13.6696 3.80935L13.7887 2.9911C13.8409 2.63235 13.5906 2.29829 13.2233 2.23525L12.3855 2.09226C11.776 1.98828 11.2494 1.61717 10.959 1.08554L10.5602 0.355681C10.3856 0.0372208 9.98077 -0.0908132 9.64621 0.068417L8.88209 0.431072C8.32606 0.694939 7.67502 0.694939 7.11899 0.431072L6.3542 0.068417C6.01965 -0.0908132 5.61484 0.0372208 5.4402 0.356981L5.04141 1.08684C4.75102 1.61847 4.2251 1.98958 3.61487 2.09356L2.77715 2.23655C2.40981 2.29894 2.15956 2.633 2.21175 2.99175L2.33086 3.81C2.41784 4.40533 2.21644 5.0065 1.7862 5.4387L1.19471 6.03272C0.935097 6.29334 0.935097 6.70604 1.19471 6.96666L1.7862 7.56068C2.21644 7.99288 2.41784 8.59406 2.33086 9.18938L2.21175 10.0076C2.15956 10.3664 2.40981 10.7004 2.77715 10.7635L3.61487 10.9065C4.22443 11.0105 4.75102 11.3816 5.04141 11.9132L5.4402 12.6431C5.61484 12.9628 6.01965 13.0908 6.35487 12.9316L7.11899 12.569C7.67502 12.3051 8.32606 12.3051 8.88209 12.569L9.64621 12.9316C9.98144 13.0908 10.3856 12.9628 10.5609 12.6431L10.9597 11.9132C11.2501 11.3822 11.776 11.0105 12.3862 10.9065L13.2239 10.7635C13.5913 10.7011 13.8415 10.3664 13.7893 10.0076L13.6702 9.18938C13.5832 8.59406 13.7846 7.99288 14.2149 7.56068L14.8064 6.96666C15.0647 6.70604 15.0647 6.29269 14.8057 6.03207ZM6.85804 8.90862L5.32378 7.41835C5.06282 7.16488 5.06282 6.75283 5.32378 6.49937C5.58473 6.2459 6.00894 6.2459 6.2699 6.49937L7.3311 7.53014L10.3996 4.54961C10.6606 4.29614 11.0848 4.29614 11.3457 4.54961C11.6067 4.80308 11.6067 5.21513 11.3457 5.46859L7.80416 8.90862C7.54321 9.16208 7.11899 9.16208 6.85804 8.90862Z" fill="#333333"/>
</svg>
