<svg width="24" height="24" viewBox="0 0 24 24" fill="none" xmlns="http://www.w3.org/2000/svg">
<path fill-rule="evenodd" clip-rule="evenodd" d="M8 17.7731L8.34376 18.4508C8.59323 18.9428 9.1715 19.1398 9.65036 18.8948L12.0007 17.6919L14.352 18.8938C14.8309 19.1388 15.4082 18.9418 15.6586 18.4498L16 17.7768V23L12 21L8 23V17.7731Z" fill="#333333"/>
<path d="M20.4758 8.40081L18.8892 6.76081L19.2083 4.50165C19.2733 4.04165 18.9617 3.61331 18.5042 3.53248L16.2567 3.13831L15.1875 1.12331C14.9708 0.714147 14.4667 0.549981 14.05 0.754147L12 1.75581L9.95001 0.754147C9.53334 0.549981 9.02917 0.714147 8.81167 1.12415L7.74251 3.13998L5.495 3.53415C5.0375 3.61415 4.72584 4.04248 4.79084 4.50248L5.11001 6.76165L3.52334 8.40165C3.2 8.73581 3.2 9.26498 3.52334 9.59915L5.11001 11.2391L4.79084 13.4983C4.72584 13.9583 5.0375 14.3866 5.495 14.4675L7.74251 14.8616L8.81167 16.8766C9.02917 17.2866 9.53334 17.4508 9.95084 17.2466L12 16.2441L14.05 17.2458C14.4675 17.45 14.9708 17.2858 15.1892 16.8758L16.2583 14.8608L18.5058 14.4666C18.9633 14.3866 19.275 13.9575 19.21 13.4975L18.8908 11.2383L20.4775 9.59831C20.7983 9.26498 20.7983 8.73498 20.4758 8.40081ZM11.1667 12.6783L8.07751 9.58915L9.25584 8.41081L11.1667 10.3216L15.5775 5.91081L16.7558 7.08915L11.1667 12.6783Z" fill="#333333"/>
</svg>
