<svg width="24" height="24" viewBox="0 0 24 24" fill="none" xmlns="http://www.w3.org/2000/svg">
<path fill-rule="evenodd" clip-rule="evenodd" d="M4 2C2.89543 2 2 2.89543 2 4V20C2 21.1046 2.89543 22 4 22H20C21.1046 22 22 21.1046 22 20V4C22 2.89543 21.1046 2 20 2H4ZM8.8798 16.2972C9.2708 16.6882 9.9028 16.6882 10.2938 16.2972L17.7209 8.71523C18.1099 8.32623 18.1099 7.69723 17.7199 7.30323C17.3299 6.91023 16.6959 6.90923 16.3059 7.30023L10.2928 13.4682C9.9028 13.8592 9.2708 13.8592 8.8798 13.4692L7.7028 12.2972C7.3128 11.9092 6.6818 11.9092 6.2928 12.2982C5.9028 12.6882 5.9028 13.3192 6.2928 13.7092L8.8798 16.2972Z" fill="#333333"/>
</svg>
