<svg width="16" height="16" viewBox="0 0 16 16" fill="none" xmlns="http://www.w3.org/2000/svg">
<path d="M8 2C7.44922 2 7 2.44922 7 3C7 3.51172 7.38672 3.9375 7.89062 3.99219L5.19141 7.82031L2.39844 4.91406C2.76562 4.75391 3 4.39844 3 4C3 3.44922 2.55078 3 2 3C1.44922 3 1 3.44922 1 4C1 4.55078 1.44922 5 2 5V13H14V5C14.5508 5 15 4.55078 15 4C15 3.44922 14.5508 3 14 3C13.4492 3 13 3.44922 13 4C13 4.39844 13.2344 4.75781 13.5977 4.91406L10.8086 7.82031L8.10938 3.99219C8.61328 3.9375 9 3.51172 9 3C9 2.44922 8.55078 2 8 2Z" fill="#333333"/>
</svg>
