<svg width="24" height="24" viewBox="0 0 24 24" fill="none" xmlns="http://www.w3.org/2000/svg">
<path fill-rule="evenodd" clip-rule="evenodd" d="M13 20.9451V21.9957C13 22.5504 12.5561 23 12 23C11.4477 23 11 22.549 11 21.9957V20.9451C6.82838 20.4839 3.51608 17.1716 3.05493 13H2.00427C1.44963 13 1 12.5562 1 12C1 11.4477 1.45097 11 2.00427 11H3.05493C3.51608 6.82837 6.82838 3.51605 11 3.05493V2.00427C11 1.44965 11.4439 1 12 1C12.5523 1 13 1.45099 13 2.00427V3.05493C17.1716 3.51605 20.4839 6.82837 20.9451 11H21.9957C22.5504 11 23 11.4438 23 12C23 12.5523 22.549 13 21.9957 13H20.9451C20.4839 17.1716 17.1716 20.4839 13 20.9451ZM18.0043 13C17.4496 13 17 12.5561 17 12C17 11.4477 17.451 11 18.0043 11H18.9291C18.4906 7.93427 16.0657 5.5094 13 5.07086V5.99573C13 6.55035 12.5561 7 12 7C11.4477 7 11 6.54901 11 5.99573V5.07086C7.93431 5.5094 5.5094 7.93427 5.07089 11H5.99574C6.55038 11 7 11.4438 7 12C7 12.5522 6.54903 13 5.99574 13H5.07089C5.5094 16.0657 7.93431 18.4906 11 18.9291V18.0042C11 17.4496 11.4439 17 12 17C12.5523 17 13 17.4509 13 18.0042V18.9291C16.0657 18.4906 18.4906 16.0657 18.9291 13H18.0043ZM10.5 12C10.5 12.8284 11.1716 13.5 12 13.5C12.8284 13.5 13.5 12.8284 13.5 12C13.5 11.1716 12.8284 10.5 12 10.5C11.1716 10.5 10.5 11.1716 10.5 12Z" fill="#333333"/>
</svg>
