<svg width="24" height="24" viewBox="0 0 24 24" fill="none" xmlns="http://www.w3.org/2000/svg">
<path d="M14.9472 2.0039C14.7787 1.9979 14.6085 2.03246 14.459 2.10546L12 3.30859L9.53904 2.10546C9.05704 1.87046 8.47863 2.05639 8.22263 2.52539L6.8906 4.96875L4.19334 5.4414C3.66734 5.5334 3.30698 6.02468 3.37498 6.55468L3.7324 9.31445L1.8281 11.2812C1.4561 11.6652 1.45329 12.2751 1.82029 12.6641L3.7324 14.6855L3.34959 17.3965C3.27459 17.9265 3.62928 18.4205 4.15428 18.5195L6.8906 19.0312L8.17381 21.4492C8.42381 21.9222 8.99835 22.1148 9.48435 21.8848L11.998 20.6914H12L14.459 21.8945C14.6 21.9635 14.7495 21.9961 14.8965 21.9961C15.2525 21.9961 15.5954 21.8076 15.7754 21.4766L17.1074 19.0332L19.8047 18.5586C20.3307 18.4666 20.691 17.9753 20.623 17.4453L20.2676 14.6875L22.1699 12.7187C22.5419 12.3347 22.5447 11.7269 22.1777 11.3379L20.2676 9.31445L20.6504 6.60351C20.7254 6.07351 20.3687 5.57946 19.8437 5.48046L17.1094 4.96875L15.8262 2.55078C15.7402 2.38878 15.5828 2.23462 15.4258 2.14062C15.2823 2.05562 15.1157 2.0099 14.9472 2.0039ZM14.4961 4.31054L15.5703 6.33789C15.7153 6.61089 15.9772 6.80051 16.2812 6.85351L18.5351 7.26953L18.2187 9.51953C18.1757 9.82453 18.2733 10.1325 18.4883 10.3535L20.0664 12.0156L18.8281 13.2969L18.4883 13.6484C18.2743 13.8694 18.1757 14.1774 18.2187 14.4824L18.5176 16.7539L16.2812 17.1465C15.9772 17.2005 15.7172 17.3901 15.5722 17.6621L14.4785 19.6797L12.4375 18.6816C12.2995 18.6146 12.15 18.5801 12 18.5801C11.85 18.5801 11.6995 18.6136 11.5605 18.6816L9.49217 19.6699L8.42771 17.6621C8.28271 17.3891 8.02273 17.1995 7.71873 17.1465L5.46482 16.7305L5.78123 14.4844C5.82523 14.1784 5.72574 13.8695 5.50974 13.6465L3.93162 11.9863L5.50974 10.3555C5.72474 10.1325 5.82523 9.82357 5.78123 9.51757L5.48045 7.24609L7.71873 6.85351C8.02173 6.80051 8.28271 6.61089 8.42771 6.33789L9.51951 4.32031L11.5605 5.31835C11.8375 5.45335 12.1605 5.45335 12.4375 5.31835L14.4961 4.31054ZM14.4023 7.55078L8.39842 15.5488L9.59764 16.4492L15.6015 8.45117L14.4023 7.55078ZM9.49998 8C8.67198 8 7.99998 8.672 7.99998 9.5C7.99998 10.328 8.67198 11 9.49998 11C10.328 11 11 10.328 11 9.5C11 8.672 10.328 8 9.49998 8ZM14.5 13C13.672 13 13 13.672 13 14.5C13 15.328 13.672 16 14.5 16C15.328 16 16 15.328 16 14.5C16 13.672 15.328 13 14.5 13Z" fill="#BEC0C8"/>
</svg>
