<svg width="16" height="16" viewBox="0 0 16 16" fill="none" xmlns="http://www.w3.org/2000/svg">
<path fill-rule="evenodd" clip-rule="evenodd" d="M3.00003 1.99948C2.44775 1.99948 2.00003 2.4472 2.00003 2.99948V12.9995C2.00003 13.5518 2.44775 13.9995 3.00003 13.9995H13C13.5523 13.9995 14 13.5518 14 12.9995V2.99948C14 2.4472 13.5523 1.99948 13 1.99948H3.00003ZM7 6C7 6.55301 6.55301 7 6 7C5.44699 7 5 6.55301 5 6C5 5.44699 5.44699 5 6 5C6.55301 5 7 5.44699 7 6ZM6 11C6.276 11 6.526 10.888 6.707 10.707L10.707 6.707C10.888 6.526 11 6.276 11 6C11 5.44699 10.553 5 10 5C9.724 5 9.474 5.112 9.293 5.293L5.293 9.293C5.112 9.474 5 9.724 5 10C5 10.553 5.44699 11 6 11ZM9 10C9 9.44699 9.44699 9 10 9C10.553 9 11 9.44699 11 10C11 10.553 10.553 11 10 11C9.44699 11 9 10.553 9 10Z" fill="#333333"/>
</svg>
