<svg width="24" height="24" viewBox="0 0 24 24" fill="none" xmlns="http://www.w3.org/2000/svg">
<path fill-rule="evenodd" clip-rule="evenodd" d="M5.74219 2C5.53906 2.00391 5.33594 2.03516 5.14453 2.10547C4.66797 2.28125 4.28125 2.66797 4.10547 3.14453C4.03906 3.32422 4.00781 3.50781 4 3.69531C3.92969 9.23047 3.92969 14.7695 4 20.3008C4.00781 20.4922 4.03906 20.6758 4.10547 20.8555C4.27734 21.3203 4.64453 21.6992 5.10156 21.8789C5.29297 21.9531 5.49219 21.9922 5.69531 22C9.78125 21.9922 13.875 22 14 22V20H6V4H12V10H18L18.0039 13H20.0156C20.0078 11.668 20 9.33203 20 8L14 2H5.74219ZM14 4.82812L17.1719 8H14V4.82812ZM8 12V14H14V12H8ZM8 16V18H14V16H8ZM17 15V19H15L18 22L21 19H19V15H17Z" fill="#333333"/>
</svg>
