<svg width="16" height="16" viewBox="0 0 16 16" fill="none" xmlns="http://www.w3.org/2000/svg">
<path fill-rule="evenodd" clip-rule="evenodd" d="M0 8C0 3.6 3.6 0 8 0C12.4 0 16 3.6 16 8C16 12.4 12.4 16 8 16C3.6 16 0 12.4 0 8ZM1.5 8C1.5 4.425 4.425 1.5 8 1.5C11.575 1.5 14.5 4.425 14.5 8C14.5 11.575 11.575 14.5 8 14.5C4.425 14.5 1.5 11.575 1.5 8Z" fill="#333333"/>
<path d="M10.207 4C10.0792 4 9.95102 4.04898 9.85352 4.14648L8.85352 5.14648L10.8535 7.14648L11.8535 6.14648C12.0485 5.95148 12.0485 5.63445 11.8535 5.43945L10.5605 4.14648C10.4625 4.04898 10.3349 4 10.207 4ZM8.14648 5.85352L4 10V12H6L10.1465 7.85352L8.14648 5.85352Z" fill="#333333"/>
</svg>
