<svg width="16" height="16" viewBox="0 0 16 16" fill="none" xmlns="http://www.w3.org/2000/svg">
<path fill-rule="evenodd" clip-rule="evenodd" d="M1.5 3.39062C1.76953 3.14844 2.11328 3 2.5 3H13.5C13.8828 3 14.2305 3.14844 14.4961 3.38672L8 7.89062L1.5 3.39062ZM8 10.1094L14.9766 5.26953C14.9883 5.34375 15 5.42188 15 5.5V12.5C15 13.3281 14.3281 14 13.5 14H2.5C1.67188 14 1 13.3281 1 12.5V5.5C1 5.45383 1.00409 5.409 1.00986 5.36472C1.01385 5.33411 1.01865 5.30377 1.02344 5.27344L8 10.1094Z" fill="#333333"/>
</svg>
