<svg width="32" height="32" viewBox="0 0 32 32" fill="none" xmlns="http://www.w3.org/2000/svg">
<path fill-rule="evenodd" clip-rule="evenodd" d="M14.3632 15.7766L5.29175 24.848C4.90271 25.237 4.90271 25.873 5.29175 26.262C5.68079 26.651 6.31677 26.651 6.70581 26.262L15.7772 17.1906L24.8486 26.262C25.2375 26.651 25.8737 26.651 26.2626 26.262C26.6516 25.873 26.6516 25.237 26.2626 24.848L17.1912 15.7766L26.2627 6.70499C26.6508 6.31699 26.6508 5.67999 26.2627 5.29099C25.8738 4.90302 25.2367 4.90302 24.8488 5.29099L15.7771 14.3626L6.70557 5.29099C6.31763 4.90302 5.68066 4.90302 5.29163 5.29099C4.90356 5.67999 4.90356 6.31699 5.29163 6.70499L14.3632 15.7766Z" fill="#333333"/>
</svg>
