<svg width="24" height="24" viewBox="0 0 24 24" fill="none" xmlns="http://www.w3.org/2000/svg">
<path fill-rule="evenodd" clip-rule="evenodd" d="M22 12C22 17.5228 17.5229 22 12 22C6.47714 22 2 17.5228 2 12C2 6.47717 6.47714 2 12 2C17.5229 2 22 6.47717 22 12ZM20 12C20 16.4183 16.4183 20 12 20C7.58173 20 4 16.4183 4 12C4 7.58167 7.58173 4 12 4C16.4183 4 20 7.58167 20 12ZM10.586 12L8.51437 9.92834C8.1264 9.54041 8.1264 8.90344 8.51437 8.5144C8.90338 8.12634 9.54037 8.12634 9.92838 8.5144L12 10.5861L14.0716 8.5144C14.4596 8.12634 15.0966 8.12634 15.4856 8.5144C15.8736 8.90344 15.8736 9.54041 15.4856 9.92834L13.4139 12L15.4854 14.0714C15.8744 14.4604 15.8744 15.0964 15.4854 15.4854C15.0964 15.8744 14.4604 15.8744 14.0714 15.4854L12 13.4139L9.92859 15.4854C9.53958 15.8744 8.90359 15.8744 8.51459 15.4854C8.12558 15.0964 8.12558 14.4604 8.51459 14.0714L10.586 12Z" fill="#333333"/>
</svg>
