<svg width="24" height="24" viewBox="0 0 24 24" fill="none" xmlns="http://www.w3.org/2000/svg">
<path fill-rule="evenodd" clip-rule="evenodd" d="M10.586 12L6.51457 16.0714C6.1256 16.4605 6.1256 17.0965 6.51457 17.4854C6.90355 17.8744 7.5396 17.8744 7.92857 17.4854L12 13.414L16.0714 17.4854C16.4604 17.8744 17.0964 17.8744 17.4854 17.4854C17.8744 17.0965 17.8744 16.4605 17.4854 16.0714L13.4139 12L17.4856 7.92838C17.8736 7.54044 17.8736 6.90347 17.4856 6.51443C17.0966 6.12637 16.4596 6.12637 16.0716 6.51443L12 10.586L7.92839 6.51443C7.54039 6.12637 6.90337 6.12637 6.51439 6.51443C6.12639 6.90347 6.12639 7.54044 6.51439 7.92838L10.586 12Z" fill="#333333"/>
</svg>
