<svg width="24" height="24" viewBox="0 0 24 24" fill="none" xmlns="http://www.w3.org/2000/svg">
<path fill-rule="evenodd" clip-rule="evenodd" d="M4.5146 18.0714C4.12559 18.4605 4.12559 19.0965 4.5146 19.4854C4.9036 19.8744 5.53959 19.8744 5.9286 19.4854L12 13.414L18.0714 19.4854C18.4604 19.8744 19.0964 19.8744 19.4854 19.4854C19.8744 19.0965 19.8744 18.4605 19.4854 18.0714L13.4139 12L19.4856 5.92838C19.8736 5.54044 19.8736 4.90347 19.4856 4.51443C19.0966 4.12637 18.4596 4.12637 18.0716 4.51443L12 10.5861L5.92838 4.51443C5.54038 4.12637 4.90339 4.12637 4.51438 4.51443C4.12641 4.90347 4.12641 5.54044 4.51438 5.92838L10.586 12L4.5146 18.0714Z" fill="#333333"/>
</svg>
