<svg width="24" height="24" viewBox="0 0 24 24" fill="none" xmlns="http://www.w3.org/2000/svg">
<path fill-rule="evenodd" clip-rule="evenodd" d="M15.006 5C15.555 5 16 5.445 16 5.994V8H18.006C18.555 8 19 8.445 19 8.994V9.006C19 9.555 18.555 10 18.006 10H15C14.448 10 14 9.553 14 9V5.994C14 5.445 14.445 5 14.994 5H15.006ZM5 14.994V15.006C5 15.555 5.445 16 5.994 16H8V18.006C8 18.555 8.445 19 8.994 19H9.006C9.555 19 10 18.555 10 18.006V15C10 14.448 9.553 14 9 14H5.994C5.445 14 5 14.445 5 14.994ZM14 15V18.006C14 18.555 14.445 19 14.994 19H15.006C15.555 19 16 18.555 16 18.006V16H18.006C18.555 16 19 15.555 19 15.006V14.994C19 14.445 18.555 14 18.006 14H15C14.448 14 14 14.448 14 15ZM5.994 8C5.445 8 5 8.445 5 8.994V9.006C5 9.555 5.445 10 5.994 10H9C9.553 10 10 9.553 10 9V5.994C10 5.445 9.555 5 9.006 5H8.994C8.445 5 8 5.445 8 5.994V8H5.994Z" fill="#333333"/>
</svg>
