<svg width="24" height="24" viewBox="0 0 24 24" fill="none" xmlns="http://www.w3.org/2000/svg">
<path opacity="0.9" fill-rule="evenodd" clip-rule="evenodd" d="M21.1924 2.80774C20.8019 2.41711 20.1687 2.41711 19.7782 2.80774L17.4714 5.1145C15.7943 4.3988 13.9451 4 12 4C8.72714 4 5.72565 5.1311 3.35788 7.0022C1.35498 8.58496 0 10.5861 0 12C0 13.4137 1.35712 15.4147 3.36212 16.998C3.7793 17.3275 4.21603 17.634 4.67041 17.9154L2.80762 19.7782C2.41708 20.1688 2.41708 20.802 2.80762 21.1925C3.19815 21.583 3.8313 21.583 4.22183 21.1925L6.5314 18.8829C8.20871 19.6002 10.0571 20 12 20C15.2687 20 18.2697 18.8705 20.6375 17.0022C22.6438 15.4193 24 13.4183 24 12C24 10.5814 22.6459 8.58044 20.6418 6.99805C20.2247 6.6687 19.7878 6.3623 19.3333 6.08105L21.1924 4.22192C21.5829 3.83142 21.5829 3.19824 21.1924 2.80774ZM15.9278 6.65808C14.6977 6.23218 13.3758 6 12 6C9.22852 6 6.67542 6.94458 4.64883 8.51697C3.05045 9.7572 2 11.2803 2 12C2 12.7186 3.05231 14.2421 4.65259 15.4828C5.11713 15.843 5.60922 16.1702 6.12509 16.4607L8.55386 14.032C8.20197 13.4364 8 12.7418 8 12C8 9.79089 9.79086 8 12 8C12.7418 8 13.4365 8.2019 14.032 8.55383L15.9278 6.65808ZM15.4462 9.96814L17.8785 7.53589C18.3948 7.82617 18.8871 8.1532 19.3515 8.51331C20.9507 9.75305 22 11.2754 22 12C22 12.7235 20.9489 14.2461 19.3478 15.4865C17.3209 17.0565 14.7678 18 12 18C10.626 18 9.30484 17.767 8.07449 17.3398L9.96811 15.4462C10.5636 15.798 11.2582 16 12 16C14.2091 16 16 14.2091 16 12C16 11.2582 15.7981 10.5636 15.4462 9.96814Z" fill="#333333"/>
</svg>
