<svg width="24" height="24" viewBox="0 0 24 24" fill="none" xmlns="http://www.w3.org/2000/svg">
<path fill-rule="evenodd" clip-rule="evenodd" d="M12 20C15.2687 20 18.2697 18.8705 20.6375 17.0022C22.6438 15.4193 24 13.4183 24 12C24 10.5814 22.6459 8.58044 20.6418 6.99805C18.2751 5.12939 15.2733 4 12 4C8.72714 4 5.72563 5.1311 3.35788 7.0022C1.35497 8.58496 0 10.5861 0 12C0 13.4137 1.3571 15.4147 3.36211 16.998C5.73105 18.8688 8.73178 20 12 20ZM12 18C9.23328 18 6.68059 17.0552 4.65257 15.4828C3.05232 14.2421 2 12.7186 2 12C2 11.2803 3.05045 9.7572 4.64883 8.51697C6.67542 6.94458 9.22853 6 12 6C14.7726 6 17.3261 6.94324 19.3515 8.51331C20.9507 9.75305 22 11.2754 22 12C22 12.7235 20.9489 14.2461 19.3478 15.4865C17.3209 17.0565 14.7678 18 12 18ZM16 12C16 14.2091 14.2091 16 12 16C9.79086 16 8 14.2091 8 12C8 9.79089 9.79086 8 12 8C14.2091 8 16 9.79089 16 12ZM12 14C13.1046 14 14 13.1046 14 12C14 10.8954 13.1046 10 12 10C10.8954 10 10 10.8954 10 12C10 13.1046 10.8954 14 12 14Z" fill="#333333"/>
</svg>
