<svg width="24" height="24" viewBox="0 0 24 24" fill="none" xmlns="http://www.w3.org/2000/svg">
<path fill-rule="evenodd" clip-rule="evenodd" d="M8 8C8 9.30622 7.16519 10.4175 6 10.8293V20.0001C6 20.5524 5.55614 21 5 21C4.44772 21 4 20.5551 4 20.0001V10.8293C2.83481 10.4175 2 9.30622 2 8C2 6.69378 2.83481 5.58254 4 5.17071V3.99985C4 3.44765 4.44386 3 5 3C5.55228 3 6 3.44495 6 3.99985V5.17071C7.16519 5.58254 8 6.69378 8 8ZM13 18.8293C14.1652 18.4175 15 17.3062 15 16C15 14.6938 14.1652 13.5825 13 13.1707V3.99985C13 3.44495 12.5523 3 12 3C11.4439 3 11 3.44765 11 3.99985V13.1707C9.83481 13.5825 9 14.6938 9 16C9 17.3062 9.83481 18.4175 11 18.8293V20.0001C11 20.5551 11.4477 21 12 21C12.5561 21 13 20.5524 13 20.0001V18.8293ZM20 12.8293C21.1652 12.4175 22 11.3062 22 10C22 8.69378 21.1652 7.58254 20 7.17071V3.99985C20 3.44495 19.5523 3 19 3C18.4439 3 18 3.44765 18 3.99985V7.17071C16.8348 7.58254 16 8.69378 16 10C16 11.3062 16.8348 12.4175 18 12.8293V20.0001C18 20.5551 18.4477 21 19 21C19.5561 21 20 20.5524 20 20.0001V12.8293ZM6 8C6 8.55228 5.55228 9 5 9C4.44772 9 4 8.55228 4 8C4 7.44772 4.44772 7 5 7C5.55228 7 6 7.44772 6 8ZM12 17C12.5523 17 13 16.5523 13 16C13 15.4477 12.5523 15 12 15C11.4477 15 11 15.4477 11 16C11 16.5523 11.4477 17 12 17ZM20 10C20 10.5523 19.5523 11 19 11C18.4477 11 18 10.5523 18 10C18 9.44772 18.4477 9 19 9C19.5523 9 20 9.44772 20 10Z" fill="#333333"/>
</svg>
