<svg width="24" height="24" viewBox="0 0 24 24" fill="none" xmlns="http://www.w3.org/2000/svg">
<path fill-rule="evenodd" clip-rule="evenodd" d="M5 6V9.006C5 9.555 5.445 10 5.994 10H6.006C6.555 10 7 9.555 7 9.006V7H9.006C9.555 7 10 6.555 10 6.006V5.994C10 5.445 9.555 5 9.006 5H6C5.448 5 5 5.448 5 6ZM14.994 5C14.445 5 14 5.445 14 5.994V6.006C14 6.555 14.445 7 14.994 7H17V9.006C17 9.555 17.445 10 17.994 10H18.006C18.555 10 19 9.555 19 9.006V6C19 5.448 18.553 5 18 5H14.994ZM6.006 14C6.555 14 7 14.445 7 14.994V17H9.006C9.555 17 10 17.445 10 17.994V18.006C10 18.555 9.555 19 9.006 19H6C5.448 19 5 18.553 5 18V14.994C5 14.445 5.445 14 5.994 14H6.006ZM14.994 17C14.445 17 14 17.445 14 17.994V18.006C14 18.555 14.445 19 14.994 19H18C18.553 19 19 18.553 19 18V14.994C19 14.445 18.555 14 18.006 14H17.994C17.445 14 17 14.445 17 14.994V17H14.994Z" fill="#333333"/>
</svg>
