<svg width="16" height="16" viewBox="0 0 16 16" fill="none" xmlns="http://www.w3.org/2000/svg">
<path fill-rule="evenodd" clip-rule="evenodd" d="M15 3H4V13H15C15.5523 13 16 12.5523 16 12V4C16 3.44772 15.5523 3 15 3ZM9 6C9 6.55301 8.55301 7 8 7C7.44699 7 7 6.55301 7 6C7 5.44699 7.44699 5 8 5C8.55301 5 9 5.44699 9 6ZM8 11C8.276 11 8.526 10.888 8.707 10.707L12.707 6.707C12.888 6.526 13 6.276 13 6C13 5.44699 12.553 5 12 5C11.724 5 11.474 5.112 11.293 5.293L7.293 9.293C7.112 9.474 7 9.724 7 10C7 10.553 7.44699 11 8 11ZM11 10C11 9.44699 11.447 9 12 9C12.553 9 13 9.44699 13 10C13 10.553 12.553 11 12 11C11.447 11 11 10.553 11 10Z" fill="#333333"/>
<path d="M0 4C0 3.44772 0.447715 3 1 3H3V13H1C0.447715 13 0 12.5523 0 12V4Z" fill="#333333"/>
</svg>
