<svg width="16" height="16" viewBox="0 0 16 16" fill="none" xmlns="http://www.w3.org/2000/svg">
<path fill-rule="evenodd" clip-rule="evenodd" d="M12 6H9V9H13C13.552 9 14 8.552 14 8V7C14 6.448 13.552 6 13 6H12ZM13 10H9V14H12C12.552 14 13 13.552 13 13V10ZM7 9V6H4H3C2.45001 6 2 6.45001 2 7V8C2 8.54999 2.45001 9 3 9H7ZM3 10V13C3 13.55 3.45001 14 4 14H7V10H3ZM4.504 5C5.04401 5 5.621 4.936 6.09 4.82401C6.09 4.82401 6.61102 4.75 6.86002 4.46399C7.13501 4.789 7.54102 5 8 5C8.45901 5 8.86401 4.789 9.13901 4.46399C9.13901 4.46399 9.51102 4.73099 9.91 4.82401C10.379 4.935 10.957 5 11.497 5C11.818 5 12.111 4.97699 12.367 4.93399C13.021 4.82199 13.469 4.60501 13.739 4.26999C13.981 3.96899 14.056 3.59799 13.96 3.168C13.792 2.41501 13.214 2 12.334 2C12.148 2 11.943 2.01901 11.725 2.056C11.173 2.151 10.466 2.42801 9.83502 2.79901C9.673 2.89301 9.54401 2.98001 9.42801 3.06299C9.24002 2.44901 8.67502 2 8 2C7.32401 2 6.76001 2.44901 6.57202 3.06299C6.45602 2.98001 6.327 2.89301 6.16602 2.79901C5.534 2.42801 4.827 2.151 4.27502 2.056C4.05701 2.01901 3.853 2 3.66702 2C2.78601 2 2.20901 2.41501 2.04102 3.168C1.94501 3.59799 2.01901 3.96899 2.26102 4.26999C2.53101 4.60501 2.98001 4.82199 3.633 4.93399C3.88901 4.97699 4.18301 5 4.504 5Z" fill="#333333"/>
</svg>
