<svg width="24" height="24" viewBox="0 0 24 24" fill="none" xmlns="http://www.w3.org/2000/svg">
<path fill-rule="evenodd" clip-rule="evenodd" d="M8.04831 3.00039C7.0373 2.98639 6.12931 3.52539 5.55831 4.35939C4.86731 5.36939 4.91231 6.23039 5.18731 7.00039H3.00031C2.44731 7.00039 2.00031 7.44739 2.00031 8.00039V12.0004C2.00031 12.5524 2.44731 13.0004 3.00031 13.0004V21.0004C3.00031 21.5524 3.44731 22.0004 4.00031 22.0004H20.0003C20.5523 22.0004 21.0003 21.5524 21.0003 21.0004V13.0004C21.5523 13.0004 22.0003 12.5524 22.0003 12.0004V8.00039C22.0003 7.44739 21.5523 7.00039 21.0003 7.00039H18.8123C19.0883 6.23039 19.1323 5.36939 18.4413 4.35939C17.8703 3.52539 16.9623 2.98639 15.9513 3.00039C14.2283 3.02439 13.0553 4.33839 12.2813 5.43739C12.1753 5.58539 12.0933 5.73039 12.0003 5.87539C11.9063 5.73039 11.8243 5.58539 11.7183 5.43739C10.9443 4.33839 9.77231 3.02439 8.04831 3.00039ZM8.00031 5.00037C8.62531 5.00037 9.43731 5.67137 10.0623 6.56237C10.2153 6.78137 10.1913 6.79237 10.3123 7.00037H8.00031C7.43331 7.00037 7.00031 6.56637 7.00031 6.00037C7.00031 5.43337 7.43331 5.00037 8.00031 5.00037ZM16.0003 5.00037C16.5663 5.00037 17.0003 5.43337 17.0003 6.00037C17.0003 6.56637 16.5663 7.00037 16.0003 7.00037H13.6873C13.8083 6.79237 13.7853 6.78137 13.9373 6.56237C14.5623 5.67137 15.3753 5.00037 16.0003 5.00037ZM4.00031 9.00037H20.0003V11.0004H13.0003V10.0004H11.0003V11.0004H4.00031V9.00037ZM5.00031 13.0004H19.0003V20.0004H13.0003V15.0004C13.0003 14.4474 12.5523 14.0004 12.0003 14.0004C11.4473 14.0004 11.0003 14.4474 11.0003 15.0004V20.0004H5.00031V13.0004Z" fill="#333333"/>
</svg>
