<svg width="24" height="24" viewBox="0 0 24 24" fill="none" xmlns="http://www.w3.org/2000/svg">
<path fill-rule="evenodd" clip-rule="evenodd" d="M2.00073 20C1.448 20 1 19.5554 1 18.9991V5.00085C1 4.44812 1.44751 4 2.00073 4H5.00134C5.27673 4 5.56476 4.2149 5.66943 4.47461C5.66943 4.47461 5.84265 5.5 7 5.5C8.15735 5.5 8.33435 4.46637 8.33435 4.46637C8.42578 4.2088 8.72778 4 8.99908 4H21.9993C22.552 4 23 4.44464 23 5.00085V18.9991C23 19.5519 22.5525 20 21.9993 20H8.99908C8.72345 20 8.42969 19.7914 8.3183 19.5336C8.3183 19.5336 8.0957 18.5 7 18.5C5.9043 18.5 5.6817 19.5336 5.6817 19.5336C5.58136 19.7912 5.27686 20 5.00134 20H2.00073ZM6 16.499C6 15.9473 6.44385 15.5 7 15.5C7.55231 15.5 8 15.9492 8 16.499V16.645C8.76953 16.874 9.42822 17.3605 9.87598 18.0047C10.2433 18.0009 21.0007 18.0009 21.0007 18.0009V6.00085C21.0007 6.00085 10.2686 5.99915 9.8761 5.99506C9.42834 6.63934 8.76965 7.12604 8 7.35504V7.50104C8 8.05273 7.55615 8.5 7 8.5C6.44775 8.5 6 8.0509 6 7.50104V7.35504C5.23267 7.12671 4.57562 6.64227 4.12793 6.00085L3.96674 6.00061L3.52374 6.00049L3.23181 6.00061L3.00073 6.00085V18.0009C3.00073 18.0009 3.7301 18.0009 4.12793 17.9992C4.57556 17.3578 5.23267 16.8734 6 16.645V16.499ZM7 9.5C6.44385 9.5 6 9.94769 6 10.5C6 11.0562 6.44769 11.5 7 11.5C7.55615 11.5 8 11.0523 8 10.5C8 9.94385 7.55231 9.5 7 9.5ZM6 13.5C6 12.9477 6.44385 12.5 7 12.5C7.55231 12.5 8 12.9438 8 13.5C8 14.0523 7.55615 14.5 7 14.5C6.44769 14.5 6 14.0562 6 13.5ZM14 10C14 10.553 13.553 11 13 11C12.447 11 12 10.553 12 10C12 9.44702 12.447 9 13 9C13.553 9 14 9.44702 14 10ZM13 15C13.276 15 13.526 14.888 13.707 14.707L17.707 10.707C17.888 10.526 18 10.276 18 10C18 9.44702 17.553 9 17 9C16.724 9 16.474 9.112 16.293 9.29303L12.293 13.293C12.112 13.474 12 13.724 12 14C12 14.553 12.447 15 13 15ZM16 14C16 13.447 16.447 13 17 13C17.553 13 18 13.447 18 14C18 14.553 17.553 15 17 15C16.447 15 16 14.553 16 14Z" fill="#333333"/>
</svg>
