<svg width="24" height="24" viewBox="0 0 24 24" fill="none" xmlns="http://www.w3.org/2000/svg">
<path d="M4 3H20C21.1046 3 22 3.89543 22 5V17L18 21H4C2.89543 21 2 20.1046 2 19V5C2 3.89543 2.89543 3 4 3ZM9.3125 9.8125C7.61328 9.8125 7.3125 11.1875 7.3125 11.6875H8.59375C8.59375 11.5859 8.71094 10.9062 9.3125 10.9062C10.0117 10.9062 10 11.7109 10 11.8125C10 12.7109 9.61328 12.8125 9.3125 12.8125H8.59375V13.9062H9.3125C9.51172 13.9062 10.0938 14 10.0938 15C10.0938 15.1992 10.0117 16 9.3125 16C8.71094 16 8.59375 15.1953 8.59375 15.0938H7.1875C7.1875 15.6953 7.61328 17.0938 9.3125 17.0938C10.3125 17.0938 11.5 16.5 11.5 15C11.5 13.8008 10.8008 13.4141 10.5 13.3125C10.6016 13.3125 11.4062 12.8125 11.4062 11.8125C11.4062 11.5117 11.3125 9.8125 9.3125 9.8125ZM16.3125 9.8125L13.6875 10.9062V12.0938L15.0938 11.5938V17H16.4062V9.8125H16.3125ZM16 7C16.5523 7 17 6.55228 17 6C17 5.44772 16.5523 5 16 5C15.4477 5 15 5.44772 15 6C15 6.55228 15.4477 7 16 7ZM8 7C8.55228 7 9 6.55228 9 6C9 5.44772 8.55228 5 8 5C7.44772 5 7 5.44772 7 6C7 6.55228 7.44772 7 8 7Z" fill="#333333"/>
</svg>
