<svg width="24" height="24" viewBox="0 0 24 24" fill="none" xmlns="http://www.w3.org/2000/svg">
<path fill-rule="evenodd" clip-rule="evenodd" d="M2 4C2 2.89539 2.89543 2 4 2H6C7.10457 2 8 2.89539 8 4V6C8 7.10461 7.10457 8 6 8H4C2.89543 8 2 7.10461 2 6V4ZM2 11C2 9.89539 2.89543 9 4 9H6C7.10457 9 8 9.89539 8 11V13C8 14.1046 7.10457 15 6 15H4C2.89543 15 2 14.1046 2 13V11ZM11 2C9.89543 2 9 2.89539 9 4V6C9 7.10461 9.89543 8 11 8H13C14.1046 8 15 7.10461 15 6V4C15 2.89539 14.1046 2 13 2H11ZM9 11C9 9.89539 9.89543 9 11 9H13C14.1046 9 15 9.89539 15 11V13C15 14.1046 14.1046 15 13 15H11C9.89543 15 9 14.1046 9 13V11ZM18 2C16.8954 2 16 2.89539 16 4V6C16 7.10461 16.8954 8 18 8H20C21.1046 8 22 7.10461 22 6V4C22 2.89539 21.1046 2 20 2H18ZM16 11C16 9.89539 16.8954 9 18 9H20C21.1046 9 22 9.89539 22 11V13C22 14.1046 21.1046 15 20 15H18C16.8954 15 16 14.1046 16 13V11ZM4 16C2.89543 16 2 16.8954 2 18V20C2 21.1046 2.89543 22 4 22H6C7.10457 22 8 21.1046 8 20V18C8 16.8954 7.10457 16 6 16H4ZM9 18C9 16.8954 9.89543 16 11 16H13C14.1046 16 15 16.8954 15 18V20C15 21.1046 14.1046 22 13 22H11C9.89543 22 9 21.1046 9 20V18ZM18 16C16.8954 16 16 16.8954 16 18V20C16 21.1046 16.8954 22 18 22H20C21.1046 22 22 21.1046 22 20V18C22 16.8954 21.1046 16 20 16H18Z" fill="#333333"/>
</svg>
