<svg width="24" height="24" viewBox="0 0 24 24" fill="none" xmlns="http://www.w3.org/2000/svg">
<path fill-rule="evenodd" clip-rule="evenodd" d="M4 5C4 4.44772 4.44772 4 5 4H10C10.5523 4 11 4.44772 11 5V10C11 10.5523 10.5523 11 10 11H5C4.44772 11 4 10.5523 4 10V5ZM9 6H6V9H9V6Z" fill="#333333"/>
<path fill-rule="evenodd" clip-rule="evenodd" d="M13 5C13 4.44772 13.4477 4 14 4H19C19.5523 4 20 4.44772 20 5V10C20 10.5523 19.5523 11 19 11H14C13.4477 11 13 10.5523 13 10V5ZM18 6H15V9H18V6Z" fill="#333333"/>
<path fill-rule="evenodd" clip-rule="evenodd" d="M4 14C4 13.4477 4.44772 13 5 13H10C10.5523 13 11 13.4477 11 14V19C11 19.5523 10.5523 20 10 20H5C4.44772 20 4 19.5523 4 19V14ZM9 15H6V18H9V15Z" fill="#333333"/>
<path fill-rule="evenodd" clip-rule="evenodd" d="M13 14C13 13.4477 13.4477 13 14 13H19C19.5523 13 20 13.4477 20 14V19C20 19.5523 19.5523 20 19 20H14C13.4477 20 13 19.5523 13 19V14ZM18 15H15V18H18V15Z" fill="#333333"/>
</svg>
