<svg width="24" height="24" viewBox="0 0 24 24" fill="none" xmlns="http://www.w3.org/2000/svg">
<path fill-rule="evenodd" clip-rule="evenodd" d="M0 15.5006V19.0006C0 19.5526 0.448 20.0006 1 20.0006H15C15.553 20.0006 16 19.5526 16 19.0006V15.5006C16 13.1706 10.33 12.0006 8 12.0006C5.67 12.0006 0 13.1706 0 15.5006ZM16.03 12.0556C17.19 12.8926 18 14.0166 18 15.5006V19.0006C18 19.3536 17.928 19.6866 17.815 20.0006H23C23.553 20.0006 24 19.5526 24 19.0006V15.5006C24 13.1706 19.33 12.0006 17 12.0006C16.709 12.0006 16.381 12.0186 16.03 12.0556ZM5 7.00061C5 8.65661 6.343 10.0006 8 10.0006C9.657 10.0006 11 8.65661 11 7.00061C11 5.34261 9.657 4.00061 8 4.00061C6.343 4.00061 5 5.34261 5 7.00061ZM13 7.00061C13 8.65661 14.343 10.0006 16 10.0006C17.657 10.0006 19 8.65661 19 7.00061C19 5.34261 17.657 4.00061 16 4.00061C14.343 4.00061 13 5.34261 13 7.00061ZM22 15.5676V18.0006H20V15.5006C20 15.1876 19.976 14.8426 19.91 14.4766C20.967 14.8046 21.795 15.2386 22 15.5676ZM14 15.5676V18.0006H2V15.5676C2.378 14.9626 5.866 14.0006 8 14.0006C10.134 14.0006 13.622 14.9626 14 15.5676ZM9 7.00061C9 7.55161 8.551 8.00061 8 8.00061C7.449 8.00061 7 7.55161 7 7.00061C7 6.44861 7.449 6.00061 8 6.00061C8.551 6.00061 9 6.44861 9 7.00061ZM17 7.00061C17 7.55161 16.552 8.00061 16 8.00061C15.448 8.00061 15 7.55161 15 7.00061C15 6.44861 15.448 6.00061 16 6.00061C16.552 6.00061 17 6.44861 17 7.00061Z" fill="#333333"/>
</svg>
