<svg width="16" height="16" viewBox="0 0 16 16" fill="none" xmlns="http://www.w3.org/2000/svg">
<path fill-rule="evenodd" clip-rule="evenodd" d="M10.8755 13H15.375C15.7206 13 16 12.72 16 12.375V10.1875C16 8.73125 12.4563 8 11 8C10.6316 8 10.1297 8.04679 9.58533 8.14027C9.74311 8.23196 9.89377 8.33133 10.0336 8.43902C10.5022 8.79985 11 9.3776 11 10.1875V12.375C11 12.5964 10.9557 12.8075 10.8755 13ZM6.625 13C6.28 13 6 12.72 6 12.375V10.1875C6 9.44892 6.91155 8.89684 8 8.53206C9.08845 8.89684 10 9.44892 10 10.1875V12.375C10 12.72 9.72062 13 9.375 13H6.625Z" fill="#333333"/>
<path fill-rule="evenodd" clip-rule="evenodd" d="M0 10.1875V12.375C0 12.72 0.28 13 0.625 13H9.375C9.72062 13 10 12.72 10 12.375V10.1875C10 8.73125 6.45625 8 5 8C3.54375 8 0 8.73125 0 10.1875Z" fill="#333333"/>
<circle cx="5" cy="5" r="2" fill="#333333"/>
<circle cx="11" cy="5" r="2" fill="#333333"/>
</svg>
