<svg width="24" height="24" viewBox="0 0 24 24" fill="none" xmlns="http://www.w3.org/2000/svg">
<path d="M12 18.6126C12.2551 18.4413 12.5467 18.239 12.8734 18.0036C13.9402 17.2347 14.9943 16.3823 15.9632 15.471C18.5211 13.0653 20 10.6985 20 8.71429C20 8.5841 19.9906 8.48782 19.974 8.41207L19.944 8.23994C19.7043 6.38755 18.134 5 16.2857 5C15.2114 5 14.2166 5.45737 13.5094 6.27089L12 8.00705L10.4906 6.27089C9.78338 5.45737 8.78862 5 7.71429 5C5.86964 5 4.2855 6.39339 4.06286 8.18522L4.03755 8.33942C4.01257 8.46155 4 8.58395 4 8.71429C4 10.6985 5.47894 13.0653 8.03681 15.471C9.00571 16.3823 10.0598 17.2347 11.1266 18.0036C11.4534 18.2391 11.7451 18.4415 12 18.6126ZM10.7871 3.90421L12 4.95871L13.2129 3.90421C14.1133 3.32138 15.1709 3 16.2857 3C19.1429 3 21.5592 5.13728 21.9275 7.98326C21.9777 8.21205 22 8.45201 22 8.71429C22 14.808 12.7645 20.5112 12.3739 20.7511L12 20.9799L11.6261 20.7511C11.2355 20.5112 2 14.808 2 8.71429C2 8.44085 2.0279 8.18415 2.07813 7.93862C2.42411 5.15402 4.85156 3 7.71429 3C8.82914 3 9.88669 3.32138 10.7871 3.90421Z" fill="#333333"/>
</svg>
