<svg width="24" height="24" viewBox="0 0 24 24" fill="none" xmlns="http://www.w3.org/2000/svg">
<path d="M7.5 3C4.462 3 2 5.462 2 8.5C2 12.671 6.91225 16.7132 8.28125 17.9902C9.85825 19.4602 12 21.3496 12 21.3496C12 21.3496 14.1418 19.4602 15.7188 17.9902C17.0877 16.7132 22 12.671 22 8.5C22 5.462 19.538 3 16.5 3C13.605 3 12 5.08984 12 5.08984C12 5.08984 10.395 3 7.5 3ZM7.5 5C9.327 5 10.3861 6.27559 10.4141 6.30859L12 8.37305L13.5859 6.30859C13.5959 6.29459 14.673 5 16.5 5C18.43 5 20 6.57 20 8.5C20 11.419 16.2305 14.8264 14.8105 16.1094C14.6335 16.2694 14.4805 16.4084 14.3555 16.5254C13.6045 17.2254 12.716 18.0299 12 18.6719C11.284 18.0299 10.3945 17.2254 9.64453 16.5254C9.51853 16.4084 9.36545 16.2684 9.18945 16.1094C8.32671 15.3299 6.60374 13.7621 5.37891 12H6.33398L7.75391 10.9336L9.75391 13.9336L12.334 12H13.2715C13.4467 12.3035 13.6986 12.5557 14.002 12.7312C14.3054 12.9067 14.6495 12.9994 15 13C15.5304 13 16.0391 12.7893 16.4142 12.4142C16.7893 12.0391 17 11.5304 17 11C17 10.4696 16.7893 9.96086 16.4142 9.58579C16.0391 9.21071 15.5304 9 15 9C14.6492 9.00028 14.3046 9.09282 14.0009 9.26834C13.6972 9.44387 13.4449 9.69619 13.2695 10H11.666L10.2461 11.0664L8.24609 8.06641L5.66602 10H4.29688C4.1132 9.49451 4 8.99029 4 8.5C4 6.57 5.57 5 7.5 5Z" fill="#BEC0C8"/>
</svg>
