<svg width="24" height="24" viewBox="0 0 24 24" fill="none" xmlns="http://www.w3.org/2000/svg">
<path fill-rule="evenodd" clip-rule="evenodd" d="M2 12C2 6.5 6.5 2 12 2C17.5 2 22 6.5 22 12C22 17.5 17.5 22 12 22C6.5 22 2 17.5 2 12ZM20 12C20 7.60156 16.3984 4 12 4C7.60156 4 4 7.60156 4 12C4 16.3984 7.60156 20 12 20C16.3984 20 20 16.3984 20 12ZM11.9062 7C8.60547 7 9 10 9 10H11C11 8.60156 11.6992 8.5 12 8.5C12.8008 8.5 13 9.41406 13 9.8125C13 10.8073 12.5519 11.2157 12.0799 11.6459C11.5547 12.1244 11 12.6299 11 14H13C13 13.2234 13.4177 12.783 13.8714 12.3047C14.4104 11.7365 15 11.1147 15 9.8125C15 8.91406 14.5078 7 11.9062 7ZM11 17V15H13V17H11Z" fill="#333333"/>
</svg>
