<svg width="16" height="16" viewBox="0 0 16 16" fill="none" xmlns="http://www.w3.org/2000/svg">
<path fill-rule="evenodd" clip-rule="evenodd" d="M0 8C0 3.60001 3.60001 0 8 0C12.4 0 16 3.60001 16 8C16 12.4 12.4 16 8 16C3.60001 16 0 12.4 0 8ZM1.5 8C1.5 4.42499 4.42499 1.5 8 1.5C11.575 1.5 14.5 4.42499 14.5 8C14.5 11.575 11.575 14.5 8 14.5C4.42499 14.5 1.5 11.575 1.5 8Z" fill="#333333"/>
<path d="M7.92501 4C5.28438 4 5.60001 6.4 5.60001 6.4H7.20001C7.20001 5.28125 7.75938 5.2 8.00001 5.2C8.64063 5.2 8.80001 5.93125 8.80001 6.25C8.80001 7.93125 7.20001 7.51875 7.20001 9.6H8.80001C8.80001 8.24062 10.4 8.16875 10.4 6.25C10.4 5.53125 10.0063 4 7.92501 4Z" fill="#333333"/>
<path d="M7.20001 11V12.6H8.80001V11H7.20001Z" fill="#333333"/>
</svg>
