<svg width="24" height="24" viewBox="0 0 24 24" fill="none" xmlns="http://www.w3.org/2000/svg">
<path fill-rule="evenodd" clip-rule="evenodd" d="M1.2657 7.46289C4.13173 4.59686 8.03011 3.021 12.0001 3C15.9701 3.021 19.8685 4.5979 22.7345 7.46289C23.1585 7.8869 23.0115 8.44763 22.7345 8.72461L20.5177 10.9414C20.1737 11.2854 19.6196 11.293 19.2677 10.957C18.8607 10.569 18.3369 10.0901 17.9649 9.83008C17.562 9.5481 17.0314 9.25665 16.6524 9.05664C16.3544 8.89966 16.171 8.59088 16.17 8.25391L16.1602 5.46094C14.6843 5.00293 13.3161 4.82019 12.0001 4.82422C10.6841 4.82123 9.31593 5.00293 7.83992 5.46094L7.83015 8.25391C7.8282 8.59088 7.64577 8.89966 7.34773 9.05664C6.96773 9.25665 6.43727 9.55005 6.03523 9.83203C5.66322 10.092 5.14052 10.569 4.7325 10.957C4.38051 11.2921 3.82649 11.2854 3.4825 10.9414L1.2657 8.72656C0.988724 8.44958 0.84169 7.8869 1.2657 7.46289ZM9.00008 11V9H11.0001V11H13.0001V9H15.0001V11L19.2481 14.3984C19.7231 14.7784 20.0001 15.353 20.0001 15.9609V20H21.0001V22H3.00008V20H4.00008V15.9609C4.00008 15.353 4.27705 14.7775 4.75203 14.3984L9.00008 11ZM9.00008 14C9.55208 14 10.0001 14.448 10.0001 15C10.0001 15.552 9.55208 16 9.00008 16C8.44807 16 8.00008 15.552 8.00008 15C8.00008 14.448 8.44807 14 9.00008 14ZM13.0001 15C13.0001 14.448 12.5521 14 12.0001 14C11.4481 14 11.0001 14.448 11.0001 15C11.0001 15.552 11.4481 16 12.0001 16C12.5521 16 13.0001 15.552 13.0001 15ZM15.0001 14C15.5521 14 16.0001 14.448 16.0001 15C16.0001 15.552 15.5521 16 15.0001 16C14.4481 16 14.0001 15.552 14.0001 15C14.0001 14.448 14.4481 14 15.0001 14ZM10.0001 18C10.0001 17.448 9.55208 17 9.00008 17C8.44807 17 8.00008 17.448 8.00008 18C8.00008 18.552 8.44807 19 9.00008 19C9.55208 19 10.0001 18.552 10.0001 18ZM12.0001 17C12.5521 17 13.0001 17.448 13.0001 18C13.0001 18.552 12.5521 19 12.0001 19C11.4481 19 11.0001 18.552 11.0001 18C11.0001 17.448 11.4481 17 12.0001 17ZM16.0001 18C16.0001 17.448 15.5521 17 15.0001 17C14.4481 17 14.0001 17.448 14.0001 18C14.0001 18.552 14.4481 19 15.0001 19C15.5521 19 16.0001 18.552 16.0001 18Z" fill="#333333"/>
</svg>
