<svg width="24" height="24" viewBox="0 0 24 24" fill="none" xmlns="http://www.w3.org/2000/svg">
<path fill-rule="evenodd" clip-rule="evenodd" d="M3.70711 12.7071C3.31658 13.0977 2.68342 13.0977 2.29289 12.7071C1.90237 12.3166 1.90237 11.6834 2.29289 11.2929L11.2929 2.29291C11.6834 1.90234 12.3166 1.90234 12.7071 2.29291L21.7071 11.2929C22.0976 11.6834 22.0976 12.3166 21.7071 12.7071C21.3166 13.0977 20.6834 13.0977 20.2929 12.7071L20 12.4145V20.0044C20 21.1084 19.1058 22 17.9991 22H6.00087C4.89683 22 4 21.1085 4 20.0044V12.4145L3.70711 12.7071ZM6.00087 20L8 20.0006L16 20.0026L18 20.0044V10.4162L12 4.42236L5.99995 10.4163C5.99974 12.3077 6.00087 20 6.00087 20ZM10 13C9.44772 13 9 13.4477 9 14V20H15V14C15 13.4477 14.5523 13 14 13H10Z" fill="#333333"/>
</svg>
