<svg width="24" height="24" viewBox="0 0 24 24" fill="none" xmlns="http://www.w3.org/2000/svg">
<path fill-rule="evenodd" clip-rule="evenodd" d="M2 12C2 17.5228 6.47716 22 12 22C17.5228 22 22 17.5228 22 12C22 6.47717 17.5228 2 12 2C6.47716 2 2 6.47717 2 12ZM20 12C20 16.4183 16.4183 20 12 20C7.58173 20 4 16.4183 4 12C4 7.58167 7.58173 4 12 4C16.4183 4 20 7.58167 20 12ZM13 10V15C13.5523 15 14 15.4478 14 16C14 16.5522 13.5523 17 13 17H11V12C10.4477 12 10 11.5522 10 11C10 10.4478 10.4477 10 11 10H13ZM12 7C11.4477 7 11 7.44775 11 8C11 8.55225 11.4477 9 12 9C12.5523 9 13 8.55225 13 8C13 7.44775 12.5523 7 12 7Z" fill="#333333"/>
</svg>
