<svg width="24" height="24" viewBox="0 0 24 24" fill="none" xmlns="http://www.w3.org/2000/svg">
<path fill-rule="evenodd" clip-rule="evenodd" d="M2 6C2 3.79083 3.79086 2 6 2H18C20.2091 2 22 3.79083 22 6V18C22 20.2092 20.2091 22 18 22H6C3.79086 22 2 20.2092 2 18V6ZM4 7C4 5.34314 5.34314 4 7 4H17C18.6569 4 20 5.34314 20 7V17C20 18.6569 18.6569 20 17 20H7C5.34314 20 4 18.6569 4 17V7ZM18.5 6.5C18.5 5.948 18.052 5.5 17.5 5.5C16.948 5.5 16.5 5.948 16.5 6.5C16.5 7.052 16.948 7.5 17.5 7.5C18.052 7.5 18.5 7.052 18.5 6.5ZM12 7C14.761 7 17 9.23901 17 12C17 14.761 14.761 17 12 17C9.23901 17 7 14.761 7 12C7 9.23901 9.23901 7 12 7ZM9 12C9 10.3431 10.3431 9 12 9C13.6569 9 15 10.3431 15 12C15 13.6569 13.6569 15 12 15C10.3431 15 9 13.6569 9 12Z" fill="#333333"/>
</svg>
