<svg width="24" height="24" viewBox="0 0 24 24" fill="none" xmlns="http://www.w3.org/2000/svg">
<path fill-rule="evenodd" clip-rule="evenodd" d="M6 7C3.23901 7 1 9.23901 1 12C1 14.761 3.23901 17 6 17H10V15H6C4.34302 15 3 13.657 3 12C3 10.343 4.34302 9 6 9H10V7H6ZM15 7C14.4477 7 14 7.44775 14 8C14 8.55225 14.4477 9 15 9H18C19.657 9 21 10.343 21 12C21 13.657 19.657 15 18 15H15C14.4477 15 14 15.4478 14 16C14 16.5522 14.4477 17 15 17H18C20.761 17 23 14.761 23 12C23 9.23901 20.761 7 18 7H15ZM7 12C7 11.4478 7.44769 11 8 11H16C16.5523 11 17 11.4478 17 12C17 12.5522 16.5523 13 16 13H8C7.44769 13 7 12.5522 7 12Z" fill="#333333"/>
</svg>
