<svg width="24" height="24" viewBox="0 0 24 24" fill="none" xmlns="http://www.w3.org/2000/svg">
<path fill-rule="evenodd" clip-rule="evenodd" d="M12 22C12.8022 22 14.8413 20.3146 16.4593 18.3943C18.6552 15.7882 20 12.9214 20 10C20 5.58173 16.4183 2 12 2C7.58173 2 4 5.58173 4 10C4 12.9214 5.34485 15.7882 7.5407 18.3943C9.15866 20.3146 11.1978 22 12 22ZM12 19.8744C12 19.8744 11.6211 19.5994 11.3244 19.3542C10.5868 18.7445 9.7941 17.9648 9.07016 17.1057C7.1507 14.8276 6 12.3746 6 10C6 6.68628 8.68629 4 12 4C15.3137 4 18 6.68628 18 10C18 12.3746 16.8493 14.8276 14.9298 17.1057C14.2059 17.9648 13.4132 18.7445 12.6756 19.3542C12.4214 19.5643 12 19.8744 12 19.8744ZM9 10C9 8.34314 10.3431 7 12 7C13.6569 7 15 8.34314 15 10C15 11.6569 13.6569 13 12 13C10.3431 13 9 11.6569 9 10ZM12 9C12.5523 9 13 9.44769 13 10C13 10.5523 12.5523 11 12 11C11.4477 11 11 10.5523 11 10C11 9.44769 11.4477 9 12 9Z" fill="#333333"/>
</svg>
