<svg width="16" height="16" viewBox="0 0 16 16" fill="none" xmlns="http://www.w3.org/2000/svg">
<path fill-rule="evenodd" clip-rule="evenodd" d="M3 6C3 3.24609 5.24609 1 8 1C10.7539 1 13 3.24609 13 6C13 6.77344 12.6836 7.62109 12.2461 8.51562C11.8086 9.41406 11.2383 10.3516 10.668 11.207C9.52344 12.9219 8.38672 14.3164 8.38672 14.3164L8 14.793L7.61328 14.3164C7.61328 14.3164 6.47656 12.9219 5.33594 11.207C4.76172 10.3516 4.19141 9.41406 3.75391 8.51562C3.31641 7.62109 3 6.77344 3 6ZM6 6C6 4.89844 6.89844 4 8 4C9.10156 4 10 4.89844 10 6C10 7.10156 9.10156 8 8 8C6.89844 8 6 7.10156 6 6Z" fill="#333333"/>
</svg>
