<svg width="32" height="32" viewBox="0 0 32 32" fill="none" xmlns="http://www.w3.org/2000/svg">
<path fill-rule="evenodd" clip-rule="evenodd" d="M19 3C18.4478 3 18 3.44772 18 4V7H9C6.25 7 4 9.25 4 12V24C4 24.5523 4.44775 25 5 25H16V28C16 28.5523 16.4478 29 17 29C17.5522 29 18 28.5523 18 28V25H27C27.5522 25 28 24.5523 28 24V12C28 9.25 25.75 7 23 7H21V9H23C24.668 9 26 10.332 26 12V23H14V12C14 10.8672 13.6094 9.83984 12.9688 9H18V11C18 11.5523 18.4478 12 19 12C19.5522 12 20 11.5523 20 11V5H21C21.5522 5 22 4.55228 22 4C22 3.44772 21.5522 3 21 3H19ZM9 9C10.668 9 12 10.332 12 12V23H6V12C6 10.332 7.33203 9 9 9ZM7 15V13H11V15H7Z" fill="#333333"/>
</svg>
