<svg width="24" height="24" viewBox="0 0 24 24" fill="none" xmlns="http://www.w3.org/2000/svg">
<path fill-rule="evenodd" clip-rule="evenodd" d="M2 6C2 5.44775 2.44772 5 3 5H21C21.5523 5 22 5.44775 22 6C22 6.55225 21.5523 7 21 7H3C2.44772 7 2 6.55225 2 6ZM2 12C2 11.4478 2.44772 11 3 11H21C21.5523 11 22 11.4478 22 12C22 12.5522 21.5523 13 21 13H3C2.44772 13 2 12.5522 2 12ZM3 17C2.44772 17 2 17.4478 2 18C2 18.5522 2.44772 19 3 19H21C21.5523 19 22 18.5522 22 18C22 17.4478 21.5523 17 21 17H3Z" fill="#333333"/>
</svg>
