<svg width="24" height="24" viewBox="0 0 24 24" fill="none" xmlns="http://www.w3.org/2000/svg">
<path fill-rule="evenodd" clip-rule="evenodd" d="M3 7C3 6.44775 3.44771 6 4 6H20C20.5523 6 21 6.44775 21 7C21 7.55225 20.5523 8 20 8H4C3.44771 8 3 7.55225 3 7ZM3 12C3 11.4478 3.44771 11 4 11H20C20.5523 11 21 11.4478 21 12C21 12.5522 20.5523 13 20 13H4C3.44771 13 3 12.5522 3 12ZM4 16C3.44771 16 3 16.4478 3 17C3 17.5522 3.44771 18 4 18H20C20.5523 18 21 17.5522 21 17C21 16.4478 20.5523 16 20 16H4Z" fill="#333333"/>
</svg>
