<svg width="16" height="16" viewBox="0 0 16 16" fill="none" xmlns="http://www.w3.org/2000/svg">
<path fill-rule="evenodd" clip-rule="evenodd" d="M1.28076 1C0.728485 1 0.280762 1.44772 0.280762 2V3.97751C0.102448 4.2767 0 4.6264 0 5C0 6.10458 0.895416 7 2 7C3.10458 7 4 6.10458 4 5C4 6.10458 4.89542 7 6 7C7.10458 7 8 6.10458 8 5C8 6.10458 8.89542 7 10 7C11.1046 7 12 6.10458 12 5C12 6.10458 12.8954 7 14 7C15.1046 7 16 6.10458 16 5C16 4.62653 15.8976 4.27698 15.7195 3.97787V2C15.7195 1.44772 15.2717 1 14.7195 1H1.28076ZM15 15V8H1V15H9V10H13V15H15ZM7 10H3V13H7V10Z" fill="#333333"/>
</svg>
