<svg width="24" height="24" viewBox="0 0 24 24" fill="none" xmlns="http://www.w3.org/2000/svg">
<path fill-rule="evenodd" clip-rule="evenodd" d="M12 22C6.47714 22 2 17.5228 2 12C2 6.47717 6.47714 2 12 2C17.5229 2 22 6.47717 22 12C22 13.5081 21.6661 14.9383 21.0683 16.2206L21.9456 20.4204C22.1718 21.5027 21.4818 22.1948 20.4008 21.9653L16.2068 21.0747C14.928 21.6685 13.5027 22 12 22ZM15.9696 18.9798L19.7713 19.7926L18.9745 15.9784L19.2556 15.3755C19.7437 14.3285 20 13.1843 20 12C20 7.58173 16.4183 4 12 4C7.58173 4 4 7.58173 4 12C4 16.4183 7.58173 20 12 20C13.1802 20 14.3204 19.7455 15.3645 19.2607L15.9696 18.9798ZM15 12C15 12.5523 15.4477 13 16 13C16.5523 13 17 12.5523 17 12C17 11.4477 16.5523 11 16 11C15.4477 11 15 11.4477 15 12ZM12 13C11.4477 13 11 12.5523 11 12C11 11.4477 11.4477 11 12 11C12.5523 11 13 11.4477 13 12C13 12.5523 12.5523 13 12 13ZM7 12C7 12.5523 7.44772 13 8 13C8.55228 13 9 12.5523 9 12C9 11.4477 8.55228 11 8 11C7.44772 11 7 11.4477 7 12Z" fill="#333333"/>
</svg>
