<svg width="24" height="24" viewBox="0 0 24 24" fill="none" xmlns="http://www.w3.org/2000/svg">
<path d="M12 2C10.3008 2 9 3.30078 9 5V12C9 13.6992 10.3008 15 12 15C13.6992 15 15 13.6992 15 12V5C15 3.30078 13.6992 2 12 2ZM6 12C5.44772 12 4.99242 12.4502 5.07149 12.9968C5.51271 16.0467 7.94702 18.4651 11 18.9062V21C11 21.5523 11.4477 22 12 22C12.5523 22 13 21.5523 13 21V18.9062C16.053 18.4651 18.4873 16.0467 18.9285 12.9968C19.0076 12.4502 18.5523 12 18 12C17.4477 12 17.0104 12.4523 16.9006 12.9935C16.4376 15.2743 14.4139 17 12 17C9.5861 17 7.56235 15.2743 7.09944 12.9935C6.98958 12.4523 6.55228 12 6 12Z" fill="#333333"/>
</svg>
