<svg width="24" height="24" viewBox="0 0 24 24" fill="none" xmlns="http://www.w3.org/2000/svg">
<path fill-rule="evenodd" clip-rule="evenodd" d="M2 8C2 6.89545 2.89543 6 4 6H20C21.1046 6 22 6.89545 22 8V16C22 17.1046 21.1046 18 20 18H4C2.89543 18 2 17.1046 2 16V8ZM6 8H18C18 9.10455 18.8954 10 20 10V14C18.8954 14 18 14.8954 18 16H6C6 14.8954 5.10457 14 4 14V10C5.10457 10 6 9.10455 6 8ZM9 12C9 10.3431 10.3431 9 12 9C13.6569 9 15 10.3431 15 12C15 13.6569 13.6569 15 12 15C10.3431 15 9 13.6569 9 12ZM7 11C6.448 11 6 11.447 6 12C6 12.553 6.448 13 7 13C7.552 13 8 12.553 8 12C8 11.447 7.552 11 7 11ZM16 12C16 11.447 16.448 11 17 11C17.552 11 18 11.447 18 12C18 12.553 17.552 13 17 13C16.448 13 16 12.553 16 12Z" fill="#333333"/>
</svg>
