<svg width="24" height="24" viewBox="0 0 24 24" fill="none" xmlns="http://www.w3.org/2000/svg">
<path fill-rule="evenodd" clip-rule="evenodd" d="M14.3028 2H4.99547C3.89588 2 3 2.89544 3 4.00001V20C3 21.1018 3.89638 22 5.00213 22H18.9979C20.1055 22 21 21.1049 21 20.0007V8.69925C21 8.42796 20.8429 8.04276 20.649 7.84885L15.1533 2.3511C14.9618 2.15949 14.5787 2 14.3028 2ZM12 4H4.99547L5 20L18.9979 20C18.9979 20 19.0001 14.1717 19.0001 11H13C12.4477 11 12 10.5523 12 10V4ZM14 9H19L14 4V9ZM7 17C7 16.4477 7.44911 16 7.9954 16H16.0046C16.5543 16 17 16.4439 17 17C17 17.5523 16.5509 18 16.0046 18H7.9954C7.44565 18 7 17.5561 7 17ZM8.00426 13C7.45098 13 7 13.4477 7 14C7 14.5561 7.44963 15 8.00426 15H11.9957C12.549 15 13 14.5523 13 14C13 13.4439 12.5504 13 11.9957 13H8.00426Z" fill="#333333"/>
</svg>
