<svg width="24" height="24" viewBox="0 0 24 24" fill="none" xmlns="http://www.w3.org/2000/svg">
<path fill-rule="evenodd" clip-rule="evenodd" d="M6.00213 20C4.34494 20 3 18.6554 3 17C3 15.9012 3.59492 14.9219 4.50422 14.3989C4.50422 14.0954 4.5 10.4986 4.5 10.4986C4.5 7.0431 6.8197 4.13386 10 3.26473V3C10 1.89543 10.8954 1 12 1C13.1046 1 14 1.89543 14 3V3.26473C17.181 4.13368 19.5 7.04318 19.5 10.5038V14.4076C20.4104 14.9331 21 15.9084 21 17C21 18.6576 19.657 20 17.9979 20H15C14.9983 21.6571 13.6524 23 12 23C10.3431 23 9 21.6582 9 20.0021L6.00213 20ZM11 20C11 20.5532 11.4472 21 12 21C12.5489 21 12.9983 20.5515 13 20H11ZM17.5 10.5038V15.3361C17.5 15.6132 17.7209 15.895 17.9875 15.9639L18.2497 16.0317C18.6872 16.1448 19 16.5429 19 17C19 17.5528 18.5526 18 17.9979 18H6.00213C5.44938 18 5 17.5507 5 17C5 16.5409 5.3115 16.1444 5.74931 16.0317L6.02032 15.9619C6.28524 15.8937 6.5 15.6158 6.5 15.3361V10.4986C6.5 7.46156 8.96189 5 12 5C15.0394 5 17.5 7.46073 17.5 10.5038Z" fill="#BEC0C8"/>
</svg>
