<svg width="24" height="24" viewBox="0 0 24 24" fill="none" xmlns="http://www.w3.org/2000/svg">
<path fill-rule="evenodd" clip-rule="evenodd" d="M3 2.00128V21.0014C3 22.1068 3.89325 23.0013 5.00085 23.0013H18.9991C20.1045 23.0013 21 22.1083 21 21.0014V2.00128C21 1.25787 20.2177 0.774414 19.5528 1.10687L18.0114 1.87756L16.4472 1.10687C16.1657 0.966064 15.8343 0.966064 15.5528 1.10687L14.0026 1.88196L12.4472 1.10687C12.1657 0.966064 11.8343 0.966064 11.5528 1.10687L10.0031 1.88171L8.44867 1.10693C8.16718 0.966125 7.83582 0.966064 7.5542 1.10675L6.00287 1.88196L4.4472 1.10687C3.78229 0.774414 3 1.25787 3 2.00128ZM18.9991 20.8885L5 20.8886V3.50793L5.5528 3.7829C5.83423 3.92365 6.16553 3.92365 6.44702 3.78302L8.01001 3.00299L9.55255 3.78278C9.83417 3.92365 10.1656 3.92371 10.4472 3.7829L12 3.00452L13.5528 3.7829C13.8343 3.92365 14.1657 3.92365 14.4472 3.7829L16.015 2.99988L17.5528 3.7829C17.8343 3.92365 18.1657 3.92365 18.4472 3.7829L19.005 3.50397L18.9991 20.8885ZM11 10C11 10.553 10.553 11 10 11C9.44702 11 9 10.553 9 10C9 9.44702 9.44702 9 10 9C10.553 9 11 9.44702 11 10ZM10 15C10.276 15 10.526 14.888 10.707 14.707L14.707 10.707C14.888 10.526 15 10.276 15 10C15 9.44702 14.553 9 14 9C13.724 9 13.474 9.112 13.293 9.29303L9.29303 13.293C9.112 13.474 9 13.724 9 14C9 14.553 9.44702 15 10 15ZM13 14C13 13.447 13.447 13 14 13C14.553 13 15 13.447 15 14C15 14.553 14.553 15 14 15C13.447 15 13 14.553 13 14Z" fill="#333333"/>
</svg>
