<svg width="24" height="24" viewBox="0 0 24 24" fill="none" xmlns="http://www.w3.org/2000/svg">
<path fill-rule="evenodd" clip-rule="evenodd" d="M3 2.00129V21.0014C3 22.1068 3.89324 23.0013 5.00087 23.0013H13.6841C12.9132 22.4891 12.2675 21.8034 11.8027 21H5V3.5079L5.55279 3.78289C5.83424 3.92361 6.16551 3.92365 6.447 3.783L8.01001 3.00296L9.55257 3.78278C9.83414 3.92365 10.1656 3.92369 10.4472 3.78289L12 3.00453L13.5528 3.78289C13.8343 3.92365 14.1657 3.92365 14.4472 3.78289L16.015 2.99985L17.5528 3.78289C17.8343 3.92365 18.1657 3.92365 18.4472 3.78289L19.005 3.50394L19.002 12.3421C19.7465 12.6056 20.4234 13.0117 21 13.5278V2.00129C21 1.25791 20.2177 0.774412 19.5528 1.10686L18.0113 1.87759L16.4472 1.10686C16.1657 0.966099 15.8343 0.966099 15.5528 1.10686L14.0026 1.88194L12.4472 1.10686C12.1657 0.966099 11.8343 0.966099 11.5528 1.10686L10.0031 1.8817L8.44865 1.10697C8.16716 0.966139 7.83579 0.966057 7.55423 1.10675L6.00284 1.88197L4.44721 1.10686C3.78231 0.774412 3 1.25791 3 2.00129ZM7 11C7 10.4477 7.44911 10 7.9954 10H16.0046C16.5543 10 17 10.4439 17 11C17 11.5523 16.5509 12 16.0046 12H7.9954C7.44565 12 7 11.5561 7 11ZM7.9954 6C7.44911 6 7 6.44772 7 7C7 7.55614 7.44565 8 7.9954 8H16.0046C16.5509 8 17 7.55228 17 7C17 6.44386 16.5543 6 16.0046 6H7.9954ZM17 14C19.1992 14 21 15.8008 21 18C21 20.1992 19.1992 22 17 22C14.8008 22 13 20.1992 13 18C13 15.8008 14.8008 14 17 14ZM16.25 17.6562L17.75 15.5L18.7157 16.163L17.6562 17.9062L19.0625 19.3438L18.1562 20.25L16.3438 18.4688L16 18.0938L16.25 17.6562Z" fill="#333333"/>
</svg>
