<svg width="24" height="24" viewBox="0 0 24 24" fill="none" xmlns="http://www.w3.org/2000/svg">
<path fill-rule="evenodd" clip-rule="evenodd" d="M6 7C6 3.14453 8.14453 1 12 1C15.8555 1 18 3.14453 18 7V9C19.6569 9 21 10.3431 21 12V20C21 21.6569 19.6569 23 18 23H6C4.34314 23 3 21.6569 3 20V12C3 10.3431 4.34314 9 6 9V7ZM5 12C5 11.4478 5.44771 11 6 11H18C18.5523 11 19 11.4478 19 12V20C19 20.5522 18.5523 21 18 21H6C5.44771 21 5 20.5522 5 20V12ZM12 3C14.7734 3 16 4.22656 16 7V9H8V7C8 4.22656 9.22656 3 12 3ZM7 16C7 15.4492 7.44922 15 8 15C8.55078 15 9 15.4492 9 16C9 16.5508 8.55078 17 8 17C7.44922 17 7 16.5508 7 16ZM12 15C11.4492 15 11 15.4492 11 16C11 16.5508 11.4492 17 12 17C12.5508 17 13 16.5508 13 16C13 15.4492 12.5508 15 12 15ZM15 16C15 15.4492 15.4492 15 16 15C16.5508 15 17 15.4492 17 16C17 16.5508 16.5508 17 16 17C15.4492 17 15 16.5508 15 16Z" fill="#333333"/>
</svg>
