<svg width="24" height="24" viewBox="0 0 24 24" fill="none" xmlns="http://www.w3.org/2000/svg">
<path fill-rule="evenodd" clip-rule="evenodd" d="M0 4.99994V5.99994V13.9998V16.9997C0 18.1036 0.895996 18.9996 1.99998 18.9996H15.7589C16.3969 19.9556 17.3999 20.6686 18.6169 20.9116C21.0549 21.3995 23.4248 19.8186 23.9118 17.3826C24.2798 15.5427 23.4678 13.7427 21.9998 12.7607V10.9998V6.99988V4.99994C21.9998 3.896 21.1039 3 19.9999 3H1.99998C0.895996 3 0 3.896 0 4.99994ZM20.9998 17.9996V18.9996H19.9998H18.9999H17.9999V17.9996H18.9999V14.9998H17.9999V13.9998H18.9999H19.9998V17.9996H20.9998ZM19.9998 12.0498C17.7029 11.7918 15.5489 13.3088 15.0879 15.6167C14.9929 16.0867 14.9979 16.5487 15.0489 16.9997H2.99998C2.44798 16.9997 1.99998 16.5527 1.99998 15.9997V10.9998H19.9998V12.0498ZM1.99998 6.99988V5.99994C1.99998 5.44794 2.44798 4.99994 2.99998 4.99994H18.9999C19.5529 4.99994 19.9998 5.44794 19.9998 5.99994V6.99988H1.99998ZM4.99994 12.9998C4.44768 12.9998 3.99997 13.4474 3.99997 13.9998C3.99997 14.552 4.44768 14.9997 4.99994 14.9997H10.9999C11.5522 14.9997 11.9999 14.552 11.9999 13.9998C11.9999 13.4474 11.5522 12.9998 10.9999 12.9998H4.99994Z" fill="#333333"/>
</svg>
