<svg width="24" height="24" viewBox="0 0 24 24" fill="none" xmlns="http://www.w3.org/2000/svg">
<path fill-rule="evenodd" clip-rule="evenodd" d="M18.5807 2.58656L21.4138 5.42067C22.1947 6.2018 22.1956 7.46742 21.4152 8.24818L8.021 21.6475C7.82635 21.8422 7.44641 22 7.16553 22H3.00037C2.44788 22 2 21.5551 2 20.9994V16.8331C2 16.5552 2.1601 16.1699 2.3526 15.9776L15.7537 2.58449C16.5342 1.80446 17.7998 1.80519 18.5807 2.58656ZM4 17.153L4.00146 18.091C4.52618 17.911 5.13074 18.0305 5.54938 18.4492C5.96985 18.8699 6.08844 19.4782 5.90515 20.0047L6.83313 20.007L8.38367 18.4558L5.54193 15.6131L4 17.153ZM18.0018 8.834L15.1674 6.00124C15.1674 6.00124 10.2654 10.8959 6.95703 14.1998L9.79755 17.0415L18.0018 8.834Z" fill="#333333"/>
</svg>
