<svg width="24" height="24" viewBox="0 0 24 24" fill="none" xmlns="http://www.w3.org/2000/svg">
<path fill-rule="evenodd" clip-rule="evenodd" d="M10.0259 8.53228L11.0436 7.5155C11.4211 7.1383 11.4202 6.53051 11.0446 6.15515L7.30896 2.42285C6.742 1.85638 5.83105 1.86096 5.26636 2.42517L3.22919 4.46051C1.92029 5.76825 1.60528 8.13769 2.53363 9.74487C2.53363 9.74487 3.64691 12.3422 7.67187 16.3635C11.6968 20.3849 14.2489 21.4578 14.2489 21.4578C15.8422 22.4104 18.2249 22.0655 19.5373 20.7542L21.5744 18.7189C22.1428 18.1511 22.1401 17.241 21.5768 16.6781L17.8412 12.9458C17.4644 12.5693 16.8559 12.5708 16.4796 12.9467L15.4619 13.9636C14.8991 14.5259 13.9887 14.528 13.4203 13.9601L10.0293 10.572C9.4646 10.0078 9.46356 9.09411 10.0259 8.53228ZM6.28882 4.23077L8.8952 6.83484L8.6123 7.11743C7.26697 8.46161 7.27026 10.6426 8.61572 11.9869L12.0068 15.3749C13.3545 16.7215 15.5303 16.7225 16.8755 15.3784L17.1609 15.0933L19.7672 17.6973L18.1237 19.3394C17.4409 20.0215 16.0599 20.2103 15.2753 19.7412L15.1541 19.6688L15.024 19.6141C14.8255 19.5306 14.3365 19.2662 13.5893 18.7614C12.2693 17.8696 10.757 16.6188 9.08545 14.9487C7.41363 13.2784 6.15387 11.7581 5.24853 10.4235C4.73425 9.66534 4.461 9.16485 4.37183 8.95691L4.32501 8.84753L4.2655 8.74456C3.79114 7.92327 3.9732 6.54437 4.64276 5.87536L6.28882 4.23077Z" fill="#333333"/>
</svg>
