<svg width="24" height="24" viewBox="0 0 24 24" fill="none" xmlns="http://www.w3.org/2000/svg">
<path fill-rule="evenodd" clip-rule="evenodd" d="M2 6C2 4.89844 2.89844 4 4 4H20C21.1016 4 22 4.89844 22 6V18C22 19.1016 21.1016 20 20 20H4C2.89844 20 2 19.1016 2 18V6ZM5 6C4.44772 6 4 6.44775 4 7V17C4 17.5522 4.44772 18 5 18H19C19.5523 18 20 17.5522 20 17V7C20 6.44775 19.5523 6 19 6H5ZM16.5 8C15.6719 8 15 8.67188 15 9.5C15 10.3281 15.6719 11 16.5 11C17.3281 11 18 10.3281 18 9.5C18 8.67188 17.3281 8 16.5 8ZM6 12L8 10L12 13L14 12L18 14.4062V16H6V12Z" fill="#333333"/>
</svg>
