<svg width="24" height="24" viewBox="0 0 24 24" fill="none" xmlns="http://www.w3.org/2000/svg">
<path fill-rule="evenodd" clip-rule="evenodd" d="M13 18.003C13 18.5536 12.5561 19 12 19C11.4477 19 11 18.5527 11 18.003V11.9009C8.7155 11.4394 7 9.42059 7 7C7 4.23859 9.23857 2 12 2C14.7614 2 17 4.23859 17 7C17 9.42059 15.2845 11.4394 13 11.9009V18.003ZM15 7C15 5.34314 13.6569 4 12 4C10.3431 4 9 5.34314 9 7C9 8.65686 10.3431 10 12 10C13.6569 10 15 8.65686 15 7ZM8.87663 15.1893C5.37622 15.6318 3 16.7128 3 18.5C3 20.7463 7.01158 22 12 22C16.9884 22 21 20.7463 21 18.5C21 16.7173 18.6371 15.6382 15.1519 15.193C14.6041 15.123 14.1033 15.5104 14.0333 16.0582C13.9633 16.606 14.3507 17.1069 14.8985 17.1768C16.2566 17.3503 17.4094 17.6423 18.1916 17.9996C18.5358 18.1567 18.5904 18.2217 18.5904 18.2217C18.8166 18.3754 18.8174 18.6359 18.5876 18.7808C18.5876 18.7808 18.4646 18.9677 17.3586 19.3132C15.9717 19.7466 14.0552 20 12 20C9.94479 20 8.02829 19.7466 6.64142 19.3132C5.53543 18.9677 5.40596 18.777 5.40596 18.777C5.18176 18.624 5.17931 18.3735 5.4133 18.2198C5.4133 18.2198 5.46857 18.1542 5.81528 17.9964C6.60266 17.6382 7.76237 17.3461 9.12744 17.1735C9.67537 17.1043 10.0634 16.6039 9.99414 16.056C9.9249 15.5081 9.42456 15.1201 8.87663 15.1893Z" fill="#333333"/>
</svg>
