<svg width="24" height="24" viewBox="0 0 24 24" fill="none" xmlns="http://www.w3.org/2000/svg">
<path fill-rule="evenodd" clip-rule="evenodd" d="M16 1C16.5523 1 17 1.44336 17 1.99902L18.9991 2C20.1045 2 21 2.89294 21 3.99988V21.0001C21 22.1055 20.1068 23 18.9991 23H5.00085C3.89551 23 3 22.1071 3 21.0001V3.99988C3 2.89447 3.89325 2 5.00085 2H7C7 1.44727 7.44385 1 8 1C8.55231 1 9 1.44336 9 1.99902L11 2C11 1.44727 11.4438 1 12 1C12.5523 1 13 1.44336 13 1.99902L15 2C15 1.44727 15.4438 1 16 1ZM13 3.99945C13 4.55273 12.5562 5 12 5C11.4477 5 11 4.55664 11 4.00098C10.7851 4.00049 10.5714 4.00012 10.3599 3.99988C9.89331 3.99933 9.43707 3.99927 9 3.99927C9 4.55273 8.55615 5 8 5C7.44769 5 7 4.55664 7 4.00098C5.79236 3.99933 5 3.99988 5 3.99988L5.00085 21L19 21.0001L18.9991 4L17 3.99982C17 4.55273 16.5562 5 16 5C15.4477 5 15 4.55664 15 4.00098C14.3649 3.99957 13.689 3.99951 13 3.99945ZM12.4375 7H11.5938V7.90625C10.1445 8.11719 9 9.33594 9 10.8438C9 11.8477 9.50391 13.2031 11.8125 13.8438C12.8047 14.0938 13.3125 14.5391 13.3125 15.1562C13.3125 15.8672 12.7109 16.4375 12 16.4375C11.2891 16.4375 10.7188 15.8672 10.7188 15.1562H9C9 16.6641 10.1445 17.8828 11.5938 18.0938V19H12.4375V18.0938C13.8867 17.8828 15 16.6641 15 15.1562C15 13.7148 14.0039 12.6328 12.25 12.1875C10.7344 11.7656 10.7188 11.1133 10.7188 10.8438C10.7188 10.1328 11.2891 9.5625 12 9.5625C12.7109 9.5625 13.3125 10.1328 13.3125 10.8438H15C15 9.33594 13.8867 8.11719 12.4375 7.90625V7Z" fill="#333333"/>
</svg>
