<svg width="24" height="24" viewBox="0 0 24 24" fill="none" xmlns="http://www.w3.org/2000/svg">
<path fill-rule="evenodd" clip-rule="evenodd" d="M8 5H5.00021V7.99976C5.00021 8.55212 4.55249 8.99976 4.00021 8.99976C3.44792 8.99976 3.00021 8.55212 3.00021 7.99976V4.50024C3.00021 3.67517 3.672 3 4.50041 3H8C8.55228 3 9 3.44775 9 4C9 4.55225 8.55228 5 8 5ZM19 7.99976V5H16.0002C15.4479 5 15.0002 4.55225 15.0002 4C15.0002 3.44775 15.4479 3 16.0002 3H19.4998C20.3282 3 21 3.67517 21 4.50024V7.99976C21 8.55212 20.5523 8.99976 20 8.99976C19.4477 8.99976 19 8.55212 19 7.99976ZM5.00021 18.9998V16C5.00021 15.4478 4.55249 15 4.00021 15C3.44792 15 3.00021 15.4478 3.00021 16V19.4996C3.00021 20.3246 3.672 20.9998 4.50041 20.9998H8C8.55228 20.9998 9 20.5521 9 19.9998C9 19.4475 8.55228 18.9998 8 18.9998H5.00021ZM16.0002 18.9998H19V16C19 15.4478 19.4477 15 20 15C20.5523 15 21 15.4478 21 16V19.4996C21 20.3246 20.3282 20.9998 19.4998 20.9998H16.0002C15.4479 20.9998 15.0002 20.5521 15.0002 19.9998C15.0002 19.4475 15.4479 18.9998 16.0002 18.9998ZM21.0002 13C21.5563 13 22 12.5522 22 12C22 11.4438 21.5524 11 21.0002 11H2.99981C2.44372 11 2 11.4478 2 12C2 12.5562 2.44763 13 2.99981 13H21.0002Z" fill="#333333"/>
</svg>
