<svg width="24" height="24" viewBox="0 0 24 24" fill="none" xmlns="http://www.w3.org/2000/svg">
<path fill-rule="evenodd" clip-rule="evenodd" d="M22 12C22 17.5228 17.5228 22 12 22C6.47716 22 2 17.5228 2 12C2 6.47714 6.47716 2 12 2C17.5228 2 22 6.47714 22 12ZM8.87981 16.2972C9.2708 16.6882 9.9028 16.6882 10.2938 16.2972L17.7209 8.71521C18.1099 8.32623 18.1099 7.69724 17.7199 7.30322C17.3299 6.91022 16.6959 6.90921 16.3059 7.30023L10.2928 13.4682C9.9028 13.8592 9.2708 13.8592 8.87981 13.4692L7.7028 12.2972C7.31281 11.9092 6.68181 11.9092 6.2928 12.2982C5.9028 12.6882 5.9028 13.3192 6.2928 13.7092L8.87981 16.2972Z" fill="#333333"/>
</svg>
