<svg width="24" height="24" viewBox="0 0 24 24" fill="none" xmlns="http://www.w3.org/2000/svg">
<path fill-rule="evenodd" clip-rule="evenodd" d="M4.9375 4.9375C6.74609 3.125 9.24219 2 12 2C17.5156 2 22 6.48438 22 12C22 17.5156 17.5156 22 12 22C6.48438 22 2 17.5156 2 12C2 11.6602 2.03125 11.3281 2.0625 11H4.0625C4.01953 11.3281 4 11.6602 4 12C4 16.4102 7.58984 20 12 20C16.4102 20 20 16.4102 20 12C20 7.58984 16.4102 4 12 4C9.79297 4 7.79297 4.89453 6.34375 6.34375L8 8H3V3L4.9375 4.9375ZM11 8C11 7.44775 11.4477 7 12 7C12.5523 7 13 7.44775 13 8V11.5938L14.9844 13.5781C15.3727 13.9664 15.3727 14.5961 14.9844 14.9844C14.5961 15.3727 13.9664 15.3727 13.5781 14.9844L11 12.4062V8Z" fill="#333333"/>
</svg>
