<svg width="24" height="24" viewBox="0 0 24 24" fill="none" xmlns="http://www.w3.org/2000/svg">
<path fill-rule="evenodd" clip-rule="evenodd" d="M19 6.24683C17.3124 4.23828 14.7599 3 12 3C7.44653 3 3.62579 6.39941 3.06909 10.8802C3.00098 11.4282 3.39008 11.9277 3.93817 11.9958C4.48621 12.064 4.98572 11.6749 5.05383 11.1268C5.48651 7.64453 8.4588 5 12 5C14.3666 5 16.5365 6.16467 17.8278 8H16C15.4477 8 15 8.44775 15 9C15 9.55225 15.4477 10 16 10H19.4512C19.4742 10.0012 19.4973 10.0016 19.5205 10.0011L19.5529 10H20C20.5522 10 21 9.55225 21 9V5C21 4.44775 20.5522 4 20 4C19.4477 4 19 4.44775 19 5V6.24683ZM6.17328 16H8C8.55231 16 9 15.5522 9 15C9 14.4476 8.55231 14 8 14H4C3.44769 14 3 14.4476 3 15V19C3 19.5522 3.44769 20 4 20C4.55231 20 5 19.5522 5 19V17.7528C6.68561 19.7626 9.23688 21 12 21C16.5467 21 20.3637 17.6104 20.9286 13.1378C20.9979 12.59 20.6097 12.0896 20.0618 12.0204C19.5139 11.9512 19.0136 12.3394 18.9444 12.8872C18.5054 16.363 15.5359 19 12 19C9.63 19 7.46228 17.8365 6.17328 16Z" fill="#333333"/>
</svg>
