<svg width="24" height="24" viewBox="0 0 24 24" fill="none" xmlns="http://www.w3.org/2000/svg">
<path fill-rule="evenodd" clip-rule="evenodd" d="M12 20C16.4183 20 20 16.4183 20 12C20 7.58167 16.4183 4 12 4C7.58173 4 4 7.58167 4 12C4 16.4183 7.58173 20 12 20ZM14.1213 8.46448C14.5118 8.07385 15.145 8.07385 15.5355 8.46448C15.9261 8.85498 15.9261 9.48816 15.5355 9.87866L13.4142 12L15.5355 14.1213C15.926 14.5118 15.926 15.145 15.5355 15.5355C15.145 15.926 14.5118 15.926 14.1213 15.5355L12 13.4142L9.87866 15.5355C9.48816 15.926 8.85498 15.926 8.46448 15.5355C8.07397 15.145 8.07397 14.5118 8.46448 14.1213L10.5858 12L8.46448 9.87866C8.07391 9.48816 8.07391 8.85498 8.46448 8.46448C8.85498 8.07385 9.48816 8.07385 9.87866 8.46448L12 10.5858L14.1213 8.46448Z" fill="#333333"/>
</svg>
