<svg width="16" height="16" viewBox="0 0 16 16" fill="none" xmlns="http://www.w3.org/2000/svg">
<path fill-rule="evenodd" clip-rule="evenodd" d="M6.58599 7.99999L3.51459 11.0714C3.12559 11.4604 3.12559 12.0964 3.51459 12.4854C3.90359 12.8744 4.53959 12.8744 4.92859 12.4854L7.99999 9.41399L11.0714 12.4854C11.4604 12.8744 12.0964 12.8744 12.4854 12.4854C12.8744 12.0964 12.8744 11.4604 12.4854 11.0714L9.41399 7.99999L12.4856 4.92839C12.8736 4.54039 12.8736 3.90339 12.4856 3.51439C12.0966 3.12639 11.4596 3.12639 11.0716 3.51439L7.99999 6.58599L4.92839 3.51439C4.54039 3.12639 3.90339 3.12639 3.51439 3.51439C3.12639 3.90339 3.12639 4.54039 3.51439 4.92839L6.58599 7.99999Z" fill="#333333"/>
</svg>
