<svg width="16" height="16" viewBox="0 0 16 16" fill="none" xmlns="http://www.w3.org/2000/svg">
<path fill-rule="evenodd" clip-rule="evenodd" d="M7 5C7 2.79678 8.79678 1 11 1C11.5132 1 11.9963 1.10544 12.4375 1.27539L13.1562 1.55273L11 3.70703V5H12.293L13.9043 3.38867L14.4473 2.84375L14.7246 3.5625C14.8946 4.00366 15 4.48685 15 5C15 7.20322 13.2032 9 11 9C10.5187 9 10.0905 8.84665 9.66992 8.69141L5.98828 12.375C5.98959 12.3921 5.99161 12.4071 5.99362 12.422C5.99683 12.446 6 12.4695 6 12.5C6 13.875 4.875 15 3.5 15C2.125 15 1 13.875 1 12.5C1 11.125 2.125 10 3.5 10C3.55161 10 3.586 10.01 3.63281 10.0137L7.31055 6.33398C7.15399 5.91193 7 5.48233 7 5ZM2.5 12.5C2.5 11.9477 2.94772 11.5 3.5 11.5C4.05228 11.5 4.5 11.9477 4.5 12.5C4.5 13.0523 4.05228 13.5 3.5 13.5C2.94772 13.5 2.5 13.0523 2.5 12.5Z" fill="#333333"/>
</svg>
