<svg width="24" height="24" viewBox="0 0 24 24" fill="none" xmlns="http://www.w3.org/2000/svg">
<path fill-rule="evenodd" clip-rule="evenodd" d="M16.1817 5.72986L15.4271 5.29626C15.4271 5.29626 14.6392 3.1853 14.5727 3.04236C14.3216 2.44666 13.6344 2 12.9456 2H11.0544C10.3685 2 9.68423 2.4458 9.41579 3.06812C9.39941 3.10303 9.31895 3.31433 9.21399 3.59399C9.16057 3.73633 9.10078 3.89636 9.03989 4.05981C8.81821 4.65491 8.58154 5.29578 8.58154 5.29578L7.83594 5.73206C7.83594 5.73206 5.56502 5.34265 5.40598 5.32788C4.75633 5.24414 4.01978 5.60657 3.67538 6.19385L2.72974 7.80615C2.3868 8.39087 2.43683 9.19714 2.85013 9.73718C2.92593 9.84277 4.39342 11.572 4.39342 11.572C4.39342 11.572 4.39014 11.6484 4.38698 11.7419C4.38559 11.783 4.38422 11.8274 4.38316 11.8701C4.38199 11.9178 4.3812 11.9635 4.3812 12C4.3812 12.3031 4.39197 12.429 4.39197 12.429C4.39197 12.429 2.92593 14.1572 2.83344 14.2853C2.43484 14.7974 2.38531 15.6066 2.72974 16.1938L3.67538 17.8062C4.0183 18.3909 4.75244 18.7513 5.43413 18.6691C5.56502 18.6573 7.81367 18.2672 7.81367 18.2672L8.57066 18.6921C8.57066 18.6921 9.36075 20.8145 9.4272 20.9574C9.67834 21.5532 10.3655 22 11.0544 22H12.9456C13.6315 22 14.3157 21.5543 14.5842 20.9321C14.6392 20.8147 15.4271 18.7 15.4271 18.7L16.1696 18.2689L17.6811 18.5208L18.5873 18.6714C19.2435 18.7559 19.9802 18.3934 20.3246 17.8062L21.2702 16.1938C21.6131 15.6091 21.5632 14.803 21.15 14.2629C21.0742 14.1573 19.6061 12.4365 19.6061 12.4365C19.6061 12.4365 19.6188 12.146 19.6188 12C19.6188 11.8918 19.6176 11.806 19.6161 11.7404C19.6134 11.6222 19.6096 11.5695 19.6096 11.5695C19.6096 11.5695 21.0742 9.84265 21.1667 9.71448C21.5652 9.20251 21.6146 8.39343 21.2702 7.80615L20.3246 6.19385C19.9816 5.60913 19.2474 5.24866 18.5656 5.33093C18.4347 5.34277 16.1817 5.72986 16.1817 5.72986ZM13.6156 6.30505L13.7521 6.75439L14.1903 6.93848C14.6044 7.11243 14.9955 7.33533 15.3553 7.60193L15.7366 7.88428L16.2009 7.77576C16.8752 7.61804 18.4605 7.35657 18.6125 7.33838C18.7007 7.32776 19.4608 8.62378 19.4075 8.6936C19.3154 8.81409 18.2929 10.0348 17.817 10.5309L17.4903 10.8715L17.547 11.3365C17.5736 11.5554 17.5871 11.7767 17.5871 12C17.5871 12.2233 17.5736 12.4447 17.547 12.6636L17.4903 13.1287L17.817 13.4692C18.2929 13.9653 19.3154 15.186 19.4075 15.3065C19.4608 15.3763 18.6646 16.6681 18.6125 16.6617C18.4605 16.6436 16.8752 16.3821 16.2009 16.2244L15.7366 16.1158L15.3553 16.3982C14.9955 16.6648 14.6044 16.8877 14.1903 17.0616L13.7521 17.2457L13.6156 17.6951C13.4172 18.3484 12.8548 19.8297 12.7948 19.9684C12.7601 20.0488 11.2399 20.0487 11.2052 19.9684C11.1453 19.8297 10.5829 18.3484 10.3846 17.6951L10.2481 17.2457L9.80988 17.0616C9.39577 16.8878 9.00464 16.6649 8.64478 16.3983L8.2635 16.116L7.79929 16.2245C7.12489 16.3822 5.53947 16.6436 5.38744 16.6619C5.2993 16.6725 4.5392 15.3765 4.59259 15.3065C4.68468 15.1862 5.70718 13.9655 6.183 13.4695L6.50975 13.1289L6.45303 12.6637C6.42635 12.4448 6.41287 12.2234 6.41287 12C6.41287 11.7767 6.42635 11.5553 6.45303 11.3364L6.50975 10.8712L6.183 10.5306C5.70718 10.0347 4.68468 8.81396 4.59259 8.6936C4.5392 8.62366 5.2993 7.32764 5.38744 7.33826C5.53947 7.35657 7.12489 7.61792 7.79929 7.77563L8.2635 7.88416L8.64478 7.60181C9.00464 7.33521 9.39577 7.1123 9.80988 6.93835L10.2481 6.75439L10.3846 6.30505C10.5829 5.65173 11.1453 4.17041 11.2052 4.03174C11.2399 3.95142 12.7601 3.95129 12.7948 4.03174C12.8548 4.17041 13.4172 5.65173 13.6156 6.30505ZM12 15C10.3169 15 8.95247 13.6569 8.95247 12C8.95247 10.3431 10.3169 9 12 9C13.6831 9 15.0475 10.3431 15.0475 12C15.0475 13.6569 13.6831 15 12 15ZM13.0158 12C13.0158 12.5522 12.561 13 12 13C11.4389 13 10.9841 12.5522 10.9841 12C10.9841 11.4478 11.4389 11 12 11C12.561 11 13.0158 11.4478 13.0158 12Z" fill="#333333"/>
</svg>
