<svg width="16" height="16" viewBox="0 0 16 16" fill="none" xmlns="http://www.w3.org/2000/svg">
<path fill-rule="evenodd" clip-rule="evenodd" d="M13 6C14.6569 6 16 4.65686 16 3C16 1.34314 14.6569 0 13 0C11.3431 0 10 1.34314 10 3C10 3.12549 10.0077 3.24918 10.0227 3.37064L5.08261 5.84067C4.54306 5.32016 3.80893 5 3 5C1.34314 5 0 6.34314 0 8C0 9.65686 1.34314 11 3 11C3.80893 11 4.54306 10.6798 5.08261 10.1593L10.0227 12.6294C10.0077 12.7508 10 12.8745 10 13C10 14.6569 11.3431 16 13 16C14.6569 16 16 14.6569 16 13C16 11.3431 14.6569 10 13 10C12.1911 10 11.4569 10.3202 10.9174 10.8407L5.97733 8.37064C5.98755 8.28763 5.99438 8.20352 5.99771 8.11853C5.99924 8.07922 6 8.0397 6 8C6 7.87451 5.99228 7.75079 5.97733 7.62936L10.9174 5.15933C11.4569 5.67984 12.1911 6 13 6Z" fill="#333333"/>
</svg>
