<svg width="24" height="24" viewBox="0 0 24 24" fill="none" xmlns="http://www.w3.org/2000/svg">
<path d="M9.2 12C9.2 12.2385 9.1768 12.4717 9.13253 12.6972L15.8905 15.8188C16.5389 15.1883 17.4241 14.8 18.4 14.8C20.3882 14.8 22 16.4118 22 18.4C22 20.3882 20.3882 22 18.4 22C16.4118 22 14.8 20.3882 14.8 18.4C14.8 18.2544 14.8086 18.1109 14.8254 17.9699L7.9008 14.7689C7.27694 15.2879 6.47492 15.6 5.6 15.6C3.61177 15.6 2 13.9882 2 12C2 10.0118 3.61177 8.4 5.6 8.4C6.47544 8.4 7.2779 8.71248 7.90192 9.232L14.8256 6.03152C14.8087 5.89004 14.8 5.74603 14.8 5.6C14.8 3.61177 16.4118 2 18.4 2C20.3882 2 22 3.61177 22 5.6C22 7.58822 20.3882 9.2 18.4 9.2C17.4246 9.2 16.5399 8.8121 15.8915 8.18216L9.1328 11.3041C9.17689 11.5293 9.2 11.7619 9.2 12ZM5.6 13.2C6.26274 13.2 6.8 12.6627 6.8 12C6.8 11.3373 6.26274 10.8 5.6 10.8C4.93726 10.8 4.4 11.3373 4.4 12C4.4 12.6627 4.93726 13.2 5.6 13.2ZM18.4 6.8C19.0627 6.8 19.6 6.26274 19.6 5.6C19.6 4.93726 19.0627 4.4 18.4 4.4C17.7373 4.4 17.2 4.93726 17.2 5.6C17.2 6.26274 17.7373 6.8 18.4 6.8ZM18.4 19.6C19.0627 19.6 19.6 19.0627 19.6 18.4C19.6 17.7373 19.0627 17.2 18.4 17.2C17.7373 17.2 17.2 17.7373 17.2 18.4C17.2 19.0627 17.7373 19.6 18.4 19.6Z" fill="#333333"/>
</svg>
