<svg width="24" height="24" viewBox="0 0 24 24" fill="none" xmlns="http://www.w3.org/2000/svg">
<path fill-rule="evenodd" clip-rule="evenodd" d="M3.28125 2L3.0625 2.6875L1.0625 8.6875L1 8.84375V9C1 9.87891 1.39062 10.668 2 11.2188V20C2 21.1046 2.89545 22 4 22H20C21.1046 22 22 21.1046 22 20V11.2188C22.6094 10.668 23 9.87891 23 9V8.84375L22.9375 8.6875L20.9375 2.6875L20.7188 2H3.28125ZM20 20V12H13V20H20ZM11 20V12H4V20H11ZM4.71875 4H19.2812L20.9688 9.0625C20.9336 9.58984 20.5391 10 20 10C19.4375 10 19 9.5625 19 9H17C17 9.5625 16.5625 10 16 10C15.4375 10 15 9.5625 15 9H13C13 9.5625 12.5625 10 12 10C11.4375 10 11 9.5625 11 9H9C9 9.5625 8.5625 10 8 10C7.4375 10 7 9.5625 7 9H5C5 9.5625 4.5625 10 4 10C3.46094 10 3.06641 9.58984 3.03125 9.0625L4.71875 4ZM10 16C10 16.5523 9.55231 17 9 17C8.44769 17 8 16.5523 8 16C8 15.4477 8.44769 15 9 15C9.55231 15 10 15.4477 10 16ZM15 17C15.5523 17 16 16.5523 16 16C16 15.4477 15.5523 15 15 15C14.4477 15 14 15.4477 14 16C14 16.5523 14.4477 17 15 17Z" fill="#333333"/>
</svg>
