<svg width="24" height="24" viewBox="0 0 24 24" fill="none" xmlns="http://www.w3.org/2000/svg">
<path fill-rule="evenodd" clip-rule="evenodd" d="M13.0222 11.0568L21.107 14.9306C22.0036 15.8273 22.2024 17.0189 21.8048 18.1135C21.3058 19.3052 20.2065 20 19.0098 20H5.0387C3.84195 20 2.74268 19.3052 2.24371 18.1135C1.74475 17.0189 2.04489 15.8273 2.84402 14.9306L3.04285 14.8336L11.0263 11.0568V9.0694H12.0243C13.1235 9.0694 14.0201 8.47162 14.0201 7.77679C14.0201 6.78314 13.3224 6.08832 12.5232 6.08832C11.5253 6.08832 11.0263 6.78314 11.0263 7.08197H9.03046C9.03046 5.69238 10.426 4.10089 12.5232 4C14.4177 4 16.016 5.69238 16.016 7.67975C16.016 9.46533 14.7179 10.6608 13.0222 11.0568ZM19.0098 18.0126C19.6101 18.0126 19.9064 17.5157 19.9064 17.4148C20.0077 17.2169 20.1091 16.8209 19.8089 16.4211L12.0243 13.0441L4.34094 16.4211C3.93942 16.8209 4.04077 17.3178 4.14212 17.4148C4.14212 17.5157 4.43839 18.0126 5.0387 18.0126H19.0098Z" fill="#333333"/>
</svg>
