<svg width="24" height="24" viewBox="0 0 24 24" fill="none" xmlns="http://www.w3.org/2000/svg">
<path fill-rule="evenodd" clip-rule="evenodd" d="M19.0183 17.6068V4.00085C19.0183 3.44458 18.5706 3 18.0183 3C17.4622 3 17.0183 3.44812 17.0183 4.00085V17.6068L15.9 16.4885C15.5088 16.0973 14.8733 16.095 14.4828 16.4856C14.0896 16.8788 14.0936 17.5106 14.4858 17.9028L17.3112 20.7281C17.5074 20.9243 17.7628 21.0216 18.0191 21.0199C18.275 21.02 18.5307 20.923 18.7285 20.7252L21.5509 17.9028C21.9421 17.5116 21.9444 16.8761 21.5539 16.4856C21.1606 16.0923 20.5288 16.0963 20.1366 16.4885L19.0183 17.6068ZM10.003 3.01697C10.5536 3.01697 11 3.46423 11 4.01404V10.0199C11 10.5706 10.5527 11.017 10.003 11.017H3.99702C3.44638 11.017 3 10.5697 3 10.0199V4.01404C3 3.46338 3.44725 3.01697 3.99702 3.01697H10.003ZM9 5.01697H5V9.01697H9V5.01697ZM3.99702 13C3.44725 13 3 13.4464 3 13.9971V20.0029C3 20.5527 3.44638 21 3.99702 21H10.003C10.5527 21 11 20.5536 11 20.0029V13.9971C11 13.4473 10.5536 13 10.003 13H3.99702ZM5 15V19H9V15H5Z" fill="#333333"/>
</svg>
