<svg width="24" height="24" viewBox="0 0 24 24" fill="none" xmlns="http://www.w3.org/2000/svg">
<path fill-rule="evenodd" clip-rule="evenodd" d="M4 3C2.90625 3 2 3.90625 2 5V19C2 20.0938 2.90625 21 4 21H20C21.0938 21 22 20.0938 22 19V5C22 3.90625 21.0938 3 20 3H4ZM4 5H20V19H4V5ZM7 7C6.44771 7 6 7.44771 6 8C6 8.55228 6.44771 9 7 9H17C17.5523 9 18 8.55228 18 8C18 7.44771 17.5523 7 17 7H7ZM6 12C6 11.4477 6.44771 11 7 11C7.55228 11 8 11.4477 8 12C8 12.5523 7.55228 13 7 13C6.44771 13 6 12.5523 6 12ZM10 11C9.44771 11 9 11.4477 9 12C9 12.5523 9.44771 13 10 13H17C17.5523 13 18 12.5523 18 12C18 11.4477 17.5523 11 17 11H10ZM6 16C6 15.4477 6.44771 15 7 15C7.55228 15 8 15.4477 8 16C8 16.5523 7.55228 17 7 17C6.44771 17 6 16.5523 6 16ZM10 15C9.44771 15 9 15.4477 9 16C9 16.5523 9.44771 17 10 17H17C17.5523 17 18 16.5523 18 16C18 15.4477 17.5523 15 17 15H10Z" fill="#333333"/>
</svg>
