<svg width="24" height="24" viewBox="0 0 24 24" fill="none" xmlns="http://www.w3.org/2000/svg">
<path fill-rule="evenodd" clip-rule="evenodd" d="M12 22C17.5229 22 22 17.5228 22 12C22 6.47717 17.5229 2 12 2C6.47714 2 2 6.47717 2 12C2 17.5228 6.47714 22 12 22ZM12 20C16.4183 20 20 16.4183 20 12C20 7.58173 16.4183 4 12 4C7.58173 4 4 7.58173 4 12C4 16.4183 7.58173 20 12 20ZM15.7081 17.3996L12 15.1615L8.29187 17.3996L9.27603 13.1818L6 10.3438L10.3139 9.97791L12 6L13.6861 9.97791L18 10.3438L14.724 13.1818L15.7081 17.3996Z" fill="#333333"/>
</svg>
