<svg width="24" height="24" viewBox="0 0 24 24" fill="none" xmlns="http://www.w3.org/2000/svg">
<path fill-rule="evenodd" clip-rule="evenodd" d="M22 12C22 17.5228 17.5229 22 12 22C6.47714 22 2 17.5228 2 12C2 6.47717 6.47714 2 12 2C17.5229 2 22 6.47717 22 12ZM20 12C20 16.4183 16.4183 20 12 20C7.58173 20 4 16.4183 4 12C4 7.58167 7.58173 4 12 4C16.4183 4 20 7.58167 20 12ZM10.2938 16.2972C9.90281 16.6882 9.27081 16.6882 8.87981 16.2972L6.29281 13.7092C5.90281 13.3192 5.90281 12.6882 6.29281 12.2982C6.68181 11.9092 7.31281 11.9092 7.70281 12.2972L8.87981 13.4692C9.27081 13.8592 9.90281 13.8592 10.2928 13.4682L15.3059 8.30019C15.6959 7.90919 16.3299 7.91019 16.7199 8.30319C17.1099 8.69719 17.1099 9.32619 16.7209 9.71519L10.2938 16.2972Z" fill="#333333"/>
</svg>
