<svg width="24" height="24" viewBox="0 0 24 24" fill="none" xmlns="http://www.w3.org/2000/svg">
<path d="M10 2C9.448 2 9 2.448 9 3V5H4C2.90694 5 2 5.90694 2 7V18C2 19.0931 2.90694 20 4 20H20C21.0931 20 22 19.0931 22 18V7C22 5.90694 21.0931 5 20 5H15V3C15 2.448 14.552 2 14 2H10ZM11 4H13V5H11V4ZM4 7H6V9H8V7H16V9H18V7H20V18H4V7ZM14.5 10C14.1022 10 13.7206 10.158 13.4393 10.4393C13.158 10.7206 13 11.1022 13 11.5C13 11.8978 13.158 12.2794 13.4393 12.5607C13.7206 12.842 14.1022 13 14.5 13C14.8978 13 15.2794 12.842 15.5607 12.5607C15.842 12.2794 16 11.8978 16 11.5C16 11.1022 15.842 10.7206 15.5607 10.4393C15.2794 10.158 14.8978 10 14.5 10ZM18 12.6836L13.3418 15L14.3418 17L19 14.6836L18 12.6836Z" fill="#BEC0C8"/>
</svg>
