<svg width="24" height="24" viewBox="0 0 24 24" fill="none" xmlns="http://www.w3.org/2000/svg">
<path d="M8 22.0015H17C17.83 22.0015 18.54 21.5015 18.84 20.7815L21.86 13.7315C21.95 13.5015 22 13.2615 22 13.0015V11.0015C22 9.9015 21.1 9.0015 20 9.0015H13.3316L14.64 4.4315L14.67 4.1115C14.67 3.7015 14.5 3.3215 14.23 3.0515L13.7122 2.60944C13.3115 2.26741 12.7142 2.29486 12.3466 2.67219L6.58 8.5915C6.22 8.9515 6 9.4515 6 10.0015V20.0015C6 21.1015 6.9 22.0015 8 22.0015ZM3 10.0015H4C4.55228 10.0015 5 10.4492 5 11.0015V21.0015C5 21.5538 4.55228 22.0015 4 22.0015H3C2.44772 22.0015 2 21.5538 2 21.0015V11.0015C2 10.4492 2.44772 10.0015 3 10.0015Z" fill="#333333"/>
</svg>
