<svg width="24" height="24" viewBox="0 0 24 24" fill="none" xmlns="http://www.w3.org/2000/svg">
<path fill-rule="evenodd" clip-rule="evenodd" d="M17.0016 22C18.1029 22 19 21.1047 19 20.0004V6C19.5558 5.99951 20 5.552 20 5C20 4.44385 19.5519 4 18.9991 4H14C14 2.89539 13.1046 2 12 2C10.8954 2 10 2.89539 10 4H5.00089C4.44464 4 4 4.44775 4 5C4 5.55579 4.44763 5.99951 5 6V20.0004C5 21.1066 5.89471 22 6.99841 22H17.0016ZM17.0016 20C17.0016 20 7 20.0013 7 20.0004V6H17C16.9998 9.203 16.9996 20 17.0016 20ZM13 8.99756C13 8.44666 13.4439 8 14 8C14.5523 8 15 8.44629 15 8.99756V17.0024C15 17.5533 14.5561 18 14 18C13.4477 18 13 17.5537 13 17.0024V8.99756ZM10 8C9.44388 8 9 8.44666 9 8.99756V17.0024C9 17.5537 9.44772 18 10 18C10.5561 18 11 17.5533 11 17.0024V8.99756C11 8.44629 10.5523 8 10 8Z" fill="#333333"/>
</svg>
