<svg width="24" height="24" viewBox="0 0 24 24" fill="none" xmlns="http://www.w3.org/2000/svg">
<path fill-rule="evenodd" clip-rule="evenodd" d="M7 21C5.34314 21 4 19.6569 4 18C4 16.3431 5.34314 15 7 15C8.30621 15 9.41745 15.8348 9.82928 17H11V6.00244L2 6C1.44772 6 1 5.55231 1 5C1 4.44769 1.44772 4 2 4H11.5C12.3168 4 13 4.63593 13 5.47217V7H18.503C19.0536 7 19.6221 7.42737 19.7739 7.95862L20.9286 12H21.9996C22.5521 12 23 12.4485 23 13.0029V17.9971C23 18.551 22.5492 19 21.9996 19H20.8293C20.4174 20.1652 19.3062 21 18 21C16.6938 21 15.5826 20.1652 15.1707 19H9.82928C9.41745 20.1652 8.30621 21 7 21ZM18 15.0045C19.3062 15.0045 20.4174 15.8374 20.8293 17H21V14L13 14.0076V17H15.1707C15.5826 15.8374 16.6938 15.0045 18 15.0045ZM18.128 9L19 12H13V9H18.128ZM4 13C4 12.4477 4.44678 12 5.00137 12H9C9.55304 12 10 12.4438 10 13C10 13.5523 9.5546 14 9 14H5.00137C4.44833 14 4 13.5562 4 13ZM3 8C2.45023 8 2 8.44769 2 9C2 9.55615 2.44934 10 3 10H9C9.54977 10 10 9.55231 10 9C10 8.44385 9.55066 8 9 8H3ZM18 19C18.5523 19 19 18.5523 19 18C19 17.4477 18.5523 17 18 17C17.4477 17 17 17.4477 17 18C17 18.5523 17.4477 19 18 19ZM8 18C8 18.5523 7.55228 19 7 19C6.44772 19 6 18.5523 6 18C6 17.4477 6.44772 17 7 17C7.55228 17 8 17.4477 8 18Z" fill="#333333"/>
</svg>
