<svg width="16" height="16" viewBox="0 0 16 16" fill="none" xmlns="http://www.w3.org/2000/svg">
<path fill-rule="evenodd" clip-rule="evenodd" d="M0 12C0 12.5523 0.447715 13 1 13H2C2 14.1046 2.89543 15 4 15C5.10457 15 6 14.1046 6 13H10C10 14.1046 10.8954 15 12 15C13.1046 15 14 14.1046 14 13H15C15.5523 13 16 12.5523 16 12V8L13.2754 4.55273C13.1064 4.21373 12.7618 4 12.3828 4H10V3C10 2.44772 9.55229 2 9 2H1C0.447715 2 0 2.44772 0 3V12ZM13.8 11H12H10V6H12.3L13.8 8V11ZM8 4H2V11H8V4Z" fill="#333333"/>
</svg>
