<svg width="24" height="24" viewBox="0 0 24 24" fill="none" xmlns="http://www.w3.org/2000/svg">
<path d="M19.7778 2H4.22222C2.99444 2 2 2.99444 2 4.22222V19.7778C2 21.0056 2.99444 22 4.22222 22H19.7778C21.0056 22 22 21.0056 22 19.7778V4.22222C22 2.99444 21.0056 2 19.7778 2ZM17.6111 9.23778C17.6111 9.33333 17.6111 9.42778 17.6111 9.61889C17.6111 13.2378 14.8489 17.4289 9.80111 17.4289C8.27778 17.4289 6.84889 16.9522 5.61111 16.1911C5.80111 16.1911 6.08778 16.1911 6.27778 16.1911C7.51556 16.1911 8.75444 15.7144 9.70667 15.0478C8.46889 15.0478 7.51667 14.1911 7.13556 13.1433C7.32556 13.1433 7.51667 13.2389 7.61222 13.2389C7.89778 13.2389 8.08889 13.2389 8.37444 13.1433C7.13667 12.8578 6.18444 11.81 6.18444 10.4767C6.56556 10.6667 6.94667 10.7622 7.42222 10.8578C6.66 10.1911 6.18444 9.42889 6.18444 8.47667C6.18444 8 6.28 7.52444 6.56556 7.14333C7.89889 8.76222 9.89889 9.90556 12.1844 10C12.1844 9.81 12.0889 9.61889 12.0889 9.33333C12.0889 7.81 13.3267 6.57111 14.8511 6.57111C15.6133 6.57111 16.3744 6.85667 16.8511 7.42778C17.5178 7.33222 18.0889 7.04667 18.5656 6.76111C18.3756 7.42778 17.8989 7.90444 17.3278 8.28444C17.8989 8.18889 18.3756 8.09444 18.9467 7.80778C18.5633 8.38111 18.0878 8.85667 17.6111 9.23778Z" fill="#333333"/>
</svg>
