<svg width="24" height="24" viewBox="0 0 24 24" fill="none" xmlns="http://www.w3.org/2000/svg">
<path fill-rule="evenodd" clip-rule="evenodd" d="M21.1924 2.80774C20.8019 2.41711 20.1687 2.41711 19.7782 2.80774L15.5859 7H15C14.4477 7 14 7.44775 14 8C14 8.16956 14.0422 8.32935 14.1167 8.46924L11.5859 11H8C7.44769 11 7 11.4478 7 12C7 12.5522 7.44769 13 8 13H9.58588L7.58588 15H6C4.34302 15 3 13.657 3 12C3 10.343 4.34302 9 6 9H10V7H6C3.23901 7 1 9.23901 1 12C1 14.6268 3.02673 16.7812 5.6015 16.9844L2.80762 19.7782C2.41711 20.1688 2.41711 20.802 2.80762 21.1925C3.19812 21.583 3.8313 21.583 4.22186 21.1925L8.41437 17H10V15.4143L12.4144 13H16C16.5523 13 17 12.5522 17 12C17 11.4478 16.5523 11 16 11H14.4143L16.4143 9H18C19.657 9 21 10.343 21 12C21 13.657 19.657 15 18 15H15C14.4477 15 14 15.4478 14 16C14 16.5522 14.4477 17 15 17H18C20.761 17 23 14.761 23 12C23 9.37317 20.9733 7.21887 18.3986 7.01562L21.1924 4.22192C21.5829 3.83142 21.5829 3.19824 21.1924 2.80774Z" fill="#333333"/>
</svg>
