<svg width="16" height="16" viewBox="0 0 16 16" fill="none" xmlns="http://www.w3.org/2000/svg">
<path fill-rule="evenodd" clip-rule="evenodd" d="M15 8C15 11.866 11.866 15 8 15C4.134 15 1 11.866 1 8C1 4.134 4.134 1 8 1C11.866 1 15 4.134 15 8ZM6.22824 4.85431C5.90512 4.51688 5.90643 3.98441 6.23123 3.64859C6.57385 3.29434 7.14212 3.29544 7.4834 3.651L11.6136 7.95419C11.6382 7.97977 11.6382 8.0202 11.6136 8.04581L7.4834 12.349C7.14212 12.7046 6.57385 12.7056 6.23126 12.3514C5.90643 12.0156 5.90512 11.4831 6.22824 11.1457L9.20517 8.03693C9.22498 8.0163 9.22498 7.9837 9.20517 7.96304L6.22824 4.85431Z" fill="#333333"/>
</svg>
