<svg width="24" height="24" viewBox="0 0 24 24" fill="none" xmlns="http://www.w3.org/2000/svg">
<path fill-rule="evenodd" clip-rule="evenodd" d="M12 22C17.5228 22 22 17.5228 22 12C22 6.47715 17.5228 2 12 2C6.47715 2 2 6.47715 2 12C2 17.5228 6.47715 22 12 22ZM14.3019 7.37345C11.8717 10.7676 17.8529 16.465 14.5784 17.8586C13.3905 18.3359 10.5119 17.4111 8.64455 16.386C13.2833 16.7737 9.00353 12.9957 5.44048 12.1566C9.35774 11.783 11.5714 14.3867 11.6147 14.4469C11.5688 14.351 7.08774 6.70674 17.5582 5.57318C17.5582 5.5783 17.5595 5.58229 17.5595 5.58613C15.867 5.87408 14.9286 6.49682 14.3019 7.37345Z" fill="#333333"/>
</svg>
