<svg width="16" height="16" viewBox="0 0 16 16" fill="none" xmlns="http://www.w3.org/2000/svg">
<path fill-rule="evenodd" clip-rule="evenodd" d="M8 16C12.4183 16 16 12.4183 16 8C16 3.58172 12.4183 0 8 0C3.58172 0 0 3.58172 0 8C0 12.4183 3.58172 16 8 16ZM10.0432 4.45012C7.8374 7.18409 13.2663 11.7733 10.2942 12.896C9.2159 13.2804 6.60316 12.5355 4.90822 11.7097C9.11862 12.022 5.23405 8.97884 2 8.30297C5.55555 8.002 7.56476 10.0993 7.60408 10.1478C7.56245 10.0705 3.49516 3.91308 12.9988 3C12.9988 3.00412 13 3.00734 13 3.01043C11.4638 3.24237 10.612 3.74399 10.0432 4.45012Z" fill="#333333"/>
</svg>
