<svg width="24" height="24" viewBox="0 0 24 24" fill="none" xmlns="http://www.w3.org/2000/svg">
<path fill-rule="evenodd" clip-rule="evenodd" d="M12 24C18.6274 24 24 18.6274 24 12C24 5.37258 18.6274 0 12 0C5.37258 0 0 5.37258 0 12C0 18.6274 5.37258 24 12 24ZM14.657 6.81496C11.9188 10.6392 18.6579 17.0585 14.9685 18.6288C13.63 19.1665 10.3867 18.1246 8.28272 16.9695C13.5093 17.4064 8.68719 13.1496 4.67262 12.2043C9.08628 11.7833 11.5804 14.7169 11.6292 14.7848C11.5775 14.6767 6.52863 6.06376 18.3259 4.78656C18.3259 4.79232 18.3274 4.79683 18.3274 4.80115C16.4204 5.12559 15.3631 5.82724 14.657 6.81496Z" fill="#333333"/>
</svg>
