<svg width="24" height="24" viewBox="0 0 24 24" fill="none" xmlns="http://www.w3.org/2000/svg">
<path fill-rule="evenodd" clip-rule="evenodd" d="M12.9787 6.32599C12.2628 6.51636 11.6576 6.61853 11.0724 6.71735C10.0369 6.89221 9.14259 7.0434 7.93086 7.62573L7.80388 7.41382C9.13579 6.51929 10.136 6.30963 11.1951 6.08765C11.6937 5.98328 12.2091 5.87518 12.78 5.69025C14.1879 5.23395 15.338 4.68164 16.272 4H3C1.89543 4 1 4.89545 1 6V15.6213C3.2923 15.5618 4.45828 16.1431 5.82234 17.1141C4.35309 13.2425 6.31206 11.8804 7.73877 11.105C9.11487 10.3571 12.6375 9.7016 15.8124 9.11084L16.1603 9.04608C19.1695 8.48553 21.2018 7.37805 22.8923 5.35077C22.7614 4.96924 22.5184 4.63983 22.2026 4.40186C20.5717 6.6557 18.5922 7.85449 15.3478 8.59985C14.5629 8.78021 13.7569 8.927 12.9038 9.08228C10.4875 9.52209 7.98889 9.97693 6.10188 11.2257L5.94374 11.0251C7.59224 9.40485 10.5566 8.80939 13.1723 8.28406L13.1733 8.28387C13.9381 8.13031 14.6606 7.98523 15.3104 7.82239C18.6857 6.97723 20.5353 5.29626 21.4846 4.05908C21.3294 4.02045 21.1671 4 21 4H20.1348C18.727 5.67493 16.6254 6.8457 13.748 7.56445C12.7364 7.81702 11.9501 7.96765 11.2562 8.10046C9.8233 8.37482 8.78789 8.57306 6.95602 9.44531L6.83394 9.224C8.79561 7.98499 10.1552 7.7038 11.7294 7.37823L11.7383 7.3764C12.3318 7.25354 12.9458 7.1264 13.6366 6.93866C16.0023 6.29578 17.7329 5.37128 19.0496 4H17.4381C16.258 5.05206 14.722 5.86249 12.9787 6.32599ZM1 18V16.0109C2.99362 16.6155 4.76718 17.7689 5.25534 18.6805L5.26236 18.6931C5.34569 18.8395 5.82829 19.6873 2.97966 19.2542C2.97966 19.2542 3.59927 19.6088 4.46809 20H3.01805L2.17308 19.5766C1.83713 19.4082 1.54811 19.2249 1.28766 19.0339C1.10509 18.7322 1 18.3784 1 18ZM2.21457 19.8399L2.74319 19.9836C2.55785 19.9599 2.38045 19.9108 2.21457 19.8399ZM9.00615 16.3984C9.53505 17.6348 10.1429 19.0558 9.85831 20H21C22.1046 20 23 19.1046 23 18V6.16656C21.0408 8.2572 18.9412 9.03528 16.3307 9.3761C13.62 9.72992 10.4921 10.1927 9.38663 11.0187C7.15489 12.6866 8.87788 16.0977 8.87788 16.0977C8.91832 16.1931 8.95975 16.2899 9.00171 16.3879L9.00615 16.3984ZM13 14H21V15H13V14ZM19 16H13V17H19V16Z" fill="#333333"/>
</svg>
