<svg width="32" height="12" viewBox="0 0 32 12" fill="none" xmlns="http://www.w3.org/2000/svg">
<path fill-rule="evenodd" clip-rule="evenodd" d="M24.8711 10C24.2683 9.94779 23.9756 9.60241 23.9756 8.94469V2.05476C23.9756 1.38846 24.2729 1.04582 24.8846 1.00621L27.23 1C27.6786 1 28.0929 1.02556 28.4618 1.07594C28.8274 1.12559 29.1867 1.22326 29.5299 1.36491C29.8714 1.50183 30.2014 1.70591 30.5128 1.97207C31.0087 2.38408 31.3836 2.89339 31.6285 3.48613C31.875 4.07722 32 4.73421 32 5.43885C32 5.85341 31.9585 6.26451 31.8777 6.66082C31.7927 7.06134 31.6641 7.44378 31.4948 7.79737C31.3259 8.15006 31.1103 8.47444 30.8532 8.76068C30.0901 9.58251 29.0039 10 27.6265 10H24.8711ZM26.8511 1.70007C27.3481 1.70007 27.7976 1.80467 28.188 2.0115C28.5736 2.21796 28.8994 2.50548 29.1554 2.86674C29.4061 3.22143 29.5962 3.63563 29.7208 4.09675C29.8492 4.56042 29.9141 5.0575 29.9141 5.57338C29.9141 6.07649 29.851 6.55823 29.7267 7.00602C29.6016 7.45108 29.4114 7.85214 29.1609 8.19715C28.9124 8.546 28.5945 8.82092 28.2162 9.0146C27.8432 9.20774 27.4074 9.30577 26.9219 9.30577C26.6146 9.30577 26.3981 9.26415 26.2615 9.17817C26.1112 9.08653 26.0188 8.94779 25.9861 8.7667C25.9529 8.60077 25.9369 8.34666 25.9369 7.98996V2.87514C25.9369 2.55349 25.9509 2.3264 25.98 2.18401C26.0085 2.01771 26.0935 1.89175 26.2347 1.80705C26.3639 1.73494 26.5656 1.70007 26.8511 1.70007ZM21.9838 10C21.312 10 21 9.56663 21 8.63655V2.36199C21 1.433 21.312 1 21.9838 1C22.6508 1 22.9613 1.433 22.9613 2.36199V8.63655C22.9613 9.56663 22.6508 10 21.9838 10Z" fill="#333333"/>
<path fill-rule="evenodd" clip-rule="evenodd" d="M10.4618 0.887474C10.4618 0.887474 7.02928 10.4693 6.68662 11.1866C6.41149 11.7621 5.98123 12 5.32898 12C4.72987 12 4.35977 11.7211 4.0951 11.3215C3.61993 10.6023 0.335878 2.66891 0.0408659 1.56492C-0.126782 0.936683 0.216571 0.145514 1.16006 0.0170143C1.97259 -0.094271 2.60015 0.348088 2.87888 1.11735C3.46376 2.72994 6.03505 8.68492 6.03505 8.68492C6.03505 8.68492 7.84747 3.71395 9.11717 0.489977C9.26356 0.117345 9.63229 -0.046627 9.96929 0.0583985C10.596 0.253843 10.5028 0.778796 10.4618 0.887474ZM18.0968 10.0136C18.713 10.0136 19 9.72804 19 9.11684L18.9878 6.36132C18.9878 5.55815 18.8209 4.98416 18.4907 4.65674C18.0766 4.24394 17.5081 4.03493 16.8022 4.03493C16.0931 4.03493 15.5077 4.26846 15.0622 4.72716L14.9298 4.86418L14.8753 4.68039C14.7466 4.24655 14.4641 4.03493 14.01 4.03493C13.3939 4.03493 13.1078 4.32236 13.1078 4.93913V9.1165C13.1078 9.72804 13.3939 10.0136 14.01 10.0136C14.6254 10.0136 14.9122 9.72804 14.9122 9.1165L14.9125 6.26655C14.9293 5.86749 14.9936 5.58371 15.1081 5.39992C15.3363 5.03076 15.6896 4.84332 16.1577 4.84332C16.6025 4.84332 16.8921 4.99233 17.0187 5.28759C17.1314 5.55485 17.189 5.92904 17.189 6.39818L17.1943 9.1165C17.1943 9.72804 17.4816 10.0136 18.0968 10.0136ZM11.1946 10.0136C11.8069 10.0136 12.0921 9.72596 12.0921 9.1085V4.94417C12.0921 4.3274 11.8069 4.03998 11.1946 4.03998C10.5778 4.03998 10.2912 4.3274 10.2912 4.94417V9.1085C10.2912 9.72596 10.5778 10.0136 11.1946 10.0136ZM11.19 3.66126C11.9956 3.66126 12.0886 3.25507 12.0886 2.95008C12.0886 2.64491 11.9956 2.23872 11.19 2.23872C10.378 2.23872 10.2845 2.64491 10.2845 2.95008C10.2845 3.25507 10.378 3.66126 11.19 3.66126Z" fill="#333333"/>
</svg>
