<svg width="16" height="16" viewBox="0 0 16 16" fill="none" xmlns="http://www.w3.org/2000/svg">
<path fill-rule="evenodd" clip-rule="evenodd" d="M1 4.66665C1 3.75086 1.67564 3 2.49969 3H10.7089C11.1112 3 11.4939 3.18663 11.7673 3.51215L14.5753 6.8064C15.1416 7.47045 15.1416 8.52513 14.5753 9.19353L11.7673 12.4921C11.49 12.8133 11.1073 13.0043 10.7089 12.9999H2.49969C1.67564 12.9999 1 12.2491 1 11.3333V4.66665ZM11 9C11.5523 9 12 8.55228 12 8C12 7.44772 11.5523 7 11 7C10.4477 7 10 7.44772 10 8C10 8.55228 10.4477 9 11 9Z" fill="#497ADA"/>
</svg>
