<svg width="24" height="24" viewBox="0 0 24 24" fill="none" xmlns="http://www.w3.org/2000/svg">
<path fill-rule="evenodd" clip-rule="evenodd" d="M2 12C2 6.48828 6.48828 2 12 2C17.5117 2 22 6.48828 22 12C22 17.5117 17.5117 22 12 22C6.48828 22 2 17.5117 2 12ZM20 12C20 7.57031 16.4297 4 12 4C7.57031 4 4 7.57031 4 12C4 16.4297 7.57031 20 12 20C16.4297 20 20 16.4297 20 12ZM11 8C11 7.44775 11.4477 7 12 7C12.5523 7 13 7.44775 13 8V13C13 13.5522 12.5523 14 12 14C11.4477 14 11 13.5522 11 13V8ZM12 15C11.4477 15 11 15.4478 11 16C11 16.5522 11.4477 17 12 17C12.5523 17 13 16.5522 13 16C13 15.4478 12.5523 15 12 15Z" fill="#333333"/>
</svg>
