<svg width="24" height="24" viewBox="0 0 24 24" fill="none" xmlns="http://www.w3.org/2000/svg">
<path fill-rule="evenodd" clip-rule="evenodd" d="M12 2C8.30801 2 5.08551 4.01599 3.35352 7H5.79492C6.69492 5.888 7.86932 5.00793 9.23633 4.50195C8.92334 5.22998 8.67245 6.08002 8.48047 7H10.5371C11.0161 5.02301 11.687 4 12 4C12.313 4 12.9839 5.02301 13.4629 7H15.5195C15.3275 6.08002 15.0757 5.22998 14.7637 4.50195C16.1297 5.00793 17.3051 5.888 18.2051 7H20.6465C18.9145 4.01599 15.692 2 12 2ZM1 9L2.24219 15H3.55078L4.40039 11.5293L5.24805 15H6.55078L7.79297 9H6.28906L5.75195 12.3652L4.95312 9H3.83984L3.03906 12.3711L2.50781 9H1ZM9.8457 15L8.60352 9H10.1113L10.6445 12.3711L11.4434 9H12.5586L13.3555 12.3652L13.8945 9H15.3965L14.1543 15H12.8516L12.0039 11.5293L11.1543 15H9.8457ZM16.207 9L17.4492 15H18.7578L19.6074 11.5293L20.4551 15H21.7578L23 9H21.4961L20.959 12.3652L20.1602 9H19.0469L18.2461 12.3711L17.7148 9H16.207ZM12 22C8.30801 22 5.08551 19.984 3.35352 17H5.79492C6.69492 18.112 7.87033 18.9921 9.23633 19.498C8.92432 18.77 8.67245 17.92 8.48047 17H10.5371C11.0161 18.977 11.6851 20 11.998 20C12.311 20 12.9819 18.977 13.4609 17H15.5176C15.3256 17.92 15.0757 18.77 14.7637 19.498C16.1307 18.9921 17.3051 18.112 18.2051 17H20.6465C18.9145 19.984 15.692 22 12 22Z" fill="#333333"/>
</svg>
