<svg width="16" height="16" viewBox="0 0 16 16" fill="none" xmlns="http://www.w3.org/2000/svg">
<path d="M13.5 2H10.8C10.4 0.8 9.3 0 8 0C6.7 0 5.6 0.8 5.2 2H2.5C2.2 2 2 2.2 2 2.5C2 2.8 2.2 3 2.5 3H5C5 4 5.4 4.8 6.1 5.4C4.3 6.1 3 7.9 3 10V12.5C3 13.3 3.7 14 4.5 14H7V15C7 15.6 7.4 16 8 16C8.6 16 9 15.6 9 15V14H11.5C12.3 14 13 13.3 13 12.5V10C13 7.9 11.7 6.1 9.9 5.4C10.6 4.8 11 4 11 3H13.5C13.8 3 14 2.8 14 2.5C14 2.2 13.8 2 13.5 2ZM8 2C8.6 2 9 2.4 9 3C9 3.6 8.6 4 8 4C7.4 4 7 3.6 7 3C7 2.4 7.4 2 8 2ZM9 10C9 10.6 9.1 11 8 11C6.9 11 7 10.6 7 10C7 9.4 6.9 9 8 9C9.1 9 9 9.4 9 10Z" fill="#333333"/>
</svg>
