<svg width="16" height="16" viewBox="0 0 16 16" fill="none" xmlns="http://www.w3.org/2000/svg">
<path d="M8 0C3.589 0 0 3.589 0 8C0 12.411 3.589 16 8 16C12.411 16 16 12.411 16 8C16 3.589 12.411 0 8 0ZM6.736 13.652C6.645 13.727 6.532 13.767 6.418 13.767C6.37 13.767 6.321 13.76 6.274 13.746C4.647 13.258 3.298 12.091 2.572 10.545C2.46 10.306 2.552 10.021 2.784 9.894C3.34 9.59 3.864 9.436 4.342 9.436C5.34 9.436 6.597 10.092 6.915 13.216C6.933 13.382 6.865 13.546 6.736 13.652ZM13.428 10.544C12.701 12.09 11.353 13.257 9.726 13.745C9.679 13.759 9.63 13.766 9.582 13.766C9.467 13.766 9.354 13.726 9.264 13.651C9.135 13.545 9.068 13.381 9.085 13.215C9.403 10.09 10.66 9.435 11.658 9.435C12.136 9.435 12.66 9.589 13.216 9.893C13.447 10.02 13.54 10.306 13.428 10.544ZM13.496 8.426C13.449 8.426 13.401 8.419 13.354 8.405C12.927 8.28 12.458 8.129 11.974 7.974C10.553 7.518 8.94 7 8 7C7.06 7 5.447 7.518 4.025 7.974C3.541 8.129 3.072 8.28 2.645 8.405C2.491 8.449 2.328 8.42 2.202 8.324C2.075 8.228 2.002 8.077 2.004 7.919C2.048 4.655 4.737 2 8 2C11.263 2 13.952 4.655 13.996 7.919C13.998 8.078 13.925 8.228 13.798 8.324C13.71 8.391 13.604 8.426 13.496 8.426Z" fill="#333333"/>
</svg>
