<svg width="88" height="88" viewBox="0 0 88 88" fill="none" xmlns="http://www.w3.org/2000/svg">
<path fill-rule="evenodd" clip-rule="evenodd" d="M52 22.587V18L13 40.6981V40.7159L16.9234 43L52 22.587Z" fill="#52676E"/>
<path fill-rule="evenodd" clip-rule="evenodd" d="M52.3974 18.2666L74.4688 31.1785L76 30.282L53.9285 17.371C53.0834 16.8763 51.7113 16.8763 50.8653 17.371L12 40.1035L13.5312 41L52.3974 18.2666Z" fill="#738990"/>
<path fill-rule="evenodd" clip-rule="evenodd" d="M11.1565 41.0034L11.1525 41V45.1829C11.1515 45.4773 11.3805 45.7709 11.8385 45.9949L11.8465 45.9992L11.8475 46V41.8417L11.8385 41.8366C11.3695 41.6067 11.1445 41.3046 11.1565 41.0034Z" fill="#415358"/>
<path fill-rule="evenodd" clip-rule="evenodd" d="M39.5724 78L72 58.7357L50.1125 46L17 65.4817L39.5724 78Z" fill="#D76C6B"/>
<path fill-rule="evenodd" clip-rule="evenodd" d="M69.6989 41.2856L67.3412 39.9846L67.6199 36.9116C67.6734 36.3366 68.2446 36.1629 68.897 36.5222C69.5476 36.8825 70.032 37.6403 69.9785 38.2143L69.6989 41.2856ZM69.053 48.3068L66.6953 47.0096L67.1382 42.1698L69.4959 43.4689L69.053 48.3068ZM68.4107 53.3131C68.3572 53.8898 67.786 54.0654 67.1345 53.7061C66.483 53.3458 65.9986 52.5871 66.0521 52.0103L66.3428 48.9928L68.7014 50.2937L68.4107 53.3131ZM65.1764 38.7902L62.8187 37.4893L63.0964 34.4135C63.1499 33.8376 63.7221 33.6629 64.3726 34.0223C65.0241 34.3825 65.5086 35.1403 65.456 35.7162L65.1764 38.7902ZM64.5313 45.8187L62.1727 44.5215L62.6147 39.6753L64.9733 40.9762L64.5313 45.8187ZM63.8872 50.815C63.8337 51.3908 63.2625 51.5664 62.611 51.2061C61.9605 50.8468 61.476 50.0881 61.5286 49.5122L61.8202 46.4965L64.1788 47.7983L63.8872 50.815ZM60.6538 36.2948L58.2952 34.993L58.5739 31.9153C58.6274 31.3386 59.1986 31.1639 59.8491 31.5232C60.5006 31.8835 60.9851 32.6413 60.9316 33.2181L60.6538 36.2948ZM60.0088 43.3306L57.6511 42.0343L58.0922 37.1827L60.4508 38.4818L60.0088 43.3306ZM59.3638 48.3168C59.3102 48.8918 58.739 49.0674 58.0885 48.7071C57.437 48.3478 56.9525 47.5891 57.0061 47.0141L57.2977 44.0011L59.6554 45.302L59.3638 48.3168ZM56.1303 33.7985L53.7726 32.4976L54.0504 29.4163C54.1039 28.8405 54.6751 28.664 55.3266 29.0242C55.9781 29.3836 56.4616 30.1432 56.409 30.72L56.1303 33.7985ZM55.4862 40.8434L53.1294 39.5452L53.5696 34.6882L55.9273 35.9891L55.4862 40.8434ZM54.8412 45.8178C54.7877 46.3937 54.2156 46.5674 53.5641 46.2081C52.9135 45.8478 52.4291 45.09 52.4826 44.516L52.7742 41.5048L55.1319 42.8066L54.8412 45.8178ZM51.3992 23L49 45.1519L71.5952 58L74 35.8508L51.3992 23Z" fill="#D33837"/>
<path fill-rule="evenodd" clip-rule="evenodd" d="M58.0878 42.1665L60.4069 43.4603L60.4677 42.7794L58.8738 41.8895L59.2469 37.7292L58.5217 37.3243L58.0878 42.1665ZM59.8623 31.5242C59.3976 31.4134 59.0363 31.6131 58.9955 32.0671L58.7214 35.1388L61.0413 36.4381L61.1022 35.7562L59.5074 34.8628L59.7815 31.7911C59.7906 31.6876 59.8224 31.6013 59.8623 31.5242ZM57.4533 47.1367C57.4007 47.7105 57.8772 48.4678 58.518 48.8264C59.0427 49.1206 59.5101 49.0516 59.6926 48.702C59.5682 48.673 59.4384 48.6258 59.3032 48.5504C58.6633 48.1909 58.1867 47.4345 58.2394 46.8607L58.4618 44.5336L57.7402 44.1295L57.4533 47.1367ZM55.4138 29.03C54.9482 28.9192 54.5878 29.1189 54.5461 29.5729L54.2729 32.6482L56.592 33.9466L56.6528 33.2647L55.0589 32.3722L55.3321 29.2978C55.3421 29.1934 55.373 29.1071 55.4138 29.03ZM53.6402 39.6823L55.9584 40.9779L56.0201 40.297L54.4263 39.4072L54.7984 35.2405L54.0732 34.8346L53.6402 39.6823ZM53.004 44.6434C52.9513 45.2163 53.4279 45.9727 54.0678 46.3322C54.5933 46.6264 55.0617 46.5574 55.2432 46.2078C55.1197 46.1788 54.989 46.1316 54.8547 46.0562C54.2139 45.6967 53.7374 44.9403 53.79 44.3674L54.0124 42.0421L53.2908 41.638L53.004 44.6434ZM68.7601 36.5135C68.2954 36.4018 67.9351 36.6006 67.8933 37.0537L67.6192 40.1208L69.9383 41.4192L70 40.7373L68.4052 39.8448L68.6793 36.7786C68.6893 36.6751 68.7202 36.5897 68.7601 36.5135ZM61.9018 49.63C61.8501 50.2047 62.3266 50.962 62.9665 51.3206C63.492 51.6148 63.9586 51.5458 64.141 51.1962C64.0176 51.1672 63.8878 51.12 63.7525 51.0446C63.1126 50.686 62.6361 49.9287 62.6888 49.354L62.9102 47.0241L62.1886 46.6201L61.9018 49.63ZM66.9838 47.1322L69.3029 48.4269L69.3646 47.7469L67.7699 46.8561L68.1438 42.7067L67.4195 42.3009L66.9838 47.1322ZM62.5354 44.6489L64.8554 45.9436L64.9162 45.2636L63.3223 44.3737L63.6954 40.218L62.9701 39.8121L62.5354 44.6489ZM66.3512 52.1233C66.2985 52.6989 66.7751 53.4562 67.4159 53.8157C67.9405 54.1099 68.407 54.04 68.5895 53.6904C68.466 53.6614 68.3372 53.6151 68.2028 53.5397C67.562 53.1802 67.0855 52.4229 67.1372 51.8473L67.3587 49.5147L66.6371 49.1115L66.3512 52.1233ZM64.2309 34.2844L63.9568 37.3542L65.5506 38.2468L65.4898 38.9287L63.1707 37.6303L63.4439 34.5604C63.4857 34.1073 63.8469 33.9076 64.3108 34.0184C64.2717 34.0955 64.24 34.1809 64.2309 34.2844Z" fill="#A4262A"/>
<path fill-rule="evenodd" clip-rule="evenodd" d="M48.0592 31.754L45.8971 32.9762V30.1384C45.8971 29.4633 46.3806 28.6428 46.9772 28.3057C47.5748 27.9686 48.0582 28.2411 48.0582 28.9163L48.0592 31.754ZM48.0592 38.758L45.8971 39.9792V35.5404L48.0592 34.3183V38.758ZM48.0592 44.1999C48.0592 44.8751 47.5748 45.6956 46.9782 46.0327C46.3806 46.3707 45.8971 46.0972 45.8971 45.4221V42.5444L48.0592 41.3222V44.1999ZM43.9123 34.0984L41.7512 35.3196V32.4819C41.7512 31.8076 42.2347 30.9862 42.8323 30.6491C43.4289 30.312 43.9123 30.5855 43.9123 31.2606V34.0984ZM43.9123 41.1014L41.7512 42.3236V37.8848L43.9123 36.6626V41.1014ZM43.9133 46.5443C43.9133 47.2194 43.4289 48.039 42.8323 48.3771C42.2356 48.7142 41.7512 48.4407 41.7512 47.7664V44.8878L43.9133 43.6656V46.5443ZM39.7665 43.4448L37.6054 44.667V42.638L39.7665 41.4158V43.4448ZM39.7665 48.8877C39.7665 49.5629 39.283 50.3834 38.6864 50.7214C38.0888 51.0585 37.6054 50.785 37.6054 50.1099V47.2321L39.7665 46.01V48.8877ZM35.6206 45.7892L33.4595 47.0113V44.9814L35.6206 43.7592V45.7892ZM35.6215 51.2321C35.6215 51.9063 35.1371 52.7277 34.5405 53.0648C33.9438 53.4019 33.4595 53.1284 33.4595 52.4542V49.5756L35.6206 48.3534L35.6215 51.2321ZM31.4756 48.1326L29.3136 49.3548V47.3248L31.4756 46.1036V48.1326ZM31.4756 53.5755C31.4756 54.2506 30.9912 55.0711 30.3946 55.4083C29.797 55.7463 29.3136 55.4728 29.3136 54.7976V51.919L31.4756 50.6978V53.5755ZM27.3297 50.477L25.1677 51.6991V49.6692L27.3297 48.447V50.477ZM27.3297 55.9189C27.3297 56.5941 26.8453 57.4155 26.2487 57.7526C25.652 58.0897 25.1677 57.8162 25.1677 57.142V54.2633L27.3297 53.0412V55.9189ZM23.1829 45.8174L21.0218 47.0395V44.2018C21.0218 43.5266 21.5052 42.7061 22.1028 42.369C22.6994 42.0319 23.1829 42.3045 23.1829 42.9796V45.8174ZM23.1838 52.8213L21.0218 54.0425V49.6037L23.1829 48.3816L23.1838 52.8213ZM23.1838 58.2633C23.1838 58.9384 22.6994 59.7589 22.1028 60.096C21.5061 60.4341 21.0218 60.1606 21.0218 59.4854V56.6077L23.1838 55.3855V58.2633ZM19.0379 48.1617L16.8759 49.3829V46.5452C16.8759 45.871 17.3602 45.0495 17.9569 44.7124C18.5535 44.3753 19.0379 44.6488 19.0379 45.324V48.1617ZM19.0379 55.1647L16.8759 56.3869V51.9481L19.0379 50.725V55.1647ZM19.0379 60.6067C19.0379 61.2827 18.5535 62.1024 17.9569 62.4404C17.3602 62.7784 16.8759 62.504 16.8759 61.8298V58.9538L19.0379 57.729V60.6067ZM13 45.0295L15.6037 61.8897C16.6643 63.946 18.4709 64.5321 20.4706 63.5044L48.2559 47.7964C48.9017 47.4311 49.4436 46.5743 49.5123 45.8092L52 23L13 45.0295Z" fill="#DE4F4D"/>
<path fill-rule="evenodd" clip-rule="evenodd" d="M25.9878 57.8515C26.5465 57.5044 27 56.6585 27 55.9633V53L26.4109 53.3659V55.4421C26.4109 56.1364 25.9583 56.9823 25.3988 57.3294C25.2572 57.4174 25.1225 57.4642 25 57.4754C25.099 57.9797 25.503 58.1528 25.9878 57.8515Z" fill="#C12F32"/>
<path fill-rule="evenodd" clip-rule="evenodd" d="M22.3946 42.0023C22.4092 42.0797 22.4186 42.1646 22.4186 42.2571V45.2042L21 46.1044V47L23 45.7308V42.7836C23 42.2608 22.751 41.9711 22.3946 42.0023Z" fill="#C12F32"/>
<path fill-rule="evenodd" clip-rule="evenodd" d="M26.418 49.3277V50.4049L25 51.2045V52L27 50.8726V49L26.418 49.3277Z" fill="#C12F32"/>
<path fill-rule="evenodd" clip-rule="evenodd" d="M22.418 49.3766V53.1682L21 54.086V55L23 53.7056V49L22.418 49.3766Z" fill="#C12F32"/>
<path fill-rule="evenodd" clip-rule="evenodd" d="M18.418 51.3775V55.1675L17 56.0862V57L19 55.7049V51L18.418 51.3775Z" fill="#C12F32"/>
<path fill-rule="evenodd" clip-rule="evenodd" d="M17.9878 62.8515C18.5465 62.5035 19 61.6595 19 60.9633V58L18.4109 58.3668V60.4412C18.4109 61.1374 17.9583 61.9823 17.3988 62.3294C17.2572 62.4174 17.1225 62.4642 17 62.4754C17.099 62.9797 17.503 63.1528 17.9878 62.8515Z" fill="#C12F32"/>
<path fill-rule="evenodd" clip-rule="evenodd" d="M18.394 45.0024C18.4094 45.0798 18.418 45.1638 18.418 45.2572V48.2048L17 49.1052V50L19 48.7315V45.7839C19 45.2601 18.7502 44.9703 18.394 45.0024Z" fill="#C12F32"/>
<path fill-rule="evenodd" clip-rule="evenodd" d="M21.9878 60.8509C22.5465 60.5037 23 59.6587 23 58.9635V56L22.4109 56.3659V58.4413C22.4109 59.1366 21.9583 59.9816 21.3997 60.3287C21.2572 60.4176 21.1225 60.4644 21 60.4756C21.099 60.98 21.503 61.1531 21.9878 60.8509Z" fill="#C12F32"/>
<path fill-rule="evenodd" clip-rule="evenodd" d="M30.9878 55.8511C31.5465 55.5039 32 54.6589 32 53.9636V51L31.4109 51.3659V53.4415C31.4109 54.1367 30.9583 54.9818 30.3997 55.3289C30.2572 55.4178 30.1225 55.4646 30 55.4749C30.099 55.9793 30.503 56.1534 30.9878 55.8511Z" fill="#C12F32"/>
<path fill-rule="evenodd" clip-rule="evenodd" d="M35.4186 45.4049L34 46.2045V47L36 45.8726V44L35.4186 44.3277V45.4049Z" fill="#C12F32"/>
<path fill-rule="evenodd" clip-rule="evenodd" d="M30.418 47.3278V48.4053L29 49.2043V50L31 48.8723V47L30.418 47.3278Z" fill="#C12F32"/>
<path fill-rule="evenodd" clip-rule="evenodd" d="M46.9878 45.8509C47.5465 45.5037 48 44.6587 48 43.9635V41L47.4109 41.3659V43.4413C47.4109 44.1366 46.9574 44.9816 46.3988 45.3287C46.2572 45.4176 46.1225 45.4644 46 45.4756C46.099 45.98 46.503 46.1531 46.9878 45.8509Z" fill="#C12F32"/>
<path fill-rule="evenodd" clip-rule="evenodd" d="M47.394 28.0023C47.4086 28.0797 47.418 28.1646 47.418 28.2571V31.2042L46 32.1044V33L48 31.7308L47.9991 28.7836C47.9991 28.2608 47.7502 27.9711 47.394 28.0023Z" fill="#C12F32"/>
<path fill-rule="evenodd" clip-rule="evenodd" d="M47.418 34.3766V38.1673L46 39.086V40L48 38.7056V34L47.418 34.3766Z" fill="#C12F32"/>
<path fill-rule="evenodd" clip-rule="evenodd" d="M43.418 37.3766V41.1673L42 42.086V43L44 41.7047L43.9991 37L43.418 37.3766Z" fill="#C12F32"/>
<path fill-rule="evenodd" clip-rule="evenodd" d="M43.3946 31.0023C43.4092 31.0806 43.4186 31.1646 43.4186 31.258V34.2051L42 35.1054V36L44 34.7317V31.7846C44 31.2608 43.751 30.9711 43.3946 31.0023Z" fill="#C12F32"/>
<path fill-rule="evenodd" clip-rule="evenodd" d="M34.9878 53.8515C35.5465 53.5044 36 52.6585 36 51.9643L35.9991 49L35.4109 49.3659V51.4412C35.4109 52.1374 34.9583 52.9813 34.3988 53.3294C34.2572 53.4174 34.1225 53.4642 34 53.4754C34.099 53.9797 34.503 54.1528 34.9878 53.8515Z" fill="#C12F32"/>
<path fill-rule="evenodd" clip-rule="evenodd" d="M42.9878 48.8515C43.5465 48.5035 44 47.6595 44 46.9643V44L43.4109 44.3668V46.4412C43.4109 47.1364 42.9583 47.9823 42.3997 48.3294C42.2572 48.4174 42.1225 48.4642 42 48.4754C42.099 48.9797 42.503 49.1528 42.9878 48.8515Z" fill="#C12F32"/>
<path fill-rule="evenodd" clip-rule="evenodd" d="M38.9883 50.8518C39.5472 50.5037 40 49.6587 40 48.9635V46L39.4116 46.3659V48.4413C39.4116 49.1366 38.9587 49.9815 38.399 50.3287C38.2573 50.4176 38.1226 50.4644 38 50.4747C38.0991 50.979 38.5033 51.1531 38.9883 50.8518Z" fill="#C12F32"/>
<path fill-rule="evenodd" clip-rule="evenodd" d="M39.4186 42.3278V43.4053L38 44.2043V45L40 43.8723V42L39.4186 42.3278Z" fill="#C12F32"/>
<path fill-rule="evenodd" clip-rule="evenodd" d="M74 30.7305L52 18V22.5297L70.0945 33L74 30.7407V30.7305Z" fill="#415358"/>
<path fill-rule="evenodd" clip-rule="evenodd" d="M33.0228 18.0985L33 34L34.978 32.699L35 17.5084L34.8735 17.427C33.8552 16.7673 33.0261 16.7856 33.0228 18.0985Z" fill="#334044"/>
<path fill-rule="evenodd" clip-rule="evenodd" d="M70.6722 57.6556C70.7535 57.5359 70.8546 57.4391 70.9657 57.3596C70.9503 56.148 70.9332 54.8797 70.9169 53.6261C70.8275 53.585 70.7399 53.5402 70.656 53.4826C69.8704 52.9408 69.6672 51.8562 70.2027 51.0613C70.3779 50.8008 70.6144 50.6108 70.8754 50.482C70.8609 49.4029 70.8483 48.3904 70.8357 47.5005L70.6469 47.4009C70.2126 47.1012 70.1007 46.5027 70.3968 46.0632C70.5034 45.9042 70.6506 45.79 70.8131 45.7205C70.7986 44.6524 70.7905 44 70.7905 44L56 49.6578C57.1079 52.6301 59.0944 55.3009 61.8864 57.2252C64.6775 59.1505 67.8604 60.0432 71 59.9984C70.9973 59.7672 70.9937 59.5297 70.991 59.2893L70.9765 59.282C70.4492 58.9175 70.3128 58.1901 70.6722 57.6556Z" fill="#FAD155"/>
<path fill-rule="evenodd" clip-rule="evenodd" d="M62.0265 52.8726C61.4347 52.4738 60.628 52.6258 60.2247 53.2108C59.8222 53.7959 59.975 54.5925 60.5667 54.9913C61.1585 55.39 61.9652 55.239 62.3686 54.654C62.771 54.0689 62.6183 53.2714 62.0265 52.8726ZM68.579 48.1651C68.139 47.8694 67.5399 47.9815 67.239 48.4165C66.9399 48.8505 67.0533 49.4437 67.4933 49.7403C67.9332 50.036 68.5332 49.9239 68.8323 49.4889C69.1323 49.054 69.0189 48.4617 68.579 48.1651ZM68.4427 54.8538C67.9003 54.4885 67.1604 54.6269 66.7918 55.1631C66.4213 55.6993 66.5622 56.4308 67.1046 56.7962C67.6469 57.1615 68.386 57.0222 68.7555 56.4869C69.1259 55.9498 68.9851 55.2191 68.4427 54.8538ZM65.0604 49.4546C64.8043 49.2827 64.4558 49.3479 64.282 49.6001C64.1073 49.8533 64.1732 50.1978 64.4293 50.3706C64.6844 50.5424 65.0329 50.4773 65.2076 50.2241C65.3814 49.9718 65.3155 49.6273 65.0604 49.4546ZM66.3125 53.6873C66.0134 54.1223 65.4134 54.2353 64.9735 53.9387C64.5335 53.6421 64.4201 53.0498 64.7201 52.6149C65.0192 52.18 65.6192 52.0678 66.0591 52.3644C66.4982 52.6601 66.6125 53.2533 66.3125 53.6873Z" fill="#F1AC2B"/>
<path fill-rule="evenodd" clip-rule="evenodd" d="M65.4368 53.8263C64.9804 53.515 64.8627 52.8934 65.174 52.4369C65.4843 51.9804 66.1068 51.8627 66.5632 52.174C67.0196 52.4843 67.1373 53.1069 66.826 53.5625C66.5157 54.019 65.8932 54.1376 65.4368 53.8263Z" fill="#F1AC2B"/>
<path fill-rule="evenodd" clip-rule="evenodd" d="M65.9133 49.7812C66.0685 49.5535 66.0097 49.2425 65.7819 49.0866C65.5532 48.9315 65.242 48.9903 65.0869 49.218C64.9317 49.4466 64.9897 49.7575 65.2184 49.9134C65.4462 50.0685 65.7574 50.0097 65.9133 49.7812Z" fill="#F1AC2B"/>
<path fill-rule="evenodd" clip-rule="evenodd" d="M68.8258 56.5634C69.1374 56.1063 69.0197 55.4845 68.5627 55.1737C68.1065 54.8628 67.484 54.9805 67.174 55.4368C66.8624 55.8931 66.9809 56.5157 67.4371 56.8265C67.8933 57.1374 68.515 57.0189 68.8258 56.5634Z" fill="#F1AC2B"/>
<path fill-rule="evenodd" clip-rule="evenodd" d="M68.8261 49.5628C69.1373 49.1063 69.0196 48.4846 68.5632 48.1733C68.1069 47.8629 67.4854 47.9806 67.1732 48.4372C66.863 48.8927 66.9806 49.5154 67.437 49.8267C67.8934 50.1371 68.5158 50.0194 68.8261 49.5628Z" fill="#F1AC2B"/>
<path fill-rule="evenodd" clip-rule="evenodd" d="M62.7397 55.3447C63.2062 54.6602 63.0285 53.7272 62.344 53.2606C61.6595 52.7941 60.7264 52.9707 60.2599 53.6563C59.7944 54.3408 59.971 55.2728 60.6555 55.7393C61.34 56.2059 62.2731 56.0292 62.7397 55.3447Z" fill="#F1AC2B"/>
<path fill-rule="evenodd" clip-rule="evenodd" d="M61.8536 53.3554C62.5287 53.8226 62.704 54.7572 62.2439 55.4427C62.0654 55.7086 61.8171 55.8951 61.5416 56C62.007 55.9926 62.4619 55.7658 62.7437 55.3463C63.2028 54.6607 63.0286 53.7262 62.3534 53.259C61.9402 52.9729 61.4351 52.9316 61 53.0969C61.2943 53.0926 61.5917 53.1753 61.8536 53.3554Z" fill="#EC982D"/>
<path fill-rule="evenodd" clip-rule="evenodd" d="M65.0219 49.0869L65.2319 49.1605C65.5109 49.3167 65.5829 49.6274 65.3929 49.8564L65.2309 49.9872C65.4689 50.0322 65.7259 49.957 65.8719 49.782C66.0619 49.5538 65.9899 49.2423 65.7109 49.0861C65.4969 48.9675 65.2239 48.9749 65.0219 49.0869Z" fill="#EC982D"/>
<path fill-rule="evenodd" clip-rule="evenodd" d="M68.3667 48.2585C68.691 48.5706 68.7746 49.1939 68.5535 49.6515C68.4766 49.8104 68.3721 49.9256 68.2562 49.9988C68.4948 50.015 68.7328 49.8637 68.8764 49.5649C69.0975 49.1073 69.0139 48.484 68.6897 48.1719C68.478 47.9693 68.2178 47.9512 68 48.0892C68.1267 48.0968 68.2542 48.1501 68.3667 48.2585Z" fill="#EC982D"/>
<path fill-rule="evenodd" clip-rule="evenodd" d="M66.3672 52.2584C66.6912 52.5703 66.7748 53.1943 66.5538 53.6508C66.477 53.8106 66.3726 53.9248 66.2567 53.999C66.4945 54.0142 66.7323 53.8629 66.8765 53.5643C67.0975 53.1077 67.0139 52.4838 66.6899 52.1728C66.4783 51.9692 66.2183 51.9511 66 52.0891C66.1273 52.0976 66.254 52.1499 66.3672 52.2584Z" fill="#EC982D"/>
<path fill-rule="evenodd" clip-rule="evenodd" d="M68.8214 55.243C69.4898 55.5547 69.662 56.1765 69.2063 56.6337C69.0352 56.8053 68.7989 56.9292 68.5345 57C69.0026 57 69.4628 56.8476 69.7452 56.5636C70.201 56.1065 70.0288 55.4847 69.3604 55.1737C68.9452 54.9798 68.4355 54.9529 68 55.0698C68.2836 55.0698 68.5694 55.126 68.8214 55.243Z" fill="#EC982D"/>
<path fill-rule="evenodd" clip-rule="evenodd" d="M57.2647 53L70 43L55 48.8163C55.5467 50.3023 56.3049 51.7131 57.2637 53H57.2647Z" fill="#F1AC2B"/>
<path fill-rule="evenodd" clip-rule="evenodd" d="M71 59.9983C70.9991 59.8803 70.9972 59.7575 70.9954 59.6376C67.8748 59.6366 64.722 58.6753 61.949 56.6564C60.5257 55.6185 59.3093 54.38 58.308 53L58 53.2526C59.0169 54.6749 60.2591 55.9517 61.7201 57.0152C64.5621 59.0861 67.8031 60.0464 71 59.9983Z" fill="#E36947"/>
<path fill-rule="evenodd" clip-rule="evenodd" d="M58 52.7757C56.8942 51.6143 56.0139 50.3412 55.3675 49L55 49.1134C55.0801 49.2871 55.1656 49.4607 55.2532 49.6326C55.3034 49.7295 55.3568 49.8255 55.4092 49.9206L55.5288 50.1414C55.6036 50.274 55.6827 50.4049 55.7618 50.5349L55.8248 50.6405C55.9177 50.7906 56.015 50.9398 56.1154 51.0873L56.1421 51.1291C56.2511 51.2888 56.3632 51.4476 56.4786 51.6047L56.4818 51.6091C56.8333 52.0846 57.2179 52.5471 57.6357 52.993L57.6421 53L58 52.7757Z" fill="#D4482B"/>
<path fill-rule="evenodd" clip-rule="evenodd" d="M62.815 57.7276C63.4669 57.7636 64.9015 57.9345 65.3876 57.99C66.0489 58.0667 66.1808 57.6851 65.7531 57.455C65.2953 57.2092 64.9496 56.8932 64.7753 56.7066C64.5229 56.4368 64.4258 56.2751 64.0735 55.936C63.4621 55.3927 61.7138 55 59.6536 55C57.0828 55 55 55.6107 55 56.3638C55 57.1168 57.0828 57.7276 59.6536 57.7276C60.718 57.7276 60.9121 57.6195 62.815 57.7276Z" fill="#B5DEE0"/>
<path fill-rule="evenodd" clip-rule="evenodd" d="M55.2799 56.843C55.2799 56.028 57.3636 55.367 59.9346 55.367C61.9966 55.367 63.7448 55.791 64.3574 56.38C64.7108 56.747 64.8069 56.922 65.0595 57.214C65.2291 57.411 65.5608 57.738 65.9991 58C66.0094 57.888 65.9331 57.759 65.7578 57.657C65.2998 57.391 64.9539 57.049 64.7796 56.847C64.527 56.555 64.4299 56.38 64.0775 56.013C63.4658 55.425 61.7167 55 59.6556 55C57.0837 55 55 55.661 55 56.476C55 56.66 55.1112 56.836 55.3063 56.998L55.2799 56.843Z" fill="#E1F2F4"/>
<path fill-rule="evenodd" clip-rule="evenodd" d="M59.5009 58C57.4757 58 56 57.4406 56 57.0006C56 56.5594 57.4757 56 59.5009 56C61.5252 56 63 56.5594 63 57.0006C63 57.4406 61.5252 58 59.5009 58Z" fill="#B5DEE0"/>
<path fill-rule="evenodd" clip-rule="evenodd" d="M62.1262 57.7154C60.2604 57.6083 60.0701 57.7154 59.0263 57.7154C57.2833 57.7154 55.7694 57.4251 55.0009 57H55C55 57 55.3833 63.0131 55.4646 63.6479C55.5598 64.3881 57.0589 65 59.0263 65C60.9928 65 62.4929 64.3881 62.5871 63.6479C62.6684 63.0131 63 57.7933 63 57.7933L62.9954 57.7906C62.661 57.7567 62.347 57.7274 62.1262 57.7154Z" fill="#42BAC6"/>
<path fill-rule="evenodd" clip-rule="evenodd" d="M59.0272 58.2633C60.4192 58.2665 61.5988 58.5159 62.94 59C62.9547 58.7367 63 57.9193 63 57.9193L62.9954 57.9161C62.661 57.8769 62.347 57.8429 62.1262 57.8291C60.2604 57.7049 60.0701 57.8291 59.0263 57.8291C57.2833 57.8291 55.7694 57.4926 55.0009 57H55C55 57 55.0009 57.0074 55.0185 57.3185C55.8461 57.7781 57.336 58.259 59.0272 58.2633Z" fill="#20A3B1"/>
<path fill-rule="evenodd" clip-rule="evenodd" d="M62.8118 63.648C62.8453 63.3696 62.9227 62.2127 63 61C62.7766 61.0998 62.6124 61.4928 62.3839 61.5734C62.1536 61.6531 61.8442 61.4323 61.6105 61.4928C61.375 61.5532 61.1937 61.9004 60.9557 61.9416C60.7168 61.9819 60.4444 61.7117 60.2038 61.7319C59.9632 61.752 59.7329 62.0653 59.4914 62.0653C59.2499 62.0653 59.0196 61.752 58.779 61.7319C58.5384 61.7117 58.266 61.9819 58.0271 61.9416C57.7891 61.9004 57.6069 61.5532 57.3723 61.4928C57.1386 61.4323 56.8292 61.6531 56.5989 61.5734C56.3704 61.4928 56.2243 61.12 56 61.0211C56.0799 62.2714 56.1555 63.3934 56.1856 63.648C56.2741 64.3881 57.6688 65 59.4991 65C61.3286 65 62.7242 64.3881 62.8118 63.648Z" fill="#358CC0"/>
<path fill-rule="evenodd" clip-rule="evenodd" d="M56.5955 61.9823C56.6855 62.0102 56.7865 62.0015 56.8905 61.9813C56.7815 60.6099 56.6595 58.9855 56.6025 58.1395C56.4235 58.0972 56.2585 58.051 56.1095 58C56.1435 58.511 56.2815 60.352 56.3995 61.8591L56.5955 61.9823Z" fill="#89CDD3"/>
<path fill-rule="evenodd" clip-rule="evenodd" d="M56.9175 65C56.8375 64.8897 56.7845 64.7741 56.7705 64.6543C56.7445 64.4389 56.6635 63.3818 56.5735 62.1335C56.4695 62.1555 56.3685 62.165 56.2785 62.1345L56.0825 62C56.1635 63.1317 56.2365 64.09 56.2595 64.2844C56.2915 64.5534 56.5325 64.8025 56.9175 65Z" fill="#85CDE7"/>
<path fill-rule="evenodd" clip-rule="evenodd" d="M60.9953 20.193C63.0792 20.8266 64.2961 22.8764 63.9378 24.2254C63.7489 24.9372 59.7111 35.9197 56.4821 34.938C53.5793 34.0545 55.7387 23.5045 56.2951 21.902C56.753 20.5824 58.9114 19.5584 60.9953 20.193Z" fill="#DE4D2B"/>
<path fill-rule="evenodd" clip-rule="evenodd" d="M63.0101 23.8484C63.3267 22.6083 64.2533 22.7786 63.934 24.0277C63.7662 24.6859 60.1716 34.8518 57.2967 33.9425C57.1895 33.9084 57.0926 33.8537 57 33.7901C59.7442 33.2592 62.8535 24.459 63.0101 23.8484Z" fill="#E36947"/>
<path fill-rule="evenodd" clip-rule="evenodd" d="M62.8305 24.5425L62.8335 24.5445L62.8775 24.7105L62.7125 24.7545L62.1645 24.4375L62.1225 24.2905L62.2715 24.2455L62.8305 24.5425Z" fill="#C6412B"/>
<path fill-rule="evenodd" clip-rule="evenodd" d="M63.278 23.232L63.837 23.528L63.842 23.531L63.891 23.719L63.704 23.768L63.157 23.45L63.109 23.284L63.278 23.232Z" fill="#C6412B"/>
<path fill-rule="evenodd" clip-rule="evenodd" d="M58.8345 25.46L58.9155 25.574L58.8005 25.658L58.1755 25.561L58.1725 25.56L58.0845 25.43L58.2135 25.342L58.8345 25.46Z" fill="#C6412B"/>
<path fill-rule="evenodd" clip-rule="evenodd" d="M57.221 22.3125L57.842 22.4345L57.945 22.5795L57.799 22.6875L57.173 22.5925L57.167 22.5915L57.055 22.4245L57.221 22.3125Z" fill="#C6412B"/>
<path fill-rule="evenodd" clip-rule="evenodd" d="M56.8425 26.435L56.9455 26.579L56.7995 26.687L56.1735 26.593L56.1675 26.592L56.0545 26.425L56.2215 26.313L56.8425 26.435Z" fill="#C6412B"/>
<path fill-rule="evenodd" clip-rule="evenodd" d="M55.6785 31.4235L55.7655 31.5465L55.6425 31.6365L55.3295 31.5885L55.3255 31.5875L55.2345 31.4545L55.3685 31.3635L55.6785 31.4235Z" fill="#C6412B"/>
<path fill-rule="evenodd" clip-rule="evenodd" d="M56.833 30.4665L56.908 30.5725L56.801 30.6505L56.176 30.5515L56.173 30.5505L56.092 30.4315L56.211 30.3495L56.833 30.4665Z" fill="#C6412B"/>
<path fill-rule="evenodd" clip-rule="evenodd" d="M57.829 33.511L57.886 33.618L57.779 33.676L57.173 33.493L57.114 33.382L57.225 33.324L57.829 33.511Z" fill="#C6412B"/>
<path fill-rule="evenodd" clip-rule="evenodd" d="M59.8275 28.5085V28.5095L59.8855 28.6185L59.7765 28.6755L59.1715 28.4905L59.1145 28.3815L59.2225 28.3245L59.8275 28.5085Z" fill="#C6412B"/>
<path fill-rule="evenodd" clip-rule="evenodd" d="M59.829 24.5115L59.886 24.6185L59.778 24.6765L59.173 24.4935H59.172L59.114 24.3825L59.225 24.3235L59.829 24.5115Z" fill="#C6412B"/>
<path fill-rule="evenodd" clip-rule="evenodd" d="M59.171 21.512L59.103 21.386L59.23 21.319L59.835 21.503L59.897 21.617L59.783 21.681L59.173 21.513L59.171 21.512Z" fill="#C6412B"/>
<path fill-rule="evenodd" clip-rule="evenodd" d="M62.8225 21.5595L62.8245 21.5605L62.8635 21.7025L62.7215 21.7405L62.1735 21.4255L62.1365 21.2985L62.2655 21.2595L62.8225 21.5595Z" fill="#C6412B"/>
<path fill-rule="evenodd" clip-rule="evenodd" d="M62.834 28.5345L62.838 28.5365L62.885 28.7145L62.707 28.7615L62.16 28.4435L62.115 28.2865L62.275 28.2385L62.834 28.5345Z" fill="#C6412B"/>
<path fill-rule="evenodd" clip-rule="evenodd" d="M59.21 32.3395L59.344 32.2995L59.749 32.5165L59.751 32.5175L59.79 32.6615L59.646 32.7005L59.249 32.4715L59.21 32.3395Z" fill="#C6412B"/>
<path fill-rule="evenodd" clip-rule="evenodd" d="M59.822 30.561L59.825 30.563L59.862 30.702L59.723 30.739L59.174 30.425L59.138 30.299L59.266 30.261L59.822 30.561Z" fill="#C6412B"/>
<path fill-rule="evenodd" clip-rule="evenodd" d="M62.858 16.1379C63.2427 16.2798 64.1061 16.8064 63.9892 17.2701L62.3927 20.981L62.3461 21C62.1454 20.8753 61.9322 20.7686 61.707 20.6858C61.4756 20.601 61.2433 20.5458 61.0134 20.5153L61 20.4687L61.395 16.316C61.5127 15.8522 62.4733 15.997 62.858 16.1379Z" fill="#75AA42"/>
<path fill-rule="evenodd" clip-rule="evenodd" d="M62.7278 16.7721C62.8161 16.5007 62.4351 16.2087 62.0341 16C62.4818 16.1831 63.0915 16.542 62.9885 16.8645L61.2823 20C61.2823 20 61.0779 19.9472 61 19.9142L62.7278 16.7721Z" fill="#94C564"/>
<path fill-rule="evenodd" clip-rule="evenodd" d="M60.5985 19.964L60.6829 19.9734C60.1504 19.9202 59.6266 19.9331 59.131 20L59.1277 19.9983L59 17.3936C59.2792 17.1672 60.2565 16.9545 60.987 17.0085L61 17.0162L60.5801 19.922L60.5985 19.964Z" fill="#629741"/>
<path fill-rule="evenodd" clip-rule="evenodd" d="M60.8025 17.0074L60.8145 17.0152L60.4265 19.9481L60.4435 19.9905L60.5215 20C60.4085 19.9879 60.2965 19.9801 60.1855 19.9749L60.3615 17.0083C60.5135 16.9988 60.6635 16.9962 60.8025 17.0074Z" fill="#52843E"/>
<path fill-rule="evenodd" clip-rule="evenodd" d="M62.2053 21.1452L63.7386 18.0052L63.7552 18C64.337 18.3365 64.9345 19.075 65 19.4511L63.2467 22L63.2419 21.999C62.8898 21.6427 62.4723 21.3321 62 21.0943L62.1477 21.1659L62.2053 21.1452Z" fill="#94C564"/>
<path fill-rule="evenodd" clip-rule="evenodd" d="M64.8507 18.1141L64.8159 18C64.9114 18.1543 64.9801 18.2969 65 18.4079L63.2149 21H63.2109L63 20.8024L64.8507 18.1141Z" fill="#A7CE7A"/>
<path fill-rule="evenodd" clip-rule="evenodd" d="M44.928 58.7394C39.1725 69.0949 37.7131 73.2964 40.0936 74.6339C42.4751 75.9715 47.7947 73.9389 53.5502 63.5834L72.0718 30.2615C77.8282 19.9061 79.2868 15.7046 76.9062 14.3661C74.5247 13.0285 69.206 15.0611 63.4496 25.4166L44.928 58.7394Z" fill="#F3B052"/>
<path fill-rule="evenodd" clip-rule="evenodd" d="M40.821 74.8313C38.4148 73.4937 39.8895 69.292 45.7056 58.9361L64.4186 25.613C68.9433 17.5559 73.1997 14.5381 76 14.2242C73.468 13.2014 68.2902 15.467 62.7035 25.4151L43.9895 58.7391C38.1743 69.095 36.6997 73.2967 39.105 74.6343C39.6397 74.9326 40.3206 75.0615 41.1208 74.9722C41.0162 74.9307 40.9154 74.8847 40.821 74.8313Z" fill="#EE9F38"/>
<path fill-rule="evenodd" clip-rule="evenodd" d="M39.7708 74.632C42.1727 75.9767 47.5379 73.9333 53.3426 63.5227L72.0229 30.0236C76.1581 22.6088 78.0918 18.3331 77.9967 16C77.2099 18.5274 75.3907 22.1932 72.4726 27.4277L53.7914 60.9268C47.9867 71.3373 42.6224 73.3817 40.2206 72.0361C39.7755 71.7871 39.4643 71.4382 39.2888 70.9699C38.8493 72.6154 38.9148 73.7176 39.4624 74.4228C39.5585 74.4978 39.6591 74.5691 39.7708 74.632Z" fill="#EE9F38"/>
<path fill-rule="evenodd" clip-rule="evenodd" d="M43.176 67.6756C44.0526 66.0904 45.7091 65.6642 47.6451 65.1677C49.4318 64.7068 51.4619 64.1857 52.9582 62.5503C53.1934 62.2948 53.1771 61.8933 52.922 61.656C52.6687 61.4205 52.2716 61.436 52.0355 61.6934C50.7924 63.0532 49.0337 63.5022 47.3348 63.9412C45.3128 64.4604 43.2203 64.9989 42.0804 67.0586C41.9104 67.3635 42.0189 67.7486 42.322 67.9192C42.4731 68.0041 42.644 68.0205 42.7987 67.9758C42.9534 67.932 43.091 67.8289 43.176 67.6756ZM45.4567 63.557C46.3342 61.9727 47.9916 61.5465 49.9267 61.0491C51.7116 60.5901 53.7435 60.068 55.2398 58.4317C55.475 58.1762 55.4578 57.7746 55.2027 57.5383C54.9503 57.3019 54.5532 57.3174 54.317 57.5757C53.0758 58.9328 51.3208 59.3863 49.6164 59.8225C47.5935 60.3427 45.5028 60.8812 44.362 62.94C44.1928 63.2458 44.3014 63.6309 44.6036 63.8006C44.7546 63.8864 44.9256 63.9019 45.0803 63.8581C45.2341 63.8134 45.3725 63.7094 45.4567 63.557ZM49.7059 55.8874C50.5853 54.3003 52.2553 53.8732 54.1777 53.3777C55.9626 52.9177 57.9945 52.3957 59.489 50.7603C59.7243 50.5039 59.7071 50.1032 59.452 49.866C59.1996 49.6287 58.8015 49.6451 58.5663 49.9034C57.3251 51.2613 55.5664 51.714 53.8674 52.1502C51.85 52.6704 49.753 53.207 48.6113 55.2695C48.4421 55.5743 48.5507 55.9604 48.8528 56.131C49.0039 56.2159 49.1749 56.2314 49.3296 56.1867C49.4843 56.1429 49.6218 56.0398 49.7059 55.8874ZM51.9884 51.7669C52.8659 50.1826 54.5233 49.7564 56.4593 49.2591C58.2451 48.7964 60.2743 48.278 61.7715 46.6417C62.0068 46.3853 61.9896 45.9846 61.7354 45.7473C61.4811 45.5101 61.0831 45.5265 60.8488 45.7848C59.6067 47.1427 57.8462 47.5954 56.1481 48.0325C54.1262 48.5518 52.0336 49.0902 50.8938 51.15C50.7246 51.4548 50.8322 51.8408 51.1353 52.0106C51.2864 52.0964 51.4574 52.111 51.6121 52.0672C51.7668 52.0234 51.9043 51.9193 51.9884 51.7669ZM56.2386 44.0964C57.117 42.5094 58.7807 42.085 60.7085 41.5867C62.4962 41.1268 64.5263 40.6048 66.0208 38.9703C66.256 38.7138 66.2388 38.3123 65.9837 38.0759C65.7304 37.8386 65.3341 37.856 65.098 38.1133C63.855 39.4713 62.0963 39.9221 60.3982 40.3602C58.3754 40.8813 56.2847 41.4179 55.143 43.4786C54.9738 43.7843 55.0815 44.1694 55.3846 44.3401C55.5356 44.4259 55.7066 44.4414 55.8613 44.3967C56.016 44.3529 56.1535 44.2488 56.2386 44.0964ZM58.5192 39.9778C59.3986 38.3917 61.0605 37.9628 62.9901 37.4681C64.7778 37.0091 66.8079 36.4871 68.3024 34.8517C68.5376 34.5952 68.5204 34.1946 68.2653 33.9573C68.012 33.7219 67.6157 33.7374 67.3796 33.9947C66.1357 35.3527 64.3797 35.8044 62.6798 36.2425C60.6597 36.7636 58.5663 37.2993 57.4246 39.3609C57.2554 39.6657 57.364 40.0517 57.6661 40.2224C57.8172 40.3073 57.9891 40.3228 58.1429 40.2781C58.2976 40.2342 58.4351 40.1302 58.5192 39.9778ZM62.7703 32.3064C63.6487 30.7194 65.3124 30.2932 67.2412 29.7967C69.0297 29.3386 71.058 28.8138 72.5525 27.1793C72.7877 26.9229 72.7705 26.5223 72.5154 26.2859C72.2621 26.0486 71.8668 26.0632 71.6298 26.3224C70.3876 27.6804 68.6299 28.133 66.93 28.5702C64.9071 29.0894 62.8164 29.6279 61.6747 31.6886C61.5056 31.9934 61.6141 32.3794 61.9163 32.5501C62.0674 32.6358 62.2384 32.6504 62.393 32.6066C62.5477 32.5628 62.6853 32.4588 62.7703 32.3064ZM64.6746 28.488C64.5199 28.5318 64.349 28.5163 64.1979 28.4314C63.8957 28.2608 63.7871 27.8757 63.9563 27.5708C65.098 25.5093 67.1887 24.9726 69.2116 24.4515C70.9105 24.0126 72.6692 23.5627 73.9113 22.2047C74.1466 21.9455 74.5437 21.9318 74.797 22.1673C75.0521 22.4036 75.0693 22.8052 74.8341 23.0607C73.3396 24.6961 71.3113 25.219 69.5228 25.6781C67.5931 26.1727 65.9303 26.6007 65.051 28.1878C64.9668 28.3411 64.8293 28.4442 64.6746 28.488Z" fill="#E9842C"/>
<path fill-rule="evenodd" clip-rule="evenodd" d="M43.176 67.6756C44.0526 66.0904 45.7091 65.6642 47.6451 65.1677C49.4318 64.7068 51.4619 64.1857 52.9582 62.5503C53.1934 62.2948 53.1771 61.8933 52.922 61.656C52.6687 61.4205 52.2716 61.436 52.0355 61.6934C50.7924 63.0532 49.0337 63.5022 47.3348 63.9412C45.3128 64.4604 43.2203 64.9989 42.0804 67.0586C41.9104 67.3635 42.0189 67.7486 42.322 67.9192C42.4731 68.0041 42.644 68.0205 42.7987 67.9758C42.9534 67.932 43.091 67.8289 43.176 67.6756ZM45.4567 63.557C46.3342 61.9727 47.9916 61.5465 49.9267 61.0491C51.7116 60.5901 53.7435 60.068 55.2398 58.4317C55.475 58.1762 55.4578 57.7746 55.2027 57.5383C54.9503 57.3019 54.5532 57.3174 54.317 57.5757C53.0758 58.9328 51.3208 59.3863 49.6164 59.8225C47.5935 60.3427 45.5028 60.8812 44.362 62.94C44.1928 63.2458 44.3014 63.6309 44.6036 63.8006C44.7546 63.8864 44.9256 63.9019 45.0803 63.8581C45.2341 63.8134 45.3725 63.7094 45.4567 63.557ZM49.7059 55.8874C50.5853 54.3003 52.2553 53.8732 54.1777 53.3777C55.9626 52.9177 57.9945 52.3957 59.489 50.7603C59.7243 50.5039 59.7071 50.1032 59.452 49.866C59.1996 49.6287 58.8015 49.6451 58.5663 49.9034C57.3251 51.2613 55.5664 51.714 53.8674 52.1502C51.85 52.6704 49.753 53.207 48.6113 55.2695C48.4421 55.5743 48.5507 55.9604 48.8528 56.131C49.0039 56.2159 49.1749 56.2314 49.3296 56.1867C49.4843 56.1429 49.6218 56.0398 49.7059 55.8874ZM51.9884 51.7669C52.8659 50.1826 54.5233 49.7564 56.4593 49.2591C58.2451 48.7964 60.2743 48.278 61.7715 46.6417C62.0068 46.3853 61.9896 45.9846 61.7354 45.7473C61.4811 45.5101 61.0831 45.5265 60.8488 45.7848C59.6067 47.1427 57.8462 47.5954 56.1481 48.0325C54.1262 48.5518 52.0336 49.0902 50.8938 51.15C50.7246 51.4548 50.8322 51.8408 51.1353 52.0106C51.2864 52.0964 51.4574 52.111 51.6121 52.0672C51.7668 52.0234 51.9043 51.9193 51.9884 51.7669ZM56.2386 44.0964C57.117 42.5094 58.7807 42.085 60.7085 41.5867C62.4962 41.1268 64.5263 40.6048 66.0208 38.9703C66.256 38.7138 66.2388 38.3123 65.9837 38.0759C65.7304 37.8386 65.3341 37.856 65.098 38.1133C63.855 39.4713 62.0963 39.9221 60.3982 40.3602C58.3754 40.8813 56.2847 41.4179 55.143 43.4786C54.9738 43.7843 55.0815 44.1694 55.3846 44.3401C55.5356 44.4259 55.7066 44.4414 55.8613 44.3967C56.016 44.3529 56.1535 44.2488 56.2386 44.0964ZM58.5192 39.9778C59.3986 38.3917 61.0605 37.9628 62.9901 37.4681C64.7778 37.0091 66.8079 36.4871 68.3024 34.8517C68.5376 34.5952 68.5204 34.1946 68.2653 33.9573C68.012 33.7219 67.6157 33.7374 67.3796 33.9947C66.1357 35.3527 64.3797 35.8044 62.6798 36.2425C60.6597 36.7636 58.5663 37.2993 57.4246 39.3609C57.2554 39.6657 57.364 40.0517 57.6661 40.2224C57.8172 40.3073 57.9891 40.3228 58.1429 40.2781C58.2976 40.2342 58.4351 40.1302 58.5192 39.9778ZM62.7703 32.3064C63.6487 30.7194 65.3124 30.2932 67.2412 29.7967C69.0297 29.3386 71.058 28.8138 72.5525 27.1793C72.7877 26.9229 72.7705 26.5223 72.5154 26.2859C72.2621 26.0486 71.8668 26.0632 71.6298 26.3224C70.3876 27.6804 68.6299 28.133 66.93 28.5702C64.9071 29.0894 62.8164 29.6279 61.6747 31.6886C61.5056 31.9934 61.6141 32.3794 61.9163 32.5501C62.0674 32.6358 62.2384 32.6504 62.393 32.6066C62.5477 32.5628 62.6853 32.4588 62.7703 32.3064ZM64.6746 28.488C64.5199 28.5318 64.349 28.5163 64.1979 28.4314C63.8957 28.2608 63.7871 27.8757 63.9563 27.5708C65.098 25.5093 67.1887 24.9726 69.2116 24.4515C70.9105 24.0126 72.6692 23.5627 73.9113 22.2047C74.1466 21.9455 74.5437 21.9318 74.797 22.1673C75.0521 22.4036 75.0693 22.8052 74.8341 23.0607C73.3396 24.6961 71.3113 25.219 69.5228 25.6781C67.5931 26.1727 65.9303 26.6007 65.051 28.1878C64.9668 28.3411 64.8293 28.4442 64.6746 28.488Z" fill="#E9842C"/>
<path fill-rule="evenodd" clip-rule="evenodd" d="M57.5725 40C57.4285 39.7909 57.4014 39.5033 57.5263 39.2618C58.6681 37.0441 60.7634 36.4679 62.7853 35.9073C64.4876 35.4361 66.2452 34.9512 67.4902 33.4895C67.6251 33.3304 67.8144 33.2676 68 33.2823L67.9303 33.1792C67.6767 32.926 67.2801 32.9427 67.0438 33.2195C65.7988 34.6802 64.0412 35.1662 62.3398 35.6374C60.3179 36.1979 58.2226 36.7742 57.0799 38.9918C56.9106 39.3197 57.0192 39.7349 57.3217 39.9185C57.4014 39.9666 57.4865 39.9912 57.5725 40Z" fill="#E5742B"/>
<path fill-rule="evenodd" clip-rule="evenodd" d="M55.5727 44C55.4296 43.7919 55.4016 43.5042 55.5256 43.2627C56.6693 41.045 58.7611 40.4678 60.7859 39.9072C62.4856 39.436 64.2469 38.951 65.4911 37.4902C65.626 37.3302 65.8153 37.2674 66 37.2831L65.9312 37.18C65.6776 36.9248 65.281 36.9434 65.0447 37.2203C63.8004 38.6811 62.0401 39.166 60.3404 39.6373C58.3156 40.1978 56.2229 40.7751 55.0801 42.9918C54.9108 43.3207 55.0185 43.7349 55.3219 43.9185C55.4016 43.9676 55.4867 43.9912 55.5727 44Z" fill="#E5742B"/>
<path fill-rule="evenodd" clip-rule="evenodd" d="M64.5725 28C64.4286 27.7919 64.4014 27.5042 64.5255 27.2627C65.6692 25.045 67.7619 24.4677 69.7858 23.9072C71.4864 23.435 73.2468 22.951 74.4902 21.4902C74.626 21.3292 74.8153 21.2673 75 21.282L74.9312 21.1799C74.6776 20.9267 74.2801 20.9414 74.0446 21.2202C72.8013 22.681 71.0409 23.165 69.3403 23.6372C67.3155 24.1978 65.2227 24.775 64.0799 26.9927C63.9106 27.3206 64.0192 27.7349 64.3217 27.9185C64.4014 27.9666 64.4865 27.9921 64.5725 28Z" fill="#E5742B"/>
<path fill-rule="evenodd" clip-rule="evenodd" d="M61.5725 33C61.4286 32.7909 61.4014 32.5033 61.5255 32.2619C62.6692 30.0455 64.761 29.4674 66.7858 28.9079C68.4874 28.4387 70.2468 27.9509 71.4902 26.4903C71.6269 26.3303 71.8153 26.2675 72 26.2822L71.9312 26.1811C71.6776 25.9259 71.2819 25.9416 71.0446 26.2204C69.8013 27.681 68.0418 28.1678 66.3403 28.638C64.3155 29.1965 62.2227 29.7756 61.0799 31.9919C60.9106 32.3198 61.0192 32.735 61.3217 32.9185C61.4014 32.9666 61.4865 32.9912 61.5725 33Z" fill="#E5742B"/>
<path fill-rule="evenodd" clip-rule="evenodd" d="M48.5726 56C48.4295 55.7919 48.4005 55.5043 48.5255 55.2628C49.6684 53.0442 51.7676 52.467 53.7881 51.9084C55.488 51.4392 57.2485 50.9513 58.491 49.4906C58.6269 49.3306 58.8153 49.2677 59 49.2825L58.9321 49.1804C58.6794 48.9251 58.2809 48.9428 58.0455 49.2206C56.8029 50.6813 55.0424 51.1682 53.3416 51.6375C51.3221 52.197 49.2228 52.7742 48.0799 54.9928C47.9106 55.3207 48.0193 55.7359 48.3217 55.9195C48.4014 55.9676 48.4866 55.9921 48.5726 56Z" fill="#E5742B"/>
<path fill-rule="evenodd" clip-rule="evenodd" d="M50.5727 52C50.4296 51.7919 50.4016 51.5042 50.5256 51.2627C51.6666 49.0467 53.762 48.4675 55.785 47.9088C57.4847 47.4385 59.2469 46.9516 60.4902 45.4906C60.626 45.3306 60.8153 45.2678 61 45.2835L60.9321 45.1804C60.6776 44.9251 60.2792 44.9428 60.0447 45.2206C58.8014 46.6816 57.0392 47.1685 55.3395 47.6388C53.3156 48.1975 51.2211 48.7767 50.0801 50.9927C49.9108 51.3206 50.0185 51.7359 50.3219 51.9185C50.4016 51.9666 50.4867 51.9921 50.5727 52Z" fill="#E5742B"/>
<path fill-rule="evenodd" clip-rule="evenodd" d="M41.526 67.2625C42.6668 65.0463 44.762 64.4669 46.7847 63.9082C48.4851 63.4358 50.2453 62.9527 51.4902 61.4896C51.6261 61.3295 51.8153 61.2677 52 61.2824L51.9312 61.1793C51.6777 60.9259 51.2802 60.9426 51.0439 61.2196C49.7998 62.6827 48.0396 63.1658 46.3392 63.6381C44.3156 64.1969 42.2213 64.7762 41.0805 66.9925C40.9103 67.3205 41.0189 67.7349 41.3223 67.9185C41.4019 67.9666 41.487 67.9921 41.5722 68C41.4291 67.7918 41.401 67.5041 41.526 67.2625Z" fill="#E5742B"/>
<path fill-rule="evenodd" clip-rule="evenodd" d="M44.5725 64C44.4285 63.7918 44.4014 63.5041 44.5254 63.2625C45.6681 61.0471 47.7598 60.4678 49.7844 59.909C51.4913 59.4386 53.247 58.9506 54.4893 57.4903C54.626 57.3303 54.8144 57.2674 55 57.2831L54.9303 57.18C54.6776 56.9257 54.2801 56.9424 54.0438 57.2203C52.8015 58.6805 51.0449 59.1686 49.3389 59.638C47.3143 60.1977 45.2217 60.7771 44.0799 62.9925C43.9106 63.3214 44.0192 63.7358 44.3217 63.9185C44.4014 63.9676 44.4865 63.9921 44.5725 64Z" fill="#E5742B"/>
<path fill-rule="evenodd" clip-rule="evenodd" d="M24.8713 27.531C25.2593 29.3332 31.524 58.4153 31.912 60.2175C32.4494 62.7125 30.4704 65.2385 27.4927 65.8609C24.5158 66.4823 21.6661 64.9634 21.1287 62.4685C20.7407 60.6663 14.4761 31.5841 14.0881 29.7828C13.5506 27.2879 15.5287 24.7609 18.5064 24.1395C21.4842 23.5171 24.333 25.036 24.8713 27.531Z" fill="#E88364"/>
<path fill-rule="evenodd" clip-rule="evenodd" d="M17.0932 29.1538C17.4824 30.9562 23.7669 60.0407 24.1561 61.843C24.6003 63.9022 26.6265 65.2924 29 65.3673C28.5465 65.5821 28.0577 65.7521 27.5353 65.8609C24.549 66.4824 21.6904 64.9633 21.1512 62.4682C20.762 60.6658 14.4776 31.5813 14.0883 29.7799C13.5492 27.2847 15.5335 24.7576 18.5207 24.1361C19.0431 24.0273 19.5599 23.9871 20.0618 24.0035C17.9247 25.0171 16.6481 27.0946 17.0932 29.1538Z" fill="#E36947"/>
<path fill-rule="evenodd" clip-rule="evenodd" d="M24.1538 28.2986C24.5043 29.9785 30.5633 59.0049 30.9138 60.6857C31.2452 62.2739 30.5997 63.8742 29.3487 65C29.8267 64.0676 30.0215 63.0315 29.8349 62.0075C29.4999 60.1621 23.0703 29.3597 22.6397 27.5346C22.4012 26.5217 21.8094 25.6549 21 25C22.5924 25.5134 23.8224 26.7104 24.1538 28.2986Z" fill="#EFA48B"/>
<path fill-rule="evenodd" clip-rule="evenodd" d="M18.0491 45.6939C17.8141 44.5681 18.4382 43.3881 19.599 42.4653L26.396 41C27.825 41.3637 28.8659 42.1858 29.1009 43.3117C29.4025 44.7557 29.7098 46.2259 30 47.6177C29.7422 46.3845 28.5177 45.516 26.8765 45.2152L20.8434 46.5161C19.4629 47.4678 18.6903 48.7678 18.9472 50C18.657 48.6091 18.3507 47.139 18.0491 45.6939Z" fill="#F7C87E"/>
<path fill-rule="evenodd" clip-rule="evenodd" d="M22.7889 41.1149C26.0046 40.4754 28.3934 42.6471 27.946 44.1459C27.5317 45.6772 25.7422 46.4451 24.0546 46.8386C22.3453 47.1353 20.3849 47.129 19.3581 45.8916C18.3151 44.6949 19.578 41.7824 22.7889 41.1149Z" fill="#FDF59E"/>
<path fill-rule="evenodd" clip-rule="evenodd" d="M18.5402 24.4973C18.0604 24.6089 17.6112 24.7827 17.1915 25L17.1135 24.92L17.0283 24.4765C16.8588 23.5985 17.4731 23.2815 18.2702 23.0958C19.0674 22.9091 19.7453 22.924 19.9148 23.802L20 24.2464L19.974 24.3531C19.5059 24.3412 19.0253 24.3837 18.5402 24.4973Z" fill="#AAB7B9"/>
<path fill-rule="evenodd" clip-rule="evenodd" d="M17 23.7545L17.0518 23.5643C17.2835 23.316 17.7022 23.1775 18.1931 23.0834C19.0356 22.9209 19.752 22.9338 19.9299 23.6981L20 23.9972L19.9004 24L19.872 23.88C19.6931 23.1157 18.9776 23.1028 18.1362 23.2652C17.6413 23.3594 17.2307 23.5043 17 23.7545Z" fill="#CCD4D3"/>
<path fill-rule="evenodd" clip-rule="evenodd" d="M27.4591 66.5088C26.9802 66.62 26.5049 66.6623 26.0413 66.6515L26 66.7587L26.0852 67.2006C26.2547 68.0754 26.9327 68.0902 27.7299 67.9052C28.5263 67.7192 29.1406 67.4043 28.972 66.5285L28.8868 66.0866L28.8231 66C28.3998 66.2195 27.9451 66.3956 27.4591 66.5088Z" fill="#738990"/>
<path fill-rule="evenodd" clip-rule="evenodd" d="M27 67.6817L27.0974 67.8756C27.3338 68.0554 27.6587 68.0192 28.0186 67.9001C28.6342 67.6946 29.1085 67.3465 28.9784 66.3784L28.9271 66L28.8594 66.0432L28.8802 66.195C29.0103 67.162 28.536 67.5112 27.9204 67.7168C27.5583 67.837 27.2364 67.8616 27 67.6817Z" fill="#CCD4D3"/>
<path fill-rule="evenodd" clip-rule="evenodd" d="M37.092 29.8743C36.331 36.7185 40.3731 42.9941 46.122 43.8923C51.87 44.7905 57.1469 39.97 57.908 33.1266C58.669 26.2824 54.6269 20.0059 48.878 19.1077C43.13 18.2095 37.8531 23.03 37.092 29.8743Z" fill="#EA862D"/>
<path fill-rule="evenodd" clip-rule="evenodd" d="M51.7356 21C54.0484 23.9805 55.2716 28.359 54.7526 32.9983C54.2822 37.1967 52.4798 40.7518 50 43C53.6209 41.4991 56.3908 37.8075 56.9127 33.1375C57.4709 28.1455 55.306 23.4496 51.7356 21Z" fill="#EE9F38"/>
<path fill-rule="evenodd" clip-rule="evenodd" d="M50.3698 43.4878C45.1181 42.6508 41.4505 36.5587 42.1795 29.8797C42.7923 24.2541 46.3282 20.0086 50.5665 19.3076C50.2656 19.2263 49.9601 19.157 49.6482 19.1077C44.0115 18.2095 38.8366 23.03 38.0903 29.8742C37.3439 36.7185 41.3079 42.994 46.9455 43.8922C48.3458 44.1158 49.7168 43.9853 51 43.5581C50.7906 43.5426 50.5802 43.5216 50.3698 43.4878Z" fill="#E5742B"/>
<path fill-rule="evenodd" clip-rule="evenodd" d="M40.3563 30.9807C41.0555 31.2044 41.7622 31.3918 42.482 31.5032C44.1259 31.7567 45.8092 31.7078 47.4644 31.3683C48.9884 32.1977 50.6023 32.7555 52.2472 33.0091C52.966 33.1195 53.6905 33.153 54.415 33.1494C51.9679 34.8834 49.4064 35.827 46.9227 36.1819C44.602 35.0863 42.3367 33.3984 40.3563 30.9807ZM46.8702 36.6419C48.4925 37.3944 50.1365 37.8716 51.7261 38.117C52.5096 38.2374 53.2753 38.2927 54.0223 38.3081C53.6109 38.548 53.19 38.7726 52.7589 38.979C50.7157 39.9588 48.5628 40.4949 46.424 40.5972C44.3799 39.8501 42.421 38.6793 40.6646 37.1137C40.2944 36.7841 39.9373 36.4391 39.5924 36.0823C40.3179 36.2951 41.0714 36.4735 41.8549 36.5948C43.4445 36.8393 45.1372 36.8774 46.8702 36.6419ZM47.5169 30.9056C46.5271 30.3541 45.5768 29.6877 44.6892 28.8972C43.9141 28.2063 43.2027 27.4375 42.5635 26.608C42.6525 26.6234 42.7397 26.6506 42.8288 26.6642C44.5561 26.9304 46.3369 26.7756 48.0464 26.2042C49.5713 27.2745 51.2574 27.9636 52.9848 28.2307C53.0738 28.2443 53.1629 28.2443 53.2528 28.257C52.4515 28.8637 51.5939 29.3907 50.6913 29.8235C49.6604 30.317 48.5947 30.6738 47.5169 30.9056ZM48.1017 25.7134C47.7643 25.4689 47.4306 25.2163 47.112 24.932C46.096 24.0274 45.2403 22.9408 44.5392 21.7509C45.8917 21.8695 47.2544 21.75 48.5881 21.4032C49.7981 22.1421 51.0887 22.6709 52.4206 22.9661C51.4805 23.9024 50.412 24.692 49.2302 25.2588C48.8599 25.4363 48.4813 25.5803 48.1017 25.7134ZM39.6299 30.7408C41.571 33.2698 43.8129 35.0655 46.1288 36.2707C43.5767 36.5115 41.1389 36.1611 39.0245 35.4467C38.2765 34.6009 37.5998 33.6918 37 32.7247C37.0309 33.0416 37.0675 33.355 37.1181 33.6655C37.4667 34.1781 37.8295 34.6797 38.2194 35.1578C37.9176 35.0383 37.6308 34.907 37.3449 34.7748C37.3899 34.9577 37.4433 35.137 37.4967 35.3172C37.9194 35.501 38.3553 35.6749 38.8089 35.8306C39.3169 36.4002 39.8455 36.9498 40.4163 37.4578C41.9224 38.8007 43.5785 39.8519 45.3068 40.6108C43.2618 40.5619 41.2514 40.0991 39.3759 39.2398C39.5521 39.4888 39.7349 39.7315 39.928 39.9642C41.0133 40.3971 42.1389 40.704 43.2852 40.8806C44.303 41.0372 45.3378 41.0816 46.3753 41.0372C47.3669 41.3949 48.3763 41.6657 49.3932 41.8223C50.5404 41.9989 51.6951 42.0451 52.8395 41.9554C53.0776 41.7888 53.3072 41.6104 53.5331 41.4239C51.532 41.6847 49.487 41.5217 47.5 40.9485C49.3379 40.7402 51.1693 40.2268 52.9229 39.3865C53.5856 39.0687 54.2182 38.6983 54.8358 38.3026C55.3082 38.289 55.7675 38.2537 56.2174 38.2048C56.3073 38.0473 56.3992 37.8897 56.4835 37.7267C56.1789 37.7675 55.8715 37.8073 55.5538 37.8318C56.0365 37.4877 56.4985 37.1128 56.9484 36.7225C57.0665 36.4391 57.1715 36.1466 57.2708 35.8505C56.4779 36.6021 55.6231 37.2767 54.7131 37.8662C52.5124 37.9151 50.0793 37.5139 47.6696 36.5079C50.173 36.0461 52.7355 34.9912 55.1704 33.1376C56.1049 33.0806 57.0346 32.9248 57.9485 32.6713C57.9634 32.5128 57.9709 32.3562 57.9813 32.1986C57.2586 32.4078 56.5266 32.5608 55.79 32.6423C56.5435 32.0202 57.2802 31.3049 58 30.5189C57.9897 30.3288 57.9691 30.1431 57.9522 29.9557C57.0037 31.0251 56.0177 31.9297 55.0102 32.7039C52.6642 32.8243 50.2977 32.3127 48.1092 31.2189C49.0408 30.9825 49.9603 30.6593 50.8563 30.2301C51.9285 29.7157 52.9332 29.0683 53.8639 28.3167C55.1255 28.4064 56.3936 28.2796 57.6242 27.9147C57.5895 27.7707 57.5445 27.6322 57.5061 27.49C56.4807 27.7915 55.4282 27.9138 54.3757 27.8875C55.2379 27.1278 56.0196 26.2676 56.7103 25.3259C56.6419 25.1819 56.5773 25.0361 56.5051 24.8957C55.7075 26.0104 54.7768 27.0092 53.7383 27.8649C51.9369 27.71 50.1637 27.0825 48.5582 26.0258C48.8393 25.9171 49.1186 25.7985 49.3942 25.6663C50.7148 25.0334 51.9041 24.1396 52.9276 23.0648C53.0157 23.0802 53.1019 23.1019 53.1891 23.1146C53.9436 23.2314 54.7084 23.264 55.4751 23.2314C55.3682 23.0838 55.2651 22.9335 55.1517 22.7923C54.5275 22.8013 53.9052 22.7741 53.2903 22.6818C53.5752 22.3558 53.847 22.0162 54.1001 21.6613C53.9989 21.5644 53.8995 21.4639 53.7936 21.3715C53.49 21.7998 53.16 22.2046 52.8086 22.5858C51.5508 22.3431 50.3267 21.8922 49.1721 21.2429C49.7428 21.0636 50.3061 20.8436 50.8591 20.5792C51.204 20.4126 51.5405 20.2206 51.8723 20.0241C51.7129 19.939 51.547 19.8693 51.3849 19.7932C51.1553 19.9218 50.9294 20.0594 50.6941 20.1717C50.0249 20.4932 49.337 20.7395 48.6406 20.9305C48.0108 20.5348 47.4016 20.0884 46.8252 19.575C46.6227 19.3948 46.4362 19.1938 46.2422 19C46.0688 19.0244 45.8926 19.0407 45.7211 19.0752C45.9967 19.3658 46.2797 19.6538 46.5768 19.9182C47.0511 20.342 47.5469 20.725 48.0586 21.0709C46.7989 21.3489 45.5177 21.4123 44.2477 21.2665C43.9938 20.7902 43.7651 20.2994 43.5664 19.7932C43.4436 19.8521 43.3246 19.9182 43.2046 19.9816C43.3714 20.4017 43.5579 20.8119 43.7623 21.2131C43.1465 21.1153 42.5401 20.9523 41.9393 20.754C41.7987 20.8563 41.6656 20.9713 41.5297 21.0808C42.2627 21.3443 43.0087 21.5445 43.7641 21.6613C43.8513 21.6749 43.9394 21.6803 44.0266 21.6921C44.7782 23.0413 45.7295 24.2646 46.8636 25.276C47.1007 25.487 47.3435 25.6862 47.5919 25.8773C45.8064 26.4115 43.9553 26.4804 42.182 26.0838C41.3685 24.9419 40.6899 23.695 40.167 22.3757C40.0657 22.4898 39.9701 22.6102 39.8727 22.7289C40.3319 23.849 40.8961 24.9175 41.5616 25.9126C40.5391 25.6183 39.5493 25.1819 38.6252 24.5788C38.5558 24.7038 38.4818 24.8242 38.4171 24.9528C39.524 25.6781 40.7218 26.1852 41.9599 26.4804C42.6919 27.4891 43.5195 28.42 44.4408 29.2412C45.2103 29.9267 46.0276 30.518 46.8749 31.0287C44.5186 31.4217 42.1202 31.198 39.8811 30.3713C39.0788 29.3164 38.3271 28.1456 37.6476 26.8254C37.5895 27.0001 37.5286 27.174 37.4771 27.3542C37.9982 28.3312 38.5511 29.2449 39.1407 30.0743C38.4471 29.7719 37.7751 29.4024 37.1237 28.9814C37.0984 29.1371 37.0703 29.2911 37.0497 29.4486C37.8773 29.9702 38.7405 30.4021 39.6299 30.7408Z" fill="#DE652A"/>
<path fill-rule="evenodd" clip-rule="evenodd" d="M48.7247 18.8891C47.1939 18.6276 45.703 18.8474 44.3271 19.4358L44.39 19.0985C44.2749 17.6584 42.6237 15.8848 41 15.2794C44.5963 14.0648 50.3422 16.964 53 20.9943L52.9876 21C51.749 19.9114 50.3085 19.1591 48.7247 18.8891Z" fill="#75AA42"/>
<path fill-rule="evenodd" clip-rule="evenodd" d="M48.7247 18.8891C47.1939 18.6276 45.703 18.8474 44.3271 19.4358L44.39 19.0985C44.2749 17.6584 42.6237 15.8848 41 15.2794C44.5963 14.0648 50.3422 16.964 53 20.9943L52.9876 21C51.749 19.9114 50.3085 19.1591 48.7247 18.8891Z" fill="#629741"/>
<path fill-rule="evenodd" clip-rule="evenodd" d="M50.0018 17.3965C52.9061 16.6861 55.9805 16.9042 58 18.2625C56.3109 18.2989 54.4907 19.7645 54.0912 21C53.0788 19.5993 51.6182 18.3499 50 17.3982L50.0018 17.3965Z" fill="#75AA42"/>
<path fill-rule="evenodd" clip-rule="evenodd" d="M49.4852 17C48.6834 16.4469 47.8465 15.9751 47 15.6187C49.3491 13.1161 53.162 12.049 55 14.0286C54.0165 14.14 52.8713 15.1499 52.4279 16.3334L52.3348 16.5483C51.3978 16.5784 50.4389 16.7199 49.4966 16.99L49.4852 17Z" fill="#75AA42"/>
<path fill-rule="evenodd" clip-rule="evenodd" d="M50.0269 16.8955L50.0382 16.8865C50.9718 16.6165 51.9219 16.4755 52.8503 16.4455L52.9426 16.2315L53 16.1045C51.955 16.1495 49.731 16.6795 50.0269 16.8955Z" fill="#52843E"/>
<path fill-rule="evenodd" clip-rule="evenodd" d="M50 14.4123C48.9979 14.7713 48.0261 15.3129 47.2279 15.9937C47.2953 16.0158 47.1881 15.9755 47.0689 15.936L47.0188 15.7462C46.8158 14.7199 45.914 13.6287 45 13.265C46.3813 12.6198 48.3241 13.2105 50 14.4123Z" fill="#629741"/>
<path fill-rule="evenodd" clip-rule="evenodd" d="M46.499 15.5005L46.501 15.4995L46.499 15.5005Z" fill="#52843E"/>
<path fill-rule="evenodd" clip-rule="evenodd" d="M49.6879 14C49.7922 14.0755 49.8983 14.1447 50 14.2255C48.9752 14.6285 47.9814 15.2357 47.1645 16L47 15.9361C47 15.9361 48.6923 14.3897 49.6879 14Z" fill="#52843E"/>
<path fill-rule="evenodd" clip-rule="evenodd" d="M50 17.1148L50.0017 17.1129C50.1844 17.0644 50.3689 17.0401 50.5533 17C51.9837 17.993 54.0393 20.8619 53.9994 21C53.0097 19.489 51.5819 18.1414 50 17.1148Z" fill="#52843E"/>
<path fill-rule="evenodd" clip-rule="evenodd" d="M49.4593 16.9884L49.4576 16.9907L49.4481 17C48.6583 16.36 47.8339 15.8142 47 15.4019C47.1116 15.2636 47.2292 15.1312 47.346 15C48.2578 15.4797 49.154 16.1069 50 16.8374C49.8201 16.8885 49.6384 16.9292 49.4593 16.9884Z" fill="#52843E"/>
<path fill-rule="evenodd" clip-rule="evenodd" d="M49.9113 13.9994C49.2971 13.4642 48.6456 13.0316 48 12.7385C48.3224 12.0186 49.0766 10.6173 50.3024 10C51.3654 11.0215 51.8261 12.6396 52 13.45C51.2747 13.5103 49.8664 14.0192 49.9113 13.9994Z" fill="#94C564"/>
<path fill-rule="evenodd" clip-rule="evenodd" d="M49.6603 13.9999C49.1268 13.4645 48.5608 13.0319 48 12.7388C48.28 12.0188 48.9352 10.6173 50 10C49.2513 12.0197 49.6212 14.0196 49.6603 13.9999Z" fill="#75AA42"/>
<path fill-rule="evenodd" clip-rule="evenodd" d="M51.9135 13.0527C51.9456 13.1637 51.9765 13.2707 52 13.3637C51.0872 13.4277 49.3149 13.9677 49.3715 13.9467C49.2498 13.8577 49.1249 13.7757 49 13.6917C49.9769 13.3357 50.9751 13.1077 51.9135 13.0527Z" fill="#52843E"/>
<path fill-rule="evenodd" clip-rule="evenodd" d="M52 24C52.5487 23.656 52.8641 23.3725 53.153 23C53.7239 23.1603 54.2991 23.1852 55 23.2457C54.0581 23.7813 53.1171 23.9929 52 24Z" fill="#F3B052"/>
<path fill-rule="evenodd" clip-rule="evenodd" d="M52 29.8852C52.8181 29.402 53.5471 28.7574 53.924 28.084C55.0481 28.2598 55.7205 28.2775 57 28C55.8836 29.4639 54.0602 30.3241 52 29.8852Z" fill="#F3B052"/>
<path fill-rule="evenodd" clip-rule="evenodd" d="M57.9158 33.5442C57.9461 33.371 57.9744 33.1978 58 33.0217C57.0801 33.1614 56.4583 33.1309 55.527 33C55.155 33.5993 53.8073 34.489 53 34.919C54.6988 35.2457 56.6693 34.5431 57.9158 33.5442Z" fill="#F3B052"/>
<path fill-rule="evenodd" clip-rule="evenodd" d="M54.7134 40.7735C55.1799 40.2569 55.6098 39.6944 56 39.0929C55.7186 39.0809 55.4174 39.049 55.0335 39C54.6224 39.6085 52.8912 40.4817 52 40.9184C52.8755 41.0732 53.818 40.9983 54.7134 40.7735Z" fill="#F3B052"/>
<path fill-rule="evenodd" clip-rule="evenodd" d="M45 24C44.5106 23.3707 44.2526 22.8997 44.0506 22.325C43.3914 22.3316 42.7683 22.1649 42 22C42.8565 23.0099 43.8049 23.6053 45 24Z" fill="#F3B052"/>
<path fill-rule="evenodd" clip-rule="evenodd" d="M44 29C43.3749 28.3702 42.8525 27.638 42.6393 26.9863C41.6399 26.7907 41.0576 26.6033 40 26C40.7202 27.5018 42.1503 28.7349 44 29Z" fill="#F3B052"/>
<path fill-rule="evenodd" clip-rule="evenodd" d="M38 30.4602C38.0051 30.3068 38.0119 30.1534 38.0229 30C38.7937 30.3759 39.3373 30.5267 40.1666 30.6801C40.3786 31.2869 41.381 32.4119 42 33C40.4702 32.7929 38.8938 31.6483 38 30.4602Z" fill="#F3B052"/>
<path fill-rule="evenodd" clip-rule="evenodd" d="M38.7523 38.0347C38.4615 37.3872 38.2099 36.7073 38 36C38.238 36.0728 38.497 36.1346 38.8286 36.2013C39.0548 36.9218 40.3368 38.3019 41 39C40.235 38.8857 39.4591 38.5255 38.7523 38.0347Z" fill="#F3B052"/>
<path fill-rule="evenodd" clip-rule="evenodd" d="M51 23.1393C50.3406 22.827 49.697 22.4479 49.0756 22C48.3902 22.2107 47.6965 22.3463 47 22.4108C48.2465 24.2702 49.3881 24.4778 51 23.1393Z" fill="#F3B052"/>
<path fill-rule="evenodd" clip-rule="evenodd" d="M51 28.1915C50.1727 27.8615 49.3644 27.465 48.5812 27C47.7308 27.1919 46.8674 27.3068 46 27.3532C47.5844 29.2438 49.0114 29.4832 51 28.1915Z" fill="#F3B052"/>
<path fill-rule="evenodd" clip-rule="evenodd" d="M50 33.2485C49.1713 32.8981 48.3583 32.4826 47.5722 32C46.7244 32.17 45.8644 32.2633 45 32.2875C46.6069 34.2127 48.0336 34.4876 50 33.2485Z" fill="#F3B052"/>
<path fill-rule="evenodd" clip-rule="evenodd" d="M49 42.6834C48.1662 42.4882 47.349 42.2604 46.5561 42C45.7154 42.0613 44.8607 42.0846 44 42.0733C45.6379 43.0704 47.0653 43.2449 49 42.6834Z" fill="#F3B052"/>
<path fill-rule="evenodd" clip-rule="evenodd" d="M50 38.2763C49.0031 37.9164 48.0268 37.4927 47.0809 37C46.0663 37.159 45.0361 37.2417 44 37.2553C45.9379 39.1969 47.6504 39.4888 50 38.2763Z" fill="#F3B052"/>
<path fill-rule="evenodd" clip-rule="evenodd" d="M51.0067 25.4795C52.6649 26.4212 54.0055 28.7031 54 30.5783L53.9743 42.484L53.068 43L53.0937 30.2024C53.0974 28.9064 52.1709 27.3267 51.0241 26.6751L35.0144 17.5783C33.8685 16.9267 32.9356 16.9448 32.932 18.2416L32.9063 33.9492L32 34.4933L32.0266 18.0916C32.0321 16.2173 33.3819 15.4636 35.0392 16.4061L51.0067 25.4795Z" fill="#415358"/>
<path fill-rule="evenodd" clip-rule="evenodd" d="M42.2373 41.9038C40.2542 42.1693 38.1737 41.8919 36.2264 40.9877C30.8233 38.4794 28.4927 32.0995 31.0201 26.7371C32.3614 23.8903 34.8033 21.902 37.6083 21.0398C38.3732 20.8044 39.3964 21.6456 39.105 22.7287C38.9358 23.3583 38.2334 23.7406 37.6349 24.9286C37.0465 26.0966 36.6199 27.9607 37.1228 31.4453C37.5696 34.5413 38.3346 36.9948 40.7102 38.6327C41.2002 38.9703 42.3191 39.1893 42.7236 39.7942C43.2679 40.6109 42.9571 41.8071 42.2373 41.9038Z" fill="#F8C638"/>
<path fill-rule="evenodd" clip-rule="evenodd" d="M30.7097 26C30.4683 26.3834 30.2469 26.7829 30.05 27.2022C27.4484 32.7526 29.8475 39.356 35.4094 41.9522C37.4138 42.8882 39.5555 43.1753 41.5968 42.9004C41.753 42.8797 41.8855 42.7994 42 42.6917C40.235 42.7786 37.7044 42.5312 36.0558 41.6916C29.6573 38.4333 28.1147 31.5494 30.7097 26Z" fill="#F1AC2B"/>
<path fill-rule="evenodd" clip-rule="evenodd" d="M36.9387 24.9819C37.1272 24.575 37.3253 24.2644 37.513 24C36.0834 25.2435 34.4687 28.4735 35.1687 32.4391C35.7404 35.6814 36.8759 37.7605 38.6406 39.2023C39.0919 39.5705 41.6072 40.3759 42 41C41.9625 40.78 41.89 40.5619 41.7696 40.3646C41.3856 39.7386 40.3234 39.512 39.8582 39.1626C37.6029 37.4678 36.8767 34.9289 36.4525 31.7253C35.9751 28.1195 36.3801 26.1905 36.9387 24.9819Z" fill="#F1AC2B"/>
<path fill-rule="evenodd" clip-rule="evenodd" d="M44.6236 39.2005C44.6144 39.1095 44.5581 39.0323 44.4769 39L44.2417 39.0479C43.417 39.8449 42.1762 39.9309 41 39.2435L41.0009 39.2454C41.3542 39.4195 41.6873 39.6268 41.8718 39.9211C42.3155 40.632 42.1873 41.602 41.738 42C42.7675 41.3106 43.6605 40.8677 44.7749 40.9244L44.9723 40.8237L45 40.5939C44.809 40.0737 44.6771 39.7089 44.6236 39.2005Z" fill="#75AA42"/>
<path fill-rule="evenodd" clip-rule="evenodd" d="M45 39.4929C44.9554 39.38 44.9177 39.2651 44.8959 39.1352C44.8859 39.0742 44.8254 39.0223 44.7382 39L44.4852 39.0328C43.5986 39.5677 42.2646 39.6255 41 39.1641L41.001 39.1654C41.3809 39.2822 41.7389 39.4213 41.9373 39.6189C42.0503 39.7324 42.1267 39.8558 42.1743 39.9812C43.2227 40.0599 44.2085 39.8906 45 39.4929Z" fill="#75AA42"/>
<path fill-rule="evenodd" clip-rule="evenodd" d="M42.6542 43.293C40.9699 44.3735 38.9644 45 36.8117 45C30.8403 45 26 40.1763 26 34.2254C26 31.0656 27.3649 28.2231 29.5398 26.252C30.1325 25.7136 31.4201 26.0483 31.6189 27.1573C31.734 27.8021 31.2609 28.4469 31.2259 29.7824C31.1909 31.094 31.6014 32.9725 33.5462 35.9323C35.2746 38.5629 37.0169 40.4735 39.8719 40.9596C40.46 41.0596 41.5682 40.7863 42.1931 41.1669C43.0371 41.6797 43.2663 42.9005 42.6542 43.293Z" fill="#FAD155"/>
<path fill-rule="evenodd" clip-rule="evenodd" d="M38.5312 44.5423C32.6703 44.5423 27.9196 39.7185 27.9196 33.7674C27.9196 30.8387 29.0714 28.1842 30.9386 26.2424C30.4697 25.9204 29.8383 25.9149 29.4743 26.2516C27.3397 28.2227 26 31.0652 26 34.2251C26 40.1762 30.7507 45 36.6116 45C37.7967 45 38.9359 44.8028 40 44.4386C39.5194 44.5065 39.0289 44.5423 38.5312 44.5423Z" fill="#F1AC2B"/>
<path fill-rule="evenodd" clip-rule="evenodd" d="M31.4553 29.1234C31.4674 28.679 31.5286 28.3174 31.5992 28C30.7399 29.7352 30.5311 33.3086 32.8556 36.4955C34.7561 39.1011 36.7159 40.4305 39.0163 40.9135C39.6037 41.0368 42.3625 40.6246 43 41C42.8719 40.8224 42.7114 40.6623 42.5128 40.5427C41.8827 40.1609 40.7655 40.4351 40.1725 40.3348C37.294 39.8472 35.5374 37.9308 33.7947 35.2921C31.8339 32.3232 31.4201 30.439 31.4553 29.1234Z" fill="#FAD155"/>
<path fill-rule="evenodd" clip-rule="evenodd" d="M45.0875 39.1176C45.0456 39.0393 44.9679 38.9938 44.8859 39.0007C44.8048 39.0076 44.7341 39.0661 44.7027 39.1523C44.2979 40.2588 43.2676 40.9018 42 40.8067L42.0009 40.8087C42.3699 40.8077 42.7337 40.8463 43.0024 41.0325C43.6523 41.4823 43.9088 42.4304 43.6742 43C44.2953 41.8994 44.8929 41.087 45.8691 40.6313L46 40.449L45.9372 40.2261C45.5769 39.8358 45.3256 39.5604 45.0875 39.1176Z" fill="#75AA42"/>
<path fill-rule="evenodd" clip-rule="evenodd" d="M45 39.4635C44.882 39.3525 44.7693 39.2357 44.6627 39.0969C44.612 39.0324 44.5199 38.9949 44.4227 39.0006C44.3264 39.0071 44.2426 39.0545 44.2054 39.1255C43.7253 40.0374 42.5034 40.5673 41 40.4889L41.001 40.4905C41.4387 40.4897 41.8701 40.5216 42.1888 40.6751C42.372 40.7632 42.5272 40.8751 42.6555 41C43.6984 40.7232 44.5168 40.1885 45 39.4635Z" fill="#94C564"/>
<path fill-rule="evenodd" clip-rule="evenodd" d="M43.9971 53L44 40.2007L38 37V49.8306L43.9971 53Z" fill="#629741"/>
<path fill-rule="evenodd" clip-rule="evenodd" d="M41.3846 35L44 40L38 36.8045L41.3846 35Z" fill="#75AA42"/>
<path fill-rule="evenodd" clip-rule="evenodd" d="M43.4579 40L51 35.5951L48.0651 31L41 34.9082L43.4579 40Z" fill="#A7CE7A"/>
<path fill-rule="evenodd" clip-rule="evenodd" d="M43 53L50.8861 48.5174L51 35L43.0029 39.5522L43 53Z" fill="#75AA42"/>
<path fill-rule="evenodd" clip-rule="evenodd" d="M47.817 35.6215C47.4194 36.1715 46.5093 36.1155 45.7814 35.4965C45.0553 34.8774 44.7866 33.9293 45.1833 33.3793C45.5799 32.8282 46.4918 32.8842 47.2188 33.5043C47.9458 34.1233 48.2127 35.0704 47.817 35.6215Z" fill="#5CBBDE"/>
<path fill-rule="evenodd" clip-rule="evenodd" d="M46.2152 35.8192C45.5786 35.2873 45.343 34.4718 45.6908 34C45.6908 34 45.0396 34.8533 45.0106 35.0828C44.8508 36.3572 46.5388 37.3514 47.3505 36.8814L48 35.9267C47.6514 36.3993 46.8535 36.3512 46.2152 35.8192Z" fill="#358CC0"/>
<path fill-rule="evenodd" clip-rule="evenodd" d="M48 30.9457V29.5047C48 29.1564 47.7511 28.9063 47.5184 29.0337L41.6314 32.5869C41.2724 32.8238 41 33.1409 41 33.7713V35L48 30.9457Z" fill="#75AA42"/>
<path fill-rule="evenodd" clip-rule="evenodd" d="M50 42.9087C50 44.8389 48.8812 48.1553 47.5 48.8588C46.1196 49.5624 45 47.5021 45 45.6526C45 43.8049 46.1196 42.1795 47.5 41.3867C48.8812 40.5949 50 40.9794 50 42.9087Z" fill="#C12F32"/>
<path fill-rule="evenodd" clip-rule="evenodd" d="M45.6815 45.857C45.6815 43.9942 46.959 42.3647 48.534 41.5775C49.0729 41.3081 49.5701 41.1872 50 41.2072C49.4774 40.8769 48.7143 40.9464 47.8525 41.3805C46.2775 42.1743 45 43.8048 45 45.6571C45 47.2172 45.9057 48.9153 47.1312 49C46.2663 48.467 45.6815 47.1172 45.6815 45.857Z" fill="#D33837"/>
<path fill-rule="evenodd" clip-rule="evenodd" d="M47.6925 41.3978C47.6925 41.2608 47.6055 41.1958 47.4995 41.2528C47.3935 41.3088 47.3075 41.4658 47.3075 41.6028C47.3075 41.7388 47.3935 41.8038 47.4995 41.7478C47.6055 41.6918 47.6925 41.5348 47.6925 41.3978Z" fill="#EE9F38"/>
<path fill-rule="evenodd" clip-rule="evenodd" d="M49.692 41.3991C49.692 41.2601 49.606 41.1941 49.5 41.2501C49.394 41.3061 49.308 41.4641 49.308 41.6021C49.308 41.7391 49.394 41.8061 49.5 41.7501C49.606 41.6941 49.692 41.5371 49.692 41.3991Z" fill="#EE9F38"/>
<path fill-rule="evenodd" clip-rule="evenodd" d="M47.6915 43.3999C47.6915 43.2639 47.6055 43.1969 47.4995 43.2519C47.3935 43.3069 47.3085 43.4639 47.3085 43.5999C47.3085 43.7369 47.3935 43.8029 47.4995 43.7479C47.6055 43.6939 47.6915 43.5369 47.6915 43.3999Z" fill="#EE9F38"/>
<path fill-rule="evenodd" clip-rule="evenodd" d="M49.692 43.4012C49.692 43.2632 49.605 43.1942 49.5 43.2492C49.394 43.3042 49.308 43.4602 49.308 43.5992C49.308 43.7372 49.394 43.8052 49.5 43.7512C49.605 43.6972 49.692 43.5412 49.692 43.4012Z" fill="#EE9F38"/>
<path fill-rule="evenodd" clip-rule="evenodd" d="M46.692 43.3993C46.692 43.2633 46.606 43.1993 46.5 43.2553C46.394 43.3113 46.308 43.4663 46.308 43.6013C46.308 43.7363 46.394 43.8003 46.5 43.7453C46.606 43.6893 46.692 43.5343 46.692 43.3993Z" fill="#EE9F38"/>
<path fill-rule="evenodd" clip-rule="evenodd" d="M45.6925 44.401C45.6925 44.266 45.6055 44.202 45.4995 44.257C45.3935 44.312 45.3075 44.466 45.3075 44.6C45.3075 44.734 45.3935 44.798 45.4995 44.743C45.6055 44.688 45.6925 44.534 45.6925 44.401Z" fill="#EE9F38"/>
<path fill-rule="evenodd" clip-rule="evenodd" d="M46.692 45.4025C46.692 45.2665 46.606 45.2005 46.5 45.2545C46.394 45.3095 46.308 45.4635 46.308 45.5985C46.308 45.7335 46.394 45.7995 46.5 45.7455C46.606 45.6915 46.692 45.5375 46.692 45.4025Z" fill="#EE9F38"/>
<path fill-rule="evenodd" clip-rule="evenodd" d="M48.6925 45.4031C48.6925 45.2661 48.6065 45.1981 48.5005 45.2511C48.3945 45.3051 48.3075 45.4601 48.3075 45.5961C48.3075 45.7331 48.3945 45.8021 48.5005 45.7491C48.6065 45.6951 48.6925 45.5411 48.6925 45.4031Z" fill="#EE9F38"/>
<path fill-rule="evenodd" clip-rule="evenodd" d="M49.692 45.404C49.692 45.266 49.606 45.196 49.5 45.25C49.394 45.303 49.308 45.458 49.308 45.596C49.308 45.734 49.394 45.803 49.5 45.751C49.606 45.698 49.692 45.542 49.692 45.404Z" fill="#EE9F38"/>
<path fill-rule="evenodd" clip-rule="evenodd" d="M45.692 46.4033C45.692 46.2683 45.606 46.2033 45.5 46.2573C45.394 46.3103 45.308 46.4633 45.308 46.5973C45.308 46.7313 45.394 46.7963 45.5 46.7433C45.606 46.6903 45.692 46.5373 45.692 46.4033Z" fill="#EE9F38"/>
<path fill-rule="evenodd" clip-rule="evenodd" d="M46.692 46.4046C46.692 46.2686 46.606 46.2026 46.5 46.2546C46.394 46.3076 46.308 46.4606 46.308 46.5956C46.308 46.7306 46.394 46.7976 46.5 46.7456C46.606 46.6926 46.692 46.5396 46.692 46.4046Z" fill="#EE9F38"/>
<path fill-rule="evenodd" clip-rule="evenodd" d="M47.6915 46.406C47.6915 46.269 47.6055 46.2 47.4995 46.252C47.3935 46.304 47.3085 46.458 47.3085 46.594C47.3085 46.731 47.3935 46.8 47.4995 46.748C47.6055 46.696 47.6915 46.543 47.6915 46.406Z" fill="#EE9F38"/>
<path fill-rule="evenodd" clip-rule="evenodd" d="M47.692 48.4073C47.692 48.2713 47.606 48.2023 47.5 48.2543C47.394 48.3053 47.308 48.4573 47.308 48.5933C47.308 48.7283 47.394 48.7973 47.5 48.7463C47.606 48.6953 47.692 48.5423 47.692 48.4073Z" fill="#EE9F38"/>
<path fill-rule="evenodd" clip-rule="evenodd" d="M46.096 42.8498L46.1063 42.849C46.533 42.2736 47.0888 41.7951 47.7047 41.4774C48.2218 41.2115 48.6975 41.1023 49.0898 41.1606L49.095 41.1565C49.3599 40.4974 50 40.2331 50 40.2331C49.0132 40.3423 48.713 39.7595 48.0988 40.8733C47.9387 40.7363 47.8932 40.4851 48.2278 40C47.2531 40.5114 46.9219 40.7633 46.6165 41.5743C45.8052 41.3773 45.8078 41.9945 45 43C45 43 46.0143 42.6947 46.096 42.8498Z" fill="#52843E"/>
<path fill-rule="evenodd" clip-rule="evenodd" d="M38 37L42 36.8495L41.18 35L38 37Z" fill="#629741"/>
<path fill-rule="evenodd" clip-rule="evenodd" d="M36.7969 40.4384C36.7987 40.0121 36.7997 39.4439 36.8016 39.0176C36.7997 39.5023 36.4702 39.9861 35.8141 40.3494C34.5235 41.064 32.4614 41.0436 31.2065 40.3031C30.5898 39.9389 30.2838 39.469 30.2848 39C30.2838 39.4263 30.282 39.9945 30.281 40.4199C30.2744 42.5506 26.0469 43.825 26.0357 47.7194C26.0253 51.4156 26.0103 64.5485 26 68.2437C26.2384 74.6229 40.8076 74.534 40.9652 68.2854C40.9756 64.5902 40.9896 51.4573 41 47.7612C41.0122 43.8658 36.7912 42.5692 36.7969 40.4384Z" fill="#B5DEE0"/>
<path fill-rule="evenodd" clip-rule="evenodd" d="M33.4919 72C30.4406 71.9991 27.1108 70.7449 27 67.9897L27.0342 47.6728C27.0397 45.7512 28.1985 44.5779 29.3205 43.444C30.0891 42.6645 30.8236 41.9218 31.0435 41C31.7337 41.3893 32.6187 41.6032 33.5514 41.6032C34.4678 41.6023 35.3455 41.3939 36.0277 41.0138C36.2422 41.9374 36.9721 42.6847 37.7372 43.4679C38.8519 44.6082 40.0045 45.7879 40 47.7096L39.9657 68.042C39.9027 70.6348 36.6612 72 33.4919 72Z" fill="#FFFFFE"/>
<path fill-rule="evenodd" clip-rule="evenodd" d="M37.7372 43.3148C37.6354 43.2095 37.5335 43.1043 37.4326 43C36.3395 43.5907 34.9094 43.8935 33.4928 43.8935C32.1221 43.8935 30.6902 43.612 29.5827 43.0222C29.4962 43.1117 29.4088 43.2003 29.3205 43.2908C28.1985 44.4307 27.0397 45.6104 27.0342 47.5423L27 67.9682C27.1108 70.7382 30.4406 71.9991 33.4919 72C36.6612 72 39.9027 70.6274 39.9657 68.0208L40 47.5792C40.0045 45.6473 38.8519 44.4612 37.7372 43.3148Z" fill="#E1F2F4"/>
<path fill-rule="evenodd" clip-rule="evenodd" d="M37.8187 43.3112C37.7196 43.2072 37.6205 43.1031 37.5249 43C37.3581 43.0922 37.1808 43.1743 37 43.2528C37.9994 44.4631 38.9606 45.7601 38.9554 47.7837L38.9232 69.6833C38.9206 69.791 38.9128 69.8959 38.9024 70C39.5446 69.4012 39.9452 68.6473 39.967 67.7419L40 47.5281C40.0052 45.6178 38.8928 44.4449 37.8187 43.3112Z" fill="#FFFFFE"/>
<path fill-rule="evenodd" clip-rule="evenodd" d="M34 41.5892C33.881 41.5974 33.7612 41.6039 33.6397 41.6039C32.7843 41.6039 31.9727 41.3897 31.3397 41C31.1612 41.8171 30.6132 42.4936 30 43.1792C30.7818 43.6314 31.7405 43.8998 32.7132 44C33.0702 43.1645 33.5934 42.4917 34 41.5892Z" fill="#E1F2F4"/>
<path fill-rule="evenodd" clip-rule="evenodd" d="M32.4799 70.3654L32.517 45.8823C32.518 45.0391 32.7151 44.3958 33 43.8266C31.8515 43.7257 30.7196 43.4554 29.7966 43C29.7029 43.0898 29.6082 43.1786 29.5126 43.2693C28.2978 44.4125 27.0429 45.5954 27.0371 47.5327L27 68.0153C27.1103 70.5718 30.1156 71.7436 32.799 72C32.6116 71.5067 32.4994 70.9633 32.4799 70.3654Z" fill="#B5DEE0"/>
<path fill-rule="evenodd" clip-rule="evenodd" d="M38 37.6215C37.9933 37.5164 38 37.4175 37.9591 37.2276C37.6142 35.629 35.5372 34.9507 33.7993 35.0028H33.7879C32.1773 35.0222 30.3397 35.7765 30.0376 37.2859L30.0366 37.2948C29.9758 37.6357 30.0053 38.9296 30.0224 39.0294C30.1117 39.5867 30.6143 40.0531 31.136 40.3428C32.6743 41.1977 35.2036 41.2216 36.7857 40.3966C37.3387 40.1078 37.8622 39.6538 37.9734 39.0806C38.0057 38.9137 37.9971 38.5065 38 37.6215Z" fill="#5CBBDE"/>
<path fill-rule="evenodd" clip-rule="evenodd" d="M37.9401 37C37.7853 37.5405 37.3007 37.9714 36.7857 38.2513C35.2036 39.1114 32.6743 39.0865 31.136 38.1961C30.6713 37.9272 30.2238 37.511 30.067 37.012L30.0376 37.128L30.0366 37.1372C29.9758 37.4926 30.0053 38.8416 30.0224 38.9456C30.1117 39.5266 30.6143 40.0128 31.136 40.3148C32.6743 41.2061 35.2036 41.231 36.7857 40.371C37.3387 40.0699 37.8622 39.5966 37.9734 38.999C38.0057 38.825 37.9981 38.4005 38 37.4779C37.9933 37.3683 38 37.2652 37.9591 37.0672L37.9401 37Z" fill="#4DAAD4"/>
<path fill-rule="evenodd" clip-rule="evenodd" d="M34 38.8619C32.9353 38.9293 31.8311 38.7057 31.0265 38.1883C30.6067 37.9185 30.2022 37.5008 30.0606 37L30.0339 37.1164L30.0331 37.1257C29.9781 37.4823 30.0047 38.836 30.0202 38.9404C30.1009 39.5235 30.5551 40.0113 31.0265 40.3144C31.8311 40.8319 32.9353 41.0564 34 40.988V38.8619Z" fill="#358CC0"/>
<path fill-rule="evenodd" clip-rule="evenodd" d="M71.0582 44.8575L68.8971 46.0941L68.8962 43.2228C68.8962 42.5397 69.3806 41.7095 69.9772 41.3684C70.5739 41.0263 71.0582 41.3031 71.0582 41.9862V44.8575ZM71.0582 51.9442L68.8971 53.1799V48.6886L71.0582 47.452V51.9442ZM71.0582 57.4505C71.0582 58.1336 70.5739 58.9638 69.9772 59.3049C69.3806 59.646 68.8971 59.3702 68.8971 58.6871V55.7753L71.0582 54.5378V57.4505ZM66.9114 47.2295L64.7503 48.4652V45.5939C64.7503 44.9117 65.2347 44.0815 65.8313 43.7395C66.428 43.3984 66.9114 43.6751 66.9114 44.3582V47.2295ZM66.9123 54.3153L64.7512 55.5519L64.7503 51.0607L66.9123 49.8241V54.3153ZM66.9123 59.8216C66.9123 60.5047 66.428 61.3349 65.8313 61.6769C65.2347 62.018 64.7512 61.7413 64.7512 61.0591V58.1465L66.9123 56.9099V59.8216ZM62.7665 56.6865L60.6054 57.923V55.87L62.7665 54.6334V56.6865ZM62.7665 62.1936C62.7665 62.8768 62.283 63.707 61.6854 64.049C61.0888 64.3901 60.6054 64.1134 60.6054 63.4302V60.5185L62.7665 59.2819V62.1936ZM58.6206 59.0585L56.4585 60.2951V58.2412L58.6206 57.0046V59.0585ZM58.6206 64.5657C58.6206 65.2479 58.1371 66.079 57.5395 66.4201C56.9429 66.7612 56.4595 66.4845 56.4595 65.8014L56.4585 62.8896L58.6206 61.653V64.5657ZM54.4747 61.4296L52.3136 62.6671V60.6132L54.4747 59.3766V61.4296ZM54.4747 66.9368C54.4747 67.6199 53.9912 68.4502 53.3946 68.7922C52.797 69.1333 52.3136 68.8565 52.3136 68.1734V65.2608L54.4747 64.0242V66.9368ZM50.3288 63.8017L48.1677 65.0383V62.9843L50.3288 61.7477V63.8017ZM50.3288 69.3089C50.3288 69.9911 49.8453 70.8213 49.2478 71.1633C48.6511 71.5044 48.1677 71.2286 48.1677 70.5445V67.6328L50.3288 66.3962V69.3089ZM46.1829 59.087L44.0218 60.3236V57.4523C44.0218 56.7692 44.5052 55.939 45.1019 55.5979C45.6994 55.2559 46.1829 55.5326 46.1829 56.2157V59.087ZM46.1829 66.1728L44.0218 67.4094V62.9181L46.1829 61.6815V66.1728ZM46.1829 71.68C46.1829 72.3631 45.6994 73.1933 45.1028 73.5344C44.5052 73.8764 44.0218 73.5997 44.0218 72.9166V70.0049L46.1829 68.7673V71.68ZM42.037 61.4591L39.8759 62.6947V59.8234C39.8759 59.1412 40.3593 58.311 40.956 57.969C41.5526 57.6279 42.037 57.9047 42.037 58.5878V61.4591ZM42.037 68.5449L39.8759 69.7814V65.2902L42.037 64.0536V68.5449ZM42.037 74.052C42.037 74.7342 41.5535 75.5645 40.9569 75.9065C40.3593 76.2476 39.8759 75.9708 39.8759 75.2886V72.3787L42.037 71.1394V74.052ZM36 58.2899L38.3569 77.532C39.7951 78.3677 41.4709 78.0229 43.4706 76.9831L71.255 61.0895C71.9008 60.7199 72.4427 59.8529 72.5123 59.0787L75 36L36 58.2899Z" fill="#DE4F4D"/>
<path fill-rule="evenodd" clip-rule="evenodd" d="M48.9874 70.8515C49.5472 70.5035 50 69.6585 50 68.9643V66L49.4116 66.3659V68.4421C49.4116 69.1364 48.9578 69.9823 48.399 70.3294C48.2573 70.4174 48.1217 70.4642 48 70.4754C48.0982 70.9797 48.5033 71.1528 48.9874 70.8515Z" fill="#C12F32"/>
<path fill-rule="evenodd" clip-rule="evenodd" d="M45.3946 55.0024C45.4092 55.0798 45.4186 55.1647 45.4186 55.2572V58.2042L44 59.1045V60L46 58.7308V55.7837C46 55.261 45.751 54.9703 45.3946 55.0024Z" fill="#C12F32"/>
<path fill-rule="evenodd" clip-rule="evenodd" d="M49.4178 62.3277V63.4049L48 64.2045V65L50 63.8726V62L49.4178 62.3277Z" fill="#C12F32"/>
<path fill-rule="evenodd" clip-rule="evenodd" d="M45.4186 62.3766V66.1673L44 67.086V68L46 66.7047V62L45.4186 62.3766Z" fill="#C12F32"/>
<path fill-rule="evenodd" clip-rule="evenodd" d="M41.4186 64.3766V68.1673L40 69.086V70L42 68.7047V64L41.4186 64.3766Z" fill="#C12F32"/>
<path fill-rule="evenodd" clip-rule="evenodd" d="M40.9883 75.8515C41.5472 75.5035 42 74.6585 42 73.9643V71L41.4116 71.3668V73.4412C41.4116 74.1374 40.9587 74.9823 40.399 75.3294C40.2573 75.4183 40.1226 75.4642 40 75.4754C40.0982 75.9797 40.5033 76.1528 40.9883 75.8515Z" fill="#C12F32"/>
<path fill-rule="evenodd" clip-rule="evenodd" d="M41.3946 58.0023C41.4092 58.0806 41.4186 58.1646 41.4186 58.258V61.2051L40 62.1054V63L42 61.7317V58.7846C42 58.2608 41.7501 57.9711 41.3946 58.0023Z" fill="#C12F32"/>
<path fill-rule="evenodd" clip-rule="evenodd" d="M44.9883 73.8511C45.5472 73.504 46 72.6592 46 71.964V69L45.4116 69.3658V71.4419C45.4116 72.1362 44.9578 72.982 44.399 73.33C44.2573 73.4179 44.1226 73.4638 44 73.475C44.0991 73.9793 44.5024 74.1533 44.9883 73.8511Z" fill="#C12F32"/>
<path fill-rule="evenodd" clip-rule="evenodd" d="M52.9887 68.8518C53.5474 68.5038 54 67.659 54 66.9638V64L53.4109 64.3667V66.4418C53.4109 67.1369 52.9583 67.9817 52.3997 68.3298C52.258 68.4177 52.1225 68.4645 52 68.4748C52.099 68.979 52.5039 69.153 52.9887 68.8518Z" fill="#C12F32"/>
<path fill-rule="evenodd" clip-rule="evenodd" d="M57.4189 58.4049L56 59.2045V60L58 58.8726V57L57.4189 57.3286V58.4049Z" fill="#C12F32"/>
<path fill-rule="evenodd" clip-rule="evenodd" d="M53.4178 59.3277V60.404L52 61.2037V62L54 60.8718V59L53.4178 59.3277Z" fill="#C12F32"/>
<path fill-rule="evenodd" clip-rule="evenodd" d="M68.9878 58.8515C69.5474 58.5044 70 57.6595 70 56.9643V54L69.4118 54.3659V56.4421C69.4118 57.1364 68.9583 57.9823 68.3997 58.3294C68.258 58.4183 68.1234 58.4651 68 58.4754C68.099 58.9797 68.5039 59.1528 68.9878 58.8515Z" fill="#C12F32"/>
<path fill-rule="evenodd" clip-rule="evenodd" d="M69.3946 41.0024C69.4092 41.0798 69.4186 41.1647 69.4186 41.2572V44.2042L68 45.1045V46L70 44.7308V41.7837C70 41.261 69.7501 40.9703 69.3946 41.0024Z" fill="#C12F32"/>
<path fill-rule="evenodd" clip-rule="evenodd" d="M69.4186 47.3766V51.1673L68 52.087V53L70 51.7056V47L69.4186 47.3766Z" fill="#C12F32"/>
<path fill-rule="evenodd" clip-rule="evenodd" d="M65.4186 50.3766V54.1673L64 55.086V56L66 54.7047V50L65.4186 50.3766Z" fill="#C12F32"/>
<path fill-rule="evenodd" clip-rule="evenodd" d="M65.3946 44.0023C65.41 44.0806 65.4186 44.1646 65.4186 44.2571L65.4195 47.2051L64 48.1054V49L66 47.7317V44.7846C66 44.2608 65.751 43.9711 65.3946 44.0023Z" fill="#C12F32"/>
<path fill-rule="evenodd" clip-rule="evenodd" d="M56.9878 66.8515C57.5474 66.5044 58 65.6585 58 64.9643V62L57.4118 62.3659V64.4412C57.4118 65.1374 56.9583 65.9813 56.3997 66.3294C56.258 66.4174 56.1234 66.4642 56 66.4754C56.099 66.9797 56.503 67.1528 56.9878 66.8515Z" fill="#C12F32"/>
<path fill-rule="evenodd" clip-rule="evenodd" d="M64.9874 61.8515C65.5463 61.5035 66 60.6585 66 59.9633V57L65.4116 57.3668V59.4421C65.4116 60.1364 64.9578 60.9813 64.399 61.3294C64.2573 61.4174 64.1226 61.4642 64 61.4754C64.0982 61.9797 64.5024 62.1528 64.9874 61.8515Z" fill="#C12F32"/>
<path fill-rule="evenodd" clip-rule="evenodd" d="M60.9878 63.8518C61.5474 63.5037 62 62.6587 62 61.9635V59L61.4109 59.3659V61.4413C61.4109 62.1366 60.9583 62.9815 60.3997 63.3287C60.2572 63.4176 60.1234 63.4644 60 63.4747C60.099 63.979 60.5039 64.1531 60.9878 63.8518Z" fill="#C12F32"/>
<path fill-rule="evenodd" clip-rule="evenodd" d="M61.4178 55.327V56.4044L60 57.2043V58L62 56.8723V55L61.4178 55.327Z" fill="#C12F32"/>
<path fill-rule="evenodd" clip-rule="evenodd" d="M33.4798 73.1325C32.8023 72.7469 32.2084 71.9893 32.1527 71.4382L31.7416 68.9671L34.1962 70.3617L34.6073 72.8337C34.662 73.3838 34.1572 73.5182 33.4798 73.1325ZM31.0215 63.398L33.4761 64.7944L33.9865 68.2716L31.5319 66.8753L31.0215 63.398ZM30.5798 58.9941C30.5241 58.4439 31.029 58.3096 31.7064 58.6952C32.3847 59.0809 32.9787 59.8394 33.0343 60.3895L33.2663 62.7034L30.8118 61.308L30.5798 58.9941ZM28.773 70.4558C28.0947 70.0711 27.5007 69.3116 27.446 68.7615L27.0349 66.2904L29.4894 67.6859L29.8996 70.1579C29.9553 70.7071 29.4504 70.8414 28.773 70.4558ZM26.3138 60.7222L28.7684 62.1167L29.2797 65.5949L26.8252 64.1995L26.3138 60.7222ZM25.8721 56.3173C25.8174 55.7672 26.3222 55.6338 26.9996 56.0194C27.6771 56.4042 28.271 57.1627 28.3267 57.7128L28.5586 60.0267L26.1041 58.6313L25.8721 56.3173ZM24.0653 67.78C23.3879 67.3943 22.7931 66.6358 22.7383 66.0857L22.3272 63.6137L24.7817 65.0091L25.1919 67.4812C25.2476 68.0313 24.7428 68.1647 24.0653 67.78ZM21.6071 58.0455L24.0607 59.4409L24.572 62.9182L22.1175 61.5236L21.6071 58.0455ZM21.1644 53.6415C21.1097 53.0905 21.6136 52.957 22.2919 53.3427C22.9694 53.7284 23.5633 54.4869 23.619 55.0361L23.8519 57.35L21.3974 55.9545L21.1644 53.6415ZM19.3576 65.1033C18.6802 64.7176 18.0863 63.9591 18.0306 63.4099L17.6195 60.9369L20.0741 62.3324L20.4852 64.8044C20.5399 65.3546 20.0351 65.488 19.3576 65.1033ZM16.8994 55.3687L19.3539 56.7642L19.8643 60.2424L17.4098 58.8469L16.8994 55.3687ZM16.4577 50.9648C16.402 50.4147 16.9068 50.2812 17.5843 50.666C18.2626 51.0516 18.8565 51.8101 18.9113 52.3603L19.1442 54.6733L16.6897 53.2787L16.4577 50.9648ZM38 77L35.6429 57.8737L13 45L15.062 59.6301C15.1817 61.4725 15.8434 64.3932 17.0674 65.074L38 77Z" fill="#D33837"/>
<path fill-rule="evenodd" clip-rule="evenodd" d="M22.5164 61.569L25 63L24.8779 62.1626L23.1371 61.1583L22.7418 58.4276L22 58L22.5164 61.569Z" fill="#B32B2C"/>
<path fill-rule="evenodd" clip-rule="evenodd" d="M23.4308 66.2553C23.4882 66.7572 24.1115 67.4492 24.8214 67.801C25.4846 68.1295 25.9835 68.0395 26 67.6176C25.8395 67.5909 25.6596 67.5326 25.4642 67.4359C24.7533 67.084 24.131 66.3928 24.0726 65.8909L23.7867 64.3894L23 64L23.4308 66.2553Z" fill="#B32B2C"/>
<path fill-rule="evenodd" clip-rule="evenodd" d="M17.0048 51.4878L17.2634 53.6793L20 55L19.911 54.2487L17.9463 53.301L17.6876 51.1096L17.6907 51.017C17.2448 50.9434 16.9592 51.1105 17.0048 51.4878Z" fill="#B32B2C"/>
<path fill-rule="evenodd" clip-rule="evenodd" d="M17.5164 59.5683L20 61L19.8789 60.1618L18.1371 59.1577L17.7418 56.4275L17 56L17.5164 59.5683Z" fill="#B32B2C"/>
<path fill-rule="evenodd" clip-rule="evenodd" d="M18.4308 64.256C18.4891 64.757 19.1115 65.449 19.8214 65.8008C20.4846 66.1293 20.9835 66.0401 21 65.6174C20.8405 65.5907 20.6606 65.5332 20.4642 65.4365C19.7533 65.0847 19.131 64.3927 19.0736 63.8908L18.7867 62.3893L18 62L18.4308 64.256Z" fill="#B32B2C"/>
<path fill-rule="evenodd" clip-rule="evenodd" d="M21.0044 54.4878L21.264 56.6784L24 58L23.911 57.2487L21.9467 56.3002L21.6881 54.1096L21.6912 54.017C21.2444 53.9434 20.9609 54.1105 21.0044 54.4878Z" fill="#B32B2C"/>
<path fill-rule="evenodd" clip-rule="evenodd" d="M32.4308 72.2548C32.4891 72.7576 33.1115 73.4489 33.8214 73.8008C34.4856 74.1293 34.9844 74.0401 35 73.6173C34.8405 73.5906 34.6606 73.5331 34.4642 73.4355C33.7543 73.0845 33.1319 72.3924 33.0736 71.8904L32.7867 70.3886L32 70L32.4308 72.2548Z" fill="#B32B2C"/>
<path fill-rule="evenodd" clip-rule="evenodd" d="M31.5164 67.5674L34 69L33.8789 68.1618L32.1371 67.1577L31.7418 64.4275L31 64L31.5164 67.5674Z" fill="#B32B2C"/>
<path fill-rule="evenodd" clip-rule="evenodd" d="M31.0046 59.4875L31.2632 61.6786L34 63L33.911 62.248L31.9472 61.3004L31.6885 59.1093L31.6916 59.0167C31.2446 58.944 30.9601 59.1102 31.0046 59.4875Z" fill="#B32B2C"/>
<path fill-rule="evenodd" clip-rule="evenodd" d="M26.0046 56.4874L26.2632 58.6786L29 60L28.911 59.2488L26.9472 58.2995L26.6885 56.1092L26.6906 56.0166C26.2456 55.9439 25.9601 56.111 26.0046 56.4874Z" fill="#B32B2C"/>
<path fill-rule="evenodd" clip-rule="evenodd" d="M27.5172 64.5681L30 66L29.878 65.1626L28.1367 64.1583L27.7416 61.4276L27 61L27.5172 64.5681Z" fill="#B32B2C"/>
<path fill-rule="evenodd" clip-rule="evenodd" d="M27.4308 69.2551C27.4882 69.757 28.1105 70.4498 28.8214 70.8008C29.4846 71.1293 29.9835 71.0401 30 70.6174C29.8395 70.5907 29.6596 70.534 29.4632 70.4357C28.7533 70.0847 28.131 69.3927 28.0726 68.8908L27.7857 67.3902L27 67L27.4308 69.2551Z" fill="#B32B2C"/>
<path fill-rule="evenodd" clip-rule="evenodd" d="M37.8642 59.4185L65.6059 43.8847L65.8313 43.7215C65.9241 43.6692 66.0141 43.6316 66.0995 43.6086L69.6228 41.6356C69.7341 41.5265 69.851 41.4274 69.9772 41.3559C70.1155 41.277 70.2473 41.2329 70.3679 41.2183L74.7448 38.7674L75 36L36 57.8371L36.1429 60C36.8091 59.9174 37.8642 59.4185 37.8642 59.4185Z" fill="#D33837"/>
<path fill-rule="evenodd" clip-rule="evenodd" d="M36 59.9993L35.8093 58.1993L13 45L13.2804 47.8662L32.9161 59.2291C33.5041 59.5242 34.5847 60.0218 36 59.9993Z" fill="#B32B2C"/>
<path fill-rule="evenodd" clip-rule="evenodd" d="M76 36.5394L37 59V54.4616L76 32V36.5394Z" fill="#52676E"/>
<path fill-rule="evenodd" clip-rule="evenodd" d="M34 59L12 46.4607V42L34 54.5384V59Z" fill="#415358"/>
<path fill-rule="evenodd" clip-rule="evenodd" d="M34 54.2015V58.6413C34.8392 59.1196 36.2003 59.1196 37.0386 58.6413L75 37L37.0542 58.6314V54.1933L37.0386 54.2015C36.2003 54.6797 34.8392 54.6797 34 54.2015Z" fill="#52676E"/>
<path fill-rule="evenodd" clip-rule="evenodd" d="M75.157 31.816V36C75.6 35.7815 75.823 35.4981 75.838 35.213L75.843 35.2062V31C75.843 31.2953 75.615 31.5906 75.157 31.816Z" fill="#52676E"/>
<path fill-rule="evenodd" clip-rule="evenodd" d="M53.0432 24.5577L37.2709 15.4076C36.3685 14.8846 35.5604 14.8827 35.0144 15.3001V15.2974L33 16.4756C33.536 16.1858 34.267 16.2369 35.0715 16.7044L50.8438 25.8535C52.4818 26.8031 53.806 29.104 53.8006 30.9949L53.7752 43L55.9737 41.727L56 29.6982C56.0045 27.8082 54.6803 25.5072 53.0432 24.5577Z" fill="#52676E"/>
<path fill-rule="evenodd" clip-rule="evenodd" d="M75.3681 30L73.8432 30.8643L35.1373 52.779L13.1568 40.3324L11.6319 39.4681C10.7894 39.945 10.7894 40.7189 11.6319 41.1958L33.6115 53.6424C34.454 54.1192 35.8205 54.1192 36.663 53.6424L75.3681 31.7276C76.2106 31.2508 76.2106 30.4768 75.3681 30Z" fill="#738990"/>
</svg>
