<svg width="149" height="32" viewBox="0 0 149 32" fill="none" xmlns="http://www.w3.org/2000/svg">
<path fill-rule="evenodd" clip-rule="evenodd" d="M112.879 21.8559V21.8534L114.786 5.26701C114.788 5.23663 114.792 5.2057 114.797 5.17451C114.8 5.14816 114.804 5.12163 114.806 5.0951C114.871 4.23865 115.782 3.49495 116.626 3.65129C117.613 3.83628 118.006 4.51085 117.816 5.63139C117.748 6.03501 113.913 21.8995 113.913 21.8995V21.902C113.864 22.1798 113.593 22.3966 113.306 22.3829C113.021 22.3711 112.829 22.1337 112.879 21.8559ZM111.88 23.2268C111.59 23.5208 111.446 23.8671 111.446 24.2683C111.446 24.6669 111.59 25.0157 111.88 25.3072C112.168 25.6012 112.517 25.7463 112.928 25.7463C113.338 25.7463 113.688 25.6031 113.98 25.3134C114.272 25.0238 114.417 24.6744 114.417 24.2683C114.417 23.8597 114.272 23.5121 113.98 23.2225C113.688 22.9316 113.338 22.7852 112.928 22.7852C112.517 22.7852 112.168 22.9328 111.88 23.2268ZM123.04 23.163C122.559 23.642 121.895 23.9398 121.16 23.9398C119.692 23.9398 118.501 22.7526 118.501 21.2876C118.501 19.8263 119.692 18.6398 121.16 18.6398C121.895 18.6398 122.56 18.9356 123.041 19.4146L124.335 18.1265C123.522 17.3174 122.4 16.8179 121.16 16.8179C118.681 16.8179 116.672 18.8191 116.672 21.2876C116.672 23.7585 118.681 25.761 121.16 25.761C122.4 25.761 123.522 25.2596 124.334 24.4505L123.04 23.163ZM124.334 21.2876C124.334 18.8192 126.344 16.8173 128.823 16.8173C131.302 16.8173 133.312 18.8192 133.312 21.2876C133.312 23.7586 131.302 25.7611 128.823 25.7611C126.344 25.7611 124.334 23.7586 124.334 21.2876ZM128.823 23.9398C127.354 23.9398 126.164 22.7526 126.164 21.2876C126.164 19.8258 127.354 18.6398 128.823 18.6398C130.291 18.6398 131.483 19.8258 131.483 21.2876C131.483 22.7526 130.291 23.9398 128.823 23.9398ZM143.5 16.8179C145.581 16.8179 147.27 18.4965 147.276 20.5682H147.276V25.7529H145.389V20.58C145.389 19.5404 144.543 18.6983 143.5 18.6983C142.457 18.6983 141.611 19.5404 141.611 20.58V25.7529H139.723V20.58C139.723 19.5404 138.878 18.6983 137.835 18.6983C136.793 18.6983 135.947 19.5404 135.947 20.58V25.7529H134.059V16.8179H135.947V17.3249C136.502 17.0028 137.147 16.8179 137.835 16.8179C138.964 16.8179 139.975 17.3143 140.667 18.0966C141.36 17.3143 142.37 16.8179 143.5 16.8179Z" fill="#284377"/>
<path fill-rule="evenodd" clip-rule="evenodd" d="M38.7841 3.79045V3.79294H40.1139V6.00849C40.1139 6.6214 39.6138 7.11845 38.9992 7.11845V7.12156H37.8863V13.435V16.6365V25.7217H35.6579C34.7664 25.7217 33.9992 25.1985 33.6428 24.4449C32.2842 25.2789 30.6855 25.761 28.973 25.761C24.0506 25.761 20.0592 21.7846 20.0592 16.8807C20.0592 11.9768 24.0506 8.00168 28.973 8.00168C30.5974 8.00168 32.1185 8.43644 33.429 9.19261V7.12156H32.8713V7.12032H31.2026V4.90289C31.2026 4.28999 31.7015 3.79294 32.3174 3.79294V3.79045H33.429V1.20117H35.6579C36.8884 1.20117 37.8863 2.19527 37.8863 3.42108V3.79045H38.7841ZM96.6025 4.58848C96.6025 4.58848 95.9053 3.79058 95.2063 3.79058H94.7524H94.2991C93.5995 3.79058 92.903 4.58848 92.903 4.58848L90.6084 7.1217H92.7648C93.779 7.1217 94.2985 6.46207 94.2985 6.46207L94.7524 5.95942L95.2063 6.46207C95.2063 6.46207 95.7265 7.1217 96.74 7.1217H98.8971L96.6025 4.58848ZM94.7713 21.3205C92.3104 21.3205 90.3153 19.333 90.3153 16.8807C90.3153 14.4291 92.3104 12.4409 94.7713 12.4409C97.2328 12.4409 99.2285 14.4291 99.2285 16.8807C99.2285 19.333 97.2328 21.3205 94.7713 21.3205ZM94.7713 8.00169C89.8483 8.00169 85.8587 11.9768 85.8587 16.8807C85.8587 21.7846 89.8483 25.761 94.7713 25.761C99.6943 25.761 103.685 21.7846 103.685 16.8807C103.685 11.9768 99.6943 8.00169 94.7713 8.00169ZM99.1552 3.79058C99.853 3.79058 100.551 4.58848 100.551 4.58848L102.845 7.1217H100.688C99.9486 7.1217 99.5016 6.7704 99.299 6.58042L96.7744 3.79058H99.1552ZM54.5984 8.00169H52.3701V9.19262C51.059 8.43645 49.5385 8.00169 47.9142 8.00169C42.9911 8.00169 39.0003 11.9768 39.0003 16.8807C39.0003 21.7846 42.9911 25.761 47.9142 25.761C49.6204 25.761 51.2141 25.282 52.569 24.453C52.9191 25.2234 53.695 25.761 54.5984 25.761H56.8268V14.2908V13.4742V10.2216C56.8268 8.99516 55.8289 8.00169 54.5984 8.00169ZM43.4569 16.8807C43.4569 19.333 45.452 21.3205 47.9141 21.3205C50.375 21.3205 52.3701 19.333 52.3701 16.8807C52.3701 14.4291 50.375 12.4409 47.9141 12.4409C45.452 12.4409 43.4569 14.4291 43.4569 16.8807ZM51.1539 4.58848C51.1539 4.58848 50.4567 3.79058 49.7577 3.79058H49.3044H48.8499C48.1515 3.79058 47.4544 4.58848 47.4544 4.58848L45.1598 7.1217H47.3168C48.3297 7.1217 48.8499 6.46207 48.8499 6.46207L49.3044 5.95942L49.7584 6.46207C49.7584 6.46207 50.2779 7.1217 51.2914 7.1217H53.4491L51.1539 4.58848ZM28.973 21.3205C26.5109 21.3205 24.5164 19.333 24.5164 16.8807C24.5164 14.4291 26.5109 12.4409 28.973 12.4409C31.4339 12.4409 33.429 14.4291 33.429 16.8807C33.429 19.333 31.4339 21.3205 28.973 21.3205ZM104.749 8.00148H106.976C108.207 8.00148 109.205 8.99559 109.205 10.2214V13.4747V14.2906V25.7608H106.976C105.746 25.7608 104.749 24.7673 104.749 23.5415V14.2906V13.4747V8.00148ZM104.769 6.00849C104.769 6.57094 105.191 7.04744 105.734 7.12156H105.883H107.524H108.228V7.12032H109.193V4.90289C109.193 4.34106 108.772 3.86395 108.228 3.79045H108.113H106.438H105.734V3.79169H104.769L104.769 6.00849ZM71.5143 8.00175C71.7688 8.0005 74.7192 8.00361 74.7192 8.00361L70.0463 20.7743H70.0476L66.6282 30.2333C66.3012 31.1308 65.4546 31.6895 64.5506 31.6958C64.2923 31.6976 61.3719 31.6958 61.3719 31.6958L63.9629 24.5147L57.9413 8.00361C57.9413 8.00361 60.8905 8.00175 61.1468 8.00175C62.0534 8.00548 62.905 8.5642 63.2326 9.46238L66.3306 17.9571L69.428 9.46238C69.7556 8.5642 70.6071 8.00424 71.5143 8.00175ZM81.2029 9.30864C80.8534 8.53877 80.0775 8.00124 79.1734 8.00124H76.9451V13.4744V14.291V23.5412C76.9451 24.7671 77.9429 25.7612 79.1734 25.7612H81.4023V16.8809C81.4023 14.7419 82.9204 12.958 84.9411 12.5357C85.4269 12.3221 85.7839 11.8724 85.8583 11.3292V8.00124C84.1521 8.00124 82.5584 8.4796 81.2029 9.30864ZM13.3698 8.00169H15.5981C16.828 8.00169 17.8265 8.99516 17.8265 10.2216V13.4742V14.2908V25.761H15.5981C14.6941 25.761 13.9182 25.2234 13.568 24.453C12.2132 25.282 10.6195 25.761 8.9126 25.761C3.99019 25.761 0 21.7846 0 16.8807C0 11.9768 3.99019 8.00169 8.9126 8.00169C10.5369 8.00169 12.0581 8.43645 13.3698 9.19262V8.00169ZM8.9132 23.163C8.9132 23.163 6.24536 20.6292 5.4707 19.6986C4.83485 18.9337 4.45659 17.9489 4.45659 16.8788C4.45659 14.426 6.45168 12.439 8.9132 12.439C11.3753 12.439 13.3698 14.426 13.3698 16.8788C13.3698 17.924 13.0141 18.8907 12.3982 19.6419C11.6073 20.6061 8.9132 23.163 8.9132 23.163ZM6.68492 16.8792C6.68492 15.6534 7.68215 14.6593 8.91322 14.6593C10.1437 14.6593 11.1415 15.6534 11.1415 16.8792C11.1415 18.1044 10.1437 19.0985 8.91322 19.0985C7.68215 19.0985 6.68492 18.1044 6.68492 16.8792Z" fill="#E53935"/>
</svg>
