<svg width="48" height="30" viewBox="0 0 48 30" fill="none" xmlns="http://www.w3.org/2000/svg">
<mask id="mask0" mask-type="alpha" maskUnits="userSpaceOnUse" x="0" y="0" width="48" height="30">
<rect width="48" height="30" rx="2" fill="white"/>
</mask>
<g mask="url(#mask0)">
<path d="M0 2C0 0.89543 0.895431 0 2 0H46C47.1046 0 48 0.895431 48 2V28C48 29.1046 47.1046 30 46 30H2C0.895431 30 0 29.1046 0 28V2Z" fill="#2E4170"/>
<path d="M8.609 22.409C10.8703 22.2865 12.5895 22.4475 14.0485 22.8343C15.8557 23.3135 17.2823 24.1439 18.862 25.2472L19.534 25.7165L19.2383 24.952C17.7933 21.2165 18.0512 18.7412 18.9711 17.0247C19.8978 15.2954 21.5235 14.281 22.938 13.5269L22.8259 13.3166L22.938 13.5269C24.1793 12.865 26.3438 12.2319 28.9598 11.6264C28.7509 11.6881 28.5482 11.7512 28.3523 11.8158C27.3657 12.1411 26.5347 12.5099 25.9531 12.9362L25.9531 12.9362C23.6223 14.645 23.3732 17.2432 23.681 19.355C23.8354 20.414 24.1312 21.3664 24.3874 22.0527C24.5157 22.3963 24.6345 22.6744 24.7216 22.8673C24.7651 22.9638 24.8008 23.039 24.8257 23.0905C24.8382 23.1163 24.848 23.1361 24.8548 23.1497L24.8617 23.1634C24.9443 23.3544 25.0286 23.5479 25.1137 23.7432C25.833 25.3933 26.6086 27.1728 26.8555 28.7096C26.9931 29.5665 26.9598 30.3139 26.6859 30.9071C26.4175 31.4886 25.9016 31.9569 24.9947 32.2311C24.088 32.5052 22.9209 32.4565 21.656 32.2094C20.3965 31.9635 19.0673 31.5265 17.8509 31.0506C16.6356 30.575 15.539 30.0628 14.7459 29.6693C14.726 29.6595 14.7063 29.6497 14.6868 29.6399C15.4671 29.7138 16.0802 29.7255 16.5605 29.6924C17.2857 29.6423 17.7472 29.4876 18.0162 29.2495C18.3076 28.9916 18.3343 28.6743 18.2827 28.4296C18.2397 28.2261 18.1378 28.0531 18.1045 27.9966L8.609 22.409ZM8.609 22.409C10.5051 22.8898 12.3364 23.63 13.8878 24.4716C14.8957 25.0184 15.7896 25.6101 16.5087 26.205C17.2249 26.7975 17.78 27.4033 18.0956 27.9814L8.609 22.409ZM60.3207 -10.3401L61.3866 -9.93118C61.3855 -9.92847 61.3843 -9.92575 61.3832 -9.923C61.3172 -9.76408 61.2181 -9.53033 61.0865 -9.23238C60.8232 -8.63643 60.4296 -7.7839 59.9095 -6.75986C58.8689 -4.71116 57.3234 -1.9792 55.303 0.756872C53.0316 3.83309 50.7213 5.86291 48.2154 7.22378C45.7082 8.58533 42.991 9.28512 39.8935 9.68182C38.4847 9.86222 37.0169 10.0574 35.5776 10.2762C36.7009 10.066 37.8301 9.85989 38.9388 9.65751C39.1705 9.61522 39.4013 9.57309 39.6309 9.53112C43.1257 8.89257 45.9764 7.89021 48.4216 6.37529C50.8676 4.85983 52.8959 2.83882 54.7552 0.178825C56.8001 -2.74652 58.2115 -5.43557 59.112 -7.39432C59.5623 -8.37381 59.885 -9.17103 60.0954 -9.72432C60.1952 -9.98651 60.2697 -10.1939 60.3207 -10.3401Z" stroke="white" stroke-width="0.5"/>
<path fill-rule="evenodd" clip-rule="evenodd" d="M32.8696 8.65359C34.587 8.36291 36.2096 8.08816 37.79 7.7504C44.8337 6.24557 48.916 3.7533 52.3506 -1.13854C56.1145 -6.5002 58.1472 -11.9582 58.1674 -12.0128L58.2857 -12.3334H57.9254H56.5594H56.375L56.3166 -12.1685C56.2994 -12.1202 54.5708 -7.28943 51.0486 -1.96809C49.5415 0.309069 45.805 4.41095 37.7147 6.29482C36.4063 6.59975 34.9517 6.87136 33.4121 7.1589C28.1457 8.14248 22.1764 9.25716 18.8572 12.291L19.1756 12.6666C22.9746 10.3286 28.0048 9.4771 32.8696 8.65359Z" fill="white"/>
<path fill-rule="evenodd" clip-rule="evenodd" d="M29.0874 6.81538C30.4236 6.56675 31.9378 6.28469 33.8859 5.81183C40.3715 4.23683 44.8102 1.50232 47.4558 -2.54789C50.5174 -7.23497 53.0388 -14.8874 53.0639 -14.9642L53.1427 -15.2048L52.8906 -15.2662L51.4856 -15.6077L51.2422 -15.6667L51.1883 -15.4285C51.1768 -15.3778 50.0155 -10.3179 47.278 -5.23641C44.5117 -0.102544 40.4427 2.85121 33.6713 4.64024C32.3343 4.9934 31.1469 5.23208 29.9985 5.46318C26.9671 6.07279 24.3489 6.59922 20.5713 8.91894L20.8064 9.33325C24.334 7.70018 26.328 7.329 29.0874 6.81538Z" fill="white"/>
<path fill-rule="evenodd" clip-rule="evenodd" d="M28.6408 4.28742C29.7788 4.10104 30.9555 3.90839 32.3474 3.54955C37.6525 2.18196 41.9703 -0.787872 44.1931 -4.59887C46.511 -8.57257 47.9424 -14.8785 47.9566 -14.9416L47.9999 -15.1345L47.8059 -15.2062L46.8357 -15.5644L46.5585 -15.6667L46.5058 -15.3891C46.4975 -15.3455 45.6534 -10.9756 43.6324 -6.66232C41.6012 -2.32699 38.0016 0.452749 31.9612 2.35093C30.8511 2.69956 29.8488 2.90335 28.8794 3.10018C26.8202 3.51867 24.8754 3.91396 22.2856 5.60046L22.5325 5.99992C24.8886 4.90204 26.6274 4.61701 28.6408 4.28742Z" fill="white"/>
<path fill-rule="evenodd" clip-rule="evenodd" d="M8.03174 27.4256C6.68508 26.2333 5.41315 25.1066 3.0066 24.5566C2.35714 24.4086 1.62531 24.3333 0.831167 24.3333C-0.166413 24.3333 -1.02097 24.4528 -1.44168 24.524L-1.71436 24.5702L-1.62697 24.823L-1.48179 25.2427L-1.42282 25.4128L-1.23729 25.3994C-1.0852 25.3884 -0.942175 25.3714 -0.803688 25.3553C-0.502839 25.3195 -0.162115 25.2792 0.382757 25.2792C0.800365 25.2792 1.2834 25.3024 1.85931 25.3505C4.02161 25.5309 5.40862 26.55 6.99691 27.8637C8.22013 28.8756 9.56965 29.9043 11.4249 30.3945L13.7142 30.9999L11.5959 29.968C10.0544 29.2169 9.02621 28.3063 8.03174 27.4256Z" fill="white"/>
<path fill-rule="evenodd" clip-rule="evenodd" d="M6.57076 28.2073C5.43277 27.3213 4.35826 26.4848 2.36473 26.1216C1.92043 26.0407 1.42959 25.9999 0.90542 25.9999C0.795403 25.9999 0.683535 26.0016 0.570345 26.0052C0.233683 26.016 -0.0786484 26.0174 -0.313228 26.0174L-0.586683 26.0169L-0.812535 26.0165C-1.03706 26.0165 -1.21399 26.0184 -1.34834 26.0282L-1.71436 26.0551L-1.57049 26.3616L-1.37637 26.7764L-1.29994 26.9392L-1.10609 26.9214C-1.09551 26.9219 -1.05531 26.9344 -1.02834 26.9426C-0.961957 26.9627 -0.879709 26.9882 -0.783444 26.9882C-0.75832 26.9882 -0.733196 26.9865 -0.708336 26.9829C-0.538286 26.9584 -0.337029 26.9531 -0.0585493 26.9464C0.0332196 26.944 0.133187 26.9414 0.242675 26.938C0.353749 26.9344 0.470378 26.9327 0.593353 26.9327C0.8438 26.9327 1.11778 26.9399 1.43117 26.9546C3.17055 27.0358 4.10543 27.648 5.60811 28.7228C6.80031 29.5759 8.00865 30.3636 9.68085 30.6302L11.9999 30.9999L9.82868 30.1722C8.39 29.6234 7.46517 28.9034 6.57076 28.2073Z" fill="white"/>
<path fill-rule="evenodd" clip-rule="evenodd" d="M9.34566 9.78442C9.37316 9.83392 9.39632 9.87683 9.39632 9.95259V10.7942C9.39632 10.8772 9.38033 10.937 9.34566 10.9868H9.92866C9.90081 10.9367 9.878 10.8955 9.878 10.8185V10.4819H10.0044C10.0394 10.4819 10.0964 10.6269 10.1245 10.6987C10.1296 10.7116 10.1337 10.7221 10.1366 10.729C10.1473 10.7548 10.1615 10.7851 10.1761 10.8166C10.2044 10.8772 10.2346 10.942 10.2457 10.9868H10.8036L10.5348 10.4824C10.6708 10.4819 10.7272 10.4226 10.7272 10.3011V10.0368C10.7272 9.86475 10.582 9.78442 10.3975 9.78442H9.34566ZM7.85425 10.0607V10.7221C7.85425 10.9032 7.94622 10.9868 8.13299 10.9868H8.60214C8.69871 10.9868 8.71967 10.9631 8.74068 10.9394C8.75288 10.9256 8.7651 10.9118 8.79215 10.9026V10.9506C8.79215 11.0032 9.02707 10.9939 9.15624 10.9888L9.15625 10.9888C9.18487 10.9877 9.20829 10.9868 9.22282 10.9868L9.21749 10.9792C9.19289 10.9441 9.17252 10.9151 9.17252 10.8544V10.4096C9.17252 10.3686 9.18216 10.3475 9.19245 10.3251C9.19878 10.3112 9.20535 10.2969 9.21007 10.277H8.42485V10.4937C8.45482 10.4797 8.48055 10.4698 8.52598 10.4698H8.69084V10.7339C8.69084 10.7731 8.64452 10.7942 8.60214 10.7942H8.43778C8.36183 10.7942 8.33593 10.7457 8.33593 10.6743V10.085C8.33593 10.0411 8.37118 9.9888 8.41262 9.9888H8.99456C9.03997 9.9888 9.0689 9.99622 9.10062 10.0044C9.11128 10.0071 9.12225 10.0099 9.13426 10.0126C9.13426 9.95615 9.1262 9.78443 9.07121 9.78443H8.17107C7.96942 9.78443 7.85425 9.86342 7.85425 10.0607ZM14.8657 10.3615H14.5745V9.98861H14.8533C14.9126 9.98861 14.942 10.0168 14.942 10.0727V10.2174C14.942 10.279 14.9273 10.3615 14.8657 10.3615ZM14.0925 9.95257V10.8424C14.0925 10.9039 14.0681 10.9491 14.0424 10.9868H14.625C14.5972 10.9367 14.5745 10.8955 14.5745 10.8185V10.5537H15.1317C15.2879 10.5537 15.4234 10.4904 15.4234 10.3495V10.0009C15.4234 9.85455 15.2632 9.78445 15.1067 9.78445H14.0424C14.0484 9.80573 14.0563 9.82005 14.0641 9.83412V9.83412C14.0785 9.86024 14.0925 9.88546 14.0925 9.95257ZM12.4758 10.3069C12.4829 10.1023 12.4898 9.90133 12.4251 9.78444H13.0077C13.0012 9.80757 12.9938 9.8251 12.9866 9.84191V9.84191L12.9866 9.84191L12.9866 9.84192L12.9866 9.84192C12.9713 9.8781 12.9574 9.9109 12.9574 9.9888V10.6982C12.9574 10.7342 12.9704 10.7499 12.985 10.7676L12.985 10.7676C12.9883 10.7716 12.9917 10.7756 12.995 10.78L13.1604 10.7942H13.4899C13.5361 10.7942 13.591 10.7611 13.591 10.7221V9.95272C13.591 9.88532 13.5769 9.86011 13.5623 9.83391L13.5623 9.83391C13.5544 9.8199 13.5464 9.80561 13.5404 9.78444H13.8574C13.8519 9.80398 13.8435 9.81744 13.8351 9.831L13.8351 9.831C13.8222 9.85176 13.8091 9.87275 13.8059 9.91619C13.8034 9.95415 13.8045 9.99946 13.8055 10.0431C13.806 10.0659 13.8065 10.0883 13.8065 10.1089V10.4819C13.8065 10.5099 13.8072 10.5367 13.8079 10.5625V10.5625V10.5625V10.5626V10.5626C13.8105 10.6614 13.8128 10.7453 13.7732 10.8226C13.7379 10.8911 13.6345 10.9868 13.5404 10.9868H12.7546C12.4525 10.9868 12.4643 10.6421 12.4758 10.3069ZM10.1819 9.98879H9.878V10.277H10.1693C10.1924 10.277 10.2002 10.2747 10.2117 10.2712C10.2173 10.2695 10.2237 10.2675 10.2332 10.2654C10.2354 10.2562 10.2375 10.2501 10.2394 10.2447C10.2431 10.2342 10.2457 10.2267 10.2457 10.2051V10.0486C10.2457 10.0204 10.2115 9.98879 10.1819 9.98879ZM10.8794 10.6743C10.8794 10.8568 10.9883 10.9868 11.1832 10.9868H11.9944C12.1316 10.9868 12.2606 10.8499 12.2606 10.71V10.181C12.2606 9.9509 12.1816 9.78443 11.9438 9.78443H11.2719C10.9987 9.78443 10.8794 9.88439 10.8794 10.145V10.6743ZM11.4876 9.98877C11.4309 9.98877 11.3601 10.0115 11.3601 10.0607V10.6981C11.3601 10.7342 11.3735 10.7499 11.3887 10.7675C11.392 10.7714 11.3955 10.7754 11.3989 10.7798L11.5638 10.7942L11.5764 10.7972L11.7407 10.7824C11.7445 10.7769 11.7484 10.7719 11.7522 10.7672C11.7665 10.7489 11.779 10.7331 11.779 10.6981V10.085C11.779 10.0132 11.7283 9.98877 11.6523 9.98877H11.4876Z" fill="white"/>
<path fill-rule="evenodd" clip-rule="evenodd" d="M3.42847 9.18555C3.52009 9.36612 3.57799 9.54179 3.63813 9.72425C3.67526 9.83693 3.71325 9.9522 3.76057 10.0728C3.80529 10.1877 4.05636 10.8997 4.06265 10.9771H4.79576C4.83123 10.8182 4.9104 10.6212 4.98769 10.4289L4.98769 10.4289C5.03921 10.3007 5.08988 10.1747 5.12622 10.0633C5.21819 9.7824 5.35037 9.40648 5.49194 9.18555H5.0815V9.31553C5.0815 9.42649 4.96094 9.73437 4.84559 10.029L4.84559 10.029L4.84559 10.029C4.7574 10.2542 4.67226 10.4716 4.64636 10.5874H4.62191C4.61683 10.5251 4.5123 10.232 4.45032 10.0583L4.45032 10.0583L4.45032 10.0583C4.43341 10.0109 4.41967 9.9724 4.41198 9.94987C4.40307 9.92347 4.38888 9.88431 4.37205 9.83789L4.37204 9.83788C4.30981 9.66623 4.21157 9.39527 4.21157 9.30244V9.2767C4.21157 9.25131 4.21448 9.2385 4.2176 9.2248C4.22 9.21427 4.22252 9.20322 4.22392 9.18555H3.42847ZM5.51255 9.78438C5.5404 9.83388 5.56338 9.87517 5.56338 9.95267V10.8543C5.56338 10.8956 5.55357 10.9166 5.54304 10.9392C5.53665 10.9528 5.53001 10.9671 5.52512 10.9867H6.09537C6.07526 10.9512 6.04471 10.8837 6.04471 10.8302V9.94055C6.04471 9.89365 6.05797 9.86834 6.07169 9.84217C6.08054 9.82528 6.08958 9.80803 6.09537 9.78438H5.51255ZM6.31091 9.94055C6.31091 9.89711 6.26721 9.81222 6.24728 9.78438L6.93788 9.78713L7.4262 10.7339V10.2413C7.4262 10.2132 7.42614 10.1851 7.42607 10.157C7.42595 10.1008 7.42582 10.0446 7.4262 9.98838C7.4269 9.89964 7.41527 9.87653 7.40041 9.847C7.39258 9.83143 7.38384 9.81407 7.37555 9.78438H7.69237C7.66434 9.82305 7.62914 9.89974 7.62914 9.96463V10.9867H7.04579C7.0025 10.9867 6.86719 10.7095 6.74105 10.451C6.64526 10.2547 6.55477 10.0693 6.51385 10.0243C6.51385 10.0891 6.51093 10.1664 6.50781 10.2491C6.49765 10.5183 6.48533 10.8449 6.56446 10.9867H6.26021C6.26614 10.9657 6.27384 10.9492 6.28144 10.933C6.29637 10.9012 6.31091 10.8702 6.31091 10.8065V9.94055Z" fill="white"/>
<path fill-rule="evenodd" clip-rule="evenodd" d="M9.42805 4.33325C7.97255 4.33325 6.78516 5.42293 6.78516 6.75749C6.78516 8.09174 7.97255 9.18174 9.42805 9.18174C10.8844 9.18174 12.0719 8.09206 12.0719 6.75749C12.0719 5.42293 10.8844 4.33325 9.42805 4.33325ZM7.83003 8.08913L7.73816 8.27265L7.67089 8.08362L7.45648 8.05803L7.62718 7.93984L7.58659 7.74234L7.75946 7.85664L7.94908 7.75992L7.88553 7.94857L8.0439 8.08875L7.83003 8.08913ZM8.56895 8.72719L8.58849 8.53481L8.79914 8.46668L8.59194 8.3894L8.58234 8.19689L8.43463 8.34291L8.22057 8.29113L8.33432 8.45703L8.21173 8.62026L8.42986 8.57612L8.56895 8.72719ZM9.60202 8.72719L9.42294 8.61513L9.23839 8.718L9.29564 8.5244L9.13481 8.39134L9.34912 8.38128L9.43422 8.19689L9.50918 8.38595L9.72222 8.40348L9.55533 8.52928L9.60202 8.72719ZM10.2836 8.72719L10.4261 8.57761L10.6453 8.62352L10.5243 8.45946L10.6412 8.29441L10.4242 8.34446L10.2791 8.19689L10.2652 8.38959L10.0579 8.46446L10.2667 8.53449L10.2836 8.72719ZM9.97223 5.2492C9.62887 5.68211 9.87694 6.26123 10.0982 6.77784C10.3216 7.2993 10.5177 7.75708 10.0507 7.93651C9.71346 8.05883 8.89625 7.82182 8.36611 7.55907C9.68303 7.65844 8.46803 6.69015 7.45648 6.47511C8.56858 6.37934 9.19702 7.04665 9.20932 7.0621L9.20621 7.05693C9.13692 6.94319 7.99644 5.07126 10.8967 4.7878L10.8969 4.7897L10.897 4.79112C10.4165 4.86492 10.1501 5.02452 9.97223 5.2492ZM11.2032 8.27265L11.2723 8.08107L11.4845 8.05729L11.3089 7.93564L11.3486 7.74234L11.1731 7.85901L10.9863 7.76457L11.0514 7.95564L10.897 8.09094L11.1128 8.09267L11.2032 8.27265Z" fill="white"/>
<mask id="mask1" mask-type="alpha" maskUnits="userSpaceOnUse" x="6" y="4" width="7" height="6">
<path fill-rule="evenodd" clip-rule="evenodd" d="M9.42805 4.33325C7.97255 4.33325 6.78516 5.42293 6.78516 6.75749C6.78516 8.09174 7.97255 9.18174 9.42805 9.18174C10.8844 9.18174 12.0719 8.09206 12.0719 6.75749C12.0719 5.42293 10.8844 4.33325 9.42805 4.33325ZM7.83003 8.08913L7.73816 8.27265L7.67089 8.08362L7.45648 8.05803L7.62718 7.93984L7.58659 7.74234L7.75946 7.85664L7.94908 7.75992L7.88553 7.94857L8.0439 8.08875L7.83003 8.08913ZM8.56895 8.72719L8.58849 8.53481L8.79914 8.46668L8.59194 8.3894L8.58234 8.19689L8.43463 8.34291L8.22057 8.29113L8.33432 8.45703L8.21173 8.62026L8.42986 8.57612L8.56895 8.72719ZM9.60202 8.72719L9.42294 8.61513L9.23839 8.718L9.29564 8.5244L9.13481 8.39134L9.34912 8.38128L9.43422 8.19689L9.50918 8.38595L9.72222 8.40348L9.55533 8.52928L9.60202 8.72719ZM10.2836 8.72719L10.4261 8.57761L10.6453 8.62352L10.5243 8.45946L10.6412 8.29441L10.4242 8.34446L10.2791 8.19689L10.2652 8.38959L10.0579 8.46446L10.2667 8.53449L10.2836 8.72719ZM9.97223 5.2492C9.62887 5.68211 9.87694 6.26123 10.0982 6.77784C10.3216 7.2993 10.5177 7.75708 10.0507 7.93651C9.71346 8.05883 8.89625 7.82182 8.36611 7.55907C9.68303 7.65844 8.46803 6.69015 7.45648 6.47511C8.56858 6.37934 9.19702 7.04665 9.20932 7.0621L9.20621 7.05693C9.13692 6.94319 7.99644 5.07126 10.8967 4.7878L10.8969 4.7897L10.897 4.79112C10.4165 4.86492 10.1501 5.02452 9.97223 5.2492ZM11.2032 8.27265L11.2723 8.08107L11.4845 8.05729L11.3089 7.93564L11.3486 7.74234L11.1731 7.85901L10.9863 7.76457L11.0514 7.95564L10.897 8.09094L11.1128 8.09267L11.2032 8.27265Z" fill="white"/>
</mask>
<g mask="url(#mask1)">
</g>
</g>
</svg>
