<svg width="176" height="48" viewBox="0 0 176 48" fill="none" xmlns="http://www.w3.org/2000/svg">
<rect width="176" height="48" rx="4" fill="#333333"/>
<path fill-rule="evenodd" clip-rule="evenodd" d="M24.8613 15.5273C25.6483 14.7093 26.972 14.067 28.125 14C28.318 15.12 27.785 16.2073 27.082 16.9863C26.329 17.8193 25.0714 18.4783 23.8184 18.4453C23.5894 17.3763 24.1503 16.2713 24.8613 15.5273ZM25.9202 19.0751C26.5323 18.7744 27.2061 18.4434 28.1934 18.4434C29.5584 18.4434 31.8527 19.6727 32.6387 21.0137C28.4747 22.1717 29.1657 27.7723 32.6387 28.6523C32.1707 29.6923 31.9224 30.162 31.3184 31.082C30.4764 32.367 29.3237 33.989 27.8477 34C27.2416 34.0051 26.8337 33.8249 26.3947 33.6309C25.884 33.4053 25.3311 33.161 24.375 33.168C23.4267 33.1728 22.8943 33.4134 22.4047 33.6346C21.9774 33.8277 21.5827 34.0061 20.9727 34C18.8177 34 15 29.3243 15 25.1113C15 20.4803 18.2257 18.5147 20.3477 18.5137C21.1648 18.5137 21.8773 18.7993 22.5558 19.0714C23.1725 19.3187 23.7612 19.5547 24.375 19.5547C24.9441 19.5547 25.4108 19.3254 25.9202 19.0751Z" fill="white"/>
<path d="M54.8848 10.1943H52.1426V17.7998H51.0234V10.1943H48.2871V9.26855H54.8848V10.1943ZM59.2266 17.7998C59.1641 17.6748 59.1133 17.4521 59.0742 17.1318C58.5703 17.6553 57.9688 17.917 57.2695 17.917C56.6445 17.917 56.1309 17.7412 55.7285 17.3896C55.3301 17.0342 55.1309 16.585 55.1309 16.042C55.1309 15.3818 55.3809 14.8701 55.8809 14.5068C56.3848 14.1396 57.0918 13.9561 58.002 13.9561H59.0566V13.458C59.0566 13.0791 58.9434 12.7783 58.7168 12.5557C58.4902 12.3291 58.1562 12.2158 57.7148 12.2158C57.3281 12.2158 57.0039 12.3135 56.7422 12.5088C56.4805 12.7041 56.3496 12.9404 56.3496 13.2178H55.2598C55.2598 12.9014 55.3711 12.5967 55.5938 12.3037C55.8203 12.0068 56.125 11.7725 56.5078 11.6006C56.8945 11.4287 57.3184 11.3428 57.7793 11.3428C58.5098 11.3428 59.082 11.5264 59.4961 11.8936C59.9102 12.2568 60.125 12.7588 60.1406 13.3994V16.3174C60.1406 16.8994 60.2148 17.3623 60.3633 17.7061V17.7998H59.2266ZM57.4277 16.9736C57.7676 16.9736 58.0898 16.8857 58.3945 16.71C58.6992 16.5342 58.9199 16.3057 59.0566 16.0244V14.7236H58.207C56.8789 14.7236 56.2148 15.1123 56.2148 15.8896C56.2148 16.2295 56.3281 16.4951 56.5547 16.6865C56.7812 16.8779 57.0723 16.9736 57.4277 16.9736ZM57.5332 10.4346L57.5273 9.53809C57.8203 9.51855 58.0352 9.47949 58.1719 9.4209C58.3086 9.3623 58.377 9.25684 58.377 9.10449C58.377 8.95215 58.2871 8.83887 58.1074 8.76465C57.9316 8.68652 57.6973 8.64746 57.4043 8.64746L57.4453 8.02637C58.0273 8.02637 58.4688 8.12793 58.7695 8.33105C59.0703 8.53027 59.2207 8.7959 59.2207 9.12793C59.2207 9.36621 59.1445 9.56348 58.9922 9.71973C58.8398 9.87598 58.6133 9.97559 58.3125 10.0186L58.3066 10.4346H57.5332ZM63.0176 17.7998H61.9336V11.46H63.0176V17.7998ZM61.8457 9.77832C61.8457 9.60254 61.8984 9.4541 62.0039 9.33301C62.1133 9.21191 62.2734 9.15137 62.4844 9.15137C62.6953 9.15137 62.8555 9.21191 62.9648 9.33301C63.0742 9.4541 63.1289 9.60254 63.1289 9.77832C63.1289 9.9541 63.0742 10.1006 62.9648 10.2178C62.8555 10.335 62.6953 10.3936 62.4844 10.3936C62.2734 10.3936 62.1133 10.335 62.0039 10.2178C61.8984 10.1006 61.8457 9.9541 61.8457 9.77832ZM69.8262 16.3291L71.3965 11.46H72.5039L70.2305 17.7998H69.4043L67.1074 11.46H68.2148L69.8262 16.3291ZM76.0957 17.917C75.2363 17.917 74.5371 17.6357 73.998 17.0732C73.459 16.5068 73.1895 15.751 73.1895 14.8057V14.6064C73.1895 13.9775 73.3086 13.417 73.5469 12.9248C73.7891 12.4287 74.125 12.042 74.5547 11.7646C74.9883 11.4834 75.457 11.3428 75.9609 11.3428C76.7852 11.3428 77.4258 11.6143 77.8828 12.1572C78.3398 12.7002 78.5684 13.4775 78.5684 14.4893V14.9404H74.2734C74.2891 15.5654 74.4707 16.0713 74.8184 16.458C75.1699 16.8408 75.6152 17.0322 76.1543 17.0322C76.5371 17.0322 76.8613 16.9541 77.127 16.7979C77.3926 16.6416 77.625 16.4346 77.8242 16.1768L78.4863 16.6924C77.9551 17.5088 77.1582 17.917 76.0957 17.917ZM75.9609 12.2334C75.5234 12.2334 75.1562 12.3936 74.8594 12.7139C74.5625 13.0303 74.3789 13.4756 74.3086 14.0498H77.4844V13.9678C77.4531 13.417 77.3047 12.9912 77.0391 12.6904C76.7734 12.3857 76.4141 12.2334 75.9609 12.2334ZM78.0938 10.5459H76.9395L75.9434 9.62012L74.9473 10.5459H73.7988L75.498 9.01074H76.3887L78.0938 10.5459ZM74.2266 9.50879H73.4062L72.2344 7.99707H73.4004L74.2266 9.50879ZM84.2754 9.9248V11.46H85.459V12.2979H84.2754V16.2295C84.2754 16.4834 84.3281 16.6748 84.4336 16.8037C84.5391 16.9287 84.7188 16.9912 84.9727 16.9912C85.0977 16.9912 85.2695 16.9678 85.4883 16.9209V17.7998C85.2031 17.8779 84.9258 17.917 84.6562 17.917C84.1719 17.917 83.8066 17.7705 83.5605 17.4775C83.3145 17.1846 83.1914 16.7686 83.1914 16.2295V12.2979H82.0371V11.46H83.1914V9.9248H84.2754ZM90.6445 17.7998C90.582 17.6748 90.5312 17.4521 90.4922 17.1318C89.9883 17.6553 89.3867 17.917 88.6875 17.917C88.0625 17.917 87.5488 17.7412 87.1465 17.3896C86.748 17.0342 86.5488 16.585 86.5488 16.042C86.5488 15.3818 86.7988 14.8701 87.2988 14.5068C87.8027 14.1396 88.5098 13.9561 89.4199 13.9561H90.4746V13.458C90.4746 13.0791 90.3613 12.7783 90.1348 12.5557C89.9082 12.3291 89.5742 12.2158 89.1328 12.2158C88.7461 12.2158 88.4219 12.3135 88.1602 12.5088C87.8984 12.7041 87.7676 12.9404 87.7676 13.2178H86.6777C86.6777 12.9014 86.7891 12.5967 87.0117 12.3037C87.2383 12.0068 87.543 11.7725 87.9258 11.6006C88.3125 11.4287 88.7363 11.3428 89.1973 11.3428C89.9277 11.3428 90.5 11.5264 90.9141 11.8936C91.3281 12.2568 91.543 12.7588 91.5586 13.3994V16.3174C91.5586 16.8994 91.6328 17.3623 91.7812 17.7061V17.7998H90.6445ZM88.8457 16.9736C89.1855 16.9736 89.5078 16.8857 89.8125 16.71C90.1172 16.5342 90.3379 16.3057 90.4746 16.0244V14.7236H89.625C88.2969 14.7236 87.6328 15.1123 87.6328 15.8896C87.6328 16.2295 87.7461 16.4951 87.9727 16.6865C88.1992 16.8779 88.4902 16.9736 88.8457 16.9736ZM88.1719 19.2354C88.1719 19.0596 88.2246 18.9111 88.3301 18.79C88.4395 18.6689 88.5996 18.6084 88.8105 18.6084C89.0215 18.6084 89.1816 18.6689 89.291 18.79C89.4004 18.9111 89.4551 19.0596 89.4551 19.2354C89.4551 19.4111 89.4004 19.5576 89.291 19.6748C89.1816 19.792 89.0215 19.8506 88.8105 19.8506C88.5996 19.8506 88.4395 19.792 88.3301 19.6748C88.2246 19.5576 88.1719 19.4111 88.1719 19.2354ZM94.4355 17.7998H93.3516V11.46H94.4355V17.7998ZM93.2637 9.77832C93.2637 9.60254 93.3164 9.4541 93.4219 9.33301C93.5312 9.21191 93.6914 9.15137 93.9023 9.15137C94.1133 9.15137 94.2734 9.21191 94.3828 9.33301C94.4922 9.4541 94.5469 9.60254 94.5469 9.77832C94.5469 9.9541 94.4922 10.1006 94.3828 10.2178C94.2734 10.335 94.1133 10.3936 93.9023 10.3936C93.6914 10.3936 93.5312 10.335 93.4219 10.2178C93.3164 10.1006 93.2637 9.9541 93.2637 9.77832Z" fill="white"/>
<path fill-rule="evenodd" clip-rule="evenodd" d="M56.3828 36L55.3516 32.9531H51.0547L50.0234 36H48.2031L52.2734 24.7266H54.1641L58.2344 36H56.3828ZM53.1797 26.6016L51.5 31.5469H54.9062L53.2266 26.6016H53.1797ZM63.6797 27.4297C65.8438 27.4297 67.2656 29.125 67.2656 31.7578C67.2656 34.3828 65.8516 36.0859 63.7188 36.0859C62.5 36.0859 61.5391 35.5469 61.0312 34.6094H61V38.7734H59.3047V27.5156H60.9375V28.9219H60.9766C61.4531 28.0078 62.5 27.4297 63.6797 27.4297ZM63.25 34.6484C64.625 34.6484 65.5312 33.5156 65.5312 31.7578C65.5312 30.0078 64.625 28.8672 63.25 28.8672C61.9062 28.8672 60.9922 30.0312 60.9844 31.7578C60.9922 33.4922 61.8984 34.6484 63.25 34.6484ZM72.9922 27.4297C75.1562 27.4297 76.5781 29.125 76.5781 31.7578C76.5781 34.3828 75.1641 36.0859 73.0312 36.0859C71.8125 36.0859 70.8516 35.5469 70.3438 34.6094H70.3125V38.7734H68.6172V27.5156H70.25V28.9219H70.2891C70.7656 28.0078 71.8125 27.4297 72.9922 27.4297ZM72.5625 34.6484C73.9375 34.6484 74.8438 33.5156 74.8438 31.7578C74.8438 30.0078 73.9375 28.8672 72.5625 28.8672C71.2188 28.8672 70.3047 30.0312 70.2969 31.7578C70.3047 33.4922 71.2109 34.6484 72.5625 34.6484ZM81.2891 32.8594H83.0156C83.1406 33.9766 84.2266 34.7109 85.7109 34.7109C87.1328 34.7109 88.1562 33.9766 88.1562 32.9688C88.1562 32.0938 87.5391 31.5703 86.0781 31.2109L84.6172 30.8594C82.5469 30.3594 81.5859 29.3906 81.5859 27.8203C81.5859 25.875 83.2812 24.5391 85.6875 24.5391C88.0703 24.5391 89.7031 25.875 89.7578 27.8203H88.0547C87.9531 26.6953 87.0234 26.0156 85.6641 26.0156C84.3047 26.0156 83.375 26.7031 83.375 27.7031C83.375 28.5 83.9688 28.9688 85.4219 29.3281L86.6641 29.6328C88.9766 30.1797 89.9375 31.1094 89.9375 32.7578C89.9375 34.8672 88.2578 36.1875 85.5859 36.1875C83.0859 36.1875 81.3984 34.8984 81.2891 32.8594ZM91.8438 25.6094H93.5312V27.5156H95.1562V28.8516H93.5312V33.5938C93.5312 34.3281 93.8594 34.6719 94.5703 34.6719C94.75 34.6719 95.0391 34.6484 95.1484 34.6328V35.9688C94.9609 36.0156 94.5625 36.0547 94.1953 36.0547C92.5 36.0547 91.8438 35.4062 91.8438 33.7656V28.8516H90.6719V27.5156H91.8438V25.6094ZM100.023 36.1016C97.5703 36.1016 96.0078 34.4297 96.0078 31.7578C96.0078 29.0938 97.5781 27.4062 100.023 27.4062C102.469 27.4062 104.031 29.0859 104.031 31.7578C104.031 34.4297 102.477 36.1016 100.023 36.1016ZM100.023 34.6953C101.461 34.6953 102.312 33.6094 102.312 31.7578C102.312 29.9062 101.461 28.8125 100.023 28.8125C98.5859 28.8125 97.7266 29.9141 97.7266 31.7578C97.7266 33.6094 98.5859 34.6953 100.023 34.6953ZM105.391 36V27.5156H107.008V28.9453H107.039C107.305 28 108.086 27.4297 109.086 27.4297C109.273 27.4297 109.516 27.4531 109.648 27.4922V29.0781C109.508 29.0234 109.156 28.9688 108.906 28.9688C107.789 28.9688 107.086 29.7422 107.086 30.9375V36H105.391ZM113.945 28.7891C112.727 28.7891 111.844 29.6797 111.75 30.9844H116.055C116.016 29.6641 115.18 28.7891 113.945 28.7891ZM116.047 33.5156H117.664C117.422 35.0391 115.93 36.1016 114.023 36.1016C111.562 36.1016 110.031 34.4453 110.031 31.7891C110.031 29.1328 111.578 27.4062 113.953 27.4062C116.281 27.4062 117.75 29.0234 117.75 31.5938V32.1875H111.742V32.2891C111.742 33.7578 112.664 34.7266 114.055 34.7266C115.039 34.7266 115.812 34.2578 116.047 33.5156Z" fill="white"/>
</svg>
