<svg width="113" height="20" viewBox="0 0 113 20" fill="none" xmlns="http://www.w3.org/2000/svg">
<path fill-rule="evenodd" clip-rule="evenodd" d="M68.3936 6.97119C68.5952 7.37952 68.7651 7.73352 68.7651 8.35852V15.3022C68.7651 15.9862 68.6478 16.4799 68.3936 16.8905H72.6689C72.4646 16.4772 72.2974 16.1375 72.2974 15.5022V12.7252H73.2245C73.4813 12.7252 73.8987 13.9217 74.1053 14.5136C74.1424 14.6201 74.1728 14.707 74.1941 14.7639C74.2723 14.9768 74.376 15.2269 74.4836 15.4864L74.4836 15.4864L74.4836 15.4865C74.691 15.9866 74.9128 16.5214 74.9936 16.8905H79.0854L77.114 12.7295C78.1109 12.7252 78.5246 12.2359 78.5246 11.2339V9.05319C78.5246 7.63386 77.4602 6.97119 76.1074 6.97119H68.3936ZM57.4565 9.25059V14.7073C57.4565 16.2013 58.131 16.8906 59.5007 16.8906H62.9411C63.6493 16.8906 63.8029 16.6953 63.957 16.4994C64.0465 16.3857 64.1361 16.2718 64.3345 16.1959V16.5919C64.3345 17.0258 66.0573 16.9495 67.0045 16.9075C67.2144 16.8982 67.3862 16.8906 67.4928 16.8906L67.4537 16.8278C67.2732 16.5388 67.1239 16.2995 67.1239 15.7986V12.1289C67.1239 11.7908 67.1946 11.617 67.27 11.4315C67.3164 11.3174 67.3646 11.199 67.3992 11.0353H61.6409V12.8226C61.8608 12.7076 62.0494 12.6253 62.3826 12.6253H63.5915V14.8046C63.5915 15.1279 63.2519 15.3019 62.9411 15.3019H61.7357C61.1788 15.3019 60.9889 14.9019 60.9889 14.3126V9.45092C60.9889 9.08859 61.2474 8.65725 61.5513 8.65725H65.8188C66.1518 8.65725 66.364 8.71852 66.5966 8.78568C66.6748 8.80824 66.7552 8.83146 66.8433 8.85325C66.8433 8.38792 66.7842 6.97125 66.3809 6.97125H59.7799C58.3011 6.97125 57.4565 7.62292 57.4565 9.25059ZM108.874 11.7317H106.739V8.65573H108.783C109.218 8.65573 109.434 8.88839 109.434 9.34939V10.5434C109.434 11.0514 109.326 11.7317 108.874 11.7317ZM103.204 8.3584V15.6994C103.204 16.2067 103.025 16.5797 102.836 16.8907H107.109C106.905 16.4771 106.739 16.1377 106.739 15.5024V13.3174H110.824C111.97 13.3174 112.963 12.7954 112.963 11.6327V8.75706C112.963 7.54973 111.789 6.9714 110.641 6.9714H102.836C102.88 7.14694 102.938 7.26514 102.995 7.38122V7.38122C103.101 7.59664 103.204 7.80473 103.204 8.3584ZM91.3482 11.2816C91.3997 9.59395 91.4503 7.93564 90.976 6.97128H95.2484C95.2008 7.16216 95.1463 7.30687 95.0941 7.44555C94.9817 7.74403 94.8798 8.01458 94.8798 8.65728V14.5096C94.8798 14.8072 94.9749 14.9364 95.0823 15.0823L95.0824 15.0824C95.1063 15.1149 95.1309 15.1483 95.1552 15.1846L96.368 15.3019H98.7849C99.1236 15.3019 99.5263 15.0289 99.5263 14.7073V8.35962C99.5263 7.80358 99.4229 7.59557 99.3154 7.37942C99.258 7.26384 99.1994 7.14595 99.1548 6.97128H101.48C101.439 7.13255 101.378 7.24359 101.316 7.35542C101.221 7.52674 101.126 7.69989 101.102 8.05828C101.084 8.37136 101.091 8.74518 101.099 9.10499V9.10512C101.103 9.29347 101.107 9.47799 101.107 9.64795V12.7253C101.107 12.9564 101.112 13.1778 101.117 13.3908C101.136 14.2066 101.152 14.8981 100.862 15.5359C100.604 16.1013 99.8452 16.8906 99.1548 16.8906H93.3926C91.1771 16.8906 91.2639 14.0467 91.3482 11.2816ZM74.5256 8.6572H72.2974V11.0352H74.4337C74.6031 11.0352 74.6601 11.0157 74.7444 10.9869C74.7853 10.9729 74.8326 10.9567 74.9023 10.9395C74.9184 10.8637 74.9341 10.813 74.9477 10.7688C74.9745 10.682 74.9936 10.6201 74.9936 10.4419V9.15054C74.9936 8.91787 74.7432 8.6572 74.5256 8.6572ZM79.6412 14.3126C79.6412 15.8186 80.4394 16.8906 81.8685 16.8906H87.8174C88.8241 16.8906 89.7697 15.7616 89.7697 14.6073V10.2433C89.7697 8.34459 89.1901 6.97125 87.4463 6.97125H82.5193C80.516 6.97125 79.6412 7.79592 79.6412 9.94559V14.3126ZM84.101 8.65726C83.6847 8.65726 83.1658 8.84493 83.1658 9.2506V14.5096C83.1658 14.8072 83.2644 14.9364 83.3752 15.0816C83.4 15.114 83.4253 15.1472 83.4503 15.1833L84.6595 15.3019L84.7518 15.3266L85.9568 15.2046C85.9849 15.1592 86.0135 15.1184 86.041 15.079C86.1464 14.9284 86.2374 14.7982 86.2374 14.5096V9.45093C86.2374 8.8586 85.8656 8.65726 85.3087 8.65726H84.101Z" fill="#333333"/>
<path fill-rule="evenodd" clip-rule="evenodd" d="M25 2.03076C25.6719 3.5205 26.0965 4.96973 26.5375 6.47509C26.8098 7.40466 27.0884 8.35563 27.4354 9.35076C27.7634 10.2984 29.6046 16.1728 29.6507 16.8111H35.0268C35.2869 15.5 35.8675 13.8749 36.4343 12.2885C36.8121 11.2311 37.1837 10.191 37.4502 9.27243C38.1247 6.95476 39.094 3.85343 40.1321 2.03076H37.1222V3.1031C37.1222 4.01854 36.2382 6.55859 35.3923 8.98893C34.7455 10.847 34.1211 12.641 33.9312 13.5958H33.7519C33.7147 13.0817 32.9481 10.6643 32.4936 9.2311L32.4936 9.23108C32.3696 8.84004 32.2688 8.52228 32.2124 8.33643C32.1471 8.11858 32.043 7.79553 31.9196 7.41254C31.4632 5.99643 30.7427 3.76096 30.7427 2.9951V2.78276C30.7427 2.57333 30.7641 2.46762 30.787 2.35459L30.787 2.35458C30.8046 2.26775 30.823 2.17659 30.8333 2.03076H25ZM40.2833 6.97115C40.4875 7.37949 40.6561 7.72015 40.6561 8.35949V15.7982C40.6561 16.1391 40.5841 16.3123 40.5069 16.4982C40.4601 16.6109 40.4113 16.7283 40.3755 16.8905H44.5573C44.4099 16.5972 44.1858 16.0402 44.1858 15.5995V8.25949C44.1858 7.87256 44.2831 7.66378 44.3837 7.44789C44.4486 7.30854 44.5149 7.16624 44.5573 6.97115H40.2833ZM46.1379 8.25949C46.1379 7.90115 45.8174 7.20082 45.6713 6.97115L50.7357 6.99382L54.3167 14.8045V10.7405C54.3167 10.5089 54.3163 10.2771 54.3158 10.0453C54.3149 9.58151 54.3139 9.11754 54.3167 8.65415C54.3218 7.92203 54.2366 7.73138 54.1276 7.4877C54.0701 7.35926 54.0061 7.21609 53.9453 6.97115H56.2687C56.0631 7.29015 55.8049 7.92282 55.8049 8.45815V16.8905H51.527C51.2096 16.8905 50.2173 14.6031 49.2923 12.4706C48.5899 10.8514 47.9262 9.32147 47.6261 8.95015C47.6261 9.48514 47.6048 10.1227 47.5819 10.8048C47.5074 13.0261 47.417 15.7207 47.9973 16.8905H45.7661C45.8096 16.7167 45.8661 16.5813 45.9219 16.4476C46.0313 16.1851 46.1379 15.9293 46.1379 15.4035V8.25949Z" fill="#333333"/>
<path fill-rule="evenodd" clip-rule="evenodd" d="M10 20C15.5228 20 20 15.5228 20 10C20 4.47715 15.5228 0 10 0C4.47715 0 0 4.47715 0 10C0 15.5228 4.47715 20 10 20ZM12.3019 5.37344C9.87172 8.76757 15.8529 14.4649 12.5784 15.8586C11.3905 16.3359 8.51192 15.4111 6.64455 14.386C11.2833 14.7737 7.00353 10.9957 3.44048 10.1566C7.35774 9.78297 9.57135 12.3866 9.61467 12.4469C9.5688 12.351 5.08775 4.70673 15.5582 3.57317C15.5582 3.57829 15.5595 3.58228 15.5595 3.58612C13.867 3.87407 12.9286 4.49681 12.3019 5.37344Z" fill="#333333"/>
</svg>
