<svg width="148" height="32" viewBox="0 0 148 32" fill="none" xmlns="http://www.w3.org/2000/svg">
<path d="M33.7996 7.39999L26.5996 24.3H30.6996L31.8996 21.5H39.0996L40.2996 24.3H44.3996L37.1996 7.39999H33.7996ZM32.9996 18.5L35.4996 12.4L37.9996 18.5H32.9996Z" fill="#E53935"/>
<path d="M54.1 14.4C53.9 14.3 53.7 14.2 53.4 14.1C53.1 14 52.9 13.9 52.6 13.8L51.4 13.4C51.3 13.4 51.2 13.3 51 13.2C50.9 13.1 50.7 13.1 50.6 13C50.3 12.8 50.2 12.7 50.1 12.5C50 12.3 50 12.1 50 11.8C50 11.4 50.2 11.1 50.6 10.8C51 10.5 51.5 10.4 52.1 10.4C53.5 10.4 54.5 10.8 55.2 11.7L57.8 9.8C56.5 8 54.5 7 52 7C50.4 7 49 7.4 47.9 8.3C46.8 9.1 46.2 10.3 46.2 11.8C46.2 13.1 46.6 14.1 47.3 14.8C48 15.6 49.1 16.2 50.4 16.7C50.5 16.7 50.7 16.8 50.8 16.9C51 17 51.2 17 51.3 17.1C51.5 17.2 51.7 17.2 51.8 17.3C52 17.4 52.1 17.4 52.2 17.5C52.4 17.6 52.7 17.7 53 17.8C53.3 17.9 53.5 18 53.7 18.2C54 18.4 54.2 18.6 54.4 18.8C54.6 19 54.7 19.3 54.7 19.6C54.7 20.1 54.5 20.4 54.1 20.8C53.7 21.1 53 21.3 52.1 21.3C50.1 21.3 48.7 20.6 47.8 19.1L45 20.8C45.6 21.9 46.5 22.8 47.7 23.5C48.9 24.2 50.4 24.5 52.1 24.5C54.2 24.5 55.8 24 56.9 23.1C58 22.2 58.5 20.9 58.5 19.3C58.5 18.1 58.2 17.1 57.5 16.3C56.8 15.6 55.7 14.9 54.1 14.4Z" fill="#E53935"/>
<path d="M1 24.3H4.8V17.6H11.7V14.2H4.8V10.8H12.4V7.39999H1V24.3Z" fill="#E53935"/>
<path d="M18.8996 7.39999H15.0996V24.3H25.6996V20.9H18.8996V7.39999Z" fill="#E53935"/>
<path d="M72.2004 13.7H64.7004V7.39999H60.9004V24.3H64.7004V17H72.2004V24.3H76.0004V7.39999H72.2004V13.7Z" fill="#E53935"/>
<path d="M126.066 7.39999H122.266V24.3H132.866V20.9H126.066V7.39999Z" fill="#E53935"/>
<path d="M109.566 7.39999L102.366 24.3H106.466L107.666 21.5H114.866L116.066 24.3H120.166L112.966 7.39999H109.566ZM108.766 18.5L111.266 12.4L113.766 18.5H108.766Z" fill="#E53935"/>
<path d="M138.966 17.3H146.466V14H138.966V10.8H146.966V7.39999H135.166V24.3H147V20.9H138.966V17.3Z" fill="#E53935"/>
<path d="M102.866 13.6C102.766 13.4 102.466 13.2 102.166 13.2H94.8657L98.2657 1.60001C98.3657 1.30001 98.1657 0.900005 97.8657 0.800005C97.5657 0.600005 97.1657 0.700005 96.9657 1.00001L83.1657 17.7C82.9657 17.9 82.9657 18.2 83.0657 18.4C83.1657 18.6 83.4657 18.8 83.7657 18.8H91.3657L87.7657 30.4C87.6657 30.7 87.7657 31.1 88.1657 31.2C88.2657 31.3 88.3657 31.3 88.4657 31.3C88.6657 31.3 88.8657 31.2 89.0657 31L102.866 14.3C102.966 14.1 102.966 13.8 102.866 13.6Z" fill="#E53935"/>
</svg>
